M48
; DRILL file {KiCad 8.0.5} date 2024-10-02T22:56:30+0200
; FORMAT={-:-/ absolute / metric / decimal}
; #@! TF.CreationDate,2024-10-02T22:56:30+02:00
; #@! TF.GenerationSoftware,Kicad,Pcbnew,8.0.5
; #@! TF.FileFunction,MixedPlating,1,2
FMAT,2
METRIC
; #@! TA.AperFunction,Plated,PTH,ViaDrill
T1C0.400
; #@! TA.AperFunction,Plated,PTH,ComponentDrill
T2C0.762
; #@! TA.AperFunction,Plated,PTH,ComponentDrill
T3C0.800
; #@! TA.AperFunction,Plated,PTH,ComponentDrill
T4C1.000
; #@! TA.AperFunction,Plated,PTH,ComponentDrill
T5C1.300
; #@! TA.AperFunction,Plated,PTH,ComponentDrill
T6C3.000
; #@! TA.AperFunction,NonPlated,NPTH,ComponentDrill
T7C2.000
%
G90
G05
T1
X14.9Y19.56
X18.9Y40.2
T2
X21.77Y43.4
X21.77Y28.16
X24.31Y43.4
X24.31Y28.16
X26.85Y43.4
X26.85Y28.16
X29.39Y43.4
X29.39Y28.16
X31.93Y43.4
X31.93Y28.16
X34.47Y43.4
X34.47Y28.16
T3
X13.66Y17.08
X13.66Y9.46
X16.2Y17.08
X16.2Y9.46
X18.74Y17.08
X18.74Y9.46
X21.28Y17.08
X21.28Y9.46
X23.82Y17.08
X23.82Y9.46
X26.36Y17.08
X26.36Y9.46
X28.9Y17.08
X28.9Y9.46
X31.44Y17.08
X31.44Y9.46
X45.4Y35.9
X45.4Y15.45
T4
X3.4Y23.4
X5.4Y16.9
X5.4Y13.9
X5.4Y10.9
X7.4Y23.4
X10.2Y10.9
X12.4Y20.4
X18.3Y20.7
X38.354Y24.384
X53.4Y23.0
T5
X42.9Y20.066
X42.9Y7.566
X47.9Y20.066
X47.9Y7.566
T6
X3.0Y45.3
X3.0Y2.8
X19.342Y30.482
X55.0Y45.3
X55.0Y2.8
T7
X5.4Y19.75
X5.4Y8.05
M30
