<?xml version="1.0" standalone="no"?>
 <!DOCTYPE svg PUBLIC "-//W3C//DTD SVG 1.1//EN" 
 "http://www.w3.org/Graphics/SVG/1.1/DTD/svg11.dtd"> 
<svg
  xmlns:svg="http://www.w3.org/2000/svg"
  xmlns="http://www.w3.org/2000/svg"
  xmlns:xlink="http://www.w3.org/1999/xlink"
  version="1.1"
  width="297.0022mm" height="210.0072mm" viewBox="0.0000 0.0000 297.0022 210.0072">
<title>SVG Image created as reactionGameBoard-B_Cu.svg date 2024/03/11 16:49:35 </title>
  <desc>Image generated by PCBNEW </desc>
<g style="fill:#000000; fill-opacity:1.0000;stroke:#000000; stroke-opacity:1.0000;
stroke-linecap:round; stroke-linejoin:round;"
 transform="translate(0 0) scale(1 1)">
</g>
<g style="fill:#000000; fill-opacity:0.0; 
stroke:#000000; stroke-width:0.0000; stroke-opacity:1; 
stroke-linecap:round; stroke-linejoin:round;">
</g>
<g style="fill:#000000; fill-opacity:1.0000; 
stroke:#000000; stroke-width:0.2000; stroke-opacity:1; 
stroke-linecap:round; stroke-linejoin:round;">
<path style="fill:#000000; fill-opacity:1.0000; 
stroke:#000000; stroke-width:0.2000; stroke-opacity:1; 
stroke-linecap:round; stroke-linejoin:round;fill-rule:evenodd;"
d="M 31.5000,50.6000
33.4000,50.6000
33.4000,52.6000
31.5000,52.6000
Z" /> 
<g >
</g>
<g style="fill:#000000; fill-opacity:1.0000; 
stroke:#000000; stroke-width:0.0000; stroke-opacity:1; 
stroke-linecap:round; stroke-linejoin:round;">
<path style="fill:#000000; fill-opacity:1.0000; 
stroke:#000000; stroke-width:0.0000; stroke-opacity:1; 
stroke-linecap:round; stroke-linejoin:round;fill-rule:evenodd;"
d="M 31.1500,44.5000
33.6500,44.5000
33.6500,47.0000
31.1500,47.0000
Z" /> 
<path style="fill:#000000; fill-opacity:1.0000; 
stroke:#000000; stroke-width:0.0000; stroke-opacity:1; 
stroke-linecap:round; stroke-linejoin:round;fill-rule:evenodd;"
d="M 31.1500,56.2000
33.6500,56.2000
33.6500,58.7000
31.1500,58.7000
Z" /> 
<circle cx="32.4000" cy="54.6000" r="0.8000" /> 
</g>
<g style="fill:#000000; fill-opacity:1.0000; 
stroke:#000000; stroke-width:0.0212; stroke-opacity:1; 
stroke-linecap:round; stroke-linejoin:round;">
</g>
<g style="fill:#000000; fill-opacity:1.0000; 
stroke:#000000; stroke-width:0.0000; stroke-opacity:1; 
stroke-linecap:round; stroke-linejoin:round;">
<circle cx="32.4000" cy="51.6000" r="0.8000" /> 
</g>
<g style="fill:#000000; fill-opacity:1.0000; 
stroke:#000000; stroke-width:0.0212; stroke-opacity:1; 
stroke-linecap:round; stroke-linejoin:round;">
</g>
<g style="fill:#000000; fill-opacity:1.0000; 
stroke:#000000; stroke-width:0.0000; stroke-opacity:1; 
stroke-linecap:round; stroke-linejoin:round;">
<circle cx="32.4000" cy="48.6000" r="0.8000" /> 
</g>
<g style="fill:#000000; fill-opacity:1.0000; 
stroke:#000000; stroke-width:0.0212; stroke-opacity:1; 
stroke-linecap:round; stroke-linejoin:round;">
</g>
<g >
</g>
<g style="fill:#000000; fill-opacity:1.0000; 
stroke:#000000; stroke-width:0.0212; stroke-opacity:1; 
stroke-linecap:round; stroke-linejoin:round;">
</g>
<g style="fill:#000000; fill-opacity:1.0000; 
stroke:#000000; stroke-width:0.0000; stroke-opacity:1; 
stroke-linecap:round; stroke-linejoin:round;">
<circle cx="49.3000" cy="41.5000" r="0.7620" /> 
</g>
<g style="fill:#000000; fill-opacity:1.0000; 
stroke:#000000; stroke-width:0.0212; stroke-opacity:1; 
stroke-linecap:round; stroke-linejoin:round;">
</g>
<g style="fill:#000000; fill-opacity:1.0000; 
stroke:#000000; stroke-width:0.0000; stroke-opacity:1; 
stroke-linecap:round; stroke-linejoin:round;">
<circle cx="51.8400" cy="41.5000" r="0.7620" /> 
</g>
<g style="fill:#000000; fill-opacity:1.0000; 
stroke:#000000; stroke-width:0.0212; stroke-opacity:1; 
stroke-linecap:round; stroke-linejoin:round;">
</g>
<g style="fill:#000000; fill-opacity:1.0000; 
stroke:#000000; stroke-width:0.0000; stroke-opacity:1; 
stroke-linecap:round; stroke-linejoin:round;">
<circle cx="54.3800" cy="41.5000" r="0.7620" /> 
</g>
<g style="fill:#000000; fill-opacity:1.0000; 
stroke:#000000; stroke-width:0.0212; stroke-opacity:1; 
stroke-linecap:round; stroke-linejoin:round;">
</g>
<g style="fill:#000000; fill-opacity:1.0000; 
stroke:#000000; stroke-width:0.0000; stroke-opacity:1; 
stroke-linecap:round; stroke-linejoin:round;">
<circle cx="56.9200" cy="41.5000" r="0.7620" /> 
</g>
<g style="fill:#000000; fill-opacity:1.0000; 
stroke:#000000; stroke-width:0.0212; stroke-opacity:1; 
stroke-linecap:round; stroke-linejoin:round;">
</g>
<g style="fill:#000000; fill-opacity:1.0000; 
stroke:#000000; stroke-width:0.0000; stroke-opacity:1; 
stroke-linecap:round; stroke-linejoin:round;">
<circle cx="59.4600" cy="41.5000" r="0.7620" /> 
</g>
<g style="fill:#000000; fill-opacity:1.0000; 
stroke:#000000; stroke-width:0.0212; stroke-opacity:1; 
stroke-linecap:round; stroke-linejoin:round;">
</g>
<g style="fill:#000000; fill-opacity:1.0000; 
stroke:#000000; stroke-width:0.0000; stroke-opacity:1; 
stroke-linecap:round; stroke-linejoin:round;">
<circle cx="62.0000" cy="41.5000" r="0.7620" /> 
</g>
<g style="fill:#000000; fill-opacity:1.0000; 
stroke:#000000; stroke-width:0.0212; stroke-opacity:1; 
stroke-linecap:round; stroke-linejoin:round;">
</g>
<g style="fill:#000000; fill-opacity:1.0000; 
stroke:#000000; stroke-width:0.0000; stroke-opacity:1; 
stroke-linecap:round; stroke-linejoin:round;">
<circle cx="62.0000" cy="26.2600" r="0.7620" /> 
</g>
<g style="fill:#000000; fill-opacity:1.0000; 
stroke:#000000; stroke-width:0.0212; stroke-opacity:1; 
stroke-linecap:round; stroke-linejoin:round;">
</g>
<g style="fill:#000000; fill-opacity:1.0000; 
stroke:#000000; stroke-width:0.0000; stroke-opacity:1; 
stroke-linecap:round; stroke-linejoin:round;">
<circle cx="59.4600" cy="26.2600" r="0.7620" /> 
</g>
<g style="fill:#000000; fill-opacity:1.0000; 
stroke:#000000; stroke-width:0.0212; stroke-opacity:1; 
stroke-linecap:round; stroke-linejoin:round;">
</g>
<g style="fill:#000000; fill-opacity:1.0000; 
stroke:#000000; stroke-width:0.0000; stroke-opacity:1; 
stroke-linecap:round; stroke-linejoin:round;">
<circle cx="56.9200" cy="26.2600" r="0.7620" /> 
</g>
<g style="fill:#000000; fill-opacity:1.0000; 
stroke:#000000; stroke-width:0.0212; stroke-opacity:1; 
stroke-linecap:round; stroke-linejoin:round;">
</g>
<g style="fill:#000000; fill-opacity:1.0000; 
stroke:#000000; stroke-width:0.0000; stroke-opacity:1; 
stroke-linecap:round; stroke-linejoin:round;">
<circle cx="54.3800" cy="26.2600" r="0.7620" /> 
</g>
<g style="fill:#000000; fill-opacity:1.0000; 
stroke:#000000; stroke-width:0.0212; stroke-opacity:1; 
stroke-linecap:round; stroke-linejoin:round;">
</g>
<g style="fill:#000000; fill-opacity:1.0000; 
stroke:#000000; stroke-width:0.0000; stroke-opacity:1; 
stroke-linecap:round; stroke-linejoin:round;">
<circle cx="51.8400" cy="26.2600" r="0.7620" /> 
</g>
<g style="fill:#000000; fill-opacity:1.0000; 
stroke:#000000; stroke-width:0.0212; stroke-opacity:1; 
stroke-linecap:round; stroke-linejoin:round;">
</g>
<g style="fill:#000000; fill-opacity:1.0000; 
stroke:#000000; stroke-width:0.0000; stroke-opacity:1; 
stroke-linecap:round; stroke-linejoin:round;">
<circle cx="49.3000" cy="26.2600" r="0.7620" /> 
</g>
<g style="fill:#000000; fill-opacity:1.0000; 
stroke:#000000; stroke-width:0.0212; stroke-opacity:1; 
stroke-linecap:round; stroke-linejoin:round;">
</g>
<g >
</g>
<g >
</g>
<g >
</g>
<g style="fill:#000000; fill-opacity:1.0000; 
stroke:#000000; stroke-width:0.0212; stroke-opacity:1; 
stroke-linecap:round; stroke-linejoin:round;">
</g>
<g style="fill:#000000; fill-opacity:1.0000; 
stroke:#000000; stroke-width:0.0000; stroke-opacity:1; 
stroke-linecap:round; stroke-linejoin:round;">
<path style="fill:#000000; fill-opacity:1.0000; 
stroke:#000000; stroke-width:0.0000; stroke-opacity:1; 
stroke-linecap:round; stroke-linejoin:round;fill-rule:evenodd;"
d="M 73.4500,46.0500
73.4500,44.3500
75.1500,44.3500
75.1500,46.0500
Z" /> 
</g>
<g >
</g>
<g >
</g>
<g style="fill:#000000; fill-opacity:1.0000; 
stroke:#000000; stroke-width:0.0000; stroke-opacity:1; 
stroke-linecap:round; stroke-linejoin:round;">
<path style="fill:#000000; fill-opacity:1.0000; 
stroke:#000000; stroke-width:0.0000; stroke-opacity:1; 
stroke-linecap:round; stroke-linejoin:round;fill-rule:evenodd;"
d="M 73.7500,57.6500
73.7500,55.9500
75.4500,55.9500
75.4500,57.6500
Z" /> 
</g>
<g >
</g>
<g style="fill:#000000; fill-opacity:1.0000; 
stroke:#000000; stroke-width:0.0000; stroke-opacity:1; 
stroke-linecap:round; stroke-linejoin:round;">
<path style="fill:#000000; fill-opacity:1.0000; 
stroke:#000000; stroke-width:0.0000; stroke-opacity:1; 
stroke-linecap:round; stroke-linejoin:round;fill-rule:evenodd;"
d="M 77.4500,57.6500
77.4500,55.9500
79.1500,55.9500
79.1500,57.6500
Z" /> 
</g>
<g >
</g>
<g >
</g>
<g style="fill:#000000; fill-opacity:1.0000; 
stroke:#000000; stroke-width:0.0000; stroke-opacity:1; 
stroke-linecap:round; stroke-linejoin:round;">
<path style="fill:#000000; fill-opacity:1.0000; 
stroke:#000000; stroke-width:0.0000; stroke-opacity:1; 
stroke-linecap:round; stroke-linejoin:round;fill-rule:evenodd;"
d="M 70.3750,48.6000
71.9750,48.6000
71.9750,50.2000
70.3750,50.2000
Z" /> 
<circle cx="68.6350" cy="49.4000" r="0.8000" /> 
<circle cx="66.0950" cy="49.4000" r="0.8000" /> 
<circle cx="63.5550" cy="49.4000" r="0.8000" /> 
<circle cx="61.0150" cy="49.4000" r="0.8000" /> 
<circle cx="58.4750" cy="49.4000" r="0.8000" /> 
<circle cx="55.9350" cy="49.4000" r="0.8000" /> 
<circle cx="53.3950" cy="49.4000" r="0.8000" /> 
<circle cx="53.3950" cy="57.0200" r="0.8000" /> 
<circle cx="55.9350" cy="57.0200" r="0.8000" /> 
<circle cx="58.4750" cy="57.0200" r="0.8000" /> 
<circle cx="61.0150" cy="57.0200" r="0.8000" /> 
<circle cx="63.5550" cy="57.0200" r="0.8000" /> 
<circle cx="66.0950" cy="57.0200" r="0.8000" /> 
<circle cx="68.6350" cy="57.0200" r="0.8000" /> 
<circle cx="71.1750" cy="57.0200" r="0.8000" /> 
</g>
<g >
</g>
<g style="fill:#000000; fill-opacity:1.0000; 
stroke:#000000; stroke-width:0.0000; stroke-opacity:1; 
stroke-linecap:round; stroke-linejoin:round;">
<path style="fill:#000000; fill-opacity:1.0000; 
stroke:#000000; stroke-width:0.0000; stroke-opacity:1; 
stroke-linecap:round; stroke-linejoin:round;fill-rule:evenodd;"
d="M 79.3500,53.2500
79.3500,51.5500
81.0500,51.5500
81.0500,53.2500
Z" /> 
</g>
<g >
</g>
<g style="fill:#000000; fill-opacity:1.0000; 
stroke:#000000; stroke-width:0.0000; stroke-opacity:1; 
stroke-linecap:round; stroke-linejoin:round;">
<path style="fill:#000000; fill-opacity:1.0000; 
stroke:#000000; stroke-width:0.0000; stroke-opacity:1; 
stroke-linecap:round; stroke-linejoin:round;fill-rule:evenodd;"
d="M 79.5500,46.1500
79.5500,44.4500
81.2500,44.4500
81.2500,46.1500
Z" /> 
</g>
<g >
</g>
<g style="fill:#000000; fill-opacity:1.0000; 
stroke:#000000; stroke-width:0.0000; stroke-opacity:1; 
stroke-linecap:round; stroke-linejoin:round;">
<path style="fill:#000000; fill-opacity:1.0000; 
stroke:#000000; stroke-width:0.0000; stroke-opacity:1; 
stroke-linecap:round; stroke-linejoin:round;fill-rule:evenodd;"
d="M 38.8500,46.1500
38.8500,44.4500
40.5500,44.4500
40.5500,46.1500
Z" /> 
</g>
<g >
</g>
<g style="fill:#000000; fill-opacity:1.0000; 
stroke:#000000; stroke-width:0.0000; stroke-opacity:1; 
stroke-linecap:round; stroke-linejoin:round;">
<path style="fill:#000000; fill-opacity:1.0000; 
stroke:#000000; stroke-width:0.0000; stroke-opacity:1; 
stroke-linecap:round; stroke-linejoin:round;fill-rule:evenodd;"
d="M 73.7500,53.1500
73.7500,51.4500
75.4500,51.4500
75.4500,53.1500
Z" /> 
</g>
<g >
</g>
<g style="fill:#000000; fill-opacity:1.0000; 
stroke:#000000; stroke-width:0.0000; stroke-opacity:1; 
stroke-linecap:round; stroke-linejoin:round;">
</g>
<g style="fill:#000000; fill-opacity:1.0000; 
stroke:#000000; stroke-width:1.8500; stroke-opacity:1; 
stroke-linecap:round; stroke-linejoin:round;">
</g>
<g style="fill:#000000; fill-opacity:0.0; 
stroke:#000000; stroke-width:1.8500; stroke-opacity:1; 
stroke-linecap:round; stroke-linejoin:round;">
<path d="M36.7010 51.0000
L37.8990 51.0000
" />
<path d="M49.2010 51.0000
L50.3990 51.0000
" />
<path d="M36.7010 56.0000
L37.8990 56.0000
" />
<path d="M49.2010 56.0000
L50.3990 56.0000
" />
</g>
<g >
</g>
<g style="fill:#000000; fill-opacity:0.0; 
stroke:#000000; stroke-width:1.8500; stroke-opacity:1; 
stroke-linecap:round; stroke-linejoin:round;">
</g>
<g style="fill:#000000; fill-opacity:0.0; 
stroke:#000000; stroke-width:0.0000; stroke-opacity:1; 
stroke-linecap:round; stroke-linejoin:round;">
</g>
<g style="fill:#000000; fill-opacity:1.0000; 
stroke:#000000; stroke-width:0.0000; stroke-opacity:1; 
stroke-linecap:round; stroke-linejoin:round;">
<path style="fill:#000000; fill-opacity:1.0000; 
stroke:#000000; stroke-width:0.0000; stroke-opacity:1; 
stroke-linecap:round; stroke-linejoin:round;fill-rule:evenodd;"
d="M 46.2750,28.9750
46.2940,28.8793
46.3482,28.7982
46.4293,28.7440
46.5250,28.7250
47.1500,28.7250
47.2457,28.7440
47.3268,28.7982
47.3810,28.8793
47.4000,28.9750
47.4000,30.2250
47.3810,30.3207
47.3268,30.4018
47.2457,30.4560
47.1500,30.4750
46.5250,30.4750
46.4293,30.4560
46.3482,30.4018
46.2940,30.3207
46.2750,30.2250
Z" /> 
<path style="fill:#000000; fill-opacity:1.0000; 
stroke:#000000; stroke-width:0.0000; stroke-opacity:1; 
stroke-linecap:round; stroke-linejoin:round;fill-rule:evenodd;"
d="M 49.2000,28.9750
49.2190,28.8793
49.2732,28.7982
49.3543,28.7440
49.4500,28.7250
50.0750,28.7250
50.1707,28.7440
50.2518,28.7982
50.3060,28.8793
50.3250,28.9750
50.3250,30.2250
50.3060,30.3207
50.2518,30.4018
50.1707,30.4560
50.0750,30.4750
49.4500,30.4750
49.3543,30.4560
49.2732,30.4018
49.2190,30.3207
49.2000,30.2250
Z" /> 
</g>
<g >
</g>
<g style="fill:#000000; fill-opacity:1.0000; 
stroke:#000000; stroke-width:0.0000; stroke-opacity:1; 
stroke-linecap:round; stroke-linejoin:round;">
<circle cx="43.5400" cy="33.2000" r="0.7500" /> 
</g>
<g style="fill:#000000; fill-opacity:1.0000; 
stroke:#000000; stroke-width:0.0212; stroke-opacity:1; 
stroke-linecap:round; stroke-linejoin:round;">
</g>
<g style="fill:#000000; fill-opacity:1.0000; 
stroke:#000000; stroke-width:0.0000; stroke-opacity:1; 
stroke-linecap:round; stroke-linejoin:round;">
<circle cx="43.5400" cy="53.6500" r="0.7500" /> 
</g>
<g style="fill:#000000; fill-opacity:1.0000; 
stroke:#000000; stroke-width:0.0212; stroke-opacity:1; 
stroke-linecap:round; stroke-linejoin:round;">
</g>
<g >
</g>
<g style="fill:#000000; fill-opacity:1.0000; 
stroke:#000000; stroke-width:0.0212; stroke-opacity:1; 
stroke-linecap:round; stroke-linejoin:round;">
</g>
<g style="fill:#000000; fill-opacity:1.0000; 
stroke:#000000; stroke-width:0.0000; stroke-opacity:1; 
stroke-linecap:round; stroke-linejoin:round;">
<path style="fill:#000000; fill-opacity:1.0000; 
stroke:#000000; stroke-width:0.0000; stroke-opacity:1; 
stroke-linecap:round; stroke-linejoin:round;fill-rule:evenodd;"
d="M 67.8250,26.9250
67.8060,27.0207
67.7518,27.1018
67.6707,27.1560
67.5750,27.1750
66.9500,27.1750
66.8543,27.1560
66.7732,27.1018
66.7190,27.0207
66.7000,26.9250
66.7000,25.6750
66.7190,25.5793
66.7732,25.4982
66.8543,25.4440
66.9500,25.4250
67.5750,25.4250
67.6707,25.4440
67.7518,25.4982
67.8060,25.5793
67.8250,25.6750
Z" /> 
<path style="fill:#000000; fill-opacity:1.0000; 
stroke:#000000; stroke-width:0.0000; stroke-opacity:1; 
stroke-linecap:round; stroke-linejoin:round;fill-rule:evenodd;"
d="M 64.9000,26.9250
64.8810,27.0207
64.8268,27.1018
64.7457,27.1560
64.6500,27.1750
64.0250,27.1750
63.9293,27.1560
63.8482,27.1018
63.7940,27.0207
63.7750,26.9250
63.7750,25.6750
63.7940,25.5793
63.8482,25.4982
63.9293,25.4440
64.0250,25.4250
64.6500,25.4250
64.7457,25.4440
64.8268,25.4982
64.8810,25.5793
64.9000,25.6750
Z" /> 
</g>
<g >
</g>
<g style="fill:#000000; fill-opacity:1.0000; 
stroke:#000000; stroke-width:0.0000; stroke-opacity:1; 
stroke-linecap:round; stroke-linejoin:round;">
<path style="fill:#000000; fill-opacity:1.0000; 
stroke:#000000; stroke-width:0.0000; stroke-opacity:1; 
stroke-linecap:round; stroke-linejoin:round;fill-rule:evenodd;"
d="M 55.0250,35.4375
55.1207,35.4565
55.2018,35.5107
55.2560,35.5918
55.2750,35.6875
55.2750,36.3125
55.2560,36.4082
55.2018,36.4893
55.1207,36.5435
55.0250,36.5625
53.7750,36.5625
53.6793,36.5435
53.5982,36.4893
53.5440,36.4082
53.5250,36.3125
53.5250,35.6875
53.5440,35.5918
53.5982,35.5107
53.6793,35.4565
53.7750,35.4375
Z" /> 
<path style="fill:#000000; fill-opacity:1.0000; 
stroke:#000000; stroke-width:0.0000; stroke-opacity:1; 
stroke-linecap:round; stroke-linejoin:round;fill-rule:evenodd;"
d="M 55.0250,38.3625
55.1207,38.3815
55.2018,38.4357
55.2560,38.5168
55.2750,38.6125
55.2750,39.2375
55.2560,39.3332
55.2018,39.4143
55.1207,39.4685
55.0250,39.4875
53.7750,39.4875
53.6793,39.4685
53.5982,39.4143
53.5440,39.3332
53.5250,39.2375
53.5250,38.6125
53.5440,38.5168
53.5982,38.4357
53.6793,38.3815
53.7750,38.3625
Z" /> 
</g>
<g >
</g>
<g style="fill:#000000; fill-opacity:1.0000; 
stroke:#000000; stroke-width:0.0000; stroke-opacity:1; 
stroke-linecap:round; stroke-linejoin:round;">
<path style="fill:#000000; fill-opacity:1.0000; 
stroke:#000000; stroke-width:0.0000; stroke-opacity:1; 
stroke-linecap:round; stroke-linejoin:round;fill-rule:evenodd;"
d="M 64.0625,37.4250
64.0435,37.5207
63.9893,37.6018
63.9082,37.6560
63.8125,37.6750
63.1875,37.6750
63.0918,37.6560
63.0107,37.6018
62.9565,37.5207
62.9375,37.4250
62.9375,36.1750
62.9565,36.0793
63.0107,35.9982
63.0918,35.9440
63.1875,35.9250
63.8125,35.9250
63.9082,35.9440
63.9893,35.9982
64.0435,36.0793
64.0625,36.1750
Z" /> 
<path style="fill:#000000; fill-opacity:1.0000; 
stroke:#000000; stroke-width:0.0000; stroke-opacity:1; 
stroke-linecap:round; stroke-linejoin:round;fill-rule:evenodd;"
d="M 61.1375,37.4250
61.1185,37.5207
61.0643,37.6018
60.9832,37.6560
60.8875,37.6750
60.2625,37.6750
60.1668,37.6560
60.0857,37.6018
60.0315,37.5207
60.0125,37.4250
60.0125,36.1750
60.0315,36.0793
60.0857,35.9982
60.1668,35.9440
60.2625,35.9250
60.8875,35.9250
60.9832,35.9440
61.0643,35.9982
61.1185,36.0793
61.1375,36.1750
Z" /> 
</g>
<g >
</g>
<g style="fill:#000000; fill-opacity:1.0000; 
stroke:#000000; stroke-width:0.0000; stroke-opacity:1; 
stroke-linecap:round; stroke-linejoin:round;">
<path style="fill:#000000; fill-opacity:1.0000; 
stroke:#000000; stroke-width:0.0000; stroke-opacity:1; 
stroke-linecap:round; stroke-linejoin:round;fill-rule:evenodd;"
d="M 65.4250,45.3250
65.4060,45.4207
65.3518,45.5018
65.2707,45.5560
65.1750,45.5750
64.5500,45.5750
64.4543,45.5560
64.3732,45.5018
64.3190,45.4207
64.3000,45.3250
64.3000,44.0750
64.3190,43.9793
64.3732,43.8982
64.4543,43.8440
64.5500,43.8250
65.1750,43.8250
65.2707,43.8440
65.3518,43.8982
65.4060,43.9793
65.4250,44.0750
Z" /> 
<path style="fill:#000000; fill-opacity:1.0000; 
stroke:#000000; stroke-width:0.0000; stroke-opacity:1; 
stroke-linecap:round; stroke-linejoin:round;fill-rule:evenodd;"
d="M 62.5000,45.3250
62.4810,45.4207
62.4268,45.5018
62.3457,45.5560
62.2500,45.5750
61.6250,45.5750
61.5293,45.5560
61.4482,45.5018
61.3940,45.4207
61.3750,45.3250
61.3750,44.0750
61.3940,43.9793
61.4482,43.8982
61.5293,43.8440
61.6250,43.8250
62.2500,43.8250
62.3457,43.8440
62.4268,43.8982
62.4810,43.9793
62.5000,44.0750
Z" /> 
</g>
<g >
</g>
<g style="fill:#000000; fill-opacity:1.0000; 
stroke:#000000; stroke-width:0.0000; stroke-opacity:1; 
stroke-linecap:round; stroke-linejoin:round;">
<path style="fill:#000000; fill-opacity:1.0000; 
stroke:#000000; stroke-width:0.0000; stroke-opacity:1; 
stroke-linecap:round; stroke-linejoin:round;fill-rule:evenodd;"
d="M 76.7200,30.2200
76.7086,30.2774
76.6761,30.3261
76.6274,30.3586
76.5700,30.3700
74.9200,30.3700
74.8626,30.3586
74.8139,30.3261
74.7814,30.2774
74.7700,30.2200
74.7700,29.9200
74.7814,29.8626
74.8139,29.8139
74.8626,29.7814
74.9200,29.7700
76.5700,29.7700
76.6274,29.7814
76.6761,29.8139
76.7086,29.8626
76.7200,29.9200
Z" /> 
<path style="fill:#000000; fill-opacity:1.0000; 
stroke:#000000; stroke-width:0.0000; stroke-opacity:1; 
stroke-linecap:round; stroke-linejoin:round;fill-rule:evenodd;"
d="M 76.7200,31.4900
76.7086,31.5474
76.6761,31.5961
76.6274,31.6286
76.5700,31.6400
74.9200,31.6400
74.8626,31.6286
74.8139,31.5961
74.7814,31.5474
74.7700,31.4900
74.7700,31.1900
74.7814,31.1326
74.8139,31.0839
74.8626,31.0514
74.9200,31.0400
76.5700,31.0400
76.6274,31.0514
76.6761,31.0839
76.7086,31.1326
76.7200,31.1900
Z" /> 
<path style="fill:#000000; fill-opacity:1.0000; 
stroke:#000000; stroke-width:0.0000; stroke-opacity:1; 
stroke-linecap:round; stroke-linejoin:round;fill-rule:evenodd;"
d="M 76.7200,32.7600
76.7086,32.8174
76.6761,32.8661
76.6274,32.8986
76.5700,32.9100
74.9200,32.9100
74.8626,32.8986
74.8139,32.8661
74.7814,32.8174
74.7700,32.7600
74.7700,32.4600
74.7814,32.4026
74.8139,32.3539
74.8626,32.3214
74.9200,32.3100
76.5700,32.3100
76.6274,32.3214
76.6761,32.3539
76.7086,32.4026
76.7200,32.4600
Z" /> 
<path style="fill:#000000; fill-opacity:1.0000; 
stroke:#000000; stroke-width:0.0000; stroke-opacity:1; 
stroke-linecap:round; stroke-linejoin:round;fill-rule:evenodd;"
d="M 76.7200,34.0300
76.7086,34.0874
76.6761,34.1361
76.6274,34.1686
76.5700,34.1800
74.9200,34.1800
74.8626,34.1686
74.8139,34.1361
74.7814,34.0874
74.7700,34.0300
74.7700,33.7300
74.7814,33.6726
74.8139,33.6239
74.8626,33.5914
74.9200,33.5800
76.5700,33.5800
76.6274,33.5914
76.6761,33.6239
76.7086,33.6726
76.7200,33.7300
Z" /> 
<path style="fill:#000000; fill-opacity:1.0000; 
stroke:#000000; stroke-width:0.0000; stroke-opacity:1; 
stroke-linecap:round; stroke-linejoin:round;fill-rule:evenodd;"
d="M 76.7200,35.3000
76.7086,35.3574
76.6761,35.4061
76.6274,35.4386
76.5700,35.4500
74.9200,35.4500
74.8626,35.4386
74.8139,35.4061
74.7814,35.3574
74.7700,35.3000
74.7700,35.0000
74.7814,34.9426
74.8139,34.8939
74.8626,34.8614
74.9200,34.8500
76.5700,34.8500
76.6274,34.8614
76.6761,34.8939
76.7086,34.9426
76.7200,35.0000
Z" /> 
<path style="fill:#000000; fill-opacity:1.0000; 
stroke:#000000; stroke-width:0.0000; stroke-opacity:1; 
stroke-linecap:round; stroke-linejoin:round;fill-rule:evenodd;"
d="M 76.7200,36.5700
76.7086,36.6274
76.6761,36.6761
76.6274,36.7086
76.5700,36.7200
74.9200,36.7200
74.8626,36.7086
74.8139,36.6761
74.7814,36.6274
74.7700,36.5700
74.7700,36.2700
74.7814,36.2126
74.8139,36.1639
74.8626,36.1314
74.9200,36.1200
76.5700,36.1200
76.6274,36.1314
76.6761,36.1639
76.7086,36.2126
76.7200,36.2700
Z" /> 
<path style="fill:#000000; fill-opacity:1.0000; 
stroke:#000000; stroke-width:0.0000; stroke-opacity:1; 
stroke-linecap:round; stroke-linejoin:round;fill-rule:evenodd;"
d="M 76.7200,37.8400
76.7086,37.8974
76.6761,37.9461
76.6274,37.9786
76.5700,37.9900
74.9200,37.9900
74.8626,37.9786
74.8139,37.9461
74.7814,37.8974
74.7700,37.8400
74.7700,37.5400
74.7814,37.4826
74.8139,37.4339
74.8626,37.4014
74.9200,37.3900
76.5700,37.3900
76.6274,37.4014
76.6761,37.4339
76.7086,37.4826
76.7200,37.5400
Z" /> 
<path style="fill:#000000; fill-opacity:1.0000; 
stroke:#000000; stroke-width:0.0000; stroke-opacity:1; 
stroke-linecap:round; stroke-linejoin:round;fill-rule:evenodd;"
d="M 71.7700,37.8400
71.7586,37.8974
71.7261,37.9461
71.6774,37.9786
71.6200,37.9900
69.9700,37.9900
69.9126,37.9786
69.8639,37.9461
69.8314,37.8974
69.8200,37.8400
69.8200,37.5400
69.8314,37.4826
69.8639,37.4339
69.9126,37.4014
69.9700,37.3900
71.6200,37.3900
71.6774,37.4014
71.7261,37.4339
71.7586,37.4826
71.7700,37.5400
Z" /> 
<path style="fill:#000000; fill-opacity:1.0000; 
stroke:#000000; stroke-width:0.0000; stroke-opacity:1; 
stroke-linecap:round; stroke-linejoin:round;fill-rule:evenodd;"
d="M 71.7700,36.5700
71.7586,36.6274
71.7261,36.6761
71.6774,36.7086
71.6200,36.7200
69.9700,36.7200
69.9126,36.7086
69.8639,36.6761
69.8314,36.6274
69.8200,36.5700
69.8200,36.2700
69.8314,36.2126
69.8639,36.1639
69.9126,36.1314
69.9700,36.1200
71.6200,36.1200
71.6774,36.1314
71.7261,36.1639
71.7586,36.2126
71.7700,36.2700
Z" /> 
<path style="fill:#000000; fill-opacity:1.0000; 
stroke:#000000; stroke-width:0.0000; stroke-opacity:1; 
stroke-linecap:round; stroke-linejoin:round;fill-rule:evenodd;"
d="M 71.7700,35.3000
71.7586,35.3574
71.7261,35.4061
71.6774,35.4386
71.6200,35.4500
69.9700,35.4500
69.9126,35.4386
69.8639,35.4061
69.8314,35.3574
69.8200,35.3000
69.8200,35.0000
69.8314,34.9426
69.8639,34.8939
69.9126,34.8614
69.9700,34.8500
71.6200,34.8500
71.6774,34.8614
71.7261,34.8939
71.7586,34.9426
71.7700,35.0000
Z" /> 
<path style="fill:#000000; fill-opacity:1.0000; 
stroke:#000000; stroke-width:0.0000; stroke-opacity:1; 
stroke-linecap:round; stroke-linejoin:round;fill-rule:evenodd;"
d="M 71.7700,34.0300
71.7586,34.0874
71.7261,34.1361
71.6774,34.1686
71.6200,34.1800
69.9700,34.1800
69.9126,34.1686
69.8639,34.1361
69.8314,34.0874
69.8200,34.0300
69.8200,33.7300
69.8314,33.6726
69.8639,33.6239
69.9126,33.5914
69.9700,33.5800
71.6200,33.5800
71.6774,33.5914
71.7261,33.6239
71.7586,33.6726
71.7700,33.7300
Z" /> 
<path style="fill:#000000; fill-opacity:1.0000; 
stroke:#000000; stroke-width:0.0000; stroke-opacity:1; 
stroke-linecap:round; stroke-linejoin:round;fill-rule:evenodd;"
d="M 71.7700,32.7600
71.7586,32.8174
71.7261,32.8661
71.6774,32.8986
71.6200,32.9100
69.9700,32.9100
69.9126,32.8986
69.8639,32.8661
69.8314,32.8174
69.8200,32.7600
69.8200,32.4600
69.8314,32.4026
69.8639,32.3539
69.9126,32.3214
69.9700,32.3100
71.6200,32.3100
71.6774,32.3214
71.7261,32.3539
71.7586,32.4026
71.7700,32.4600
Z" /> 
<path style="fill:#000000; fill-opacity:1.0000; 
stroke:#000000; stroke-width:0.0000; stroke-opacity:1; 
stroke-linecap:round; stroke-linejoin:round;fill-rule:evenodd;"
d="M 71.7700,31.4900
71.7586,31.5474
71.7261,31.5961
71.6774,31.6286
71.6200,31.6400
69.9700,31.6400
69.9126,31.6286
69.8639,31.5961
69.8314,31.5474
69.8200,31.4900
69.8200,31.1900
69.8314,31.1326
69.8639,31.0839
69.9126,31.0514
69.9700,31.0400
71.6200,31.0400
71.6774,31.0514
71.7261,31.0839
71.7586,31.1326
71.7700,31.1900
Z" /> 
<path style="fill:#000000; fill-opacity:1.0000; 
stroke:#000000; stroke-width:0.0000; stroke-opacity:1; 
stroke-linecap:round; stroke-linejoin:round;fill-rule:evenodd;"
d="M 71.7700,30.2200
71.7586,30.2774
71.7261,30.3261
71.6774,30.3586
71.6200,30.3700
69.9700,30.3700
69.9126,30.3586
69.8639,30.3261
69.8314,30.2774
69.8200,30.2200
69.8200,29.9200
69.8314,29.8626
69.8639,29.8139
69.9126,29.7814
69.9700,29.7700
71.6200,29.7700
71.6774,29.7814
71.7261,29.8139
71.7586,29.8626
71.7700,29.9200
Z" /> 
</g>
<g >
</g>
<g style="fill:#000000; fill-opacity:1.0000; 
stroke:#000000; stroke-width:0.0000; stroke-opacity:1; 
stroke-linecap:round; stroke-linejoin:round;">
<path style="fill:#000000; fill-opacity:1.0000; 
stroke:#000000; stroke-width:0.0000; stroke-opacity:1; 
stroke-linecap:round; stroke-linejoin:round;fill-rule:evenodd;"
d="M 64.0250,39.8250
64.0060,39.9207
63.9518,40.0018
63.8707,40.0560
63.7750,40.0750
63.1500,40.0750
63.0543,40.0560
62.9732,40.0018
62.9190,39.9207
62.9000,39.8250
62.9000,38.5750
62.9190,38.4793
62.9732,38.3982
63.0543,38.3440
63.1500,38.3250
63.7750,38.3250
63.8707,38.3440
63.9518,38.3982
64.0060,38.4793
64.0250,38.5750
Z" /> 
<path style="fill:#000000; fill-opacity:1.0000; 
stroke:#000000; stroke-width:0.0000; stroke-opacity:1; 
stroke-linecap:round; stroke-linejoin:round;fill-rule:evenodd;"
d="M 61.1000,39.8250
61.0810,39.9207
61.0268,40.0018
60.9457,40.0560
60.8500,40.0750
60.2250,40.0750
60.1293,40.0560
60.0482,40.0018
59.9940,39.9207
59.9750,39.8250
59.9750,38.5750
59.9940,38.4793
60.0482,38.3982
60.1293,38.3440
60.2250,38.3250
60.8500,38.3250
60.9457,38.3440
61.0268,38.3982
61.0810,38.4793
61.1000,38.5750
Z" /> 
</g>
<g >
</g>
<g style="fill:#000000; fill-opacity:1.0000; 
stroke:#000000; stroke-width:0.0000; stroke-opacity:1; 
stroke-linecap:round; stroke-linejoin:round;">
<path style="fill:#000000; fill-opacity:1.0000; 
stroke:#000000; stroke-width:0.0000; stroke-opacity:1; 
stroke-linecap:round; stroke-linejoin:round;fill-rule:evenodd;"
d="M 49.1750,31.8750
49.1940,31.7793
49.2482,31.6982
49.3293,31.6440
49.4250,31.6250
50.0500,31.6250
50.1457,31.6440
50.2268,31.6982
50.2810,31.7793
50.3000,31.8750
50.3000,33.1250
50.2810,33.2207
50.2268,33.3018
50.1457,33.3560
50.0500,33.3750
49.4250,33.3750
49.3293,33.3560
49.2482,33.3018
49.1940,33.2207
49.1750,33.1250
Z" /> 
<path style="fill:#000000; fill-opacity:1.0000; 
stroke:#000000; stroke-width:0.0000; stroke-opacity:1; 
stroke-linecap:round; stroke-linejoin:round;fill-rule:evenodd;"
d="M 52.1000,31.8750
52.1190,31.7793
52.1732,31.6982
52.2543,31.6440
52.3500,31.6250
52.9750,31.6250
53.0707,31.6440
53.1518,31.6982
53.2060,31.7793
53.2250,31.8750
53.2250,33.1250
53.2060,33.2207
53.1518,33.3018
53.0707,33.3560
52.9750,33.3750
52.3500,33.3750
52.2543,33.3560
52.1732,33.3018
52.1190,33.2207
52.1000,33.1250
Z" /> 
</g>
<g >
</g>
<g style="fill:#000000; fill-opacity:1.0000; 
stroke:#000000; stroke-width:0.0000; stroke-opacity:1; 
stroke-linecap:round; stroke-linejoin:round;">
<path style="fill:#000000; fill-opacity:1.0000; 
stroke:#000000; stroke-width:0.0000; stroke-opacity:1; 
stroke-linecap:round; stroke-linejoin:round;fill-rule:evenodd;"
d="M 52.2250,35.4750
52.3207,35.4940
52.4018,35.5482
52.4560,35.6293
52.4750,35.7250
52.4750,36.3500
52.4560,36.4457
52.4018,36.5268
52.3207,36.5810
52.2250,36.6000
50.9750,36.6000
50.8793,36.5810
50.7982,36.5268
50.7440,36.4457
50.7250,36.3500
50.7250,35.7250
50.7440,35.6293
50.7982,35.5482
50.8793,35.4940
50.9750,35.4750
Z" /> 
<path style="fill:#000000; fill-opacity:1.0000; 
stroke:#000000; stroke-width:0.0000; stroke-opacity:1; 
stroke-linecap:round; stroke-linejoin:round;fill-rule:evenodd;"
d="M 52.2250,38.4000
52.3207,38.4190
52.4018,38.4732
52.4560,38.5543
52.4750,38.6500
52.4750,39.2750
52.4560,39.3707
52.4018,39.4518
52.3207,39.5060
52.2250,39.5250
50.9750,39.5250
50.8793,39.5060
50.7982,39.4518
50.7440,39.3707
50.7250,39.2750
50.7250,38.6500
50.7440,38.5543
50.7982,38.4732
50.8793,38.4190
50.9750,38.4000
Z" /> 
</g>
<g >
</g>
<g >
</g>
<g style="fill:#000000; fill-opacity:1.0000; 
stroke:#000000; stroke-width:0.0000; stroke-opacity:1; 
stroke-linecap:round; stroke-linejoin:round;">
</g>
<g style="fill:#000000; fill-opacity:1.0000; 
stroke:#000000; stroke-width:0.5000; stroke-opacity:1; 
stroke-linecap:round; stroke-linejoin:round;">
</g>
<g style="fill:#000000; fill-opacity:0.0; 
stroke:#000000; stroke-width:0.5000; stroke-opacity:1; 
stroke-linecap:round; stroke-linejoin:round;">
<path d="M49.2375 41.5625
L49.3000 41.5000
" />
<path d="M51.6000 38.9625
L51.6000 39.2000
" />
<path d="M51.6000 39.2000
L49.3000 41.5000
" />
<path d="M51.8400 41.2850
L51.8400 41.5000
" />
<path d="M54.4000 38.9250
L54.2000 38.9250
" />
<path d="M54.2000 38.9250
L51.8400 41.2850
" />
<path d="M62.0375 45.1000
L60.0375 43.1000
" />
<path d="M60.0375 43.1000
L55.9800 43.1000
" />
<path d="M55.9800 43.1000
L54.3800 41.5000
" />
<path d="M56.9200 38.7800
L56.9200 41.5000
" />
<path d="M58.9000 36.8000
L56.9200 38.7800
" />
<path d="M60.5750 36.8000
L58.9000 36.8000
" />
<path d="M60.5375 40.4225
L59.4600 41.5000
" />
<path d="M60.5375 38.9000
L60.5375 40.4225
" />
<path d="M62.0000 41.5000
L62.0000 35.6000
" />
<path d="M70.7750 33.9000
L70.7950 33.8800
" />
<path d="M63.7000 33.9000
L70.7750 33.9000
" />
<path d="M62.0000 35.6000
L63.7000 33.9000
" />
<path d="M64.3375 26.3000
L62.0400 26.3000
" />
<path d="M62.0400 26.3000
L62.0000 26.2600
" />
<path d="M75.7450 35.1500
L74.3500 35.1500
" />
<path d="M61.3200 24.4000
L59.4600 26.2600
" />
<path d="M74.3500 35.1500
L73.3000 34.1000
" />
<path d="M73.3000 28.8000
L68.9000 24.4000
" />
<path d="M68.9000 24.4000
L61.3200 24.4000
" />
<path d="M73.3000 34.1000
L73.3000 28.8000
" />
<path d="M70.7950 31.3400
L70.7550 31.3000
" />
<path d="M56.9200 28.3200
L56.9200 26.2600
" />
<path d="M59.9000 31.3000
L56.9200 28.3200
" />
<path d="M70.7550 31.3000
L59.9000 31.3000
" />
<path d="M52.6625 27.9775
L54.3800 26.2600
" />
<path d="M52.6625 32.5000
L52.6625 27.9775
" />
<path d="M49.7625 29.6000
L49.7625 28.3375
" />
<path d="M49.7625 28.3375
L51.8400 26.2600
" />
<path d="M70.7850 32.6000
L70.7950 32.6100
" />
<path d="M54.8820 25.0480
L55.7080 25.8740
" />
<path d="M50.5120 25.0480
L54.8820 25.0480
" />
<path d="M59.4000 32.6000
L70.7850 32.6000
" />
<path d="M55.7080 25.8740
L55.7080 28.9080
" />
<path d="M55.7080 28.9080
L59.4000 32.6000
" />
<path d="M49.3000 26.2600
L50.5120 25.0480
" />
<path d="M70.6572 55.7700
L71.6928 55.7700
" />
<path d="M71.6928 55.7700
L72.7228 56.8000
" />
<path d="M69.9250 56.5022
L70.6572 55.7700
" />
<path d="M67.3450 58.2700
L69.3300 58.2700
" />
<path d="M77.4000 54.8000
L77.4000 39.3450
" />
<path d="M75.4000 56.8000
L77.4000 54.8000
" />
<path d="M66.0950 57.0200
L67.3450 58.2700
" />
<path d="M69.3300 58.2700
L69.9250 57.6750
" />
<path d="M77.4000 39.3450
L75.7450 37.6900
" />
<path d="M69.9250 57.6750
L69.9250 56.5022
" />
<path d="M72.7228 56.8000
L75.4000 56.8000
" />
<path d="M57.1850 57.4978
L57.1850 53.1900
" />
<path d="M53.3950 52.2050
L53.3950 49.4000
" />
<path d="M50.1000 55.5000
L53.3950 52.2050
" />
<path d="M36.8600 55.7000
L37.0600 55.5000
" />
<path d="M62.6064 59.1000
L58.7872 59.1000
" />
<path d="M57.1850 53.1900
L53.3950 49.4000
" />
<path d="M63.5550 58.1514
L62.6064 59.1000
" />
<path d="M53.3950 49.4000
L53.0950 49.1000
" />
<path d="M56.9000 24.3000
L58.2000 25.6000
" />
<path d="M60.4000 30.1000
L70.7650 30.1000
" />
<path d="M58.2000 25.6000
L58.2000 27.9000
" />
<path d="M47.0000 24.3000
L56.9000 24.3000
" />
<path d="M58.7872 59.1000
L57.1850 57.4978
" />
<path d="M43.6000 27.7000
L47.0000 24.3000
" />
<path d="M70.7650 30.1000
L70.7950 30.0700
" />
<path d="M63.5550 57.0200
L63.5550 58.1514
" />
<path d="M37.0600 55.5000
L50.1000 55.5000
" />
<path d="M58.2000 27.9000
L60.4000 30.1000
" />
<path d="M43.6000 33.2000
L43.6000 27.7000
" />
<path d="M55.9350 58.9650
L55.1000 59.8000
" />
<path d="M72.4000 59.8000
L78.7000 59.8000
" />
<path d="M80.2000 58.3000
L80.2000 51.2000
" />
<path d="M32.3000 54.6000
L33.9000 54.6000
" />
<path d="M80.2000 51.2000
L81.9000 49.5000
" />
<path d="M34.7000 57.0000
L37.5000 59.8000
" />
<path d="M32.4000 54.6000
L32.8000 54.6000
" />
<path d="M71.1750 58.5750
L72.4000 59.8000
" />
<path d="M81.9000 33.3000
L78.6700 30.0700
" />
<path d="M81.9000 49.5000
L81.9000 33.3000
" />
<path d="M37.5000 59.8000
L55.1000 59.8000
" />
<path d="M71.1750 57.0200
L71.1750 58.5750
" />
<path d="M78.7000 59.8000
L80.2000 58.3000
" />
<path d="M33.9000 54.6000
L34.7000 55.4000
" />
<path d="M55.1000 59.8000
L72.4000 59.8000
" />
<path d="M34.7000 55.4000
L34.7000 57.0000
" />
<path d="M78.6700 30.0700
L75.7450 30.0700
" />
<path d="M55.9350 57.0200
L55.9350 58.9650
" />
<path d="M70.7950 38.1950
L74.3000 41.7000
" />
<path d="M74.3000 41.7000
L74.3000 45.2000
" />
<path d="M70.7950 37.6900
L70.7950 38.1950
" />
<path d="M59.8550 58.4000
L58.4750 57.0200
" />
<path d="M68.6000 38.8000
L70.4000 40.6000
" />
<path d="M70.4000 44.6000
L74.9000 49.1000
" />
<path d="M65.6000 53.2000
L62.3050 56.4950
" />
<path d="M61.9000 58.4000
L59.8550 58.4000
" />
<path d="M70.7950 36.4200
L69.5800 36.4200
" />
<path d="M69.5800 36.4200
L68.6000 37.4000
" />
<path d="M62.3050 57.9950
L61.9000 58.4000
" />
<path d="M74.9000 52.4000
L74.1000 53.2000
" />
<path d="M70.4000 40.6000
L70.4000 44.6000
" />
<path d="M74.1000 53.2000
L65.6000 53.2000
" />
<path d="M62.3050 56.4950
L62.3050 57.9950
" />
<path d="M74.9000 49.1000
L74.9000 52.4000
" />
<path d="M68.6000 37.4000
L68.6000 38.8000
" />
<path d="M78.4000 56.7000
L78.3000 56.8000
" />
<path d="M76.7200 33.8800
L78.4000 35.5600
" />
<path d="M78.4000 35.5600
L78.4000 56.7000
" />
<path d="M75.7450 33.8800
L76.7200 33.8800
" />
<path d="M78.7000 56.9000
L78.0000 56.2000
" />
<path d="M68.6350 56.1650
L69.9000 54.9000
" />
<path d="M68.6350 57.0200
L68.6350 56.1650
" />
<path d="M72.4000 37.8000
L72.4000 29.3000
" />
<path d="M72.4000 29.3000
L69.4000 26.3000
" />
<path d="M69.9000 54.9000
L75.6000 54.9000
" />
<path d="M76.3000 54.2000
L76.3000 41.7000
" />
<path d="M75.6000 54.9000
L76.3000 54.2000
" />
<path d="M69.4000 26.3000
L67.2625 26.3000
" />
<path d="M76.3000 41.7000
L72.4000 37.8000
" />
<path d="M67.8000 46.0250
L67.8000 42.4000
" />
<path d="M67.8000 42.4000
L65.2000 39.8000
" />
<path d="M65.2000 38.0000
L63.4000 36.2000
" />
<path d="M71.1750 49.4000
L67.8000 46.0250
" />
<path d="M65.2000 39.8000
L65.2000 38.0000
" />
<path d="M66.5000 42.7000
L66.5000 47.2650
" />
<path d="M66.5000 47.2650
L68.6350 49.4000
" />
<path d="M63.4625 39.6625
L66.5000 42.7000
" />
<path d="M63.4625 39.2000
L63.4625 39.6625
" />
<path d="M66.0950 49.4000
L64.9000 48.2050
" />
<path d="M64.9000 44.7375
L64.8625 44.7000
" />
<path d="M64.9000 48.2050
L64.9000 44.7375
" />
<path d="M51.2625 36.0375
L51.6000 36.0375
" />
<path d="M47.0000 42.7000
L47.0000 40.3000
" />
<path d="M63.5550 49.4000
L58.2550 44.1000
" />
<path d="M47.0000 40.3000
L51.2625 36.0375
" />
<path d="M48.4000 44.1000
L47.0000 42.7000
" />
<path d="M58.2550 44.1000
L48.4000 44.1000
" />
<path d="M50.4000 34.5000
L45.3000 39.6000
" />
<path d="M45.3000 39.6000
L45.3000 43.8000
" />
<path d="M45.3000 43.8000
L46.6000 45.1000
" />
<path d="M54.4000 36.0000
L52.9000 34.5000
" />
<path d="M46.6000 45.1000
L56.7150 45.1000
" />
<path d="M52.9000 34.5000
L50.4000 34.5000
" />
<path d="M56.7150 45.1000
L61.0150 49.4000
" />
<path d="M54.4000 35.8000
L54.4000 36.0000
" />
<path d="M58.4750 49.3750
L58.4750 49.4000
" />
<path d="M43.6000 44.4000
L45.4000 46.2000
" />
<path d="M49.7375 32.5000
L49.3000 32.5000
" />
<path d="M43.6000 38.2000
L43.6000 44.4000
" />
<path d="M55.3000 46.2000
L58.4750 49.3750
" />
<path d="M45.4000 46.2000
L55.3000 46.2000
" />
<path d="M49.3000 32.5000
L43.6000 38.2000
" />
<path d="M55.9350 49.3350
L55.9350 49.4000
" />
<path d="M42.1000 37.1000
L42.1000 45.8000
" />
<path d="M46.8375 29.6000
L46.8375 32.3625
" />
<path d="M43.6000 47.3000
L53.9000 47.3000
" />
<path d="M46.8375 32.3625
L42.1000 37.1000
" />
<path d="M53.9000 47.3000
L55.9350 49.3350
" />
<path d="M42.1000 45.8000
L43.6000 47.3000
" />
<path d="M36.8600 50.7000
L37.1600 51.0000
" />
<path d="M43.5000 23.5000
L70.2000 23.5000
" />
<path d="M74.2000 27.5000
L74.2000 32.0000
" />
<path d="M37.1600 51.0000
L49.8000 51.0000
" />
<path d="M36.9600 50.6000
L36.9000 50.6600
" />
<path d="M70.2000 23.5000
L74.2000 27.5000
" />
<path d="M74.2000 32.0000
L74.8100 32.6100
" />
<path d="M37.2000 50.8600
L37.2000 29.8000
" />
<path d="M37.2000 29.8000
L43.5000 23.5000
" />
<path d="M74.8100 32.6100
L75.7450 32.6100
" />
<path d="M75.7450 31.3400
L76.2250 31.3400
" />
<path d="M77.4400 31.3400
L80.4000 34.3000
" />
<path d="M80.4000 45.3000
L79.9000 45.3000
" />
<path d="M80.4000 34.3000
L80.4000 45.3000
" />
<path d="M75.7450 31.3400
L77.4400 31.3400
" />
<path d="M64.1000 52.0000
L61.0150 55.0850
" />
<path d="M69.0000 44.7250
L73.2000 48.9250
" />
<path d="M69.0500 35.1500
L67.2000 37.0000
" />
<path d="M70.7950 35.1500
L69.0500 35.1500
" />
<path d="M73.2000 48.9250
L73.2000 50.5000
" />
<path d="M73.2000 50.5000
L71.7000 52.0000
" />
<path d="M67.2000 37.0000
L67.2000 38.9000
" />
<path d="M61.0000 56.9578
L60.9764 56.9814
" />
<path d="M67.2000 38.9000
L69.0000 40.7000
" />
<path d="M69.0000 40.7000
L69.0000 44.7250
" />
<path d="M61.0150 55.0850
L61.0150 57.0200
" />
<path d="M71.7000 52.0000
L64.1000 52.0000
" />
<path d="M32.4000 51.6000
L34.4500 53.6500
" />
<path d="M34.4500 53.6500
L42.7000 53.6500
" />
</g>
<g >
</g>
<g style="fill:#000000; fill-opacity:0.0; 
stroke:#000000; stroke-width:0.5000; stroke-opacity:1; 
stroke-linecap:round; stroke-linejoin:round;">
<g >
</g>
<g style="fill:#000000; fill-opacity:1.0000; 
stroke:#000000; stroke-width:0.0000; stroke-opacity:1; 
stroke-linecap:round; stroke-linejoin:round;">
<path style="fill:#000000; fill-opacity:1.0000; 
stroke:#000000; stroke-width:0.0000; stroke-opacity:1; 
stroke-linecap:round; stroke-linejoin:round;fill-rule:evenodd;"
d="M 42.8058,22.9202
42.8516,22.9730
42.8615,23.0421
42.8325,23.1057
42.8265,23.1122
36.7144,29.2243
36.7007,29.2361
36.6815,29.2504
36.6496,29.2883
36.6423,29.2963
36.6384,29.3002
36.6192,29.3245
36.6169,29.3273
36.5687,29.3848
36.5647,29.3908
36.5647,29.3908
36.5606,29.3971
36.5607,29.3972
36.5569,29.4033
36.5252,29.4713
36.5236,29.4745
36.4900,29.5416
36.4875,29.5484
36.4874,29.5483
36.4850,29.5554
36.4850,29.5555
36.4827,29.5623
36.4676,29.6358
36.4668,29.6393
36.4495,29.7123
36.4487,29.7195
36.4486,29.7194
36.4478,29.7269
36.4479,29.7270
36.4473,29.7341
36.4494,29.8091
36.4495,29.8127
36.4495,49.4966
36.4298,49.5636
36.3770,49.6094
36.3567,49.6166
36.2244,49.6511
36.2244,49.6511
36.0033,49.7510
36.0033,49.7510
35.8022,49.8869
35.8022,49.8869
35.6270,50.0548
35.6270,50.0548
35.4828,50.2499
35.3735,50.4666
35.3735,50.4666
35.3025,50.6986
35.2716,50.9393
35.2819,51.1817
35.2819,51.1817
35.3331,51.4189
35.3331,51.4189
35.3791,51.5334
35.4235,51.6441
35.4725,51.7235
35.5508,51.8507
35.7111,52.0329
35.7111,52.0329
35.8999,52.1853
36.1117,52.3037
36.1117,52.3037
36.3405,52.3845
36.3405,52.3845
36.5797,52.4255
36.5797,52.4255
36.5797,52.4255
36.5797,52.4255
37.9596,52.4255
37.9596,52.4255
37.9596,52.4255
37.9596,52.4255
38.1408,52.4101
38.1408,52.4101
38.1408,52.4101
38.3756,52.3489
38.3756,52.3489
38.5967,52.2490
38.5967,52.2490
38.5967,52.2490
38.7978,52.1131
38.9730,51.9452
39.0798,51.8008
39.1355,51.7586
39.1795,51.7505
47.9198,51.7505
47.9868,51.7702
48.0254,51.8095
48.0508,51.8507
48.0508,51.8507
48.2111,52.0329
48.2111,52.0329
48.3999,52.1853
48.6117,52.3037
48.6117,52.3037
48.8405,52.3845
48.8405,52.3845
49.0797,52.4255
49.0797,52.4255
49.0797,52.4255
49.0797,52.4255
50.4596,52.4255
50.4596,52.4255
50.4596,52.4255
50.4596,52.4255
50.6408,52.4101
50.6408,52.4101
50.6408,52.4101
50.8756,52.3489
50.8756,52.3489
51.0967,52.2490
51.0967,52.2490
51.0967,52.2490
51.2978,52.1131
51.4730,51.9452
51.6172,51.7501
51.7265,51.5334
51.7975,51.3014
51.8284,51.0607
51.8279,51.0495
51.8181,50.8183
51.8181,50.8183
51.7982,50.7260
51.7669,50.5811
51.6765,50.3559
51.5492,50.1493
51.3889,49.9671
51.3889,49.9671
51.3889,49.9671
51.2001,49.8147
50.9883,49.6963
50.7595,49.6155
50.7595,49.6155
50.5203,49.5745
50.5203,49.5745
49.1404,49.5745
49.1404,49.5745
48.9592,49.5899
48.9592,49.5899
48.7244,49.6511
48.7244,49.6511
48.5033,49.7510
48.5033,49.7510
48.3022,49.8869
48.3022,49.8869
48.1270,50.0548
48.1270,50.0548
48.0202,50.1992
47.9645,50.2414
47.9205,50.2495
39.1802,50.2495
39.1132,50.2298
39.0746,50.1905
39.0492,50.1493
39.0492,50.1493
38.8889,49.9671
38.8889,49.9671
38.7001,49.8147
38.4883,49.6963
38.2595,49.6155
38.2595,49.6155
38.2595,49.6155
38.2595,49.6155
38.2595,49.6155
38.0535,49.5802
37.9908,49.5495
37.9546,49.4897
37.9505,49.4580
37.9505,46.1978
38.3500,46.1978
38.3564,46.2574
38.3564,46.2574
38.4066,46.3921
38.4066,46.3921
38.4928,46.5072
38.4928,46.5072
38.6079,46.5934
38.6079,46.5934
38.7426,46.6436
38.7426,46.6436
38.8022,46.6500
38.8022,46.6500
39.4500,46.6500
39.4500,45.7355
39.5577,45.7847
39.6642,45.8000
39.7358,45.8000
39.8423,45.7847
39.9500,45.7355
39.9500,46.6500
40.5978,46.6500
40.5978,46.6500
40.6574,46.6436
40.6574,46.6436
40.7921,46.5934
40.7921,46.5934
40.9072,46.5072
40.9072,46.5072
40.9933,46.3921
40.9934,46.3921
41.0436,46.2574
41.0436,46.2574
41.0500,46.1978
41.0500,46.1978
41.0500,45.5500
40.1337,45.5500
40.1595,45.5098
40.2000,45.3719
40.2000,45.2281
40.1595,45.0902
40.1337,45.0500
41.0500,45.0500
41.0500,44.4022
41.0500,44.4022
41.0436,44.3426
41.0436,44.3426
40.9934,44.2079
40.9933,44.2079
40.9072,44.0928
40.9072,44.0928
40.7921,44.0066
40.7921,44.0066
40.6574,43.9564
40.6574,43.9564
40.5978,43.9500
39.9500,43.9500
39.9500,44.8645
39.8423,44.8153
39.7358,44.8000
39.6642,44.8000
39.5577,44.8153
39.4500,44.8645
39.4500,43.9500
38.8022,43.9500
38.7426,43.9564
38.7426,43.9564
38.6079,44.0066
38.6079,44.0066
38.4928,44.0928
38.4928,44.0928
38.4066,44.2079
38.4066,44.2079
38.3564,44.3426
38.3564,44.3426
38.3500,44.4022
38.3500,45.0500
39.2663,45.0500
39.2405,45.0902
39.2000,45.2281
39.2000,45.3719
39.2405,45.5098
39.2663,45.5500
38.3500,45.5500
38.3500,46.1978
37.9505,46.1978
37.9505,30.1622
37.9702,30.0952
37.9868,30.0745
43.7745,24.2868
43.8359,24.2533
43.8622,24.2505
49.9462,24.2505
50.0133,24.2702
50.0590,24.3230
50.0690,24.3921
50.0399,24.4557
50.0270,24.4684
49.9748,24.5237
49.9723,24.5263
49.5303,24.9684
49.4689,25.0018
49.4318,25.0042
49.3000,24.9927
49.3000,24.9927
49.0799,25.0119
49.0799,25.0119
48.8666,25.0691
48.8665,25.0691
48.6663,25.1625
48.6663,25.1625
48.4854,25.2892
48.3292,25.4454
48.2025,25.6263
48.2025,25.6263
48.1091,25.8265
48.1091,25.8266
48.0519,26.0399
48.0519,26.0399
48.0327,26.2600
48.0327,26.2600
48.0519,26.4801
48.0519,26.4801
48.1091,26.6934
48.1091,26.6934
48.1091,26.6934
48.1424,26.7648
48.2025,26.8937
48.2025,26.8937
48.3292,27.0746
48.3292,27.0746
48.4854,27.2308
48.4854,27.2308
48.6663,27.3575
48.6663,27.3575
48.6663,27.3575
48.8665,27.4509
49.0799,27.5081
49.2294,27.5211
49.2945,27.5466
49.3354,27.6032
49.3393,27.6730
49.3063,27.7324
49.2769,27.7618
49.2632,27.7736
49.2440,27.7879
49.2121,27.8258
49.2048,27.8338
49.2009,27.8377
49.1817,27.8620
49.1794,27.8648
49.1312,27.9223
49.1272,27.9283
49.1272,27.9283
49.1231,27.9346
49.1232,27.9347
49.1194,27.9408
49.0877,28.0088
49.0861,28.0120
49.0525,28.0791
49.0500,28.0859
49.0499,28.0858
49.0475,28.0929
49.0475,28.0930
49.0452,28.0998
49.0301,28.1733
49.0293,28.1768
49.0120,28.2498
49.0112,28.2570
49.0111,28.2569
49.0103,28.2644
49.0104,28.2645
49.0098,28.2716
49.0105,28.2981
48.9928,28.3657
48.9743,28.3894
48.8573,28.5063
48.7652,28.6557
48.7652,28.6557
48.7100,28.8222
48.7100,28.8222
48.7100,28.8222
48.6995,28.9250
48.6995,30.2750
48.6995,30.2750
48.7100,30.3778
48.7100,30.3778
48.7375,30.4608
48.7652,30.5443
48.8573,30.6937
48.9813,30.8177
49.1307,30.9098
49.1860,30.9282
49.2434,30.9679
49.2703,31.0324
49.2580,31.1012
49.2104,31.1524
49.1860,31.1636
49.1057,31.1902
49.1057,31.1902
48.9563,31.2823
48.8323,31.4063
48.7402,31.5557
48.7402,31.5557
48.6850,31.7222
48.6850,31.7222
48.6850,31.7222
48.6745,31.8250
48.6745,32.0128
48.6548,32.0798
48.6382,32.1004
43.1144,37.6243
43.1007,37.6361
43.0815,37.6504
43.0815,37.6504
43.0695,37.6647
43.0113,37.7034
42.9415,37.7045
42.8821,37.6676
42.8521,37.6046
42.8505,37.5850
42.8505,37.4622
42.8702,37.3952
42.8868,37.3746
47.3231,32.9382
47.3368,32.9264
47.3560,32.9121
47.3677,32.8982
47.3879,32.8742
47.3952,32.8662
47.3991,32.8623
47.3991,32.8623
47.3991,32.8623
47.4183,32.8379
47.4206,32.8352
47.4688,32.7777
47.4688,32.7777
47.4728,32.7717
47.4728,32.7717
47.4769,32.7654
47.4768,32.7653
47.4806,32.7592
47.4806,32.7592
47.5123,32.6912
47.5139,32.6880
47.5475,32.6209
47.5475,32.6209
47.5500,32.6141
47.5501,32.6142
47.5525,32.6070
47.5525,32.6070
47.5548,32.6002
47.5604,32.5726
47.5699,32.5266
47.5707,32.5233
47.5880,32.4502
47.5880,32.4502
47.5888,32.4430
47.5889,32.4431
47.5897,32.4356
47.5896,32.4355
47.5902,32.4284
47.5881,32.3534
47.5880,32.3498
47.5880,30.8997
47.6077,30.8327
47.6243,30.8120
47.7427,30.6937
47.8348,30.5443
47.8900,30.3778
47.9005,30.2750
47.9005,28.9250
47.8965,28.8860
47.8900,28.8222
47.8900,28.8222
47.8348,28.6557
47.7427,28.5063
47.6187,28.3823
47.4693,28.2902
47.3028,28.2350
47.3028,28.2350
47.2000,28.2245
46.4750,28.2245
46.4750,28.2245
46.3722,28.2350
46.3722,28.2350
46.2057,28.2902
46.2057,28.2902
46.0563,28.3823
45.9323,28.5063
45.8402,28.6557
45.8402,28.6557
45.7850,28.8222
45.7850,28.8222
45.7850,28.8222
45.7745,28.9250
45.7745,30.2750
45.7745,30.2750
45.7850,30.3778
45.7850,30.3778
45.8402,30.5443
45.8402,30.5443
45.9323,30.6937
46.0507,30.8120
46.0842,30.8734
46.0870,30.8997
46.0870,32.0003
46.0673,32.0673
46.0507,32.0879
44.9944,33.1442
44.9331,33.1777
44.8634,33.1728
44.8074,33.1309
44.7832,33.0674
44.7757,32.9821
44.7757,32.9821
44.7191,32.7708
44.7191,32.7708
44.6267,32.5726
44.6267,32.5726
44.5831,32.5104
44.5831,32.5104
43.9380,33.1556
43.9252,33.0749
43.8676,32.9620
43.7780,32.8724
43.6651,32.8148
43.5844,32.8020
44.2296,32.1569
44.1674,32.1133
43.9692,32.0209
43.9691,32.0209
43.7579,31.9643
43.7579,31.9643
43.5400,31.9452
43.5400,31.9452
43.3221,31.9643
43.3221,31.9643
43.1108,32.0209
43.1108,32.0209
42.9126,32.1133
42.8504,32.1569
43.4956,32.8020
43.4149,32.8148
43.3020,32.8724
43.2124,32.9620
43.1548,33.0749
43.1420,33.1556
42.4969,32.5104
42.4533,32.5726
42.3609,32.7708
42.3609,32.7708
42.3043,32.9821
42.3043,32.9821
42.2852,33.2000
42.2852,33.2000
42.3043,33.4179
42.3043,33.4179
42.3609,33.6291
42.3609,33.6292
42.4533,33.8274
42.4969,33.8896
43.1420,33.2444
43.1548,33.3251
43.2124,33.4380
43.3020,33.5276
43.4149,33.5852
43.4956,33.5980
42.8504,34.2431
42.9126,34.2867
43.1108,34.3791
43.1108,34.3791
43.3221,34.4357
43.3221,34.4357
43.4074,34.4432
43.4724,34.4686
43.5134,34.5252
43.5173,34.5950
43.4842,34.6544
41.6144,36.5243
41.6007,36.5361
41.5815,36.5504
41.5496,36.5883
41.5423,36.5963
41.5384,36.6002
41.5192,36.6245
41.5169,36.6273
41.4687,36.6848
41.4647,36.6908
41.4647,36.6908
41.4606,36.6971
41.4607,36.6972
41.4569,36.7033
41.4252,36.7713
41.4236,36.7745
41.3900,36.8416
41.3875,36.8484
41.3874,36.8483
41.3850,36.8554
41.3850,36.8555
41.3827,36.8623
41.3676,36.9358
41.3668,36.9393
41.3495,37.0123
41.3487,37.0195
41.3486,37.0194
41.3478,37.0269
41.3479,37.0270
41.3473,37.0341
41.3494,37.1091
41.3495,37.1127
41.3495,45.7363
41.3482,45.7543
41.3447,45.7780
41.3490,45.8274
41.3495,45.8382
41.3495,45.8437
41.3531,45.8745
41.3535,45.8781
41.3600,45.9528
41.3615,45.9599
41.3614,45.9599
41.3630,45.9672
41.3631,45.9672
41.3648,45.9742
41.3648,45.9743
41.3648,45.9743
41.3744,46.0009
41.3904,46.0447
41.3916,46.0481
41.4152,46.1193
41.4182,46.1259
41.4182,46.1259
41.4215,46.1327
41.4215,46.1327
41.4248,46.1391
41.4660,46.2018
41.4679,46.2048
41.4809,46.2259
41.5073,46.2687
41.5118,46.2743
41.5117,46.2744
41.5165,46.2802
41.5165,46.2802
41.5212,46.2857
41.5757,46.3372
41.5783,46.3397
43.0243,47.7856
43.0360,47.7993
43.0391,47.8034
43.0504,47.8185
43.0883,47.8504
43.0963,47.8577
43.1002,47.8616
43.1245,47.8808
43.1273,47.8831
43.1362,47.8906
43.1848,47.9313
43.1848,47.9313
43.1908,47.9353
43.1908,47.9353
43.1971,47.9394
43.1972,47.9393
43.2033,47.9431
43.2033,47.9431
43.2033,47.9431
43.2122,47.9473
43.2713,47.9748
43.2745,47.9764
43.3416,48.0100
43.3416,48.0100
43.3484,48.0125
43.3483,48.0126
43.3555,48.0150
43.3555,48.0150
43.3623,48.0173
43.3623,48.0173
43.3623,48.0173
43.4358,48.0324
43.4392,48.0332
43.5123,48.0505
43.5123,48.0505
43.5195,48.0513
43.5194,48.0514
43.5269,48.0522
43.5270,48.0521
43.5341,48.0527
43.5341,48.0527
43.5341,48.0527
43.6091,48.0506
43.6127,48.0505
52.6625,48.0505
52.7296,48.0702
52.7753,48.1230
52.7853,48.1921
52.7562,48.2557
52.7336,48.2761
52.5562,48.4003
52.3953,48.5612
52.2649,48.7475
52.1687,48.9537
52.1687,48.9537
52.1161,49.1500
52.1161,49.1500
53.0793,49.1500
53.0674,49.1620
53.0098,49.2749
52.9900,49.4000
53.0098,49.5251
53.0674,49.6380
53.0793,49.6500
52.1161,49.6500
52.1687,49.8463
52.1687,49.8463
52.2649,50.0525
52.3953,50.2388
52.5562,50.3997
52.7425,50.5301
52.9487,50.6263
52.9487,50.6263
53.1450,50.6789
53.1450,50.6789
53.1450,49.7157
53.1570,49.7276
53.2699,49.7852
53.3635,49.8000
53.4265,49.8000
53.5201,49.7852
53.6330,49.7276
53.6450,49.7157
53.6450,50.6789
53.8413,50.6263
53.8413,50.6263
54.0475,50.5301
54.2338,50.3997
54.3947,50.2388
54.5251,50.0525
54.5523,49.9941
54.5985,49.9417
54.6657,49.9225
54.7326,49.9428
54.7771,49.9941
54.7816,50.0037
54.8044,50.0527
54.8044,50.0527
54.9350,50.2391
55.0959,50.4000
55.0959,50.4000
55.2823,50.5306
55.4885,50.6267
55.4885,50.6267
55.4885,50.6267
55.5233,50.6361
55.7083,50.6856
55.8564,50.6986
55.9350,50.7055
55.9350,50.7055
55.9350,50.7055
55.9949,50.7002
56.1617,50.6856
56.3815,50.6267
56.5877,50.5306
56.7741,50.4000
56.9350,50.2391
57.0656,50.0527
57.0926,49.9947
57.1388,49.9423
57.2060,49.9231
57.2729,49.9433
57.3174,49.9947
57.3216,50.0037
57.3444,50.0527
57.3444,50.0527
57.4750,50.2391
57.6359,50.4000
57.6359,50.4000
57.8223,50.5306
58.0285,50.6267
58.0285,50.6267
58.0285,50.6267
58.0633,50.6361
58.2483,50.6856
58.3964,50.6986
58.4750,50.7055
58.4750,50.7055
58.4750,50.7055
58.5349,50.7002
58.7017,50.6856
58.9215,50.6267
59.1277,50.5306
59.3141,50.4000
59.4750,50.2391
59.6056,50.0527
59.6326,49.9947
59.6788,49.9423
59.7460,49.9231
59.8129,49.9433
59.8574,49.9947
59.8616,50.0037
59.8844,50.0527
59.8844,50.0527
60.0150,50.2391
60.1759,50.4000
60.1759,50.4000
60.3623,50.5306
60.5685,50.6267
60.5685,50.6267
60.5685,50.6267
60.6033,50.6361
60.7883,50.6856
60.9364,50.6986
61.0150,50.7055
61.0150,50.7055
61.0150,50.7055
61.0749,50.7002
61.2417,50.6856
61.4615,50.6267
61.6677,50.5306
61.8541,50.4000
62.0150,50.2391
62.1456,50.0527
62.1726,49.9947
62.2188,49.9423
62.2860,49.9231
62.3529,49.9433
62.3974,49.9947
62.4016,50.0037
62.4244,50.0527
62.4244,50.0527
62.5550,50.2391
62.7159,50.4000
62.7159,50.4000
62.9023,50.5306
63.1085,50.6267
63.1085,50.6267
63.1085,50.6267
63.1433,50.6361
63.3283,50.6856
63.4764,50.6986
63.5550,50.7055
63.5550,50.7055
63.5550,50.7055
63.6149,50.7002
63.7817,50.6856
64.0015,50.6267
64.2077,50.5306
64.3941,50.4000
64.5550,50.2391
64.6856,50.0527
64.7126,49.9947
64.7588,49.9423
64.8260,49.9231
64.8929,49.9433
64.9374,49.9947
64.9416,50.0037
64.9644,50.0527
64.9644,50.0527
65.0950,50.2391
65.2559,50.4000
65.2559,50.4000
65.4423,50.5306
65.6485,50.6267
65.6485,50.6267
65.6485,50.6267
65.6833,50.6361
65.8683,50.6856
66.0164,50.6986
66.0950,50.7055
66.0950,50.7055
66.0950,50.7055
66.1549,50.7002
66.3217,50.6856
66.5415,50.6267
66.7477,50.5306
66.9341,50.4000
67.0950,50.2391
67.2256,50.0527
67.2526,49.9947
67.2988,49.9423
67.3660,49.9231
67.4329,49.9433
67.4774,49.9947
67.4816,50.0037
67.5044,50.0527
67.5044,50.0527
67.6350,50.2391
67.7959,50.4000
67.7959,50.4000
67.9823,50.5306
68.1885,50.6267
68.1885,50.6267
68.1885,50.6267
68.2233,50.6361
68.4083,50.6856
68.5564,50.6986
68.6350,50.7055
68.6350,50.7055
68.6350,50.7055
68.6949,50.7002
68.8617,50.6856
69.0815,50.6267
69.2877,50.5306
69.4741,50.4000
69.6350,50.2391
69.6523,50.2145
69.7068,50.1709
69.7763,50.1637
69.8387,50.1952
69.8741,50.2555
69.8771,50.2724
69.8809,50.3075
69.9312,50.4423
69.9312,50.4423
70.0175,50.5575
70.0175,50.5575
70.1327,50.6438
70.1327,50.6438
70.2675,50.6941
70.2675,50.6941
70.2744,50.6948
70.3271,50.7005
71.6388,50.7005
71.7058,50.7202
71.7516,50.7730
71.7615,50.8421
71.7325,50.9057
71.7265,50.9122
71.4255,51.2132
71.3641,51.2467
71.3378,51.2495
64.1637,51.2495
64.1457,51.2482
64.1220,51.2447
64.0748,51.2488
64.0726,51.2490
64.0618,51.2495
64.0563,51.2495
64.0255,51.2531
64.0219,51.2535
63.9472,51.2600
63.9401,51.2615
63.9401,51.2614
63.9328,51.2630
63.9328,51.2631
63.9257,51.2648
63.8552,51.2904
63.8519,51.2916
63.8128,51.3045
63.7807,51.3152
63.7741,51.3182
63.7741,51.3182
63.7673,51.3215
63.7673,51.3215
63.7609,51.3248
63.6982,51.3660
63.6952,51.3679
63.6313,51.4073
63.6257,51.4118
63.6256,51.4117
63.6198,51.4165
63.6198,51.4165
63.6143,51.4212
63.5628,51.4757
63.5603,51.4783
60.5294,54.5093
60.5157,54.5211
60.4965,54.5354
60.4646,54.5733
60.4573,54.5813
60.4534,54.5852
60.4342,54.6095
60.4319,54.6123
60.3837,54.6698
60.3797,54.6758
60.3797,54.6758
60.3756,54.6821
60.3757,54.6822
60.3719,54.6883
60.3402,54.7563
60.3386,54.7595
60.3050,54.8266
60.3025,54.8334
60.3024,54.8333
60.3000,54.8404
60.3000,54.8405
60.2977,54.8473
60.2826,54.9208
60.2818,54.9243
60.2645,54.9973
60.2637,55.0045
60.2636,55.0044
60.2628,55.0119
60.2629,55.0120
60.2623,55.0191
60.2644,55.0941
60.2645,55.0977
60.2645,55.8933
60.2448,55.9604
60.2116,55.9949
60.1759,56.0200
60.0150,56.1809
59.8844,56.3673
59.8844,56.3673
59.8574,56.4253
59.8112,56.4777
59.7440,56.4969
59.6771,56.4766
59.6326,56.4253
59.6057,56.3675
59.6056,56.3673
59.4750,56.1809
59.4750,56.1809
59.3141,56.0200
59.1277,55.8894
59.1277,55.8894
58.9215,55.7933
58.9215,55.7933
58.7017,55.7344
58.7017,55.7344
58.7017,55.7344
58.7017,55.7344
58.7017,55.7344
58.4750,55.7145
58.4750,55.7145
58.2483,55.7344
58.2483,55.7344
58.0285,55.7933
58.0285,55.7933
57.8223,55.8894
57.8223,55.8894
57.6359,56.0200
57.4750,56.1809
57.3444,56.3673
57.3444,56.3673
57.3174,56.4253
57.2712,56.4777
57.2040,56.4969
57.1371,56.4766
57.0926,56.4253
57.0657,56.3675
57.0656,56.3673
56.9350,56.1809
56.9350,56.1809
56.7741,56.0200
56.5877,55.8894
56.5877,55.8894
56.3815,55.7933
56.3815,55.7933
56.1617,55.7344
56.1617,55.7344
56.1617,55.7344
56.1617,55.7344
56.1617,55.7344
55.9350,55.7145
55.9350,55.7145
55.7083,55.7344
55.7083,55.7344
55.4885,55.7933
55.4885,55.7933
55.2823,55.8894
55.2823,55.8894
55.0959,56.0200
54.9350,56.1809
54.8044,56.3673
54.8044,56.3673
54.7774,56.4253
54.7312,56.4777
54.6640,56.4969
54.5971,56.4766
54.5526,56.4253
54.5257,56.3675
54.5256,56.3673
54.3950,56.1809
54.3950,56.1809
54.2341,56.0200
54.0477,55.8894
54.0477,55.8894
53.8415,55.7933
53.8415,55.7933
53.6217,55.7344
53.6217,55.7344
53.6217,55.7344
53.6217,55.7344
53.6217,55.7344
53.3950,55.7145
53.3950,55.7145
53.1683,55.7344
53.1683,55.7344
52.9485,55.7933
52.9485,55.7933
52.7423,55.8894
52.7423,55.8894
52.5559,56.0200
52.3950,56.1809
52.2644,56.3673
52.2644,56.3673
52.1683,56.5735
52.1683,56.5735
52.1094,56.7933
52.1094,56.7933
52.0895,57.0200
52.0895,57.0200
52.1094,57.2467
52.1094,57.2467
52.1683,57.4665
52.1683,57.4665
52.2644,57.6727
52.2644,57.6727
52.3950,57.8591
52.5559,58.0200
52.5559,58.0200
52.7423,58.1506
52.9485,58.2467
53.1683,58.3056
53.3302,58.3198
53.3950,58.3255
53.3950,58.3255
53.3950,58.3255
53.4519,58.3205
53.6217,58.3056
53.8415,58.2467
54.0477,58.1506
54.2341,58.0200
54.3950,57.8591
54.5256,57.6727
54.5526,57.6147
54.5988,57.5623
54.6660,57.5431
54.7329,57.5633
54.7774,57.6147
54.7915,57.6450
54.8044,57.6727
54.8044,57.6727
54.9350,57.8591
55.0959,58.0200
55.1316,58.0451
55.1752,58.0997
55.1845,58.1467
55.1845,58.6028
55.1648,58.6698
55.1482,58.6905
54.8255,59.0132
54.7641,59.0467
54.7378,59.0495
44.4612,59.0495
44.3941,59.0298
44.3484,58.9770
44.3384,58.9079
44.3675,58.8443
44.3715,58.8398
44.3782,58.8329
44.5216,58.6828
44.6456,58.4950
44.6457,58.4948
44.7341,58.2880
44.7341,58.2880
44.7341,58.2880
44.7842,58.0685
44.7943,57.8437
44.7641,57.6206
44.6945,57.4065
44.6824,57.3840
44.5879,57.2083
44.5879,57.2083
44.4475,57.0323
44.4475,57.0323
44.2780,56.8842
44.0848,56.7688
43.9668,56.7245
43.8740,56.6897
43.6525,56.6495
43.6525,56.6495
43.4838,56.6495
43.4454,56.6530
43.3158,56.6646
43.3158,56.6646
43.0988,56.7245
43.0988,56.7245
42.8960,56.8222
42.8960,56.8222
42.7139,56.9545
42.7139,56.9545
42.5584,57.1172
42.4344,57.3050
42.3459,57.5120
42.3459,57.5120
42.2958,57.7315
42.2958,57.7315
42.2886,57.8923
42.2857,57.9563
42.3159,58.1794
42.3159,58.1794
42.3855,58.3935
42.4921,58.5917
42.4921,58.5917
42.6325,58.7677
42.6325,58.7677
42.6325,58.7677
42.7063,58.8321
42.7438,58.8911
42.7435,58.9609
42.7055,59.0195
42.6418,59.0483
42.6247,59.0495
37.8622,59.0495
37.7952,59.0298
37.7745,59.0132
36.3808,57.6194
36.3473,57.5581
36.3523,57.4884
36.3942,57.4325
36.4596,57.4080
36.4894,57.4095
36.5797,57.4250
36.5797,57.4250
37.0500,57.4250
37.0500,56.6043
37.0588,56.6092
37.2179,56.6500
37.3409,56.6500
37.4629,56.6346
37.5500,56.6001
37.5500,57.4250
37.9595,57.4250
37.9596,57.4250
38.1407,57.4096
38.3754,57.3485
38.5965,57.2485
38.5965,57.2485
38.7974,57.1127
38.7975,57.1127
38.9726,56.9449
38.9726,56.9449
39.1168,56.7498
39.2260,56.5332
39.2971,56.3013
39.3036,56.2500
37.9007,56.2500
37.9231,56.2025
37.9539,56.0411
37.9436,55.8772
37.9022,55.7500
39.3028,55.7500
39.3028,55.7500
47.7964,55.7500
47.7964,55.7500
49.1993,55.7500
49.1769,55.7975
49.1461,55.9589
49.1564,56.1228
49.1978,56.2500
47.7972,56.2500
47.8335,56.4188
47.8335,56.4188
47.9240,56.6439
48.0512,56.8504
48.2114,57.0325
48.2114,57.0325
48.4001,57.1849
48.4001,57.1849
48.6119,57.3032
48.8406,57.3840
48.8406,57.3840
49.0797,57.4250
49.0797,57.4250
49.5500,57.4250
49.5500,56.6043
49.5588,56.6092
49.7179,56.6500
49.8409,56.6500
49.9629,56.6346
50.0500,56.6001
50.0500,57.4250
50.4595,57.4250
50.4596,57.4250
50.6407,57.4096
50.8754,57.3485
51.0965,57.2485
51.0965,57.2485
51.2974,57.1127
51.2975,57.1127
51.4726,56.9449
51.4726,56.9449
51.6168,56.7498
51.7260,56.5332
51.7971,56.3013
51.8036,56.2500
50.4007,56.2500
50.4231,56.2025
50.4539,56.0411
50.4436,55.8772
50.4022,55.7500
51.8028,55.7500
51.7665,55.5812
51.7665,55.5812
51.6760,55.3561
51.5488,55.1496
51.3886,54.9675
51.3886,54.9675
51.1999,54.8151
51.1998,54.8151
50.9881,54.6968
50.7594,54.6160
50.7594,54.6160
50.5203,54.5750
50.0500,54.5750
50.0500,55.3957
50.0412,55.3908
49.8821,55.3500
49.7591,55.3500
49.6371,55.3654
49.5500,55.3999
49.5500,54.5750
49.1404,54.5750
48.9593,54.5904
48.7246,54.6515
48.5035,54.7515
48.5035,54.7515
48.3025,54.8873
48.3025,54.8873
48.1274,55.0551
48.1274,55.0551
47.9832,55.2502
47.8740,55.4668
47.8029,55.6987
47.7964,55.7500
39.3028,55.7500
39.2665,55.5812
39.2665,55.5812
39.1760,55.3561
39.0488,55.1496
38.8886,54.9675
38.8886,54.9675
38.6999,54.8151
38.6998,54.8151
38.4881,54.6968
38.3313,54.6414
38.2747,54.6005
38.2491,54.5355
38.2628,54.4670
38.3113,54.4167
38.3726,54.4005
42.4744,54.4005
42.5414,54.4202
42.5759,54.4534
42.5784,54.4569
42.7331,54.6116
42.9124,54.7371
43.1107,54.8296
43.1107,54.8296
43.1107,54.8296
43.1395,54.8373
43.3220,54.8862
43.5049,54.9022
43.5400,54.9053
43.5400,54.9053
43.5400,54.9053
43.5683,54.9028
43.7580,54.8862
43.9693,54.8296
44.1676,54.7371
44.3469,54.6116
44.5016,54.4569
44.6271,54.2776
44.7196,54.0793
44.7762,53.8680
44.7935,53.6702
44.7953,53.6500
44.7953,53.6500
44.7815,53.4923
44.7762,53.4320
44.7291,53.2563
58.2457,53.2563
58.2759,53.4794
58.2759,53.4794
58.3455,53.6935
58.4521,53.8917
58.4521,53.8917
58.5925,54.0677
58.5925,54.0677
58.5925,54.0677
58.7620,54.2158
58.9552,54.3312
59.1660,54.4103
59.3874,54.4505
59.3875,54.4505
59.5561,54.4505
59.5562,54.4505
59.7242,54.4354
59.7242,54.4354
59.9412,54.3755
59.9412,54.3755
59.9412,54.3755
60.1440,54.2778
60.3261,54.1455
60.4816,53.9828
60.6056,53.7950
60.6085,53.7882
60.6941,53.5880
60.6941,53.5880
60.6941,53.5880
60.7442,53.3685
60.7543,53.1437
60.7241,52.9206
60.6545,52.7065
60.5479,52.5083
60.4725,52.4138
60.4075,52.3323
60.3747,52.3037
60.2380,52.1842
60.0448,52.0688
59.9268,52.0245
59.8340,51.9897
59.6125,51.9495
59.6125,51.9495
59.4438,51.9495
59.4054,51.9530
59.2758,51.9646
59.2758,51.9646
59.0588,52.0245
59.0588,52.0245
58.8560,52.1222
58.8560,52.1222
58.6739,52.2545
58.6739,52.2545
58.5184,52.4172
58.3944,52.6050
58.3059,52.8120
58.3059,52.8120
58.2558,53.0315
58.2558,53.0315
58.2473,53.2207
58.2457,53.2563
44.7291,53.2563
44.7196,53.2207
44.6271,53.0224
44.6271,53.0224
44.6271,53.0224
44.5016,52.8431
44.4287,52.7702
44.3469,52.6884
44.1676,52.5629
44.1676,52.5629
44.1676,52.5629
44.0506,52.5083
43.9693,52.4704
43.9693,52.4704
43.9693,52.4704
43.7580,52.4138
43.5400,52.3947
43.5400,52.3947
43.3947,52.4074
43.3220,52.4138
43.3220,52.4138
43.1107,52.4704
43.1107,52.4704
42.9124,52.5629
42.9124,52.5629
42.7331,52.6884
42.5784,52.8431
42.5760,52.8466
42.5214,52.8902
42.4744,52.8995
34.8122,52.8995
34.7452,52.8798
34.7245,52.8632
34.0368,52.1755
34.0033,52.1141
34.0005,52.0878
34.0005,50.6475
34.0016,50.6313
34.0022,50.6267
34.0057,50.6000
34.0041,50.5877
33.9850,50.4432
33.9850,50.4432
33.9245,50.2972
33.8283,50.1717
33.7028,50.0755
33.6881,50.0693
33.5568,50.0150
33.5568,50.0150
33.4394,49.9995
33.4000,49.9943
33.3687,49.9984
33.3525,49.9995
33.0353,49.9995
32.9683,49.9798
32.9225,49.9270
32.9126,49.8579
32.9416,49.7943
32.9829,49.7631
33.0527,49.7306
33.2391,49.6000
33.4000,49.4391
33.5306,49.2527
33.6267,49.0465
33.6856,48.8267
33.7055,48.6000
33.6856,48.3733
33.6267,48.1535
33.5306,47.9473
33.4000,47.7609
33.4000,47.7609
33.3514,47.7122
33.3179,47.6509
33.3229,47.5812
33.3647,47.5252
33.4302,47.5008
33.4390,47.5005
33.6979,47.5005
33.6979,47.5005
33.7575,47.4941
33.8923,47.4438
34.0075,47.3575
34.0938,47.2423
34.1441,47.1075
34.1505,47.0479
34.1505,44.4521
34.1441,44.3925
34.1255,44.3426
34.0938,44.2577
34.0938,44.2577
34.0075,44.1425
34.0075,44.1425
33.8923,44.0562
33.8923,44.0562
33.7575,44.0059
33.7575,44.0059
33.6979,43.9995
33.6979,43.9995
33.6979,43.9995
33.6979,43.9995
31.1021,43.9995
31.1021,43.9995
31.0425,44.0059
30.9077,44.0562
30.9077,44.0562
30.7925,44.1425
30.7925,44.1425
30.7062,44.2577
30.7062,44.2577
30.6559,44.3925
30.6495,44.4521
30.6495,44.4521
30.6495,44.4521
30.6495,47.0479
30.6495,47.0479
30.6559,47.1075
30.7062,47.2423
30.7062,47.2423
30.7925,47.3575
30.7925,47.3575
30.9077,47.4438
30.9077,47.4438
30.9526,47.4606
31.0425,47.4941
31.1021,47.5005
31.3610,47.5005
31.4280,47.5202
31.4737,47.5730
31.4837,47.6421
31.4547,47.7057
31.4486,47.7122
31.4000,47.7609
31.2694,47.9473
31.2694,47.9473
31.1733,48.1535
31.1733,48.1535
31.1144,48.3733
31.1144,48.3733
31.0945,48.6000
31.0945,48.6000
31.1144,48.8267
31.1144,48.8267
31.1733,49.0465
31.1733,49.0465
31.2694,49.2527
31.2694,49.2527
31.4000,49.4391
31.5609,49.6000
31.5609,49.6000
31.7473,49.7306
31.8171,49.7631
31.8695,49.8093
31.8887,49.8765
31.8684,49.9434
31.8153,49.9887
31.7647,49.9995
31.5475,49.9995
31.5313,49.9984
31.5000,49.9943
31.4606,49.9995
31.3432,50.0150
31.3432,50.0150
31.1972,50.0755
31.0717,50.1717
30.9755,50.2972
30.9150,50.4432
30.9150,50.4432
30.8943,50.6000
30.8943,50.6000
30.8978,50.6267
30.8984,50.6313
30.8995,50.6475
30.8995,52.5525
30.8984,52.5687
30.8943,52.6000
30.8943,52.6000
30.8995,52.6394
30.8995,52.6394
30.9150,52.7568
30.9150,52.7568
30.9755,52.9028
31.0717,53.0283
31.1972,53.1245
31.3432,53.1850
31.4216,53.1954
31.5000,53.2057
31.5000,53.2057
31.5313,53.2016
31.5475,53.2005
31.7647,53.2005
31.8317,53.2202
31.8775,53.2730
31.8874,53.3421
31.8584,53.4057
31.8171,53.4369
31.7891,53.4499
31.7473,53.4694
31.7473,53.4694
31.5609,53.6000
31.4000,53.7609
31.2694,53.9473
31.2694,53.9473
31.1733,54.1535
31.1733,54.1535
31.1144,54.3733
31.1144,54.3733
31.0945,54.6000
31.0945,54.6000
31.1144,54.8267
31.1144,54.8267
31.1733,55.0465
31.1733,55.0465
31.2694,55.2527
31.2694,55.2527
31.4000,55.4391
31.4486,55.4878
31.4821,55.5491
31.4771,55.6188
31.4353,55.6748
31.3698,55.6992
31.3610,55.6995
31.1021,55.6995
31.1021,55.6995
31.0425,55.7059
30.9077,55.7562
30.9077,55.7562
30.7925,55.8425
30.7925,55.8425
30.7062,55.9577
30.7062,55.9577
30.6559,56.0925
30.6495,56.1521
30.6495,56.1521
30.6495,58.7479
30.6495,58.7479
30.6559,58.8075
30.7062,58.9423
30.7062,58.9423
30.7925,59.0575
30.7925,59.0575
30.9077,59.1438
30.9077,59.1438
31.0425,59.1941
31.0425,59.1941
31.0494,59.1948
31.1021,59.2005
33.6979,59.2005
33.7575,59.1941
33.8923,59.1438
34.0075,59.0575
34.0938,58.9423
34.1441,58.8075
34.1505,58.7479
34.1505,57.8112
34.1702,57.7442
34.2230,57.6984
34.2921,57.6885
34.3557,57.7175
34.3622,57.7235
36.8265,60.1878
36.8599,60.2491
36.8550,60.3188
36.8131,60.3748
36.7476,60.3992
36.7388,60.3995
30.1245,60.3995
30.0575,60.3798
30.0117,60.3270
30.0005,60.2755
30.0005,25.8563
31.7457,25.8563
31.7759,26.0794
31.7759,26.0794
31.8455,26.2935
31.9521,26.4917
31.9521,26.4917
32.0925,26.6677
32.0925,26.6677
32.0925,26.6677
32.2620,26.8158
32.4552,26.9312
32.6660,27.0103
32.8875,27.0505
32.8875,27.0505
33.0561,27.0505
33.0562,27.0505
33.2242,27.0354
33.2242,27.0354
33.4412,26.9755
33.4412,26.9755
33.4412,26.9755
33.6440,26.8778
33.8261,26.7455
33.9816,26.5828
34.1056,26.3950
34.1941,26.1880
34.2442,25.9685
34.2543,25.7437
34.2241,25.5206
34.1545,25.3065
34.1096,25.2230
34.0707,25.1508
34.0479,25.1083
33.9688,25.0092
33.9075,24.9323
33.9075,24.9323
33.7380,24.7842
33.5448,24.6688
33.4268,24.6245
33.3340,24.5897
33.1125,24.5495
33.1125,24.5495
32.9438,24.5495
32.9054,24.5530
32.7758,24.5646
32.7758,24.5646
32.5588,24.6245
32.5588,24.6245
32.3560,24.7222
32.3560,24.7222
32.1739,24.8545
32.1739,24.8545
32.0184,25.0172
31.8944,25.2050
31.8059,25.4120
31.8059,25.4120
31.7558,25.6315
31.7558,25.6315
31.7470,25.8265
31.7457,25.8563
30.0005,25.8563
30.0005,23.0245
30.0202,22.9575
30.0730,22.9117
30.1245,22.9005
42.7388,22.9005
Z" /> 
<path style="fill:#000000; fill-opacity:1.0000; 
stroke:#000000; stroke-width:0.0000; stroke-opacity:1; 
stroke-linecap:round; stroke-linejoin:round;fill-rule:evenodd;"
d="M 57.2729,57.5633
57.3174,57.6147
57.3315,57.6450
57.3444,57.6727
57.3444,57.6727
57.4750,57.8591
57.6359,58.0200
57.6359,58.0200
57.8223,58.1506
58.0285,58.2467
58.2483,58.3056
58.4102,58.3198
58.4750,58.3255
58.4750,58.3255
58.4750,58.3255
58.4951,58.3237
58.6419,58.3109
58.7104,58.3246
58.7403,58.3467
59.2315,58.8378
59.2649,58.8991
59.2600,58.9688
59.2181,59.0248
59.1526,59.0492
59.1438,59.0495
56.8095,59.0495
56.7425,59.0298
56.6967,58.9770
56.6855,58.9255
56.6855,58.1467
56.7052,58.0796
56.7384,58.0451
56.7741,58.0200
56.9350,57.8591
56.9350,57.8591
57.0656,57.6727
57.0926,57.6147
57.1388,57.5623
57.2060,57.5431
Z" /> 
<path style="fill:#000000; fill-opacity:1.0000; 
stroke:#000000; stroke-width:0.0000; stroke-opacity:1; 
stroke-linecap:round; stroke-linejoin:round;fill-rule:evenodd;"
d="M 63.8050,58.2989
64.0013,58.2463
64.0013,58.2463
64.2075,58.1501
64.3938,58.0197
64.5547,57.8588
64.6851,57.6725
64.7123,57.6141
64.7585,57.5617
64.8257,57.5425
64.8926,57.5628
64.9371,57.6141
64.9591,57.6613
64.9644,57.6727
64.9644,57.6727
65.0950,57.8591
65.2559,58.0200
65.2559,58.0200
65.4423,58.1506
65.6485,58.2467
65.8683,58.3056
66.0302,58.3198
66.0950,58.3255
66.0950,58.3255
66.0950,58.3255
66.1151,58.3237
66.2619,58.3109
66.3304,58.3246
66.3603,58.3467
66.7693,58.7556
66.7811,58.7693
66.7954,58.7885
66.8333,58.8204
66.8413,58.8277
66.8452,58.8316
66.8467,58.8329
66.8469,58.8333
66.8478,58.8341
66.8476,58.8343
66.8837,58.8921
66.8827,58.9620
66.8442,59.0203
66.7803,59.0485
66.7642,59.0495
62.6112,59.0495
62.5442,59.0298
62.4984,58.9770
62.4885,58.9079
62.5175,58.8443
62.5235,58.8378
62.7906,58.5707
62.8043,58.5590
62.8235,58.5446
62.8554,58.5066
62.8627,58.4987
62.8666,58.4948
62.8858,58.4705
62.8880,58.4677
62.9363,58.4102
62.9363,58.4102
62.9403,58.4042
62.9403,58.4042
62.9444,58.3979
62.9443,58.3978
62.9481,58.3917
62.9481,58.3917
62.9798,58.3237
62.9813,58.3205
62.9840,58.3153
63.0317,58.2642
63.0994,58.2470
63.1269,58.2511
63.3050,58.2989
63.3050,58.2989
63.3050,57.3357
63.3170,57.3476
63.4299,57.4052
63.5235,57.4200
63.5865,57.4200
63.6801,57.4052
63.7930,57.3476
63.8050,57.3357
Z" /> 
<path style="fill:#000000; fill-opacity:1.0000; 
stroke:#000000; stroke-width:0.0000; stroke-opacity:1; 
stroke-linecap:round; stroke-linejoin:round;fill-rule:evenodd;"
d="M 66.2366,25.1702
66.2824,25.2230
66.2923,25.2921
66.2751,25.3396
66.2709,25.3464
66.2652,25.3557
66.2652,25.3557
66.2508,25.3991
66.2100,25.5222
66.2100,25.5222
66.2100,25.5222
66.1995,25.6250
66.1995,26.9750
66.1995,26.9750
66.2100,27.0778
66.2100,27.0778
66.2652,27.2443
66.2652,27.2443
66.2845,27.2757
66.3573,27.3937
66.4813,27.5177
66.6307,27.6098
66.7972,27.6650
66.9000,27.6755
67.6250,27.6755
67.6250,27.6755
67.6250,27.6755
67.6813,27.6697
67.7278,27.6650
67.8943,27.6098
68.0437,27.5177
68.1677,27.3937
68.2598,27.2443
68.2959,27.1355
68.3357,27.0781
68.4002,27.0512
68.4136,27.0505
69.0378,27.0505
69.1048,27.0702
69.1255,27.0868
70.3367,28.2981
71.0970,29.0583
71.1304,29.1196
71.1255,29.1893
71.0836,29.2453
71.0615,29.2535
71.0450,29.2700
71.0450,30.1960
71.0253,30.2630
70.9725,30.3088
70.9210,30.3200
69.3227,30.3200
69.3227,30.3200
69.3229,30.3225
69.3229,30.3225
69.3428,30.3909
69.3426,30.4608
69.3046,30.5194
69.2410,30.5483
69.2237,30.5495
60.2622,30.5495
60.1952,30.5298
60.1745,30.5132
59.4814,29.8200
69.3227,29.8200
69.3227,29.8200
70.5450,29.8200
70.5450,29.2700
69.9043,29.2700
69.8675,29.2729
69.8675,29.2729
69.7098,29.3187
69.7098,29.3187
69.5684,29.4023
69.5684,29.4023
69.4523,29.5184
69.4523,29.5184
69.3687,29.6598
69.3229,29.8175
69.3227,29.8200
59.4814,29.8200
57.7068,28.0455
57.6733,27.9841
57.6705,27.9578
57.6705,27.3403
57.6902,27.2732
57.7234,27.2387
57.7346,27.2308
57.8908,27.0746
58.0175,26.8937
58.0776,26.7648
58.1238,26.7124
58.1910,26.6932
58.2579,26.7134
58.3024,26.7648
58.3625,26.8937
58.3625,26.8937
58.4892,27.0746
58.4892,27.0746
58.6454,27.2308
58.6454,27.2308
58.8263,27.3575
58.8263,27.3575
58.8263,27.3575
59.0266,27.4509
59.2399,27.5081
59.3894,27.5211
59.4600,27.5273
59.4600,27.5273
59.4600,27.5273
59.5150,27.5225
59.6801,27.5081
59.8934,27.4509
60.0937,27.3575
60.2746,27.2308
60.4308,27.0746
60.5575,26.8937
60.6176,26.7648
60.6638,26.7124
60.7310,26.6932
60.7979,26.7134
60.8424,26.7648
60.9025,26.8937
60.9025,26.8937
61.0292,27.0746
61.0292,27.0746
61.1854,27.2308
61.1854,27.2308
61.3663,27.3575
61.3663,27.3575
61.3663,27.3575
61.5665,27.4509
61.7799,27.5081
61.9294,27.5211
62.0000,27.5273
62.0000,27.5273
62.0000,27.5273
62.0550,27.5225
62.2201,27.5081
62.4335,27.4509
62.6337,27.3575
62.8146,27.2308
62.9586,27.0868
63.0199,27.0533
63.0463,27.0505
63.1864,27.0505
63.2535,27.0702
63.2992,27.1230
63.3041,27.1355
63.3147,27.1673
63.3402,27.2443
63.3402,27.2443
63.3595,27.2757
63.4323,27.3937
63.5563,27.5177
63.7057,27.6098
63.8722,27.6650
63.9750,27.6755
64.7000,27.6755
64.7000,27.6755
64.7000,27.6755
64.7563,27.6697
64.8028,27.6650
64.9693,27.6098
65.1187,27.5177
65.2427,27.3937
65.3348,27.2443
65.3900,27.0778
65.4005,26.9750
65.4005,25.6250
65.3900,25.5222
65.3348,25.3557
65.3249,25.3396
65.3065,25.2722
65.3274,25.2055
65.3810,25.1608
65.4304,25.1505
66.1696,25.1505
Z" /> 
<path style="fill:#000000; fill-opacity:1.0000; 
stroke:#000000; stroke-width:0.0000; stroke-opacity:1; 
stroke-linecap:round; stroke-linejoin:round;fill-rule:evenodd;"
d="M 60.1758,24.2702
60.2216,24.3230
60.2315,24.3921
60.2025,24.4557
60.1965,24.4622
59.6903,24.9684
59.6289,25.0018
59.5918,25.0042
59.4600,24.9927
59.4600,24.9927
59.2399,25.0119
59.2399,25.0119
59.0266,25.0691
59.0265,25.0691
58.8263,25.1625
58.8263,25.1625
58.6454,25.2892
58.4892,25.4454
58.3625,25.6263
58.3625,25.6263
58.3024,25.7552
58.2562,25.8076
58.1890,25.8268
58.1221,25.8066
58.0776,25.7552
58.0591,25.7154
58.0175,25.6263
57.9435,25.5206
57.8908,25.4454
57.8446,25.3991
57.7346,25.2892
57.7346,25.2892
57.7346,25.2892
57.5537,25.1625
57.5537,25.1625
57.4375,25.1083
57.3534,25.0691
57.3534,25.0691
57.3534,25.0691
57.1401,25.0119
57.1401,25.0119
56.9200,24.9927
56.9200,24.9927
56.6999,25.0119
56.6999,25.0119
56.4866,25.0691
56.4865,25.0691
56.2863,25.1625
56.2372,25.1969
56.1710,25.2192
56.1032,25.2022
56.0784,25.1830
55.4578,24.5624
55.4460,24.5487
55.4316,24.5295
55.3937,24.4976
55.3857,24.4903
55.3818,24.4864
55.3633,24.4718
55.3229,24.4147
55.3198,24.3449
55.3549,24.2845
55.4171,24.2527
55.4402,24.2505
60.1088,24.2505
Z" /> 
</g>
</g>
</g> 
</svg>
