M48
; DRILL file {KiCad 7.0.9} date Sun 24 Dec 2023 01:53:09 PM CET
; FORMAT={-:-/ absolute / metric / decimal}
; #@! TF.CreationDate,2023-12-24T13:53:09+01:00
; #@! TF.GenerationSoftware,Kicad,Pcbnew,7.0.9
; #@! TF.FileFunction,MixedPlating,1,2
FMAT,2
METRIC
; #@! TA.AperFunction,Plated,PTH,ComponentDrill
T1C0.762
; #@! TA.AperFunction,Plated,PTH,ComponentDrill
T2C0.800
; #@! TA.AperFunction,Plated,PTH,ComponentDrill
T3C1.000
; #@! TA.AperFunction,Plated,PTH,ComponentDrill
T4C1.300
; #@! TA.AperFunction,NonPlated,NPTH,ComponentDrill
T5C2.000
%
G90
G05
T1
X19.3Y34.14
X19.3Y18.9
X21.84Y34.14
X21.84Y18.9
X24.38Y34.14
X24.38Y18.9
X26.92Y34.14
X26.92Y18.9
X29.46Y34.14
X29.46Y18.9
X32.0Y34.14
X32.0Y18.9
T2
X13.54Y27.2
X13.54Y6.75
X23.395Y11.0
X23.395Y3.38
X25.935Y11.0
X25.935Y3.38
X28.475Y11.0
X28.475Y3.38
X31.015Y11.0
X31.015Y3.38
X33.555Y11.0
X33.555Y3.38
X36.095Y11.0
X36.095Y3.38
X38.635Y11.0
X38.635Y3.38
X41.175Y11.0
X41.175Y3.38
T3
X2.4Y11.8
X2.4Y8.8
X2.4Y5.8
X9.7Y15.1
X44.3Y15.2
X44.6Y8.1
X44.6Y3.6
X48.3Y3.6
X50.2Y8.0
X50.4Y15.1
T4
X7.3Y9.4
X7.3Y4.4
X19.8Y9.4
X19.8Y4.4
T5
X2.4Y14.65
X2.4Y2.95
X3.0Y34.6
X13.54Y2.5
X29.5Y7.2
X50.0Y34.6
T0
M30
