G04 #@! TF.GenerationSoftware,KiCad,Pcbnew,7.0.9*
G04 #@! TF.CreationDate,2023-12-16T19:08:37+01:00*
G04 #@! TF.ProjectId,reactionGameBoard,72656163-7469-46f6-9e47-616d65426f61,rev?*
G04 #@! TF.SameCoordinates,PX243d580PY50343a0*
G04 #@! TF.FileFunction,Copper,L2,Bot*
G04 #@! TF.FilePolarity,Positive*
%FSLAX46Y46*%
G04 Gerber Fmt 4.6, Leading zero omitted, Abs format (unit mm)*
G04 Created by KiCad (PCBNEW 7.0.9) date 2023-12-16 19:08:37*
%MOMM*%
%LPD*%
G01*
G04 APERTURE LIST*
G04 Aperture macros list*
%AMRoundRect*
0 Rectangle with rounded corners*
0 $1 Rounding radius*
0 $2 $3 $4 $5 $6 $7 $8 $9 X,Y pos of 4 corners*
0 Add a 4 corners polygon primitive as box body*
4,1,4,$2,$3,$4,$5,$6,$7,$8,$9,$2,$3,0*
0 Add four circle primitives for the rounded corners*
1,1,$1+$1,$2,$3*
1,1,$1+$1,$4,$5*
1,1,$1+$1,$6,$7*
1,1,$1+$1,$8,$9*
0 Add four rect primitives between the rounded corners*
20,1,$1+$1,$2,$3,$4,$5,0*
20,1,$1+$1,$4,$5,$6,$7,0*
20,1,$1+$1,$6,$7,$8,$9,0*
20,1,$1+$1,$8,$9,$2,$3,0*%
G04 Aperture macros list end*
G04 #@! TA.AperFunction,ComponentPad*
%ADD10R,1.600000X1.600000*%
G04 #@! TD*
G04 #@! TA.AperFunction,ComponentPad*
%ADD11O,1.600000X1.600000*%
G04 #@! TD*
G04 #@! TA.AperFunction,ComponentPad*
%ADD12O,3.048000X1.850000*%
G04 #@! TD*
G04 #@! TA.AperFunction,ComponentPad*
%ADD13R,1.700000X1.700000*%
G04 #@! TD*
G04 #@! TA.AperFunction,ComponentPad*
%ADD14O,1.700000X1.700000*%
G04 #@! TD*
G04 #@! TA.AperFunction,ComponentPad*
%ADD15C,1.500000*%
G04 #@! TD*
G04 #@! TA.AperFunction,ComponentPad*
%ADD16C,1.524000*%
G04 #@! TD*
G04 #@! TA.AperFunction,SMDPad,CuDef*
%ADD17RoundRect,0.250000X0.312500X0.625000X-0.312500X0.625000X-0.312500X-0.625000X0.312500X-0.625000X0*%
G04 #@! TD*
G04 #@! TA.AperFunction,SMDPad,CuDef*
%ADD18RoundRect,0.250000X0.625000X-0.312500X0.625000X0.312500X-0.625000X0.312500X-0.625000X-0.312500X0*%
G04 #@! TD*
G04 #@! TA.AperFunction,SMDPad,CuDef*
%ADD19RoundRect,0.150000X-0.150000X0.825000X-0.150000X-0.825000X0.150000X-0.825000X0.150000X0.825000X0*%
G04 #@! TD*
G04 #@! TA.AperFunction,Conductor*
%ADD20C,0.500000*%
G04 #@! TD*
G04 #@! TA.AperFunction,Conductor*
%ADD21C,0.250000*%
G04 #@! TD*
G04 APERTURE END LIST*
D10*
G04 #@! TO.P,U2,1,QB*
G04 #@! TO.N,Net-(U2-QB)*
X45000000Y20972214D03*
D11*
G04 #@! TO.P,U2,2,QC*
G04 #@! TO.N,Net-(U2-QC)*
X42460000Y20972214D03*
G04 #@! TO.P,U2,3,QD*
G04 #@! TO.N,Net-(U2-QD)*
X39920000Y20972214D03*
G04 #@! TO.P,U2,4,QE*
G04 #@! TO.N,Net-(U2-QE)*
X37380000Y20972214D03*
G04 #@! TO.P,U2,5,QF*
G04 #@! TO.N,Net-(U2-QF)*
X34840000Y20972214D03*
G04 #@! TO.P,U2,6,QG*
G04 #@! TO.N,Net-(U2-QG)*
X32300000Y20972214D03*
G04 #@! TO.P,U2,7,QH*
G04 #@! TO.N,Net-(U2-QH)*
X29760000Y20972214D03*
G04 #@! TO.P,U2,8,GND*
G04 #@! TO.N,GND*
X27220000Y20972214D03*
G04 #@! TO.P,U2,9,QH'*
G04 #@! TO.N,unconnected-(U2-QH'-Pad9)*
X27220000Y13352214D03*
G04 #@! TO.P,U2,10,~{SRCLR}*
G04 #@! TO.N,+3V0*
X29760000Y13352214D03*
G04 #@! TO.P,U2,11,SRCLK*
G04 #@! TO.N,clock*
X32300000Y13352214D03*
G04 #@! TO.P,U2,12,RCLK*
G04 #@! TO.N,latch*
X34840000Y13352214D03*
G04 #@! TO.P,U2,13,~{OE}*
G04 #@! TO.N,GND*
X37380000Y13352214D03*
G04 #@! TO.P,U2,14,SER*
G04 #@! TO.N,data*
X39920000Y13352214D03*
G04 #@! TO.P,U2,15,QA*
G04 #@! TO.N,Net-(U2-QA)*
X42460000Y13352214D03*
G04 #@! TO.P,U2,16,VCC*
G04 #@! TO.N,+3V0*
X45000000Y13352214D03*
G04 #@! TD*
D12*
G04 #@! TO.P,SW1,1,1*
G04 #@! TO.N,PA0*
X7500000Y10400000D03*
X20000000Y10400000D03*
G04 #@! TO.P,SW1,2,2*
G04 #@! TO.N,GND*
X7500000Y5400000D03*
X20000000Y5400000D03*
G04 #@! TD*
D13*
G04 #@! TO.P,J3,1,Pin_1*
G04 #@! TO.N,MOSI*
X47040000Y6850000D03*
D14*
G04 #@! TO.P,J3,2,Pin_2*
G04 #@! TO.N,+3V0*
X47040000Y4310000D03*
G04 #@! TO.P,J3,3,Pin_3*
G04 #@! TO.N,reset*
X44500000Y6850000D03*
G04 #@! TO.P,J3,4,Pin_4*
G04 #@! TO.N,GND*
X44500000Y4310000D03*
G04 #@! TO.P,J3,5,Pin_5*
G04 #@! TO.N,SCK*
X41960000Y6850000D03*
G04 #@! TO.P,J3,6,Pin_6*
G04 #@! TO.N,MISO*
X41960000Y4310000D03*
G04 #@! TD*
D15*
G04 #@! TO.P,SW2,*
G04 #@! TO.N,*
X5400000Y15250000D03*
X5400000Y26950000D03*
D16*
G04 #@! TO.P,SW2,1,A*
G04 #@! TO.N,+3V0*
X5400000Y24100000D03*
G04 #@! TO.P,SW2,2,B*
G04 #@! TO.N,Net-(SW2A-B)*
X5400000Y21100000D03*
G04 #@! TO.P,SW2,3,C*
G04 #@! TO.N,unconnected-(SW2A-C-Pad3)*
X5400000Y18100000D03*
G04 #@! TD*
G04 #@! TO.P,DS1,1,E*
G04 #@! TO.N,E*
X19250000Y30100000D03*
G04 #@! TO.P,DS1,2,D*
G04 #@! TO.N,D*
X21790000Y30100000D03*
G04 #@! TO.P,DS1,3,Dp*
G04 #@! TO.N,Dp*
X24330000Y30100000D03*
G04 #@! TO.P,DS1,4,C*
G04 #@! TO.N,C*
X26870000Y30100000D03*
G04 #@! TO.P,DS1,5,G*
G04 #@! TO.N,G*
X29410000Y30100000D03*
G04 #@! TO.P,DS1,6,4*
G04 #@! TO.N,DP4*
X31950000Y30100000D03*
G04 #@! TO.P,DS1,7,B*
G04 #@! TO.N,B*
X31950000Y45340000D03*
G04 #@! TO.P,DS1,8,3*
G04 #@! TO.N,DP3*
X29410000Y45340000D03*
G04 #@! TO.P,DS1,9,2*
G04 #@! TO.N,DP2*
X26870000Y45340000D03*
G04 #@! TO.P,DS1,10,F*
G04 #@! TO.N,F*
X24330000Y45340000D03*
G04 #@! TO.P,DS1,11,A*
G04 #@! TO.N,A*
X21790000Y45340000D03*
G04 #@! TO.P,DS1,12,1*
G04 #@! TO.N,DP1*
X19250000Y45340000D03*
G04 #@! TD*
D17*
G04 #@! TO.P,R2,1*
G04 #@! TO.N,Net-(U2-QB)*
X29162500Y41500000D03*
G04 #@! TO.P,R2,2*
G04 #@! TO.N,F*
X26237500Y41500000D03*
G04 #@! TD*
D18*
G04 #@! TO.P,R4,1*
G04 #@! TO.N,Net-(U2-QD)*
X39800000Y23137500D03*
G04 #@! TO.P,R4,2*
G04 #@! TO.N,G*
X39800000Y26062500D03*
G04 #@! TD*
D19*
G04 #@! TO.P,U1,1,VCC*
G04 #@! TO.N,+3V0*
X30513774Y8800000D03*
G04 #@! TO.P,U1,2,XTAL1/PB0*
G04 #@! TO.N,clock*
X31783774Y8800000D03*
G04 #@! TO.P,U1,3,XTAL2/PB1*
G04 #@! TO.N,latch*
X33053774Y8800000D03*
G04 #@! TO.P,U1,4,~{RESET}/PB3*
G04 #@! TO.N,reset*
X34323774Y8800000D03*
G04 #@! TO.P,U1,5,PB2*
G04 #@! TO.N,data*
X35593774Y8800000D03*
G04 #@! TO.P,U1,6,PA7*
G04 #@! TO.N,DP3*
X36863774Y8800000D03*
G04 #@! TO.P,U1,7,PA6*
G04 #@! TO.N,MOSI*
X38133774Y8800000D03*
G04 #@! TO.P,U1,8,PA5*
G04 #@! TO.N,MISO*
X38133774Y3850000D03*
G04 #@! TO.P,U1,9,PA4*
G04 #@! TO.N,SCK*
X36863774Y3850000D03*
G04 #@! TO.P,U1,10,PA3*
G04 #@! TO.N,DP2*
X35593774Y3850000D03*
G04 #@! TO.P,U1,11,PA2*
G04 #@! TO.N,DP1*
X34323774Y3850000D03*
G04 #@! TO.P,U1,12,PA1*
G04 #@! TO.N,DP4*
X33053774Y3850000D03*
G04 #@! TO.P,U1,13,AREF/PA0*
G04 #@! TO.N,PA0*
X31783774Y3850000D03*
G04 #@! TO.P,U1,14,GND*
G04 #@! TO.N,GND*
X30513774Y3850000D03*
G04 #@! TD*
D17*
G04 #@! TO.P,R5,1*
G04 #@! TO.N,Net-(U2-QE)*
X36562500Y25400000D03*
G04 #@! TO.P,R5,2*
G04 #@! TO.N,C*
X33637500Y25400000D03*
G04 #@! TD*
D18*
G04 #@! TO.P,R7,1*
G04 #@! TO.N,Net-(U2-QG)*
X21800000Y24337500D03*
G04 #@! TO.P,R7,2*
G04 #@! TO.N,D*
X21800000Y27262500D03*
G04 #@! TD*
G04 #@! TO.P,R1,1*
G04 #@! TO.N,Net-(U2-QA)*
X46900000Y23637500D03*
G04 #@! TO.P,R1,2*
G04 #@! TO.N,B*
X46900000Y26562500D03*
G04 #@! TD*
G04 #@! TO.P,R3,1*
G04 #@! TO.N,Net-(U2-QC)*
X21813774Y39875000D03*
G04 #@! TO.P,R3,2*
G04 #@! TO.N,A*
X21813774Y42800000D03*
G04 #@! TD*
D17*
G04 #@! TO.P,R6,1*
G04 #@! TO.N,Net-(U2-QF)*
X27262500Y26000000D03*
G04 #@! TO.P,R6,2*
G04 #@! TO.N,Dp*
X24337500Y26000000D03*
G04 #@! TD*
G04 #@! TO.P,R8,1*
G04 #@! TO.N,Net-(U2-QH)*
X18900000Y27000000D03*
G04 #@! TO.P,R8,2*
G04 #@! TO.N,E*
X15975000Y27000000D03*
G04 #@! TD*
D15*
G04 #@! TO.P,B1,1*
G04 #@! TO.N,GND*
X14100000Y21900000D03*
G04 #@! TO.P,B1,2*
G04 #@! TO.N,Net-(SW2A-B)*
X14100000Y2400000D03*
G04 #@! TD*
D20*
G04 #@! TO.N,DP2*
X26923774Y45352214D02*
X29371560Y47800000D01*
X49800000Y3600000D02*
X48200000Y2000000D01*
X29371560Y47800000D02*
X36300000Y47800000D01*
X36300000Y47800000D02*
X49800000Y34300000D01*
X35593774Y3292316D02*
X35593774Y3850000D01*
X49800000Y34300000D02*
X49800000Y3600000D01*
X48200000Y2000000D02*
X36886090Y2000000D01*
X36886090Y2000000D02*
X35593774Y3292316D01*
G04 #@! TO.N,DP3*
X29463774Y45352214D02*
X30911560Y46800000D01*
X33200000Y46800000D02*
X48600000Y31400000D01*
X30911560Y46800000D02*
X33200000Y46800000D01*
X37800000Y10800000D02*
X36863774Y9863774D01*
X48600000Y31400000D02*
X48600000Y14100000D01*
X48600000Y14100000D02*
X45300000Y10800000D01*
X45300000Y10800000D02*
X37800000Y10800000D01*
X36863774Y9863774D02*
X36863774Y8800000D01*
G04 #@! TO.N,E*
X15975000Y28575000D02*
X17500000Y30100000D01*
X15975000Y27000000D02*
X15975000Y28575000D01*
X17500000Y30100000D02*
X19303774Y30100000D01*
G04 #@! TO.N,D*
X21800000Y27262500D02*
X21800000Y30056226D01*
X21800000Y30056226D02*
X21843774Y30100000D01*
X21813774Y30142214D02*
X21843774Y30112214D01*
G04 #@! TO.N,Dp*
X24337500Y30053726D02*
X24383774Y30100000D01*
X24337500Y26000000D02*
X24337500Y30053726D01*
G04 #@! TO.N,C*
X26900000Y30135988D02*
X26923774Y30112214D01*
X33637500Y25200000D02*
X33637500Y25400000D01*
X31623774Y25400000D02*
X26923774Y30100000D01*
X33637500Y25400000D02*
X31623774Y25400000D01*
G04 #@! TO.N,G*
X39800000Y26062500D02*
X38762500Y27100000D01*
X32463774Y27100000D02*
X29463774Y30100000D01*
X38762500Y27100000D02*
X32463774Y27100000D01*
G04 #@! TO.N,DP4*
X1700000Y6400000D02*
X1700000Y28900000D01*
X1700000Y28900000D02*
X7500000Y34700000D01*
X7500000Y34700000D02*
X29800000Y34700000D01*
X29800000Y34700000D02*
X32003774Y32496226D01*
X32003774Y32496226D02*
X32003774Y30100000D01*
X31078773Y900000D02*
X7200000Y900000D01*
X33053774Y3850000D02*
X33053774Y2875001D01*
X33053774Y2875001D02*
X31078773Y900000D01*
X7200000Y900000D02*
X1700000Y6400000D01*
G04 #@! TO.N,B*
X31813774Y45162214D02*
X32003774Y45352214D01*
D21*
X32000000Y45336226D02*
X32003774Y45340000D01*
D20*
X46900000Y30436226D02*
X32000000Y45336226D01*
X46900000Y26562500D02*
X46900000Y30436226D01*
G04 #@! TO.N,F*
X24313774Y45282214D02*
X24383774Y45352214D01*
X24383774Y45340000D02*
X24383774Y43353726D01*
X24383774Y43353726D02*
X26237500Y41500000D01*
G04 #@! TO.N,A*
X21813774Y42757214D02*
X21813774Y45322214D01*
X21813774Y45322214D02*
X21843774Y45352214D01*
G04 #@! TO.N,DP1*
X50900000Y3300000D02*
X50900000Y34700000D01*
X34323774Y3850000D02*
X34323774Y2676226D01*
X35900000Y1100000D02*
X48700000Y1100000D01*
X34323774Y2676226D02*
X35900000Y1100000D01*
X36900000Y48700000D02*
X22837786Y48700000D01*
X22837786Y48700000D02*
X19490000Y45352214D01*
X50900000Y34700000D02*
X36900000Y48700000D01*
X48700000Y1100000D02*
X50900000Y3300000D01*
G04 #@! TO.N,MOSI*
X39183774Y9850000D02*
X38133774Y8800000D01*
X44040000Y9850000D02*
X39183774Y9850000D01*
X47040000Y6850000D02*
X44040000Y9850000D01*
G04 #@! TO.N,GND*
X31592214Y16600000D02*
X27220000Y20972214D01*
X37380000Y13352214D02*
X37380000Y14720000D01*
X37380000Y14720000D02*
X35500000Y16600000D01*
X35500000Y16600000D02*
X31592214Y16600000D01*
G04 #@! TO.N,+3V0*
X20500000Y20000000D02*
X23112214Y20000000D01*
X5400000Y24100000D02*
X16400000Y24100000D01*
X30513774Y8800000D02*
X30513774Y12598440D01*
X30573774Y8860000D02*
X30513774Y8800000D01*
X16400000Y24100000D02*
X20500000Y20000000D01*
X23112214Y20000000D02*
X29760000Y13352214D01*
X30513774Y12598440D02*
X29760000Y13352214D01*
G04 #@! TO.N,MISO*
X41960000Y4310000D02*
X38593774Y4310000D01*
X38593774Y4310000D02*
X38133774Y3850000D01*
G04 #@! TO.N,SCK*
X40960000Y5850000D02*
X41960000Y6850000D01*
X36863774Y3850000D02*
X36863774Y4769387D01*
X36863774Y4769387D02*
X37944387Y5850000D01*
X37944387Y5850000D02*
X40960000Y5850000D01*
G04 #@! TO.N,reset*
X34323774Y7825001D02*
X34323774Y8800000D01*
X44500000Y6850000D02*
X43000000Y8350000D01*
X43000000Y8350000D02*
X40000000Y8350000D01*
X38500000Y6850000D02*
X35298775Y6850000D01*
X40000000Y8350000D02*
X38500000Y6850000D01*
X35298775Y6850000D02*
X34323774Y7825001D01*
G04 #@! TO.N,Net-(U2-QA)*
X47000000Y17892214D02*
X47000000Y23537500D01*
X47000000Y23537500D02*
X46900000Y23637500D01*
X42460000Y13352214D02*
X47000000Y17892214D01*
G04 #@! TO.N,Net-(U2-QB)*
X45000000Y26000000D02*
X45000000Y20972214D01*
X29162500Y41500000D02*
X29500000Y41500000D01*
X29500000Y41500000D02*
X45000000Y26000000D01*
G04 #@! TO.N,Net-(U2-QC)*
X21813774Y39875000D02*
X22713774Y38975000D01*
X22713774Y38975000D02*
X29125000Y38975000D01*
X42460000Y25640000D02*
X42460000Y20972214D01*
X29125000Y38975000D02*
X42460000Y25640000D01*
G04 #@! TO.N,Net-(U2-QD)*
X39800000Y21092214D02*
X39920000Y20972214D01*
X39800000Y23137500D02*
X39800000Y21092214D01*
G04 #@! TO.N,Net-(U2-QE)*
X37380000Y20972214D02*
X37380000Y24382500D01*
X37380000Y24382500D02*
X36562500Y25200000D01*
G04 #@! TO.N,Net-(U2-QF)*
X34840000Y20972214D02*
X29812214Y26000000D01*
X29812214Y26000000D02*
X27262500Y26000000D01*
G04 #@! TO.N,Net-(U2-QG)*
X21800000Y24337500D02*
X21837500Y24300000D01*
X28972214Y24300000D02*
X32300000Y20972214D01*
X21837500Y24300000D02*
X28972214Y24300000D01*
G04 #@! TO.N,Net-(U2-QH)*
X21100000Y22900000D02*
X18900000Y25100000D01*
X29760000Y20972214D02*
X27832214Y22900000D01*
X18900000Y25100000D02*
X18900000Y27000000D01*
X27832214Y22900000D02*
X21100000Y22900000D01*
G04 #@! TO.N,PA0*
X26308773Y10300000D02*
X31783774Y4824999D01*
X31783774Y4824999D02*
X31783774Y3850000D01*
X7600000Y10300000D02*
X26308773Y10300000D01*
X7500000Y10400000D02*
X7600000Y10300000D01*
G04 #@! TO.N,data*
X36800000Y11700000D02*
X38267786Y11700000D01*
X35593774Y8800000D02*
X35593774Y10493774D01*
X38267786Y11700000D02*
X39920000Y13352214D01*
X35593774Y10493774D02*
X36800000Y11700000D01*
G04 #@! TO.N,clock*
X31800000Y8816226D02*
X31800000Y12852214D01*
X31800000Y12852214D02*
X32300000Y13352214D01*
X31783774Y8800000D02*
X31800000Y8816226D01*
G04 #@! TO.N,latch*
X33053774Y8800000D02*
X33053774Y10653774D01*
X34840000Y12440000D02*
X34840000Y13352214D01*
X33053774Y10653774D02*
X34840000Y12440000D01*
G04 #@! TD*
G04 #@! TA.AperFunction,Conductor*
G04 #@! TO.N,GND*
G36*
X29504809Y33929815D02*
G01*
X29525451Y33913181D01*
X31216955Y32221677D01*
X31250440Y32160354D01*
X31253274Y32133996D01*
X31253274Y31217927D01*
X31233589Y31150888D01*
X31200398Y31116352D01*
X31135375Y31070823D01*
X30979175Y30914623D01*
X30852466Y30733662D01*
X30852465Y30733660D01*
X30792382Y30604811D01*
X30746209Y30552372D01*
X30679016Y30533220D01*
X30612135Y30553436D01*
X30567618Y30604811D01*
X30531321Y30682650D01*
X30507534Y30733661D01*
X30425558Y30850736D01*
X30380827Y30914619D01*
X30320833Y30974613D01*
X30224620Y31070826D01*
X30224616Y31070829D01*
X30224615Y31070830D01*
X30043666Y31197532D01*
X30043662Y31197534D01*
X29999929Y31217927D01*
X29843450Y31290894D01*
X29843447Y31290895D01*
X29843445Y31290896D01*
X29630070Y31348070D01*
X29630062Y31348071D01*
X29410002Y31367323D01*
X29409998Y31367323D01*
X29189937Y31348071D01*
X29189929Y31348070D01*
X28976554Y31290896D01*
X28976548Y31290893D01*
X28776340Y31197535D01*
X28776338Y31197534D01*
X28595377Y31070825D01*
X28439175Y30914623D01*
X28312466Y30733662D01*
X28312465Y30733660D01*
X28252382Y30604811D01*
X28206209Y30552372D01*
X28139016Y30533220D01*
X28072135Y30553436D01*
X28027618Y30604811D01*
X27991321Y30682650D01*
X27967534Y30733661D01*
X27885558Y30850736D01*
X27840827Y30914619D01*
X27780833Y30974613D01*
X27684620Y31070826D01*
X27684616Y31070829D01*
X27684615Y31070830D01*
X27503666Y31197532D01*
X27503662Y31197534D01*
X27459929Y31217927D01*
X27303450Y31290894D01*
X27303447Y31290895D01*
X27303445Y31290896D01*
X27090070Y31348070D01*
X27090062Y31348071D01*
X26870002Y31367323D01*
X26869998Y31367323D01*
X26649937Y31348071D01*
X26649929Y31348070D01*
X26436554Y31290896D01*
X26436548Y31290893D01*
X26236340Y31197535D01*
X26236338Y31197534D01*
X26055377Y31070825D01*
X25899175Y30914623D01*
X25772466Y30733662D01*
X25772465Y30733660D01*
X25712382Y30604811D01*
X25666209Y30552372D01*
X25599016Y30533220D01*
X25532135Y30553436D01*
X25487618Y30604811D01*
X25451321Y30682650D01*
X25427534Y30733661D01*
X25345558Y30850736D01*
X25300827Y30914619D01*
X25240833Y30974613D01*
X25144620Y31070826D01*
X25144616Y31070829D01*
X25144615Y31070830D01*
X24963666Y31197532D01*
X24963662Y31197534D01*
X24919929Y31217927D01*
X24763450Y31290894D01*
X24763447Y31290895D01*
X24763445Y31290896D01*
X24550070Y31348070D01*
X24550062Y31348071D01*
X24330002Y31367323D01*
X24329998Y31367323D01*
X24109937Y31348071D01*
X24109929Y31348070D01*
X23896554Y31290896D01*
X23896548Y31290893D01*
X23696340Y31197535D01*
X23696338Y31197534D01*
X23515377Y31070825D01*
X23359175Y30914623D01*
X23232466Y30733662D01*
X23232465Y30733660D01*
X23172382Y30604811D01*
X23126209Y30552372D01*
X23059016Y30533220D01*
X22992135Y30553436D01*
X22947618Y30604811D01*
X22911321Y30682650D01*
X22887534Y30733661D01*
X22805558Y30850736D01*
X22760827Y30914619D01*
X22700833Y30974613D01*
X22604620Y31070826D01*
X22604616Y31070829D01*
X22604615Y31070830D01*
X22423666Y31197532D01*
X22423662Y31197534D01*
X22379929Y31217927D01*
X22223450Y31290894D01*
X22223447Y31290895D01*
X22223445Y31290896D01*
X22010070Y31348070D01*
X22010062Y31348071D01*
X21790002Y31367323D01*
X21789998Y31367323D01*
X21569937Y31348071D01*
X21569929Y31348070D01*
X21356554Y31290896D01*
X21356548Y31290893D01*
X21156340Y31197535D01*
X21156338Y31197534D01*
X20975377Y31070825D01*
X20819175Y30914623D01*
X20692466Y30733662D01*
X20692465Y30733660D01*
X20632382Y30604811D01*
X20586209Y30552372D01*
X20519016Y30533220D01*
X20452135Y30553436D01*
X20407618Y30604811D01*
X20371321Y30682650D01*
X20347534Y30733661D01*
X20265558Y30850736D01*
X20220827Y30914619D01*
X20160833Y30974613D01*
X20064620Y31070826D01*
X20064616Y31070829D01*
X20064615Y31070830D01*
X19883666Y31197532D01*
X19883662Y31197534D01*
X19839929Y31217927D01*
X19683450Y31290894D01*
X19683447Y31290895D01*
X19683445Y31290896D01*
X19470070Y31348070D01*
X19470062Y31348071D01*
X19250002Y31367323D01*
X19249998Y31367323D01*
X19029937Y31348071D01*
X19029929Y31348070D01*
X18816554Y31290896D01*
X18816548Y31290893D01*
X18616340Y31197535D01*
X18616338Y31197534D01*
X18435377Y31070825D01*
X18279173Y30914621D01*
X18271300Y30903376D01*
X18216723Y30859751D01*
X18169726Y30850500D01*
X17563705Y30850500D01*
X17545735Y30851809D01*
X17521972Y30855290D01*
X17476533Y30851314D01*
X17469931Y30850736D01*
X17464530Y30850500D01*
X17456289Y30850500D01*
X17434579Y30847963D01*
X17423724Y30846694D01*
X17408419Y30845355D01*
X17347199Y30839999D01*
X17340132Y30838540D01*
X17340120Y30838596D01*
X17332763Y30836965D01*
X17332777Y30836908D01*
X17325743Y30835241D01*
X17253575Y30808975D01*
X17180675Y30784819D01*
X17174126Y30781764D01*
X17174101Y30781817D01*
X17167308Y30778529D01*
X17167334Y30778477D01*
X17160880Y30775236D01*
X17096708Y30733029D01*
X17031347Y30692715D01*
X17025683Y30688235D01*
X17025647Y30688281D01*
X17019798Y30683516D01*
X17019835Y30683472D01*
X17014310Y30678836D01*
X16961598Y30622966D01*
X15489358Y29150728D01*
X15475729Y29138949D01*
X15456468Y29124610D01*
X15422898Y29084603D01*
X15419253Y29080624D01*
X15413409Y29074778D01*
X15393059Y29049041D01*
X15343695Y28990211D01*
X15339729Y28984181D01*
X15339682Y28984212D01*
X15335630Y28977853D01*
X15335679Y28977823D01*
X15331889Y28971679D01*
X15299424Y28902059D01*
X15264960Y28833434D01*
X15262488Y28826643D01*
X15262432Y28826664D01*
X15259960Y28819550D01*
X15260015Y28819531D01*
X15257742Y28812673D01*
X15249975Y28775054D01*
X15242207Y28737435D01*
X15231746Y28693294D01*
X15224498Y28662714D01*
X15223661Y28655546D01*
X15223601Y28655553D01*
X15222835Y28648055D01*
X15222895Y28648049D01*
X15222265Y28640860D01*
X15224500Y28564084D01*
X15224500Y28299730D01*
X15204815Y28232691D01*
X15188181Y28212049D01*
X15069789Y28093658D01*
X14977687Y27944337D01*
X14977685Y27944332D01*
X14961117Y27894332D01*
X14922501Y27777797D01*
X14922501Y27777796D01*
X14922500Y27777796D01*
X14912000Y27675017D01*
X14912000Y26324999D01*
X14912001Y26324982D01*
X14922500Y26222204D01*
X14922501Y26222201D01*
X14958790Y26112691D01*
X14977686Y26055666D01*
X15069788Y25906344D01*
X15193844Y25782288D01*
X15343166Y25690186D01*
X15509703Y25635001D01*
X15612491Y25624500D01*
X16337508Y25624501D01*
X16337516Y25624502D01*
X16337519Y25624502D01*
X16393802Y25630252D01*
X16440297Y25635001D01*
X16606834Y25690186D01*
X16756156Y25782288D01*
X16880212Y25906344D01*
X16972314Y26055666D01*
X17027499Y26222203D01*
X17038000Y26324991D01*
X17037999Y27675008D01*
X17035367Y27700769D01*
X17027499Y27777797D01*
X17027498Y27777800D01*
X17004776Y27846370D01*
X16972314Y27944334D01*
X16880212Y28093656D01*
X16805298Y28168570D01*
X16771813Y28229893D01*
X16776797Y28299585D01*
X16805296Y28343930D01*
X17774548Y29313181D01*
X17835871Y29346666D01*
X17862229Y29349500D01*
X18169726Y29349500D01*
X18236765Y29329815D01*
X18271300Y29296624D01*
X18279171Y29285383D01*
X18279173Y29285381D01*
X18279174Y29285380D01*
X18435380Y29129174D01*
X18435383Y29129172D01*
X18435384Y29129171D01*
X18616333Y29002469D01*
X18616335Y29002468D01*
X18616338Y29002466D01*
X18816550Y28909106D01*
X19029932Y28851930D01*
X19187123Y28838178D01*
X19249998Y28832677D01*
X19250000Y28832677D01*
X19250002Y28832677D01*
X19305017Y28837491D01*
X19470068Y28851930D01*
X19683450Y28909106D01*
X19883662Y29002466D01*
X20064620Y29129174D01*
X20220826Y29285380D01*
X20347534Y29466338D01*
X20407618Y29595189D01*
X20453790Y29647629D01*
X20520983Y29666781D01*
X20587865Y29646565D01*
X20632382Y29595189D01*
X20692464Y29466342D01*
X20692468Y29466334D01*
X20819170Y29285385D01*
X20819174Y29285380D01*
X20975380Y29129174D01*
X20996622Y29114300D01*
X21040247Y29059726D01*
X21049500Y29012725D01*
X21049500Y28413586D01*
X21029815Y28346547D01*
X20977011Y28300792D01*
X20964505Y28295880D01*
X20855666Y28259814D01*
X20855663Y28259813D01*
X20706342Y28167711D01*
X20582289Y28043658D01*
X20490187Y27894337D01*
X20490185Y27894332D01*
X20469793Y27832793D01*
X20435001Y27727797D01*
X20435001Y27727796D01*
X20435000Y27727796D01*
X20424500Y27625017D01*
X20424500Y26899999D01*
X20424501Y26899981D01*
X20435000Y26797204D01*
X20435001Y26797201D01*
X20490185Y26630669D01*
X20490187Y26630664D01*
X20508648Y26600734D01*
X20582288Y26481344D01*
X20706344Y26357288D01*
X20855666Y26265186D01*
X21022203Y26210001D01*
X21124991Y26199500D01*
X22475008Y26199501D01*
X22577797Y26210001D01*
X22744334Y26265186D01*
X22893656Y26357288D01*
X23017712Y26481344D01*
X23044962Y26525525D01*
X23096908Y26572248D01*
X23165870Y26583471D01*
X23229953Y26555628D01*
X23268809Y26497560D01*
X23274500Y26460427D01*
X23274500Y25324999D01*
X23274501Y25324982D01*
X23285000Y25222204D01*
X23285001Y25222203D01*
X23287884Y25213502D01*
X23290284Y25143674D01*
X23254552Y25083632D01*
X23192031Y25052441D01*
X23170177Y25050500D01*
X23128958Y25050500D01*
X23061919Y25070185D01*
X23023420Y25109402D01*
X23017712Y25118656D01*
X22893657Y25242711D01*
X22893656Y25242712D01*
X22794084Y25304128D01*
X22744336Y25334813D01*
X22744331Y25334815D01*
X22704327Y25348071D01*
X22577797Y25389999D01*
X22577795Y25390000D01*
X22475010Y25400500D01*
X21124998Y25400500D01*
X21124981Y25400499D01*
X21022203Y25390000D01*
X21022200Y25389999D01*
X20855668Y25334815D01*
X20855663Y25334813D01*
X20706342Y25242711D01*
X20582289Y25118658D01*
X20490187Y24969337D01*
X20490186Y24969334D01*
X20454323Y24861108D01*
X20414550Y24803663D01*
X20350033Y24776841D01*
X20281258Y24789156D01*
X20248936Y24812432D01*
X19686819Y25374549D01*
X19653334Y25435872D01*
X19650500Y25462230D01*
X19650500Y25700270D01*
X19670185Y25767309D01*
X19686819Y25787951D01*
X19743902Y25845034D01*
X19805212Y25906344D01*
X19897314Y26055666D01*
X19952499Y26222203D01*
X19963000Y26324991D01*
X19962999Y27675008D01*
X19960367Y27700769D01*
X19952499Y27777797D01*
X19952498Y27777800D01*
X19929776Y27846370D01*
X19897314Y27944334D01*
X19805212Y28093656D01*
X19681156Y28217712D01*
X19531834Y28309814D01*
X19365297Y28364999D01*
X19365295Y28365000D01*
X19262510Y28375500D01*
X18537498Y28375500D01*
X18537480Y28375499D01*
X18434703Y28365000D01*
X18434700Y28364999D01*
X18268168Y28309815D01*
X18268163Y28309813D01*
X18118842Y28217711D01*
X17994789Y28093658D01*
X17902687Y27944337D01*
X17902685Y27944332D01*
X17886117Y27894332D01*
X17847501Y27777797D01*
X17847501Y27777796D01*
X17847500Y27777796D01*
X17837000Y27675017D01*
X17837000Y26324999D01*
X17837001Y26324982D01*
X17847500Y26222204D01*
X17847501Y26222201D01*
X17883790Y26112691D01*
X17902686Y26055666D01*
X17977588Y25934229D01*
X17994789Y25906343D01*
X18113181Y25787951D01*
X18146666Y25726628D01*
X18149500Y25700270D01*
X18149500Y25163706D01*
X18148191Y25145737D01*
X18144710Y25121975D01*
X18149264Y25069936D01*
X18149500Y25064530D01*
X18149500Y25056291D01*
X18153306Y25023726D01*
X18160000Y24947209D01*
X18161461Y24940133D01*
X18161403Y24940122D01*
X18163034Y24932763D01*
X18163092Y24932776D01*
X18164757Y24925750D01*
X18191025Y24853576D01*
X18215185Y24780669D01*
X18218236Y24774126D01*
X18218182Y24774102D01*
X18221470Y24767312D01*
X18221521Y24767337D01*
X18224761Y24760887D01*
X18224762Y24760886D01*
X18224763Y24760883D01*
X18254817Y24715187D01*
X18266965Y24696717D01*
X18307287Y24631345D01*
X18311766Y24625681D01*
X18311719Y24625644D01*
X18316482Y24619798D01*
X18316528Y24619836D01*
X18321173Y24614300D01*
X18377017Y24561615D01*
X20524270Y22414362D01*
X20536051Y22400730D01*
X20550388Y22381472D01*
X20590409Y22347889D01*
X20594397Y22344234D01*
X20600216Y22338415D01*
X20600220Y22338412D01*
X20600223Y22338409D01*
X20625959Y22318060D01*
X20684786Y22268698D01*
X20684787Y22268698D01*
X20684789Y22268696D01*
X20690818Y22264730D01*
X20690785Y22264681D01*
X20697147Y22260628D01*
X20697179Y22260679D01*
X20703319Y22256892D01*
X20703323Y22256889D01*
X20736095Y22241607D01*
X20772941Y22224425D01*
X20826484Y22197535D01*
X20841567Y22189960D01*
X20841569Y22189960D01*
X20848357Y22187489D01*
X20848336Y22187433D01*
X20855457Y22184957D01*
X20855476Y22185014D01*
X20862322Y22182746D01*
X20862327Y22182743D01*
X20862332Y22182742D01*
X20862335Y22182741D01*
X20937565Y22167208D01*
X21012279Y22149500D01*
X21012282Y22149500D01*
X21012286Y22149499D01*
X21019453Y22148661D01*
X21019446Y22148602D01*
X21026944Y22147836D01*
X21026950Y22147895D01*
X21034139Y22147266D01*
X21034143Y22147267D01*
X21034144Y22147266D01*
X21110917Y22149500D01*
X26259446Y22149500D01*
X26326485Y22129815D01*
X26372240Y22077011D01*
X26382184Y22007853D01*
X26353159Y21944297D01*
X26347127Y21937819D01*
X26220342Y21811035D01*
X26089865Y21624697D01*
X25993734Y21418541D01*
X25993730Y21418532D01*
X25941127Y21222215D01*
X25941128Y21222214D01*
X26904314Y21222214D01*
X26892359Y21210259D01*
X26834835Y21097362D01*
X26815014Y20972214D01*
X26834835Y20847066D01*
X26892359Y20734169D01*
X26904314Y20722214D01*
X25941128Y20722214D01*
X25993730Y20525897D01*
X25993734Y20525888D01*
X26089865Y20319732D01*
X26220342Y20133394D01*
X26381179Y19972557D01*
X26567517Y19842080D01*
X26773673Y19745949D01*
X26773682Y19745945D01*
X26969999Y19693342D01*
X26970000Y19693343D01*
X26970000Y20656528D01*
X26981955Y20644573D01*
X27094852Y20587049D01*
X27188519Y20572214D01*
X27251481Y20572214D01*
X27345148Y20587049D01*
X27458045Y20644573D01*
X27470000Y20656528D01*
X27470000Y19693342D01*
X27666317Y19745945D01*
X27666326Y19745949D01*
X27872482Y19842080D01*
X28058820Y19972557D01*
X28219657Y20133394D01*
X28350132Y20319730D01*
X28377341Y20378080D01*
X28423513Y20430519D01*
X28490707Y20449672D01*
X28557588Y20429457D01*
X28602106Y20378081D01*
X28629431Y20319482D01*
X28629432Y20319480D01*
X28759954Y20133073D01*
X28920858Y19972169D01*
X28920861Y19972167D01*
X29107266Y19841646D01*
X29313504Y19745475D01*
X29533308Y19686579D01*
X29695230Y19672413D01*
X29759998Y19666746D01*
X29760000Y19666746D01*
X29760002Y19666746D01*
X29816807Y19671716D01*
X29986692Y19686579D01*
X30206496Y19745475D01*
X30412734Y19841646D01*
X30599139Y19972167D01*
X30760047Y20133075D01*
X30890568Y20319480D01*
X30917618Y20377490D01*
X30963790Y20429929D01*
X31030983Y20449081D01*
X31097865Y20428866D01*
X31142382Y20377489D01*
X31169429Y20319486D01*
X31169432Y20319480D01*
X31299954Y20133073D01*
X31460858Y19972169D01*
X31460861Y19972167D01*
X31647266Y19841646D01*
X31853504Y19745475D01*
X32073308Y19686579D01*
X32235230Y19672413D01*
X32299998Y19666746D01*
X32300000Y19666746D01*
X32300002Y19666746D01*
X32356807Y19671716D01*
X32526692Y19686579D01*
X32746496Y19745475D01*
X32952734Y19841646D01*
X33139139Y19972167D01*
X33300047Y20133075D01*
X33430568Y20319480D01*
X33457618Y20377490D01*
X33503790Y20429929D01*
X33570983Y20449081D01*
X33637865Y20428866D01*
X33682382Y20377489D01*
X33709429Y20319486D01*
X33709432Y20319480D01*
X33839954Y20133073D01*
X34000858Y19972169D01*
X34000861Y19972167D01*
X34187266Y19841646D01*
X34393504Y19745475D01*
X34613308Y19686579D01*
X34775230Y19672413D01*
X34839998Y19666746D01*
X34840000Y19666746D01*
X34840002Y19666746D01*
X34896807Y19671716D01*
X35066692Y19686579D01*
X35286496Y19745475D01*
X35492734Y19841646D01*
X35679139Y19972167D01*
X35840047Y20133075D01*
X35970568Y20319480D01*
X35997618Y20377490D01*
X36043790Y20429929D01*
X36110983Y20449081D01*
X36177865Y20428866D01*
X36222382Y20377489D01*
X36249429Y20319486D01*
X36249432Y20319480D01*
X36379954Y20133073D01*
X36540858Y19972169D01*
X36540861Y19972167D01*
X36727266Y19841646D01*
X36933504Y19745475D01*
X37153308Y19686579D01*
X37315230Y19672413D01*
X37379998Y19666746D01*
X37380000Y19666746D01*
X37380002Y19666746D01*
X37436807Y19671716D01*
X37606692Y19686579D01*
X37826496Y19745475D01*
X38032734Y19841646D01*
X38219139Y19972167D01*
X38380047Y20133075D01*
X38510568Y20319480D01*
X38537618Y20377490D01*
X38583790Y20429929D01*
X38650983Y20449081D01*
X38717865Y20428866D01*
X38762382Y20377489D01*
X38789429Y20319486D01*
X38789432Y20319480D01*
X38919954Y20133073D01*
X39080858Y19972169D01*
X39080861Y19972167D01*
X39267266Y19841646D01*
X39473504Y19745475D01*
X39693308Y19686579D01*
X39855230Y19672413D01*
X39919998Y19666746D01*
X39920000Y19666746D01*
X39920002Y19666746D01*
X39976807Y19671716D01*
X40146692Y19686579D01*
X40366496Y19745475D01*
X40572734Y19841646D01*
X40759139Y19972167D01*
X40920047Y20133075D01*
X41050568Y20319480D01*
X41077618Y20377490D01*
X41123790Y20429929D01*
X41190983Y20449081D01*
X41257865Y20428866D01*
X41302382Y20377489D01*
X41329429Y20319486D01*
X41329432Y20319480D01*
X41459954Y20133073D01*
X41620858Y19972169D01*
X41620861Y19972167D01*
X41807266Y19841646D01*
X42013504Y19745475D01*
X42233308Y19686579D01*
X42395230Y19672413D01*
X42459998Y19666746D01*
X42460000Y19666746D01*
X42460002Y19666746D01*
X42516807Y19671716D01*
X42686692Y19686579D01*
X42906496Y19745475D01*
X43112734Y19841646D01*
X43299139Y19972167D01*
X43460047Y20133075D01*
X43477272Y20157675D01*
X43531848Y20201301D01*
X43601346Y20208496D01*
X43663701Y20176975D01*
X43699116Y20116746D01*
X43702138Y20099808D01*
X43705908Y20064731D01*
X43756202Y19929886D01*
X43756206Y19929879D01*
X43842452Y19814670D01*
X43842455Y19814667D01*
X43957664Y19728421D01*
X43957671Y19728417D01*
X44092517Y19678123D01*
X44092516Y19678123D01*
X44099444Y19677379D01*
X44152127Y19671714D01*
X45847872Y19671715D01*
X45907483Y19678123D01*
X46042331Y19728418D01*
X46051186Y19735048D01*
X46116649Y19759467D01*
X46184923Y19744618D01*
X46234330Y19695214D01*
X46249500Y19635783D01*
X46249500Y18254445D01*
X46229815Y18187406D01*
X46213181Y18166764D01*
X42725348Y14678932D01*
X42664025Y14645447D01*
X42626861Y14643085D01*
X42460003Y14657682D01*
X42459998Y14657682D01*
X42233313Y14637850D01*
X42233302Y14637848D01*
X42013511Y14578956D01*
X42013502Y14578953D01*
X41807267Y14482783D01*
X41807265Y14482782D01*
X41620858Y14352260D01*
X41459954Y14191356D01*
X41329432Y14004949D01*
X41329431Y14004947D01*
X41302382Y13946939D01*
X41256209Y13894500D01*
X41189016Y13875348D01*
X41122135Y13895564D01*
X41077618Y13946939D01*
X41055336Y13994723D01*
X41050568Y14004948D01*
X40920047Y14191353D01*
X40920045Y14191356D01*
X40759141Y14352260D01*
X40572734Y14482782D01*
X40572732Y14482783D01*
X40366497Y14578953D01*
X40366488Y14578956D01*
X40146697Y14637848D01*
X40146693Y14637849D01*
X40146692Y14637849D01*
X40146691Y14637850D01*
X40146686Y14637850D01*
X39920002Y14657682D01*
X39919998Y14657682D01*
X39693313Y14637850D01*
X39693302Y14637848D01*
X39473511Y14578956D01*
X39473502Y14578953D01*
X39267267Y14482783D01*
X39267265Y14482782D01*
X39080858Y14352260D01*
X38919954Y14191356D01*
X38789433Y14004950D01*
X38789432Y14004948D01*
X38786782Y13999264D01*
X38762106Y13946347D01*
X38715933Y13893908D01*
X38648739Y13874757D01*
X38581858Y13894973D01*
X38537342Y13946349D01*
X38510135Y14004694D01*
X38510134Y14004696D01*
X38379657Y14191035D01*
X38218820Y14351872D01*
X38032482Y14482349D01*
X37826328Y14578480D01*
X37630000Y14631087D01*
X37630000Y13667900D01*
X37618045Y13679855D01*
X37505148Y13737379D01*
X37411481Y13752214D01*
X37348519Y13752214D01*
X37254852Y13737379D01*
X37141955Y13679855D01*
X37130000Y13667900D01*
X37130000Y14631087D01*
X36933671Y14578480D01*
X36727517Y14482349D01*
X36541179Y14351872D01*
X36380342Y14191035D01*
X36249867Y14004699D01*
X36222657Y13946347D01*
X36176484Y13893908D01*
X36109290Y13874757D01*
X36042409Y13894973D01*
X35997893Y13946349D01*
X35973218Y13999264D01*
X35970568Y14004948D01*
X35840047Y14191353D01*
X35840045Y14191356D01*
X35679141Y14352260D01*
X35492734Y14482782D01*
X35492732Y14482783D01*
X35286497Y14578953D01*
X35286488Y14578956D01*
X35066697Y14637848D01*
X35066693Y14637849D01*
X35066692Y14637849D01*
X35066691Y14637850D01*
X35066686Y14637850D01*
X34840002Y14657682D01*
X34839998Y14657682D01*
X34613313Y14637850D01*
X34613302Y14637848D01*
X34393511Y14578956D01*
X34393502Y14578953D01*
X34187267Y14482783D01*
X34187265Y14482782D01*
X34000858Y14352260D01*
X33839954Y14191356D01*
X33709432Y14004949D01*
X33709431Y14004947D01*
X33682382Y13946939D01*
X33636209Y13894500D01*
X33569016Y13875348D01*
X33502135Y13895564D01*
X33457618Y13946939D01*
X33435336Y13994723D01*
X33430568Y14004948D01*
X33300047Y14191353D01*
X33300045Y14191356D01*
X33139141Y14352260D01*
X32952734Y14482782D01*
X32952732Y14482783D01*
X32746497Y14578953D01*
X32746488Y14578956D01*
X32526697Y14637848D01*
X32526693Y14637849D01*
X32526692Y14637849D01*
X32526691Y14637850D01*
X32526686Y14637850D01*
X32300002Y14657682D01*
X32299998Y14657682D01*
X32073313Y14637850D01*
X32073302Y14637848D01*
X31853511Y14578956D01*
X31853502Y14578953D01*
X31647267Y14482783D01*
X31647265Y14482782D01*
X31460858Y14352260D01*
X31299954Y14191356D01*
X31169432Y14004949D01*
X31169431Y14004947D01*
X31142382Y13946939D01*
X31096209Y13894500D01*
X31029016Y13875348D01*
X30962135Y13895564D01*
X30917618Y13946939D01*
X30895336Y13994723D01*
X30890568Y14004948D01*
X30760047Y14191353D01*
X30760045Y14191356D01*
X30599141Y14352260D01*
X30412734Y14482782D01*
X30412732Y14482783D01*
X30206497Y14578953D01*
X30206488Y14578956D01*
X29986697Y14637848D01*
X29986693Y14637849D01*
X29986692Y14637849D01*
X29986691Y14637850D01*
X29986686Y14637850D01*
X29760002Y14657682D01*
X29759997Y14657682D01*
X29593137Y14643085D01*
X29524637Y14656852D01*
X29494650Y14678932D01*
X23687943Y20485639D01*
X23676163Y20499270D01*
X23668696Y20509299D01*
X23661826Y20518528D01*
X23661824Y20518530D01*
X23621801Y20552114D01*
X23617826Y20555756D01*
X23614904Y20558678D01*
X23611994Y20561589D01*
X23586254Y20581941D01*
X23527423Y20631306D01*
X23521394Y20635271D01*
X23521426Y20635320D01*
X23515067Y20639372D01*
X23515036Y20639321D01*
X23508894Y20643109D01*
X23508892Y20643110D01*
X23508891Y20643111D01*
X23463478Y20664288D01*
X23439272Y20675576D01*
X23405108Y20692733D01*
X23370647Y20710040D01*
X23370645Y20710041D01*
X23370644Y20710041D01*
X23363859Y20712511D01*
X23363879Y20712567D01*
X23356763Y20715041D01*
X23356745Y20714985D01*
X23349885Y20717258D01*
X23322055Y20723004D01*
X23274648Y20732793D01*
X23225686Y20744397D01*
X23199933Y20750501D01*
X23192761Y20751339D01*
X23192767Y20751399D01*
X23185269Y20752165D01*
X23185264Y20752105D01*
X23178074Y20752735D01*
X23101297Y20750500D01*
X20862229Y20750500D01*
X20795190Y20770185D01*
X20774548Y20786819D01*
X18889166Y22672201D01*
X16975729Y24585639D01*
X16963949Y24599270D01*
X16952756Y24614304D01*
X16949612Y24618528D01*
X16949610Y24618530D01*
X16909587Y24652114D01*
X16905612Y24655756D01*
X16902690Y24658678D01*
X16899780Y24661589D01*
X16874040Y24681941D01*
X16851922Y24700500D01*
X16815214Y24731302D01*
X16815213Y24731303D01*
X16815209Y24731306D01*
X16809180Y24735271D01*
X16809212Y24735320D01*
X16802853Y24739372D01*
X16802822Y24739321D01*
X16796680Y24743109D01*
X16796678Y24743110D01*
X16796677Y24743111D01*
X16744779Y24767312D01*
X16727058Y24775576D01*
X16672855Y24802797D01*
X16658433Y24810040D01*
X16658431Y24810041D01*
X16658430Y24810041D01*
X16651645Y24812511D01*
X16651665Y24812567D01*
X16644549Y24815041D01*
X16644531Y24814985D01*
X16637671Y24817258D01*
X16609841Y24823004D01*
X16562434Y24832793D01*
X16513472Y24844397D01*
X16487719Y24850501D01*
X16480547Y24851339D01*
X16480553Y24851399D01*
X16473055Y24852165D01*
X16473050Y24852105D01*
X16465860Y24852735D01*
X16389083Y24850500D01*
X6480274Y24850500D01*
X6413235Y24870185D01*
X6378700Y24903376D01*
X6370828Y24914618D01*
X6309870Y24975576D01*
X6214620Y25070826D01*
X6214616Y25070829D01*
X6214615Y25070830D01*
X6033666Y25197532D01*
X6033662Y25197534D01*
X5980759Y25222203D01*
X5833450Y25290894D01*
X5833447Y25290895D01*
X5833445Y25290896D01*
X5620070Y25348070D01*
X5620062Y25348071D01*
X5400002Y25367323D01*
X5399998Y25367323D01*
X5179937Y25348071D01*
X5179929Y25348070D01*
X4966554Y25290896D01*
X4966548Y25290893D01*
X4766340Y25197535D01*
X4766338Y25197534D01*
X4585377Y25070825D01*
X4429175Y24914623D01*
X4302466Y24733662D01*
X4302465Y24733660D01*
X4209107Y24533452D01*
X4209104Y24533446D01*
X4151930Y24320071D01*
X4151929Y24320063D01*
X4132677Y24100003D01*
X4132677Y24099998D01*
X4151929Y23879938D01*
X4151930Y23879930D01*
X4209104Y23666555D01*
X4209105Y23666553D01*
X4209106Y23666550D01*
X4286768Y23500002D01*
X4302466Y23466338D01*
X4302468Y23466334D01*
X4429170Y23285385D01*
X4429175Y23285379D01*
X4585378Y23129176D01*
X4585384Y23129171D01*
X4766333Y23002469D01*
X4766335Y23002468D01*
X4766338Y23002466D01*
X4966550Y22909106D01*
X5179932Y22851930D01*
X5337123Y22838178D01*
X5399998Y22832677D01*
X5400000Y22832677D01*
X5400002Y22832677D01*
X5455017Y22837491D01*
X5620068Y22851930D01*
X5833450Y22909106D01*
X6033662Y23002466D01*
X6214620Y23129174D01*
X6370826Y23285380D01*
X6371603Y23286491D01*
X6378700Y23296624D01*
X6433277Y23340249D01*
X6480274Y23349500D01*
X13738104Y23349500D01*
X13805143Y23329815D01*
X13850898Y23277011D01*
X13860842Y23207853D01*
X13831817Y23144297D01*
X13773039Y23106523D01*
X13770197Y23105725D01*
X13670849Y23079106D01*
X13670840Y23079102D01*
X13472614Y22986668D01*
X13472612Y22986667D01*
X13410428Y22943125D01*
X13410427Y22943125D01*
X14100000Y22253553D01*
X14100001Y22253553D01*
X14789572Y22943125D01*
X14789571Y22943127D01*
X14727391Y22986665D01*
X14529159Y23079102D01*
X14529150Y23079106D01*
X14429803Y23105725D01*
X14370142Y23142090D01*
X14339613Y23204937D01*
X14347908Y23274312D01*
X14392393Y23328190D01*
X14458945Y23349465D01*
X14461896Y23349500D01*
X16037770Y23349500D01*
X16104809Y23329815D01*
X16125451Y23313181D01*
X19924267Y19514366D01*
X19936048Y19500734D01*
X19950390Y19481470D01*
X19990420Y19447881D01*
X19994392Y19444241D01*
X20000224Y19438409D01*
X20000227Y19438406D01*
X20025947Y19418069D01*
X20084788Y19368696D01*
X20090818Y19364730D01*
X20090785Y19364681D01*
X20097143Y19360631D01*
X20097175Y19360681D01*
X20103320Y19356891D01*
X20103323Y19356889D01*
X20172936Y19324428D01*
X20241567Y19289960D01*
X20241572Y19289959D01*
X20248361Y19287487D01*
X20248340Y19287430D01*
X20255455Y19284957D01*
X20255475Y19285014D01*
X20262330Y19282742D01*
X20337558Y19267210D01*
X20412279Y19249500D01*
X20412289Y19249500D01*
X20419452Y19248662D01*
X20419444Y19248603D01*
X20426945Y19247836D01*
X20426951Y19247895D01*
X20434140Y19247266D01*
X20434144Y19247267D01*
X20434145Y19247266D01*
X20510918Y19249500D01*
X22749984Y19249500D01*
X22817023Y19229815D01*
X22837665Y19213181D01*
X25048380Y17002466D01*
X27191201Y14859646D01*
X27224686Y14798323D01*
X27219702Y14728631D01*
X27177830Y14672698D01*
X27114328Y14648437D01*
X26993312Y14637850D01*
X26993302Y14637848D01*
X26773511Y14578956D01*
X26773502Y14578953D01*
X26567267Y14482783D01*
X26567265Y14482782D01*
X26380858Y14352260D01*
X26219954Y14191356D01*
X26089432Y14004949D01*
X26089431Y14004947D01*
X25993261Y13798712D01*
X25993258Y13798703D01*
X25934366Y13578912D01*
X25934364Y13578901D01*
X25914532Y13352216D01*
X25914532Y13352213D01*
X25934364Y13125528D01*
X25934366Y13125517D01*
X25993258Y12905726D01*
X25993261Y12905717D01*
X26089431Y12699482D01*
X26089432Y12699480D01*
X26219954Y12513073D01*
X26380858Y12352169D01*
X26380861Y12352167D01*
X26567266Y12221646D01*
X26773504Y12125475D01*
X26993308Y12066579D01*
X27155230Y12052413D01*
X27219998Y12046746D01*
X27220000Y12046746D01*
X27220002Y12046746D01*
X27276673Y12051705D01*
X27446692Y12066579D01*
X27666496Y12125475D01*
X27872734Y12221646D01*
X28059139Y12352167D01*
X28220047Y12513075D01*
X28350568Y12699480D01*
X28377618Y12757490D01*
X28423790Y12809929D01*
X28490983Y12829081D01*
X28557865Y12808866D01*
X28602382Y12757489D01*
X28629429Y12699486D01*
X28629432Y12699480D01*
X28759954Y12513073D01*
X28920858Y12352169D01*
X28920861Y12352167D01*
X29107266Y12221646D01*
X29313504Y12125475D01*
X29533308Y12066579D01*
X29650082Y12056363D01*
X29715150Y12030911D01*
X29756129Y11974320D01*
X29763274Y11932835D01*
X29763274Y9907330D01*
X29758350Y9872735D01*
X29716176Y9727574D01*
X29716175Y9727568D01*
X29713274Y9690696D01*
X29713274Y8256229D01*
X29693589Y8189190D01*
X29640785Y8143435D01*
X29571627Y8133491D01*
X29508071Y8162516D01*
X29501593Y8168548D01*
X26884502Y10785639D01*
X26872722Y10799270D01*
X26865255Y10809299D01*
X26858385Y10818528D01*
X26858383Y10818530D01*
X26818360Y10852114D01*
X26814385Y10855756D01*
X26811463Y10858678D01*
X26808553Y10861589D01*
X26782813Y10881941D01*
X26762345Y10899116D01*
X26723987Y10931302D01*
X26723986Y10931303D01*
X26723982Y10931306D01*
X26717953Y10935271D01*
X26717985Y10935320D01*
X26711626Y10939372D01*
X26711595Y10939321D01*
X26705453Y10943109D01*
X26705451Y10943110D01*
X26705450Y10943111D01*
X26666247Y10961392D01*
X26635831Y10975576D01*
X26588396Y10999398D01*
X26567206Y11010040D01*
X26567204Y11010041D01*
X26567203Y11010041D01*
X26560418Y11012511D01*
X26560438Y11012567D01*
X26553322Y11015041D01*
X26553304Y11014985D01*
X26546444Y11017258D01*
X26518614Y11023004D01*
X26471207Y11032793D01*
X26422245Y11044397D01*
X26396492Y11050501D01*
X26389320Y11051339D01*
X26389326Y11051399D01*
X26381828Y11052165D01*
X26381823Y11052105D01*
X26374633Y11052735D01*
X26297856Y11050500D01*
X21941790Y11050500D01*
X21874751Y11070185D01*
X21836200Y11109486D01*
X21749242Y11250714D01*
X21588924Y11432870D01*
X21588920Y11432874D01*
X21400129Y11585312D01*
X21188290Y11703653D01*
X20959500Y11784489D01*
X20959486Y11784493D01*
X20720337Y11825500D01*
X20720328Y11825500D01*
X19340446Y11825500D01*
X19340441Y11825500D01*
X19159224Y11810077D01*
X19159222Y11810076D01*
X18924391Y11748932D01*
X18924388Y11748931D01*
X18703286Y11648987D01*
X18703274Y11648980D01*
X18502234Y11513100D01*
X18502232Y11513098D01*
X18327047Y11345197D01*
X18327046Y11345196D01*
X18182760Y11150109D01*
X18182757Y11150104D01*
X18182756Y11150102D01*
X18166909Y11118673D01*
X18119152Y11067675D01*
X18056188Y11050500D01*
X9441790Y11050500D01*
X9374751Y11070185D01*
X9336200Y11109486D01*
X9249242Y11250714D01*
X9088924Y11432870D01*
X9088920Y11432874D01*
X8900129Y11585312D01*
X8688290Y11703653D01*
X8459500Y11784489D01*
X8459486Y11784493D01*
X8220337Y11825500D01*
X8220328Y11825500D01*
X6840446Y11825500D01*
X6840441Y11825500D01*
X6659224Y11810077D01*
X6659222Y11810076D01*
X6424391Y11748932D01*
X6424388Y11748931D01*
X6203286Y11648987D01*
X6203274Y11648980D01*
X6002234Y11513100D01*
X6002232Y11513098D01*
X5827047Y11345197D01*
X5827046Y11345196D01*
X5682758Y11150107D01*
X5573515Y10933435D01*
X5573512Y10933429D01*
X5502456Y10701406D01*
X5471635Y10460719D01*
X5481933Y10218285D01*
X5481933Y10218281D01*
X5533056Y9981071D01*
X5533057Y9981068D01*
X5623530Y9755918D01*
X5623532Y9755914D01*
X5663690Y9690694D01*
X5750757Y9549287D01*
X5911075Y9367131D01*
X5911079Y9367127D01*
X6099870Y9214689D01*
X6311709Y9096348D01*
X6339514Y9086524D01*
X6540507Y9015509D01*
X6540513Y9015508D01*
X6779662Y8974501D01*
X6779670Y8974501D01*
X6779672Y8974500D01*
X6779673Y8974500D01*
X8159559Y8974500D01*
X8340775Y8989924D01*
X8340775Y8989925D01*
X8340782Y8989925D01*
X8575608Y9051069D01*
X8575611Y9051070D01*
X8796713Y9151014D01*
X8796716Y9151017D01*
X8796723Y9151019D01*
X8997765Y9286900D01*
X9172952Y9454803D01*
X9205815Y9499237D01*
X9261504Y9541429D01*
X9305509Y9549500D01*
X18194518Y9549500D01*
X18261557Y9529815D01*
X18287601Y9507424D01*
X18411075Y9367131D01*
X18411079Y9367127D01*
X18599870Y9214689D01*
X18811709Y9096348D01*
X18839514Y9086524D01*
X19040507Y9015509D01*
X19040513Y9015508D01*
X19279662Y8974501D01*
X19279670Y8974501D01*
X19279672Y8974500D01*
X19279673Y8974500D01*
X20659559Y8974500D01*
X20840775Y8989924D01*
X20840775Y8989925D01*
X20840782Y8989925D01*
X21075608Y9051069D01*
X21075611Y9051070D01*
X21296713Y9151014D01*
X21296716Y9151017D01*
X21296723Y9151019D01*
X21497765Y9286900D01*
X21672952Y9454803D01*
X21705815Y9499237D01*
X21761504Y9541429D01*
X21805509Y9549500D01*
X25946543Y9549500D01*
X26013582Y9529815D01*
X26034224Y9513181D01*
X28462001Y7085404D01*
X30095821Y5451585D01*
X30129306Y5390262D01*
X30124322Y5320570D01*
X30082450Y5264637D01*
X30071262Y5257172D01*
X29962218Y5192683D01*
X29962212Y5192679D01*
X29846095Y5076562D01*
X29846088Y5076553D01*
X29762491Y4935197D01*
X29762490Y4935194D01*
X29716674Y4777496D01*
X29716673Y4777490D01*
X29713774Y4740644D01*
X29713774Y4100000D01*
X30639774Y4100000D01*
X30706813Y4080315D01*
X30752568Y4027511D01*
X30763774Y3976000D01*
X30763774Y2377705D01*
X30763775Y2377705D01*
X30766260Y2377900D01*
X30923972Y2423719D01*
X31065324Y2507314D01*
X31071491Y2512097D01*
X31073404Y2509631D01*
X31121996Y2536198D01*
X31191691Y2531251D01*
X31224536Y2510147D01*
X31225743Y2511702D01*
X31231903Y2506925D01*
X31231909Y2506919D01*
X31325292Y2451693D01*
X31340895Y2442465D01*
X31388578Y2391396D01*
X31401082Y2322654D01*
X31374437Y2258065D01*
X31365455Y2248052D01*
X30804224Y1686819D01*
X30742901Y1653334D01*
X30716543Y1650500D01*
X15324918Y1650500D01*
X15257879Y1670185D01*
X15212124Y1722989D01*
X15202180Y1792147D01*
X15212536Y1826905D01*
X15279575Y1970670D01*
X15336207Y2182023D01*
X15353109Y2375224D01*
X15355277Y2399998D01*
X15355277Y2400003D01*
X15345888Y2507315D01*
X15336207Y2617977D01*
X15295423Y2770185D01*
X15279577Y2829323D01*
X15279576Y2829324D01*
X15279575Y2829330D01*
X15187102Y3027638D01*
X15187100Y3027641D01*
X15187099Y3027643D01*
X15061599Y3206876D01*
X14996580Y3271895D01*
X14906877Y3361598D01*
X14727639Y3487102D01*
X14727640Y3487102D01*
X14727638Y3487103D01*
X14628484Y3533339D01*
X14529330Y3579575D01*
X14529326Y3579576D01*
X14529322Y3579578D01*
X14453105Y3600000D01*
X29713774Y3600000D01*
X29713774Y2959356D01*
X29716673Y2922511D01*
X29716674Y2922505D01*
X29762490Y2764807D01*
X29762491Y2764804D01*
X29846088Y2623448D01*
X29846095Y2623439D01*
X29962212Y2507322D01*
X29962221Y2507315D01*
X30103575Y2423719D01*
X30261288Y2377900D01*
X30261285Y2377900D01*
X30263772Y2377705D01*
X30263774Y2377705D01*
X30263774Y3600000D01*
X29713774Y3600000D01*
X14453105Y3600000D01*
X14317977Y3636207D01*
X14100002Y3655277D01*
X14099998Y3655277D01*
X13969842Y3643890D01*
X13882023Y3636207D01*
X13882020Y3636207D01*
X13670677Y3579578D01*
X13670668Y3579574D01*
X13472361Y3487102D01*
X13472357Y3487100D01*
X13293121Y3361598D01*
X13138402Y3206879D01*
X13012900Y3027643D01*
X13012898Y3027639D01*
X12920426Y2829332D01*
X12920422Y2829323D01*
X12863793Y2617980D01*
X12863793Y2617976D01*
X12844723Y2400003D01*
X12844723Y2399998D01*
X12847567Y2367487D01*
X12862053Y2201907D01*
X12863793Y2182025D01*
X12863793Y2182021D01*
X12920422Y1970678D01*
X12920424Y1970674D01*
X12920425Y1970670D01*
X12987464Y1826905D01*
X12997956Y1757827D01*
X12969436Y1694043D01*
X12910960Y1655804D01*
X12875082Y1650500D01*
X7562229Y1650500D01*
X7495190Y1670185D01*
X7474548Y1686819D01*
X3511367Y5650001D01*
X5496377Y5650001D01*
X5496378Y5650000D01*
X6899272Y5650000D01*
X6876900Y5602457D01*
X6846127Y5441138D01*
X6856439Y5277234D01*
X6897780Y5150000D01*
X5497161Y5150000D01*
X5533536Y4981218D01*
X5533537Y4981215D01*
X5623978Y4756144D01*
X5751161Y4549585D01*
X5911422Y4367493D01*
X5911426Y4367489D01*
X6100144Y4215110D01*
X6100150Y4215106D01*
X6311917Y4096806D01*
X6540629Y4015997D01*
X6540637Y4015995D01*
X6779706Y3975001D01*
X6779715Y3975000D01*
X7250000Y3975000D01*
X7250000Y4795690D01*
X7258817Y4790842D01*
X7417886Y4750000D01*
X7540894Y4750000D01*
X7662933Y4765417D01*
X7750000Y4799890D01*
X7750000Y3975000D01*
X8159539Y3975000D01*
X8340692Y3990418D01*
X8575440Y4051542D01*
X8796472Y4151454D01*
X8796480Y4151459D01*
X8997450Y4287292D01*
X8997453Y4287294D01*
X9172575Y4455136D01*
X9172576Y4455137D01*
X9316813Y4650157D01*
X9426021Y4866758D01*
X9497053Y5098701D01*
X9503622Y5150000D01*
X8100728Y5150000D01*
X8123100Y5197543D01*
X8153873Y5358862D01*
X8143561Y5522766D01*
X8102220Y5650000D01*
X9502839Y5650000D01*
X9502839Y5650001D01*
X17996377Y5650001D01*
X17996378Y5650000D01*
X19399272Y5650000D01*
X19376900Y5602457D01*
X19346127Y5441138D01*
X19356439Y5277234D01*
X19397780Y5150000D01*
X17997161Y5150000D01*
X18033536Y4981218D01*
X18033537Y4981215D01*
X18123978Y4756144D01*
X18251161Y4549585D01*
X18411422Y4367493D01*
X18411426Y4367489D01*
X18600144Y4215110D01*
X18600150Y4215106D01*
X18811917Y4096806D01*
X19040629Y4015997D01*
X19040637Y4015995D01*
X19279706Y3975001D01*
X19279715Y3975000D01*
X19750000Y3975000D01*
X19750000Y4795690D01*
X19758817Y4790842D01*
X19917886Y4750000D01*
X20040894Y4750000D01*
X20162933Y4765417D01*
X20250000Y4799890D01*
X20250000Y3975000D01*
X20659539Y3975000D01*
X20840692Y3990418D01*
X21075440Y4051542D01*
X21296472Y4151454D01*
X21296480Y4151459D01*
X21497450Y4287292D01*
X21497453Y4287294D01*
X21672575Y4455136D01*
X21672576Y4455137D01*
X21816813Y4650157D01*
X21926021Y4866758D01*
X21997053Y5098701D01*
X22003622Y5150000D01*
X20600728Y5150000D01*
X20623100Y5197543D01*
X20653873Y5358862D01*
X20643561Y5522766D01*
X20602220Y5650000D01*
X22002839Y5650000D01*
X21966463Y5818783D01*
X21966462Y5818786D01*
X21876021Y6043857D01*
X21748838Y6250416D01*
X21588577Y6432508D01*
X21588573Y6432512D01*
X21399855Y6584891D01*
X21399849Y6584895D01*
X21188082Y6703195D01*
X20959370Y6784004D01*
X20959362Y6784006D01*
X20720293Y6825000D01*
X20250000Y6825000D01*
X20250000Y6004311D01*
X20241183Y6009158D01*
X20082114Y6050000D01*
X19959106Y6050000D01*
X19837067Y6034583D01*
X19750000Y6000111D01*
X19750000Y6825000D01*
X19340461Y6825000D01*
X19159307Y6809583D01*
X18924559Y6748459D01*
X18703527Y6648547D01*
X18703519Y6648542D01*
X18502549Y6512709D01*
X18502546Y6512707D01*
X18327424Y6344865D01*
X18327423Y6344864D01*
X18183186Y6149844D01*
X18073978Y5933243D01*
X18002946Y5701300D01*
X17996377Y5650001D01*
X9502839Y5650001D01*
X9466463Y5818783D01*
X9466462Y5818786D01*
X9376021Y6043857D01*
X9248838Y6250416D01*
X9088577Y6432508D01*
X9088573Y6432512D01*
X8899855Y6584891D01*
X8899849Y6584895D01*
X8688082Y6703195D01*
X8459370Y6784004D01*
X8459362Y6784006D01*
X8220293Y6825000D01*
X7750000Y6825000D01*
X7750000Y6004311D01*
X7741183Y6009158D01*
X7582114Y6050000D01*
X7459106Y6050000D01*
X7337067Y6034583D01*
X7250000Y6000111D01*
X7250000Y6825000D01*
X6840461Y6825000D01*
X6659307Y6809583D01*
X6424559Y6748459D01*
X6203527Y6648547D01*
X6203519Y6648542D01*
X6002549Y6512709D01*
X6002546Y6512707D01*
X5827424Y6344865D01*
X5827423Y6344864D01*
X5683186Y6149844D01*
X5573978Y5933243D01*
X5502946Y5701300D01*
X5496377Y5650001D01*
X3511367Y5650001D01*
X2486819Y6674549D01*
X2453334Y6735872D01*
X2450500Y6762230D01*
X2450500Y15249997D01*
X4144723Y15249997D01*
X4146688Y15227530D01*
X4146862Y15219340D01*
X4145709Y15193676D01*
X4145710Y15193672D01*
X4156641Y15112969D01*
X4156966Y15110051D01*
X4163792Y15032028D01*
X4163795Y15032013D01*
X4170482Y15007059D01*
X4172034Y14999330D01*
X4175924Y14970619D01*
X4175926Y14970608D01*
X4200075Y14896287D01*
X4200997Y14893175D01*
X4220423Y14820676D01*
X4220427Y14820664D01*
X4232736Y14794268D01*
X4235512Y14787221D01*
X4245483Y14756536D01*
X4280970Y14690589D01*
X4282558Y14687424D01*
X4312898Y14622361D01*
X4331490Y14595809D01*
X4335303Y14589622D01*
X4352146Y14558322D01*
X4352152Y14558313D01*
X4396792Y14502337D01*
X4399106Y14499242D01*
X4425022Y14462231D01*
X4438402Y14443123D01*
X4438405Y14443120D01*
X4463646Y14417879D01*
X4468283Y14412691D01*
X4492492Y14382334D01*
X4543959Y14337368D01*
X4547008Y14334517D01*
X4593116Y14288408D01*
X4593122Y14288403D01*
X4593123Y14288402D01*
X4604802Y14280225D01*
X4625055Y14266043D01*
X4630290Y14261943D01*
X4662004Y14234235D01*
X4662013Y14234229D01*
X4717849Y14200869D01*
X4721613Y14198432D01*
X4772359Y14162899D01*
X4772364Y14162896D01*
X4794917Y14152380D01*
X4810677Y14145031D01*
X4816271Y14142065D01*
X4853349Y14119912D01*
X4855236Y14118785D01*
X4873828Y14111808D01*
X4913083Y14097075D01*
X4917503Y14095218D01*
X4970670Y14070425D01*
X4970674Y14070423D01*
X5001069Y14062280D01*
X5014677Y14058634D01*
X5020413Y14056793D01*
X5037264Y14050469D01*
X5065976Y14039693D01*
X5123545Y14029246D01*
X5128511Y14028132D01*
X5182023Y14013793D01*
X5230689Y14009536D01*
X5236306Y14008782D01*
X5287453Y13999500D01*
X5342691Y13999500D01*
X5348092Y13999265D01*
X5376548Y13996775D01*
X5399998Y13994723D01*
X5400000Y13994723D01*
X5452992Y13999360D01*
X5456121Y13999500D01*
X5456155Y13999500D01*
X5510172Y14004362D01*
X5617977Y14013793D01*
X5618000Y14013800D01*
X5618475Y14013883D01*
X5623713Y14014581D01*
X5624188Y14014623D01*
X5727997Y14043274D01*
X5829330Y14070425D01*
X5829337Y14070429D01*
X5836254Y14072947D01*
X5840948Y14074446D01*
X5841170Y14074507D01*
X5841181Y14074513D01*
X5841183Y14074513D01*
X5935454Y14119912D01*
X6027639Y14162898D01*
X6027644Y14162903D01*
X6032327Y14165605D01*
X6032400Y14165478D01*
X6043164Y14171782D01*
X6043973Y14172171D01*
X6126156Y14231882D01*
X6206877Y14288402D01*
X6207747Y14289273D01*
X6222550Y14301916D01*
X6226078Y14304478D01*
X6271763Y14352261D01*
X6294131Y14375657D01*
X6361592Y14443117D01*
X6361592Y14443118D01*
X6361598Y14443123D01*
X6364285Y14446961D01*
X6376239Y14461535D01*
X6381629Y14467172D01*
X6381628Y14467172D01*
X6381632Y14467175D01*
X6434164Y14546759D01*
X6487102Y14622361D01*
X6490543Y14629741D01*
X6499432Y14645636D01*
X6505635Y14655032D01*
X6541889Y14739854D01*
X6579575Y14820670D01*
X6582570Y14831852D01*
X6588325Y14848495D01*
X6594103Y14862012D01*
X6613936Y14948908D01*
X6636207Y15032023D01*
X6637887Y15051234D01*
X6639206Y15059623D01*
X6639445Y15060675D01*
X6644191Y15081463D01*
X6648050Y15167398D01*
X6655277Y15250000D01*
X6653310Y15272472D01*
X6653137Y15280666D01*
X6654290Y15306330D01*
X6643353Y15387061D01*
X6643034Y15389933D01*
X6636207Y15467977D01*
X6629515Y15492947D01*
X6627963Y15500678D01*
X6624076Y15529382D01*
X6624075Y15529384D01*
X6624075Y15529387D01*
X6599921Y15603724D01*
X6598998Y15606839D01*
X6579576Y15679327D01*
X6579574Y15679331D01*
X6567266Y15705726D01*
X6564488Y15712778D01*
X6554519Y15743459D01*
X6554517Y15743463D01*
X6554517Y15743464D01*
X6541988Y15766747D01*
X6519027Y15809417D01*
X6517432Y15812595D01*
X6502338Y15844964D01*
X6487102Y15877638D01*
X6468512Y15904187D01*
X6464698Y15910375D01*
X6464359Y15911005D01*
X6447852Y15941681D01*
X6403192Y15997682D01*
X6400896Y16000753D01*
X6361598Y16056877D01*
X6336353Y16082122D01*
X6331715Y16087311D01*
X6307506Y16117668D01*
X6256039Y16162634D01*
X6252990Y16165485D01*
X6206878Y16211598D01*
X6174940Y16233961D01*
X6169705Y16238061D01*
X6137996Y16265765D01*
X6137994Y16265767D01*
X6137992Y16265768D01*
X6082149Y16299132D01*
X6078386Y16301569D01*
X6027641Y16337101D01*
X5989333Y16354965D01*
X5983735Y16357933D01*
X5944769Y16381213D01*
X5944767Y16381214D01*
X5886928Y16402921D01*
X5882515Y16404774D01*
X5829330Y16429575D01*
X5785321Y16441368D01*
X5779581Y16443210D01*
X5734025Y16460308D01*
X5676456Y16470755D01*
X5671480Y16471872D01*
X5617977Y16486207D01*
X5569327Y16490464D01*
X5563659Y16491225D01*
X5512551Y16500500D01*
X5512547Y16500500D01*
X5457309Y16500500D01*
X5451907Y16500736D01*
X5423451Y16503226D01*
X5400002Y16505277D01*
X5399997Y16505277D01*
X5347050Y16500645D01*
X5343862Y16500501D01*
X5343851Y16500500D01*
X5343845Y16500500D01*
X5297671Y16496345D01*
X5289826Y16495639D01*
X5182020Y16486207D01*
X5181468Y16486109D01*
X5176275Y16485419D01*
X5175812Y16485378D01*
X5175809Y16485377D01*
X5072002Y16456727D01*
X4970659Y16429572D01*
X4963739Y16427054D01*
X4959050Y16425556D01*
X4958849Y16425501D01*
X4958832Y16425495D01*
X4864528Y16380081D01*
X4772358Y16337101D01*
X4767670Y16334394D01*
X4767598Y16334519D01*
X4756871Y16328236D01*
X4756030Y16327832D01*
X4673831Y16268111D01*
X4593123Y16211599D01*
X4592241Y16210716D01*
X4577461Y16198094D01*
X4573928Y16195528D01*
X4573916Y16195517D01*
X4542477Y16162634D01*
X4505868Y16124344D01*
X4483379Y16101856D01*
X4438403Y16056880D01*
X4438402Y16056879D01*
X4435711Y16053035D01*
X4423773Y16038479D01*
X4418368Y16032826D01*
X4397476Y16001178D01*
X4365828Y15953232D01*
X4312898Y15877638D01*
X4312891Y15877626D01*
X4309457Y15870262D01*
X4300572Y15854372D01*
X4294362Y15844965D01*
X4294362Y15844964D01*
X4258108Y15760141D01*
X4220425Y15679331D01*
X4220424Y15679329D01*
X4217425Y15668140D01*
X4211681Y15651525D01*
X4205899Y15637995D01*
X4205896Y15637984D01*
X4186063Y15551093D01*
X4163793Y15467978D01*
X4163793Y15467977D01*
X4162112Y15448774D01*
X4160793Y15440375D01*
X4155809Y15418541D01*
X4155809Y15418536D01*
X4151949Y15332603D01*
X4144723Y15250004D01*
X4144723Y15249997D01*
X2450500Y15249997D01*
X2450500Y18099998D01*
X4132677Y18099998D01*
X4151929Y17879938D01*
X4151930Y17879930D01*
X4209104Y17666555D01*
X4209105Y17666553D01*
X4209106Y17666550D01*
X4256389Y17565151D01*
X4302466Y17466338D01*
X4302468Y17466334D01*
X4429170Y17285385D01*
X4429175Y17285379D01*
X4585378Y17129176D01*
X4585384Y17129171D01*
X4766333Y17002469D01*
X4766335Y17002468D01*
X4766338Y17002466D01*
X4966550Y16909106D01*
X5179932Y16851930D01*
X5337123Y16838178D01*
X5399998Y16832677D01*
X5400000Y16832677D01*
X5400002Y16832677D01*
X5455017Y16837491D01*
X5620068Y16851930D01*
X5833450Y16909106D01*
X6033662Y17002466D01*
X6214620Y17129174D01*
X6370826Y17285380D01*
X6497534Y17466338D01*
X6590894Y17666550D01*
X6648070Y17879932D01*
X6667323Y18100000D01*
X6648070Y18320068D01*
X6590894Y18533450D01*
X6497534Y18733661D01*
X6370826Y18914620D01*
X6214620Y19070826D01*
X6214616Y19070829D01*
X6214615Y19070830D01*
X6033666Y19197532D01*
X6033662Y19197534D01*
X6000107Y19213181D01*
X5833450Y19290894D01*
X5833447Y19290895D01*
X5833445Y19290896D01*
X5620070Y19348070D01*
X5620062Y19348071D01*
X5400002Y19367323D01*
X5399998Y19367323D01*
X5179937Y19348071D01*
X5179929Y19348070D01*
X4966554Y19290896D01*
X4966550Y19290894D01*
X4959087Y19287414D01*
X4766340Y19197535D01*
X4766338Y19197534D01*
X4585377Y19070825D01*
X4429175Y18914623D01*
X4302466Y18733662D01*
X4302465Y18733660D01*
X4209107Y18533452D01*
X4209104Y18533446D01*
X4151930Y18320071D01*
X4151929Y18320063D01*
X4132677Y18100003D01*
X4132677Y18099998D01*
X2450500Y18099998D01*
X2450500Y21099998D01*
X4132677Y21099998D01*
X4151929Y20879938D01*
X4151930Y20879930D01*
X4209104Y20666555D01*
X4209105Y20666553D01*
X4209106Y20666550D01*
X4274777Y20525718D01*
X4302466Y20466338D01*
X4302468Y20466334D01*
X4429170Y20285385D01*
X4429175Y20285379D01*
X4585378Y20129176D01*
X4585384Y20129171D01*
X4766333Y20002469D01*
X4766335Y20002468D01*
X4766338Y20002466D01*
X4966550Y19909106D01*
X5179932Y19851930D01*
X5337123Y19838178D01*
X5399998Y19832677D01*
X5400000Y19832677D01*
X5400002Y19832677D01*
X5455017Y19837491D01*
X5620068Y19851930D01*
X5833450Y19909106D01*
X6033662Y20002466D01*
X6214620Y20129174D01*
X6370826Y20285380D01*
X6497534Y20466338D01*
X6590894Y20666550D01*
X6641892Y20856876D01*
X13410426Y20856876D01*
X13472611Y20813334D01*
X13472613Y20813333D01*
X13670840Y20720899D01*
X13670849Y20720895D01*
X13882105Y20664290D01*
X13882115Y20664288D01*
X14099999Y20645225D01*
X14100001Y20645225D01*
X14317884Y20664288D01*
X14317894Y20664290D01*
X14529150Y20720895D01*
X14529159Y20720899D01*
X14727387Y20813334D01*
X14789572Y20856876D01*
X14100001Y21546447D01*
X14100000Y21546447D01*
X13410426Y20856876D01*
X6641892Y20856876D01*
X6648070Y20879932D01*
X6667323Y21100000D01*
X6648070Y21320068D01*
X6590894Y21533450D01*
X6497534Y21733661D01*
X6395279Y21879697D01*
X6381063Y21900000D01*
X12845225Y21900000D01*
X12864287Y21682116D01*
X12864289Y21682106D01*
X12920894Y21470850D01*
X12920898Y21470841D01*
X13013335Y21272609D01*
X13056873Y21210429D01*
X13056875Y21210428D01*
X13746447Y21900000D01*
X13746447Y21900001D01*
X13718288Y21928160D01*
X13796105Y21928160D01*
X13806454Y21816479D01*
X13856448Y21716078D01*
X13939334Y21640516D01*
X14043920Y21600000D01*
X14127802Y21600000D01*
X14210250Y21615412D01*
X14305610Y21674457D01*
X14373201Y21763962D01*
X14403895Y21871840D01*
X14401286Y21900000D01*
X14453553Y21900000D01*
X15143124Y21210428D01*
X15186666Y21272613D01*
X15279101Y21470841D01*
X15279105Y21470850D01*
X15335710Y21682106D01*
X15335712Y21682116D01*
X15354775Y21900000D01*
X15354775Y21900001D01*
X15335712Y22117885D01*
X15335710Y22117895D01*
X15279105Y22329151D01*
X15279101Y22329160D01*
X15186668Y22527385D01*
X15143123Y22589572D01*
X14453553Y21900001D01*
X14453553Y21900000D01*
X14401286Y21900000D01*
X14393546Y21983521D01*
X14343552Y22083922D01*
X14260666Y22159484D01*
X14156080Y22200000D01*
X14072198Y22200000D01*
X13989750Y22184588D01*
X13894390Y22125543D01*
X13826799Y22036038D01*
X13796105Y21928160D01*
X13718288Y21928160D01*
X13056875Y22589573D01*
X13056875Y22589572D01*
X13013333Y22527388D01*
X13013332Y22527386D01*
X12920898Y22329160D01*
X12920894Y22329151D01*
X12864289Y22117895D01*
X12864287Y22117885D01*
X12845225Y21900001D01*
X12845225Y21900000D01*
X6381063Y21900000D01*
X6370827Y21914619D01*
X6301925Y21983521D01*
X6214620Y22070826D01*
X6214616Y22070829D01*
X6214615Y22070830D01*
X6033666Y22197532D01*
X6033662Y22197534D01*
X5994040Y22216010D01*
X5833450Y22290894D01*
X5833447Y22290895D01*
X5833445Y22290896D01*
X5620070Y22348070D01*
X5620062Y22348071D01*
X5400002Y22367323D01*
X5399998Y22367323D01*
X5179937Y22348071D01*
X5179929Y22348070D01*
X4966554Y22290896D01*
X4966548Y22290893D01*
X4766340Y22197535D01*
X4766338Y22197534D01*
X4585377Y22070825D01*
X4429175Y21914623D01*
X4302466Y21733662D01*
X4302465Y21733660D01*
X4209107Y21533452D01*
X4209104Y21533446D01*
X4151930Y21320071D01*
X4151929Y21320063D01*
X4132677Y21100003D01*
X4132677Y21099998D01*
X2450500Y21099998D01*
X2450500Y26949997D01*
X4144723Y26949997D01*
X4146688Y26927530D01*
X4146862Y26919340D01*
X4145709Y26893676D01*
X4145710Y26893672D01*
X4156641Y26812969D01*
X4156966Y26810051D01*
X4163792Y26732028D01*
X4163795Y26732013D01*
X4170482Y26707059D01*
X4172034Y26699330D01*
X4175924Y26670619D01*
X4175926Y26670608D01*
X4200075Y26596287D01*
X4200997Y26593175D01*
X4220423Y26520676D01*
X4220427Y26520664D01*
X4232736Y26494268D01*
X4235512Y26487221D01*
X4245483Y26456536D01*
X4280970Y26390589D01*
X4282558Y26387424D01*
X4312898Y26322361D01*
X4331490Y26295809D01*
X4335303Y26289622D01*
X4352146Y26258322D01*
X4352152Y26258313D01*
X4396792Y26202337D01*
X4399106Y26199242D01*
X4422285Y26166140D01*
X4438402Y26143123D01*
X4438405Y26143120D01*
X4463646Y26117879D01*
X4468283Y26112691D01*
X4492492Y26082334D01*
X4543959Y26037368D01*
X4547008Y26034517D01*
X4593116Y25988408D01*
X4593122Y25988403D01*
X4593123Y25988402D01*
X4604802Y25980225D01*
X4625055Y25966043D01*
X4630290Y25961943D01*
X4662004Y25934235D01*
X4662013Y25934229D01*
X4717849Y25900869D01*
X4721613Y25898432D01*
X4772359Y25862899D01*
X4772364Y25862896D01*
X4794917Y25852380D01*
X4810677Y25845031D01*
X4816271Y25842065D01*
X4853349Y25819912D01*
X4855236Y25818785D01*
X4867296Y25814259D01*
X4913083Y25797075D01*
X4917503Y25795218D01*
X4970670Y25770425D01*
X4970674Y25770423D01*
X4996963Y25763380D01*
X5014677Y25758634D01*
X5020413Y25756793D01*
X5037264Y25750469D01*
X5065976Y25739693D01*
X5123545Y25729246D01*
X5128511Y25728132D01*
X5182023Y25713793D01*
X5230689Y25709536D01*
X5236306Y25708782D01*
X5287453Y25699500D01*
X5342691Y25699500D01*
X5348092Y25699265D01*
X5373070Y25697079D01*
X5399998Y25694723D01*
X5400000Y25694723D01*
X5452992Y25699360D01*
X5456121Y25699500D01*
X5456155Y25699500D01*
X5510172Y25704362D01*
X5617977Y25713793D01*
X5618000Y25713800D01*
X5618475Y25713883D01*
X5623713Y25714581D01*
X5624188Y25714623D01*
X5727997Y25743274D01*
X5829330Y25770425D01*
X5829337Y25770429D01*
X5836254Y25772947D01*
X5840948Y25774446D01*
X5841170Y25774507D01*
X5841181Y25774513D01*
X5841183Y25774513D01*
X5935454Y25819912D01*
X6027639Y25862898D01*
X6027644Y25862903D01*
X6032327Y25865605D01*
X6032400Y25865478D01*
X6043164Y25871782D01*
X6043973Y25872171D01*
X6126156Y25931882D01*
X6206877Y25988402D01*
X6207747Y25989273D01*
X6222550Y26001916D01*
X6226078Y26004478D01*
X6294131Y26075657D01*
X6361598Y26143123D01*
X6364285Y26146961D01*
X6376239Y26161535D01*
X6381629Y26167172D01*
X6381628Y26167172D01*
X6381632Y26167175D01*
X6434164Y26246759D01*
X6487102Y26322361D01*
X6490543Y26329741D01*
X6499432Y26345636D01*
X6505635Y26355032D01*
X6541889Y26439854D01*
X6579575Y26520670D01*
X6582570Y26531852D01*
X6588325Y26548495D01*
X6591374Y26555628D01*
X6594103Y26562012D01*
X6613936Y26648908D01*
X6636207Y26732023D01*
X6637887Y26751234D01*
X6639206Y26759623D01*
X6639445Y26760675D01*
X6644191Y26781463D01*
X6648050Y26867398D01*
X6655277Y26950000D01*
X6653310Y26972472D01*
X6653137Y26980666D01*
X6654129Y27002752D01*
X6654290Y27006330D01*
X6643353Y27087061D01*
X6643034Y27089933D01*
X6636207Y27167977D01*
X6629515Y27192947D01*
X6627963Y27200678D01*
X6624076Y27229382D01*
X6624075Y27229384D01*
X6624075Y27229387D01*
X6607464Y27280508D01*
X6599921Y27303724D01*
X6598998Y27306839D01*
X6589133Y27343656D01*
X6582573Y27368140D01*
X6579576Y27379327D01*
X6579574Y27379331D01*
X6567266Y27405726D01*
X6564488Y27412778D01*
X6554519Y27443459D01*
X6554517Y27443463D01*
X6554517Y27443464D01*
X6541469Y27467712D01*
X6519027Y27509417D01*
X6517432Y27512595D01*
X6502338Y27544964D01*
X6487102Y27577638D01*
X6468512Y27604187D01*
X6464698Y27610375D01*
X6460709Y27617788D01*
X6447852Y27641681D01*
X6403192Y27697682D01*
X6400896Y27700753D01*
X6361598Y27756877D01*
X6336353Y27782122D01*
X6331715Y27787311D01*
X6307508Y27817666D01*
X6299866Y27824343D01*
X6256039Y27862634D01*
X6252990Y27865485D01*
X6206878Y27911598D01*
X6174940Y27933961D01*
X6169705Y27938061D01*
X6137996Y27965765D01*
X6137994Y27965767D01*
X6137992Y27965768D01*
X6082149Y27999132D01*
X6078386Y28001569D01*
X6027641Y28037101D01*
X5989333Y28054965D01*
X5983735Y28057933D01*
X5944769Y28081213D01*
X5944767Y28081214D01*
X5886928Y28102921D01*
X5882515Y28104774D01*
X5829330Y28129575D01*
X5785321Y28141368D01*
X5779581Y28143210D01*
X5734025Y28160308D01*
X5676456Y28170755D01*
X5671480Y28171872D01*
X5617977Y28186207D01*
X5569327Y28190464D01*
X5563659Y28191225D01*
X5512551Y28200500D01*
X5512547Y28200500D01*
X5457309Y28200500D01*
X5451907Y28200736D01*
X5423451Y28203226D01*
X5400002Y28205277D01*
X5399997Y28205277D01*
X5347050Y28200645D01*
X5343862Y28200501D01*
X5343851Y28200500D01*
X5343845Y28200500D01*
X5297671Y28196345D01*
X5289826Y28195639D01*
X5182020Y28186207D01*
X5181468Y28186109D01*
X5176275Y28185419D01*
X5175812Y28185378D01*
X5175809Y28185377D01*
X5072002Y28156727D01*
X4970659Y28129572D01*
X4963739Y28127054D01*
X4959050Y28125556D01*
X4958849Y28125501D01*
X4958832Y28125495D01*
X4864528Y28080081D01*
X4772358Y28037101D01*
X4767670Y28034394D01*
X4767598Y28034519D01*
X4756871Y28028236D01*
X4756030Y28027832D01*
X4673831Y27968111D01*
X4593123Y27911599D01*
X4592241Y27910716D01*
X4577461Y27898094D01*
X4573928Y27895528D01*
X4573916Y27895517D01*
X4542477Y27862634D01*
X4505868Y27824344D01*
X4483379Y27801856D01*
X4438403Y27756880D01*
X4438402Y27756879D01*
X4435711Y27753035D01*
X4423773Y27738479D01*
X4418368Y27732826D01*
X4415048Y27727796D01*
X4365828Y27653232D01*
X4329110Y27600792D01*
X4312898Y27577638D01*
X4312891Y27577626D01*
X4309457Y27570262D01*
X4300572Y27554372D01*
X4294362Y27544965D01*
X4294362Y27544964D01*
X4258108Y27460141D01*
X4220425Y27379331D01*
X4220424Y27379329D01*
X4217425Y27368140D01*
X4211681Y27351525D01*
X4205899Y27337995D01*
X4205896Y27337984D01*
X4186063Y27251093D01*
X4163793Y27167978D01*
X4163793Y27167977D01*
X4162112Y27148774D01*
X4160793Y27140375D01*
X4155809Y27118541D01*
X4155809Y27118537D01*
X4154691Y27093657D01*
X4151949Y27032603D01*
X4144723Y26950004D01*
X4144723Y26949997D01*
X2450500Y26949997D01*
X2450500Y28537771D01*
X2470185Y28604810D01*
X2486819Y28625452D01*
X7774548Y33913181D01*
X7835871Y33946666D01*
X7862229Y33949500D01*
X29437770Y33949500D01*
X29504809Y33929815D01*
G37*
G04 #@! TD.AperFunction*
G04 #@! TD*
M02*
