G04 #@! TF.GenerationSoftware,KiCad,Pcbnew,7.0.9*
G04 #@! TF.CreationDate,2023-12-24T13:53:04+01:00*
G04 #@! TF.ProjectId,reactionGameBoard,72656163-7469-46f6-9e47-616d65426f61,rev?*
G04 #@! TF.SameCoordinates,PX1c9c380PY399a180*
G04 #@! TF.FileFunction,Copper,L2,Bot*
G04 #@! TF.FilePolarity,Positive*
%FSLAX46Y46*%
G04 Gerber Fmt 4.6, Leading zero omitted, Abs format (unit mm)*
G04 Created by KiCad (PCBNEW 7.0.9) date 2023-12-24 13:53:04*
%MOMM*%
%LPD*%
G01*
G04 APERTURE LIST*
G04 Aperture macros list*
%AMRoundRect*
0 Rectangle with rounded corners*
0 $1 Rounding radius*
0 $2 $3 $4 $5 $6 $7 $8 $9 X,Y pos of 4 corners*
0 Add a 4 corners polygon primitive as box body*
4,1,4,$2,$3,$4,$5,$6,$7,$8,$9,$2,$3,0*
0 Add four circle primitives for the rounded corners*
1,1,$1+$1,$2,$3*
1,1,$1+$1,$4,$5*
1,1,$1+$1,$6,$7*
1,1,$1+$1,$8,$9*
0 Add four rect primitives between the rounded corners*
20,1,$1+$1,$2,$3,$4,$5,0*
20,1,$1+$1,$4,$5,$6,$7,0*
20,1,$1+$1,$6,$7,$8,$9,0*
20,1,$1+$1,$8,$9,$2,$3,0*%
G04 Aperture macros list end*
G04 #@! TA.AperFunction,NonConductor*
%ADD10C,0.200000*%
G04 #@! TD*
G04 #@! TA.AperFunction,WasherPad*
%ADD11R,2.500000X2.500000*%
G04 #@! TD*
G04 #@! TA.AperFunction,ComponentPad*
%ADD12C,1.600000*%
G04 #@! TD*
G04 #@! TA.AperFunction,ComponentPad*
%ADD13C,1.524000*%
G04 #@! TD*
G04 #@! TA.AperFunction,ComponentPad*
%ADD14R,1.700000X1.700000*%
G04 #@! TD*
G04 #@! TA.AperFunction,ComponentPad*
%ADD15R,1.600000X1.600000*%
G04 #@! TD*
G04 #@! TA.AperFunction,ComponentPad*
%ADD16O,1.600000X1.600000*%
G04 #@! TD*
G04 #@! TA.AperFunction,ComponentPad*
%ADD17O,3.048000X1.850000*%
G04 #@! TD*
G04 #@! TA.AperFunction,SMDPad,CuDef*
%ADD18RoundRect,0.250000X-0.312500X-0.625000X0.312500X-0.625000X0.312500X0.625000X-0.312500X0.625000X0*%
G04 #@! TD*
G04 #@! TA.AperFunction,ComponentPad*
%ADD19C,1.500000*%
G04 #@! TD*
G04 #@! TA.AperFunction,SMDPad,CuDef*
%ADD20RoundRect,0.250000X0.312500X0.625000X-0.312500X0.625000X-0.312500X-0.625000X0.312500X-0.625000X0*%
G04 #@! TD*
G04 #@! TA.AperFunction,SMDPad,CuDef*
%ADD21RoundRect,0.250000X-0.625000X0.312500X-0.625000X-0.312500X0.625000X-0.312500X0.625000X0.312500X0*%
G04 #@! TD*
G04 #@! TA.AperFunction,SMDPad,CuDef*
%ADD22RoundRect,0.150000X0.825000X0.150000X-0.825000X0.150000X-0.825000X-0.150000X0.825000X-0.150000X0*%
G04 #@! TD*
G04 #@! TA.AperFunction,Conductor*
%ADD23C,0.500000*%
G04 #@! TD*
G04 APERTURE END LIST*
D10*
X1500000Y9800000D02*
X3400000Y9800000D01*
X3400000Y7800000D01*
X1500000Y7800000D01*
X1500000Y9800000D01*
G04 #@! TA.AperFunction,NonConductor*
G36*
X1500000Y9800000D02*
G01*
X3400000Y9800000D01*
X3400000Y7800000D01*
X1500000Y7800000D01*
X1500000Y9800000D01*
G37*
G04 #@! TD.AperFunction*
D11*
G04 #@! TO.P,SW2,*
G04 #@! TO.N,*
X2400000Y14650000D03*
X2400000Y2950000D03*
D12*
G04 #@! TO.P,SW2,1,A*
G04 #@! TO.N,+3V0*
X2400000Y5800000D03*
G04 #@! TO.P,SW2,2,B*
G04 #@! TO.N,Net-(SW2A-B)*
X2400000Y8800000D03*
G04 #@! TO.P,SW2,3,C*
G04 #@! TO.N,unconnected-(SW2A-C-Pad3)*
X2400000Y11800000D03*
G04 #@! TD*
D13*
G04 #@! TO.P,DS1,1,E*
G04 #@! TO.N,E*
X19300000Y18900000D03*
G04 #@! TO.P,DS1,2,D*
G04 #@! TO.N,D*
X21840000Y18900000D03*
G04 #@! TO.P,DS1,3,Dp*
G04 #@! TO.N,Dp*
X24380000Y18900000D03*
G04 #@! TO.P,DS1,4,C*
G04 #@! TO.N,C*
X26920000Y18900000D03*
G04 #@! TO.P,DS1,5,G*
G04 #@! TO.N,G*
X29460000Y18900000D03*
G04 #@! TO.P,DS1,6,4*
G04 #@! TO.N,DP4*
X32000000Y18900000D03*
G04 #@! TO.P,DS1,7,B*
G04 #@! TO.N,B*
X32000000Y34140000D03*
G04 #@! TO.P,DS1,8,3*
G04 #@! TO.N,DP3*
X29460000Y34140000D03*
G04 #@! TO.P,DS1,9,2*
G04 #@! TO.N,DP2*
X26920000Y34140000D03*
G04 #@! TO.P,DS1,10,F*
G04 #@! TO.N,F*
X24380000Y34140000D03*
G04 #@! TO.P,DS1,11,A*
G04 #@! TO.N,A*
X21840000Y34140000D03*
G04 #@! TO.P,DS1,12,1*
G04 #@! TO.N,DP1*
X19300000Y34140000D03*
G04 #@! TD*
D14*
G04 #@! TO.P,J2,1,Pin_1*
G04 #@! TO.N,MISO*
X44300000Y15200000D03*
G04 #@! TD*
G04 #@! TO.P,J1,1,Pin_1*
G04 #@! TO.N,MOSI*
X44600000Y3600000D03*
G04 #@! TD*
G04 #@! TO.P,J5,1,Pin_1*
G04 #@! TO.N,reset*
X48300000Y3600000D03*
G04 #@! TD*
D15*
G04 #@! TO.P,U2,1,QB*
G04 #@! TO.N,Net-(U2-QB)*
X41175000Y11000000D03*
D16*
G04 #@! TO.P,U2,2,QC*
G04 #@! TO.N,Net-(U2-QC)*
X38635000Y11000000D03*
G04 #@! TO.P,U2,3,QD*
G04 #@! TO.N,Net-(U2-QD)*
X36095000Y11000000D03*
G04 #@! TO.P,U2,4,QE*
G04 #@! TO.N,Net-(U2-QE)*
X33555000Y11000000D03*
G04 #@! TO.P,U2,5,QF*
G04 #@! TO.N,Net-(U2-QF)*
X31015000Y11000000D03*
G04 #@! TO.P,U2,6,QG*
G04 #@! TO.N,Net-(U2-QG)*
X28475000Y11000000D03*
G04 #@! TO.P,U2,7,QH*
G04 #@! TO.N,Net-(U2-QH)*
X25935000Y11000000D03*
G04 #@! TO.P,U2,8,GND*
G04 #@! TO.N,GND*
X23395000Y11000000D03*
G04 #@! TO.P,U2,9,QH'*
G04 #@! TO.N,unconnected-(U2-QH'-Pad9)*
X23395000Y3380000D03*
G04 #@! TO.P,U2,10,~{SRCLR}*
G04 #@! TO.N,+3V0*
X25935000Y3380000D03*
G04 #@! TO.P,U2,11,SRCLK*
G04 #@! TO.N,SCK*
X28475000Y3380000D03*
G04 #@! TO.P,U2,12,RCLK*
G04 #@! TO.N,CS2*
X31015000Y3380000D03*
G04 #@! TO.P,U2,13,~{OE}*
G04 #@! TO.N,GND*
X33555000Y3380000D03*
G04 #@! TO.P,U2,14,SER*
G04 #@! TO.N,MOSI*
X36095000Y3380000D03*
G04 #@! TO.P,U2,15,QA*
G04 #@! TO.N,Net-(U2-QA)*
X38635000Y3380000D03*
G04 #@! TO.P,U2,16,VCC*
G04 #@! TO.N,+3V0*
X41175000Y3380000D03*
G04 #@! TD*
D14*
G04 #@! TO.P,J10,1,Pin_1*
G04 #@! TO.N,+3V0*
X50200000Y8000000D03*
G04 #@! TD*
G04 #@! TO.P,J3,1,Pin_1*
G04 #@! TO.N,serialCS*
X50400000Y15100000D03*
G04 #@! TD*
G04 #@! TO.P,J9,1,Pin_1*
G04 #@! TO.N,GND*
X9700000Y15100000D03*
G04 #@! TD*
G04 #@! TO.P,J6,1,Pin_1*
G04 #@! TO.N,SCK*
X44600000Y8100000D03*
G04 #@! TD*
D17*
G04 #@! TO.P,SW1,1,1*
G04 #@! TO.N,PB2*
X7300000Y9400000D03*
X19800000Y9400000D03*
G04 #@! TO.P,SW1,2,2*
G04 #@! TO.N,GND*
X7300000Y4400000D03*
X19800000Y4400000D03*
G04 #@! TD*
D18*
G04 #@! TO.P,R8,1*
G04 #@! TO.N,Net-(U2-QH)*
X16837500Y30800000D03*
G04 #@! TO.P,R8,2*
G04 #@! TO.N,A*
X19762500Y30800000D03*
G04 #@! TD*
D19*
G04 #@! TO.P,B1,1*
G04 #@! TO.N,GND*
X13540000Y27200000D03*
G04 #@! TO.P,B1,2*
G04 #@! TO.N,Net-(SW2A-B)*
X13540000Y6750000D03*
G04 #@! TD*
D20*
G04 #@! TO.P,R1,1*
G04 #@! TO.N,Net-(U2-QA)*
X37262500Y34100000D03*
G04 #@! TO.P,R1,2*
G04 #@! TO.N,B*
X34337500Y34100000D03*
G04 #@! TD*
D21*
G04 #@! TO.P,R6,1*
G04 #@! TO.N,Net-(U2-QF)*
X24400000Y24400000D03*
G04 #@! TO.P,R6,2*
G04 #@! TO.N,D*
X24400000Y21475000D03*
G04 #@! TD*
D20*
G04 #@! TO.P,R2,1*
G04 #@! TO.N,Net-(U2-QB)*
X33500000Y23600000D03*
G04 #@! TO.P,R2,2*
G04 #@! TO.N,C*
X30575000Y23600000D03*
G04 #@! TD*
G04 #@! TO.P,R4,1*
G04 #@! TO.N,Net-(U2-QD)*
X34862500Y15700000D03*
G04 #@! TO.P,R4,2*
G04 #@! TO.N,Dp*
X31937500Y15700000D03*
G04 #@! TD*
D22*
G04 #@! TO.P,U1,1,VCC*
G04 #@! TO.N,+3V0*
X45745000Y30330000D03*
G04 #@! TO.P,U1,2,XTAL1/PB0*
G04 #@! TO.N,serialCS*
X45745000Y29060000D03*
G04 #@! TO.P,U1,3,XTAL2/PB1*
G04 #@! TO.N,PB2*
X45745000Y27790000D03*
G04 #@! TO.P,U1,4,~{RESET}/PB3*
G04 #@! TO.N,reset*
X45745000Y26520000D03*
G04 #@! TO.P,U1,5,PB2*
G04 #@! TO.N,DP3*
X45745000Y25250000D03*
G04 #@! TO.P,U1,6,PA7*
G04 #@! TO.N,unconnected-(U1-PA7-Pad6)*
X45745000Y23980000D03*
G04 #@! TO.P,U1,7,PA6*
G04 #@! TO.N,MOSI*
X45745000Y22710000D03*
G04 #@! TO.P,U1,8,PA5*
G04 #@! TO.N,MISO*
X40795000Y22710000D03*
G04 #@! TO.P,U1,9,PA4*
G04 #@! TO.N,SCK*
X40795000Y23980000D03*
G04 #@! TO.P,U1,10,PA3*
G04 #@! TO.N,CS2*
X40795000Y25250000D03*
G04 #@! TO.P,U1,11,PA2*
G04 #@! TO.N,DP4*
X40795000Y26520000D03*
G04 #@! TO.P,U1,12,PA1*
G04 #@! TO.N,DP1*
X40795000Y27790000D03*
G04 #@! TO.P,U1,13,AREF/PA0*
G04 #@! TO.N,DP2*
X40795000Y29060000D03*
G04 #@! TO.P,U1,14,GND*
G04 #@! TO.N,GND*
X40795000Y30330000D03*
G04 #@! TD*
D20*
G04 #@! TO.P,R3,1*
G04 #@! TO.N,Net-(U2-QC)*
X33462500Y21200000D03*
G04 #@! TO.P,R3,2*
G04 #@! TO.N,G*
X30537500Y21200000D03*
G04 #@! TD*
D18*
G04 #@! TO.P,R7,1*
G04 #@! TO.N,Net-(U2-QG)*
X19737500Y27900000D03*
G04 #@! TO.P,R7,2*
G04 #@! TO.N,F*
X22662500Y27900000D03*
G04 #@! TD*
D21*
G04 #@! TO.P,R5,1*
G04 #@! TO.N,Net-(U2-QE)*
X21600000Y24362500D03*
G04 #@! TO.P,R5,2*
G04 #@! TO.N,E*
X21600000Y21437500D03*
G04 #@! TD*
D23*
G04 #@! TO.N,GND*
X6860000Y4700000D02*
X7060000Y4900000D01*
X7060000Y4900000D02*
X20100000Y4900000D01*
X20100000Y4900000D02*
X23395000Y8195000D01*
X23395000Y8195000D02*
X23395000Y11000000D01*
G04 #@! TO.N,PB2*
X7200000Y9540000D02*
X7200000Y30600000D01*
X7200000Y30600000D02*
X13500000Y36900000D01*
X13500000Y36900000D02*
X40200000Y36900000D01*
X40200000Y36900000D02*
X44200000Y32900000D01*
X44200000Y32900000D02*
X44200000Y28400000D01*
X44200000Y28400000D02*
X44810000Y27790000D01*
X44810000Y27790000D02*
X45745000Y27790000D01*
G04 #@! TO.N,Net-(SW2A-B)*
X2400000Y8800000D02*
X4450000Y6750000D01*
X4450000Y6750000D02*
X12700000Y6750000D01*
G04 #@! TO.N,Net-(U2-QA)*
X38635000Y3380000D02*
X38635000Y4235000D01*
X39900000Y5500000D02*
X45600000Y5500000D01*
X42400000Y31100000D02*
X39400000Y34100000D01*
X38635000Y4235000D02*
X39900000Y5500000D01*
X46300000Y18700000D02*
X42400000Y22600000D01*
X45600000Y5500000D02*
X46300000Y6200000D01*
X46300000Y6200000D02*
X46300000Y18700000D01*
X42400000Y22600000D02*
X42400000Y31100000D01*
X39400000Y34100000D02*
X37262500Y34100000D01*
G04 #@! TO.N,reset*
X45745000Y26520000D02*
X46719999Y26520000D01*
X46719999Y26520000D02*
X48400000Y24839999D01*
X48400000Y24839999D02*
X48400000Y3700000D01*
X48400000Y3700000D02*
X48300000Y3600000D01*
G04 #@! TO.N,PB2*
X6860000Y9700000D02*
X7160000Y9400000D01*
X7160000Y9400000D02*
X19800000Y9400000D01*
G04 #@! TO.N,GND*
X23395000Y11000000D02*
X23095000Y11300000D01*
X40765000Y30300000D02*
X40795000Y30330000D01*
X28200000Y34800000D02*
X28200000Y32500000D01*
X13600000Y27200000D02*
X13600000Y32700000D01*
X30400000Y30300000D02*
X40765000Y30300000D01*
X13600000Y32700000D02*
X17000000Y36100000D01*
X17000000Y36100000D02*
X26900000Y36100000D01*
X26900000Y36100000D02*
X28200000Y34800000D01*
X28200000Y32500000D02*
X30400000Y30300000D01*
G04 #@! TO.N,CS2*
X40795000Y25250000D02*
X39050000Y25250000D01*
X39050000Y25250000D02*
X37200000Y23400000D01*
X37200000Y23400000D02*
X37200000Y21500000D01*
X43200000Y11475000D02*
X43200000Y9900000D01*
X37200000Y21500000D02*
X39000000Y19700000D01*
X39000000Y19700000D02*
X39000000Y15675000D01*
X43200000Y9900000D02*
X41700000Y8400000D01*
X39000000Y15675000D02*
X43200000Y11475000D01*
X41700000Y8400000D02*
X34100000Y8400000D01*
X34100000Y8400000D02*
X31015000Y5315000D01*
X31015000Y5315000D02*
X31015000Y3380000D01*
G04 #@! TO.N,E*
X19237500Y18837500D02*
X19300000Y18900000D01*
X21600000Y21437500D02*
X21600000Y21200000D01*
X21600000Y21200000D02*
X19300000Y18900000D01*
G04 #@! TO.N,D*
X21840000Y19115000D02*
X21840000Y18900000D01*
X24400000Y21475000D02*
X24200000Y21475000D01*
X24200000Y21475000D02*
X21840000Y19115000D01*
G04 #@! TO.N,Dp*
X32037500Y15300000D02*
X30037500Y17300000D01*
X30037500Y17300000D02*
X25980000Y17300000D01*
X25980000Y17300000D02*
X24380000Y18900000D01*
G04 #@! TO.N,C*
X26920000Y21620000D02*
X26920000Y18900000D01*
X28900000Y23600000D02*
X26920000Y21620000D01*
X30575000Y23600000D02*
X28900000Y23600000D01*
G04 #@! TO.N,G*
X30537500Y19977500D02*
X29460000Y18900000D01*
X30537500Y21500000D02*
X30537500Y19977500D01*
G04 #@! TO.N,DP4*
X32000000Y18900000D02*
X32000000Y24800000D01*
X40775000Y26500000D02*
X40795000Y26520000D01*
X33700000Y26500000D02*
X40775000Y26500000D01*
X32000000Y24800000D02*
X33700000Y26500000D01*
G04 #@! TO.N,B*
X34337500Y34100000D02*
X32040000Y34100000D01*
X32040000Y34100000D02*
X32000000Y34140000D01*
G04 #@! TO.N,DP3*
X45745000Y25250000D02*
X44350000Y25250000D01*
X31320000Y36000000D02*
X29460000Y34140000D01*
X44350000Y25250000D02*
X43300000Y26300000D01*
X43300000Y31600000D02*
X38900000Y36000000D01*
X38900000Y36000000D02*
X31320000Y36000000D01*
X43300000Y26300000D02*
X43300000Y31600000D01*
G04 #@! TO.N,DP2*
X40795000Y29060000D02*
X40755000Y29100000D01*
X26920000Y32080000D02*
X26920000Y34140000D01*
X29900000Y29100000D02*
X26920000Y32080000D01*
X40755000Y29100000D02*
X29900000Y29100000D01*
G04 #@! TO.N,F*
X22662500Y32422500D02*
X24380000Y34140000D01*
X22662500Y27900000D02*
X22662500Y32422500D01*
G04 #@! TO.N,A*
X19762500Y30800000D02*
X19762500Y32062500D01*
X19762500Y32062500D02*
X21840000Y34140000D01*
G04 #@! TO.N,DP1*
X40785000Y27800000D02*
X40795000Y27790000D01*
X24882027Y35352000D02*
X25708000Y34526027D01*
X20512000Y35352000D02*
X24882027Y35352000D01*
X29400000Y27800000D02*
X40785000Y27800000D01*
X25708000Y34526027D02*
X25708000Y31492000D01*
X25708000Y31492000D02*
X29400000Y27800000D01*
X19300000Y34140000D02*
X20512000Y35352000D01*
G04 #@! TO.N,MOSI*
X40657233Y4630000D02*
X41692767Y4630000D01*
X41692767Y4630000D02*
X42722767Y3600000D01*
X39925000Y3897767D02*
X40657233Y4630000D01*
X37345000Y2130000D02*
X39330000Y2130000D01*
X47400000Y5600000D02*
X47400000Y21055000D01*
X45400000Y3600000D02*
X47400000Y5600000D01*
X36095000Y3380000D02*
X37345000Y2130000D01*
X39330000Y2130000D02*
X39925000Y2725000D01*
X47400000Y21055000D02*
X45745000Y22710000D01*
X39925000Y2725000D02*
X39925000Y3897767D01*
X42722767Y3600000D02*
X45400000Y3600000D01*
G04 #@! TO.N,GND*
X27185000Y2902233D02*
X27185000Y7210000D01*
X32606370Y1300000D02*
X28787233Y1300000D01*
X27185000Y7210000D02*
X23395000Y11000000D01*
X33555000Y2248630D02*
X32606370Y1300000D01*
X28787233Y1300000D02*
X27185000Y2902233D01*
X33555000Y3380000D02*
X33555000Y2248630D01*
G04 #@! TO.N,+3V0*
X25935000Y1435000D02*
X25100000Y600000D01*
X42400000Y600000D02*
X48700000Y600000D01*
X50200000Y2100000D02*
X50200000Y9200000D01*
X2300000Y5800000D02*
X3900000Y5800000D01*
X50200000Y9200000D02*
X51900000Y10900000D01*
X4700000Y3400000D02*
X7500000Y600000D01*
X2400000Y5800000D02*
X2800000Y5800000D01*
X41175000Y1825000D02*
X42400000Y600000D01*
X51900000Y27100000D02*
X48670000Y30330000D01*
X51900000Y10900000D02*
X51900000Y27100000D01*
X7500000Y600000D02*
X25100000Y600000D01*
X41175000Y3380000D02*
X41175000Y1825000D01*
X48700000Y600000D02*
X50200000Y2100000D01*
X3900000Y5800000D02*
X4700000Y5000000D01*
X25100000Y600000D02*
X42400000Y600000D01*
X4700000Y5000000D02*
X4700000Y3400000D01*
X48670000Y30330000D02*
X45745000Y30330000D01*
X25935000Y3380000D02*
X25935000Y1435000D01*
G04 #@! TO.N,MISO*
X40795000Y22205000D02*
X44300000Y18700000D01*
X44300000Y18700000D02*
X44300000Y15200000D01*
X40795000Y22710000D02*
X40795000Y22205000D01*
G04 #@! TO.N,SCK*
X29855000Y2000000D02*
X28475000Y3380000D01*
X38600000Y21600000D02*
X40400000Y19800000D01*
X40400000Y15800000D02*
X44900000Y11300000D01*
X35600000Y7200000D02*
X32305000Y3905000D01*
X31900000Y2000000D02*
X29855000Y2000000D01*
X40795000Y23980000D02*
X39580000Y23980000D01*
X39580000Y23980000D02*
X38600000Y23000000D01*
X32305000Y2405000D02*
X31900000Y2000000D01*
X44900000Y8000000D02*
X44100000Y7200000D01*
X40400000Y19800000D02*
X40400000Y15800000D01*
X44100000Y7200000D02*
X35600000Y7200000D01*
X32305000Y3905000D02*
X32305000Y2405000D01*
X44900000Y11300000D02*
X44900000Y8000000D01*
X38600000Y23000000D02*
X38600000Y21600000D01*
G04 #@! TO.N,reset*
X48700000Y3500000D02*
X48000000Y4200000D01*
G04 #@! TO.N,Net-(U2-QB)*
X37800000Y14375000D02*
X37800000Y18000000D01*
X37800000Y18000000D02*
X35200000Y20600000D01*
X35200000Y22400000D02*
X33400000Y24200000D01*
X41175000Y11000000D02*
X37800000Y14375000D01*
X35200000Y20600000D02*
X35200000Y22400000D01*
G04 #@! TO.N,Net-(U2-QC)*
X36500000Y17700000D02*
X36500000Y13135000D01*
X36500000Y13135000D02*
X38635000Y11000000D01*
X33462500Y20737500D02*
X36500000Y17700000D01*
X33462500Y21200000D02*
X33462500Y20737500D01*
G04 #@! TO.N,Net-(U2-QD)*
X36095000Y11000000D02*
X34900000Y12195000D01*
X34900000Y15662500D02*
X34862500Y15700000D01*
X34900000Y12195000D02*
X34900000Y15662500D01*
G04 #@! TO.N,Net-(U2-QE)*
X21262500Y24362500D02*
X21600000Y24362500D01*
X17000000Y17700000D02*
X17000000Y20100000D01*
X33555000Y11000000D02*
X28255000Y16300000D01*
X17000000Y20100000D02*
X21262500Y24362500D01*
X18400000Y16300000D02*
X17000000Y17700000D01*
X28255000Y16300000D02*
X18400000Y16300000D01*
G04 #@! TO.N,Net-(U2-QF)*
X20400000Y25900000D02*
X15300000Y20800000D01*
X15300000Y20800000D02*
X15300000Y16600000D01*
X15300000Y16600000D02*
X16600000Y15300000D01*
X24400000Y24400000D02*
X22900000Y25900000D01*
X16600000Y15300000D02*
X26715000Y15300000D01*
X22900000Y25900000D02*
X20400000Y25900000D01*
X26715000Y15300000D02*
X31015000Y11000000D01*
X24400000Y24600000D02*
X24400000Y24400000D01*
G04 #@! TO.N,Net-(U2-QG)*
X28475000Y11025000D02*
X28475000Y11000000D01*
X13600000Y16000000D02*
X15400000Y14200000D01*
X19737500Y27900000D02*
X19300000Y27900000D01*
X13600000Y22200000D02*
X13600000Y16000000D01*
X25300000Y14200000D02*
X28475000Y11025000D01*
X15400000Y14200000D02*
X25300000Y14200000D01*
X19300000Y27900000D02*
X13600000Y22200000D01*
G04 #@! TO.N,Net-(U2-QH)*
X25935000Y11065000D02*
X25935000Y11000000D01*
X12100000Y23300000D02*
X12100000Y14600000D01*
X16837500Y30800000D02*
X16837500Y28037500D01*
X13600000Y13100000D02*
X23900000Y13100000D01*
X16837500Y28037500D02*
X12100000Y23300000D01*
X23900000Y13100000D02*
X25935000Y11065000D01*
X12100000Y14600000D02*
X13600000Y13100000D01*
G04 #@! TO.N,PB2*
X6960000Y9800000D02*
X6900000Y9740000D01*
G04 #@! TO.N,serialCS*
X45745000Y29060000D02*
X46224999Y29060000D01*
X47440000Y29060000D02*
X50400000Y26100000D01*
X50400000Y15100000D02*
X49900000Y15100000D01*
X50400000Y26100000D02*
X50400000Y15100000D01*
X45745000Y29060000D02*
X47440000Y29060000D01*
G04 #@! TO.N,CS2*
X31000000Y3442183D02*
X30976408Y3418591D01*
G04 #@! TD*
G04 #@! TA.AperFunction,Conductor*
G04 #@! TO.N,GND*
G36*
X12805809Y37479815D02*
G01*
X12851564Y37427011D01*
X12861508Y37357853D01*
X12832483Y37294297D01*
X12826451Y37287819D01*
X6714358Y31175728D01*
X6700729Y31163949D01*
X6681468Y31149610D01*
X6647898Y31109603D01*
X6644253Y31105624D01*
X6638409Y31099778D01*
X6618059Y31074041D01*
X6568695Y31015211D01*
X6564729Y31009181D01*
X6564682Y31009212D01*
X6560630Y31002853D01*
X6560679Y31002823D01*
X6556889Y30996679D01*
X6524424Y30927059D01*
X6489960Y30858434D01*
X6487488Y30851643D01*
X6487432Y30851664D01*
X6484960Y30844550D01*
X6485015Y30844531D01*
X6482742Y30837673D01*
X6479512Y30822028D01*
X6467207Y30762435D01*
X6454001Y30706716D01*
X6449498Y30687714D01*
X6448661Y30680546D01*
X6448601Y30680553D01*
X6447835Y30673055D01*
X6447895Y30673049D01*
X6447265Y30665860D01*
X6449500Y30589084D01*
X6449500Y10903393D01*
X6429815Y10836354D01*
X6377011Y10790599D01*
X6356746Y10783394D01*
X6224389Y10748931D01*
X6224388Y10748931D01*
X6003286Y10648987D01*
X6003274Y10648980D01*
X5802234Y10513100D01*
X5802232Y10513098D01*
X5627047Y10345197D01*
X5627046Y10345196D01*
X5482758Y10150107D01*
X5373515Y9933435D01*
X5373512Y9933429D01*
X5302456Y9701406D01*
X5271635Y9460719D01*
X5281933Y9218285D01*
X5281933Y9218281D01*
X5333056Y8981071D01*
X5333057Y8981068D01*
X5379066Y8866571D01*
X5423532Y8755914D01*
X5472458Y8676453D01*
X5550757Y8549287D01*
X5711075Y8367131D01*
X5711079Y8367127D01*
X5899870Y8214689D01*
X6111709Y8096348D01*
X6111712Y8096347D01*
X6340507Y8015509D01*
X6340513Y8015508D01*
X6579662Y7974501D01*
X6579670Y7974501D01*
X6579672Y7974500D01*
X6579673Y7974500D01*
X7959559Y7974500D01*
X8140775Y7989924D01*
X8140775Y7989925D01*
X8140782Y7989925D01*
X8375608Y8051069D01*
X8375611Y8051070D01*
X8596713Y8151014D01*
X8596716Y8151017D01*
X8596723Y8151019D01*
X8797765Y8286900D01*
X8972952Y8454803D01*
X9079774Y8599235D01*
X9135464Y8641429D01*
X9179469Y8649500D01*
X17919783Y8649500D01*
X17986822Y8629815D01*
X18025372Y8590515D01*
X18050757Y8549287D01*
X18050758Y8549285D01*
X18211075Y8367131D01*
X18211079Y8367127D01*
X18399870Y8214689D01*
X18611709Y8096348D01*
X18611712Y8096347D01*
X18840507Y8015509D01*
X18840513Y8015508D01*
X19079662Y7974501D01*
X19079670Y7974501D01*
X19079672Y7974500D01*
X19079673Y7974500D01*
X20459559Y7974500D01*
X20640775Y7989924D01*
X20640775Y7989925D01*
X20640782Y7989925D01*
X20875608Y8051069D01*
X20875611Y8051070D01*
X21096713Y8151014D01*
X21096716Y8151017D01*
X21096723Y8151019D01*
X21297765Y8286900D01*
X21472952Y8454803D01*
X21617244Y8649898D01*
X21726488Y8866571D01*
X21797543Y9098591D01*
X21828365Y9339281D01*
X21827888Y9350499D01*
X21818066Y9581716D01*
X21818066Y9581720D01*
X21792623Y9699777D01*
X21766944Y9818928D01*
X21676468Y10044086D01*
X21549242Y10250714D01*
X21388925Y10432869D01*
X21388924Y10432870D01*
X21388920Y10432874D01*
X21200129Y10585312D01*
X20988290Y10703653D01*
X20759500Y10784489D01*
X20759486Y10784493D01*
X20520337Y10825500D01*
X20520328Y10825500D01*
X19140446Y10825500D01*
X19140441Y10825500D01*
X18959224Y10810077D01*
X18959222Y10810076D01*
X18724391Y10748932D01*
X18724388Y10748931D01*
X18503286Y10648987D01*
X18503274Y10648980D01*
X18302234Y10513100D01*
X18302232Y10513098D01*
X18127047Y10345197D01*
X18127046Y10345196D01*
X18020226Y10200765D01*
X17964536Y10158571D01*
X17920531Y10150500D01*
X9180217Y10150500D01*
X9113178Y10170185D01*
X9074628Y10209485D01*
X9049242Y10250714D01*
X9049241Y10250716D01*
X8888924Y10432870D01*
X8888920Y10432874D01*
X8700129Y10585312D01*
X8488290Y10703653D01*
X8259500Y10784489D01*
X8259495Y10784491D01*
X8259493Y10784491D01*
X8259489Y10784492D01*
X8259488Y10784492D01*
X8053543Y10819806D01*
X7990795Y10850537D01*
X7954622Y10910315D01*
X7950500Y10942022D01*
X7950500Y14202156D01*
X8350000Y14202156D01*
X8356401Y14142628D01*
X8356403Y14142621D01*
X8406645Y14007914D01*
X8406649Y14007907D01*
X8492809Y13892813D01*
X8492812Y13892810D01*
X8607906Y13806650D01*
X8607913Y13806646D01*
X8742620Y13756404D01*
X8742627Y13756402D01*
X8802155Y13750001D01*
X8802172Y13750000D01*
X9450000Y13750000D01*
X9450000Y14664499D01*
X9557685Y14615320D01*
X9664237Y14600000D01*
X9735763Y14600000D01*
X9842315Y14615320D01*
X9950000Y14664499D01*
X9950000Y13750000D01*
X10597828Y13750000D01*
X10597844Y13750001D01*
X10657372Y13756402D01*
X10657379Y13756404D01*
X10792086Y13806646D01*
X10792093Y13806650D01*
X10907187Y13892810D01*
X10907190Y13892813D01*
X10993350Y14007907D01*
X10993354Y14007914D01*
X11043596Y14142621D01*
X11043598Y14142628D01*
X11049999Y14202156D01*
X11050000Y14202173D01*
X11050000Y14850000D01*
X10133686Y14850000D01*
X10159493Y14890156D01*
X10200000Y15028111D01*
X10200000Y15171889D01*
X10159493Y15309844D01*
X10133686Y15350000D01*
X11050000Y15350000D01*
X11050000Y15997828D01*
X11049999Y15997845D01*
X11043598Y16057373D01*
X11043596Y16057380D01*
X10993354Y16192087D01*
X10993350Y16192094D01*
X10907190Y16307188D01*
X10907187Y16307191D01*
X10792093Y16393351D01*
X10792086Y16393355D01*
X10657379Y16443597D01*
X10657372Y16443599D01*
X10597844Y16450000D01*
X9950000Y16450000D01*
X9950000Y15535502D01*
X9842315Y15584680D01*
X9735763Y15600000D01*
X9664237Y15600000D01*
X9557685Y15584680D01*
X9450000Y15535502D01*
X9450000Y16450000D01*
X8802155Y16450000D01*
X8742627Y16443599D01*
X8742620Y16443597D01*
X8607913Y16393355D01*
X8607906Y16393351D01*
X8492812Y16307191D01*
X8492809Y16307188D01*
X8406649Y16192094D01*
X8406645Y16192087D01*
X8356403Y16057380D01*
X8356401Y16057373D01*
X8350000Y15997845D01*
X8350000Y15350000D01*
X9266314Y15350000D01*
X9240507Y15309844D01*
X9200000Y15171889D01*
X9200000Y15028111D01*
X9240507Y14890156D01*
X9266314Y14850000D01*
X8350000Y14850000D01*
X8350000Y14202156D01*
X7950500Y14202156D01*
X7950500Y30237771D01*
X7970185Y30304810D01*
X7986819Y30325452D01*
X13774548Y36113181D01*
X13835871Y36146666D01*
X13862229Y36149500D01*
X19946218Y36149500D01*
X20013257Y36129815D01*
X20059012Y36077011D01*
X20068956Y36007853D01*
X20039931Y35944297D01*
X20027041Y35931612D01*
X19973598Y35874966D01*
X19530272Y35431642D01*
X19468949Y35398157D01*
X19431785Y35395795D01*
X19300003Y35407323D01*
X19299998Y35407323D01*
X19079937Y35388071D01*
X19079929Y35388070D01*
X18866554Y35330896D01*
X18866548Y35330893D01*
X18666340Y35237535D01*
X18666338Y35237534D01*
X18485377Y35110825D01*
X18329175Y34954623D01*
X18202466Y34773662D01*
X18202465Y34773660D01*
X18109107Y34573452D01*
X18109104Y34573446D01*
X18051930Y34360071D01*
X18051929Y34360063D01*
X18032677Y34140003D01*
X18032677Y34139998D01*
X18051929Y33919938D01*
X18051930Y33919930D01*
X18109104Y33706555D01*
X18109105Y33706553D01*
X18109106Y33706550D01*
X18142382Y33635189D01*
X18202466Y33506338D01*
X18202468Y33506334D01*
X18329170Y33325385D01*
X18329175Y33325379D01*
X18485378Y33169176D01*
X18485384Y33169171D01*
X18666333Y33042469D01*
X18666335Y33042468D01*
X18666338Y33042466D01*
X18866550Y32949106D01*
X19079932Y32891930D01*
X19229402Y32878854D01*
X19294470Y32853402D01*
X19335448Y32796811D01*
X19339327Y32727049D01*
X19306275Y32667645D01*
X19276858Y32638228D01*
X19263229Y32626449D01*
X19243968Y32612110D01*
X19210398Y32572103D01*
X19206753Y32568124D01*
X19200909Y32562278D01*
X19180559Y32536541D01*
X19131195Y32477711D01*
X19127229Y32471681D01*
X19127182Y32471712D01*
X19123130Y32465353D01*
X19123179Y32465323D01*
X19119389Y32459179D01*
X19086924Y32389559D01*
X19052460Y32320934D01*
X19049988Y32314143D01*
X19049932Y32314164D01*
X19047460Y32307050D01*
X19047515Y32307031D01*
X19045242Y32300173D01*
X19037475Y32262554D01*
X19029707Y32224935D01*
X19017991Y32175500D01*
X19011998Y32150214D01*
X19011161Y32143046D01*
X19011101Y32143053D01*
X19010335Y32135555D01*
X19010395Y32135549D01*
X19009765Y32128360D01*
X19010535Y32101924D01*
X18992808Y32034341D01*
X18974269Y32010637D01*
X18857287Y31893655D01*
X18765187Y31744337D01*
X18765186Y31744334D01*
X18710001Y31577797D01*
X18710001Y31577796D01*
X18710000Y31577796D01*
X18699500Y31475017D01*
X18699500Y30124999D01*
X18699501Y30124982D01*
X18710000Y30022204D01*
X18710001Y30022201D01*
X18737497Y29939226D01*
X18765186Y29855666D01*
X18857288Y29706344D01*
X18981344Y29582288D01*
X19130666Y29490186D01*
X19186006Y29471848D01*
X19243450Y29432077D01*
X19270274Y29367561D01*
X19257959Y29298785D01*
X19210417Y29247585D01*
X19186008Y29236438D01*
X19105671Y29209816D01*
X19105663Y29209813D01*
X18956342Y29117711D01*
X18832289Y28993658D01*
X18740187Y28844337D01*
X18740186Y28844334D01*
X18685001Y28677797D01*
X18685001Y28677796D01*
X18685000Y28677796D01*
X18674500Y28575017D01*
X18674500Y28387231D01*
X18654815Y28320192D01*
X18638181Y28299550D01*
X13114358Y22775728D01*
X13100729Y22763949D01*
X13081468Y22749609D01*
X13081466Y22749607D01*
X13069488Y22735332D01*
X13011317Y22696631D01*
X12941456Y22695523D01*
X12882086Y22732361D01*
X12852057Y22795448D01*
X12850500Y22815039D01*
X12850500Y22937771D01*
X12870185Y23004810D01*
X12886814Y23025447D01*
X17323142Y27461776D01*
X17336771Y27473553D01*
X17356030Y27487890D01*
X17369700Y27504183D01*
X17389601Y27527899D01*
X17393261Y27531894D01*
X17399090Y27537722D01*
X17419441Y27563461D01*
X17433455Y27580162D01*
X17468802Y27622286D01*
X17468806Y27622295D01*
X17472774Y27628325D01*
X17472825Y27628292D01*
X17476872Y27634644D01*
X17476820Y27634676D01*
X17480612Y27640825D01*
X17513075Y27710442D01*
X17547536Y27779060D01*
X17547540Y27779067D01*
X17547542Y27779079D01*
X17550009Y27785854D01*
X17550067Y27785833D01*
X17552543Y27792954D01*
X17552486Y27792972D01*
X17554757Y27799827D01*
X17570292Y27875066D01*
X17573730Y27889573D01*
X17588000Y27949779D01*
X17588000Y27949790D01*
X17588838Y27956952D01*
X17588898Y27956945D01*
X17589664Y27964445D01*
X17589605Y27964450D01*
X17590234Y27971640D01*
X17588000Y28048418D01*
X17588000Y29500270D01*
X17607685Y29567309D01*
X17624319Y29587951D01*
X17742712Y29706344D01*
X17834814Y29855666D01*
X17889999Y30022203D01*
X17900500Y30124991D01*
X17900499Y31475008D01*
X17896518Y31513975D01*
X17889999Y31577797D01*
X17889998Y31577800D01*
X17834814Y31744334D01*
X17742712Y31893656D01*
X17618656Y32017712D01*
X17469334Y32109814D01*
X17302797Y32164999D01*
X17302795Y32165000D01*
X17200010Y32175500D01*
X16474998Y32175500D01*
X16474980Y32175499D01*
X16372203Y32165000D01*
X16372200Y32164999D01*
X16205668Y32109815D01*
X16205663Y32109813D01*
X16056342Y32017711D01*
X15932289Y31893658D01*
X15840187Y31744337D01*
X15840186Y31744334D01*
X15785001Y31577797D01*
X15785001Y31577796D01*
X15785000Y31577796D01*
X15774500Y31475017D01*
X15774500Y30124999D01*
X15774501Y30124982D01*
X15785000Y30022204D01*
X15785001Y30022201D01*
X15840185Y29855669D01*
X15840187Y29855664D01*
X15932289Y29706343D01*
X16050681Y29587951D01*
X16084166Y29526628D01*
X16087000Y29500270D01*
X16087000Y28399731D01*
X16067315Y28332692D01*
X16050681Y28312050D01*
X14994380Y27255750D01*
X14933057Y27222265D01*
X14863365Y27227249D01*
X14807432Y27269121D01*
X14783171Y27332625D01*
X14775712Y27417884D01*
X14775710Y27417895D01*
X14719105Y27629151D01*
X14719101Y27629160D01*
X14626668Y27827385D01*
X14583123Y27889572D01*
X13937953Y27244402D01*
X13925165Y27325148D01*
X13867641Y27438045D01*
X13778045Y27527641D01*
X13665148Y27585165D01*
X13584401Y27597954D01*
X14229572Y28243125D01*
X14229571Y28243127D01*
X14167391Y28286665D01*
X13969159Y28379102D01*
X13969150Y28379106D01*
X13757894Y28435711D01*
X13757884Y28435713D01*
X13540001Y28454775D01*
X13539999Y28454775D01*
X13322115Y28435713D01*
X13322105Y28435711D01*
X13110849Y28379106D01*
X13110840Y28379102D01*
X12912614Y28286668D01*
X12912612Y28286667D01*
X12850428Y28243125D01*
X12850427Y28243125D01*
X13495599Y27597954D01*
X13414852Y27585165D01*
X13301955Y27527641D01*
X13212359Y27438045D01*
X13154835Y27325148D01*
X13142046Y27244402D01*
X12496875Y27889573D01*
X12496875Y27889572D01*
X12453333Y27827388D01*
X12453332Y27827386D01*
X12360898Y27629160D01*
X12360894Y27629151D01*
X12304289Y27417895D01*
X12304287Y27417885D01*
X12285225Y27200001D01*
X12285225Y27200000D01*
X12304287Y26982116D01*
X12304289Y26982106D01*
X12360894Y26770850D01*
X12360898Y26770841D01*
X12453335Y26572609D01*
X12496873Y26510429D01*
X12496875Y26510428D01*
X13142046Y27155600D01*
X13154835Y27074852D01*
X13212359Y26961955D01*
X13301955Y26872359D01*
X13414852Y26814835D01*
X13495599Y26802047D01*
X12850426Y26156876D01*
X12912611Y26113334D01*
X12912613Y26113333D01*
X13110840Y26020899D01*
X13110849Y26020895D01*
X13322105Y25964290D01*
X13322116Y25964288D01*
X13407375Y25956829D01*
X13472444Y25931377D01*
X13513423Y25874787D01*
X13517302Y25805025D01*
X13484250Y25745620D01*
X11614358Y23875728D01*
X11600729Y23863949D01*
X11581468Y23849610D01*
X11547898Y23809603D01*
X11544253Y23805624D01*
X11538409Y23799778D01*
X11518059Y23774041D01*
X11468695Y23715211D01*
X11464729Y23709181D01*
X11464682Y23709212D01*
X11460630Y23702853D01*
X11460679Y23702823D01*
X11456889Y23696679D01*
X11424424Y23627059D01*
X11389960Y23558434D01*
X11387488Y23551643D01*
X11387432Y23551664D01*
X11384960Y23544550D01*
X11385015Y23544531D01*
X11382742Y23537673D01*
X11374975Y23500054D01*
X11367207Y23462435D01*
X11354001Y23406716D01*
X11349498Y23387714D01*
X11348661Y23380546D01*
X11348601Y23380553D01*
X11347835Y23373055D01*
X11347895Y23373049D01*
X11347265Y23365860D01*
X11349500Y23289084D01*
X11349500Y14663706D01*
X11348191Y14645737D01*
X11344710Y14621975D01*
X11349264Y14569936D01*
X11349500Y14564530D01*
X11349500Y14556291D01*
X11353306Y14523726D01*
X11360000Y14447209D01*
X11361461Y14440133D01*
X11361403Y14440122D01*
X11363034Y14432763D01*
X11363092Y14432776D01*
X11364757Y14425750D01*
X11391025Y14353576D01*
X11415185Y14280669D01*
X11418236Y14274126D01*
X11418182Y14274102D01*
X11421470Y14267312D01*
X11421521Y14267337D01*
X11424761Y14260887D01*
X11424762Y14260886D01*
X11424763Y14260883D01*
X11463377Y14202173D01*
X11466965Y14196717D01*
X11507287Y14131345D01*
X11511766Y14125681D01*
X11511719Y14125644D01*
X11516482Y14119798D01*
X11516528Y14119836D01*
X11521173Y14114300D01*
X11577018Y14061614D01*
X13024267Y12614366D01*
X13036048Y12600734D01*
X13050390Y12581470D01*
X13090420Y12547881D01*
X13094392Y12544241D01*
X13100223Y12538410D01*
X13100222Y12538410D01*
X13125944Y12518073D01*
X13184786Y12468698D01*
X13184794Y12468694D01*
X13190824Y12464727D01*
X13190790Y12464677D01*
X13197137Y12460634D01*
X13197169Y12460684D01*
X13203318Y12456892D01*
X13203320Y12456891D01*
X13203323Y12456889D01*
X13272930Y12424431D01*
X13341567Y12389960D01*
X13341576Y12389958D01*
X13348355Y12387490D01*
X13348334Y12387433D01*
X13355451Y12384960D01*
X13355470Y12385016D01*
X13362330Y12382743D01*
X13437532Y12367216D01*
X13512279Y12349500D01*
X13512288Y12349500D01*
X13519452Y12348662D01*
X13519445Y12348603D01*
X13526946Y12347837D01*
X13526952Y12347896D01*
X13534140Y12347267D01*
X13534143Y12347268D01*
X13534144Y12347267D01*
X13610898Y12349500D01*
X22662526Y12349500D01*
X22729565Y12329815D01*
X22775320Y12277011D01*
X22785264Y12207853D01*
X22756239Y12144297D01*
X22733650Y12123925D01*
X22556179Y11999658D01*
X22395342Y11838821D01*
X22264865Y11652483D01*
X22168734Y11446327D01*
X22168730Y11446318D01*
X22116127Y11250001D01*
X22116128Y11250000D01*
X23079314Y11250000D01*
X23067359Y11238045D01*
X23009835Y11125148D01*
X22990014Y11000000D01*
X23009835Y10874852D01*
X23067359Y10761955D01*
X23079314Y10750000D01*
X22116128Y10750000D01*
X22168730Y10553683D01*
X22168734Y10553674D01*
X22264865Y10347518D01*
X22395342Y10161180D01*
X22556179Y10000343D01*
X22742517Y9869866D01*
X22948673Y9773735D01*
X22948682Y9773731D01*
X23144999Y9721128D01*
X23145000Y9721129D01*
X23145000Y10684314D01*
X23156955Y10672359D01*
X23269852Y10614835D01*
X23363519Y10600000D01*
X23426481Y10600000D01*
X23520148Y10614835D01*
X23633045Y10672359D01*
X23645000Y10684314D01*
X23645000Y9721128D01*
X23841317Y9773731D01*
X23841326Y9773735D01*
X24047482Y9869866D01*
X24233820Y10000343D01*
X24394657Y10161180D01*
X24525132Y10347516D01*
X24552341Y10405866D01*
X24598513Y10458305D01*
X24665707Y10477458D01*
X24732588Y10457243D01*
X24777105Y10405868D01*
X24779738Y10400223D01*
X24804431Y10347268D01*
X24804432Y10347266D01*
X24934954Y10160859D01*
X25095858Y9999955D01*
X25095861Y9999953D01*
X25282266Y9869432D01*
X25488504Y9773261D01*
X25488509Y9773260D01*
X25488511Y9773259D01*
X25520551Y9764674D01*
X25708308Y9714365D01*
X25856396Y9701409D01*
X25934998Y9694532D01*
X25935000Y9694532D01*
X25935002Y9694532D01*
X25991807Y9699502D01*
X26161692Y9714365D01*
X26381496Y9773261D01*
X26587734Y9869432D01*
X26774139Y9999953D01*
X26935047Y10160861D01*
X27065568Y10347266D01*
X27092618Y10405276D01*
X27138790Y10457715D01*
X27205983Y10476867D01*
X27272865Y10456652D01*
X27317381Y10405276D01*
X27319738Y10400223D01*
X27344429Y10347272D01*
X27344432Y10347266D01*
X27474954Y10160859D01*
X27635858Y9999955D01*
X27635861Y9999953D01*
X27822266Y9869432D01*
X28028504Y9773261D01*
X28028509Y9773260D01*
X28028511Y9773259D01*
X28060551Y9764674D01*
X28248308Y9714365D01*
X28396396Y9701409D01*
X28474998Y9694532D01*
X28475000Y9694532D01*
X28475002Y9694532D01*
X28531807Y9699502D01*
X28701692Y9714365D01*
X28921496Y9773261D01*
X29127734Y9869432D01*
X29314139Y9999953D01*
X29475047Y10160861D01*
X29605568Y10347266D01*
X29632618Y10405276D01*
X29678790Y10457715D01*
X29745983Y10476867D01*
X29812865Y10456652D01*
X29857381Y10405276D01*
X29859738Y10400223D01*
X29884429Y10347272D01*
X29884432Y10347266D01*
X30014954Y10160859D01*
X30175858Y9999955D01*
X30175861Y9999953D01*
X30362266Y9869432D01*
X30568504Y9773261D01*
X30568509Y9773260D01*
X30568511Y9773259D01*
X30600551Y9764674D01*
X30788308Y9714365D01*
X30936396Y9701409D01*
X31014998Y9694532D01*
X31015000Y9694532D01*
X31015002Y9694532D01*
X31071807Y9699502D01*
X31241692Y9714365D01*
X31461496Y9773261D01*
X31667734Y9869432D01*
X31854139Y9999953D01*
X32015047Y10160861D01*
X32145568Y10347266D01*
X32172618Y10405276D01*
X32218790Y10457715D01*
X32285983Y10476867D01*
X32352865Y10456652D01*
X32397381Y10405276D01*
X32399738Y10400223D01*
X32424429Y10347272D01*
X32424432Y10347266D01*
X32554954Y10160859D01*
X32715858Y9999955D01*
X32715861Y9999953D01*
X32902266Y9869432D01*
X33108504Y9773261D01*
X33108509Y9773260D01*
X33108511Y9773259D01*
X33140551Y9764674D01*
X33328308Y9714365D01*
X33476396Y9701409D01*
X33554998Y9694532D01*
X33555000Y9694532D01*
X33555002Y9694532D01*
X33611807Y9699502D01*
X33781692Y9714365D01*
X34001496Y9773261D01*
X34207734Y9869432D01*
X34394139Y9999953D01*
X34555047Y10160861D01*
X34685568Y10347266D01*
X34712618Y10405276D01*
X34758790Y10457715D01*
X34825983Y10476867D01*
X34892865Y10456652D01*
X34937381Y10405276D01*
X34939738Y10400223D01*
X34964429Y10347272D01*
X34964432Y10347266D01*
X35094954Y10160859D01*
X35255858Y9999955D01*
X35255861Y9999953D01*
X35442266Y9869432D01*
X35648504Y9773261D01*
X35648509Y9773260D01*
X35648511Y9773259D01*
X35680551Y9764674D01*
X35868308Y9714365D01*
X36016396Y9701409D01*
X36094998Y9694532D01*
X36095000Y9694532D01*
X36095002Y9694532D01*
X36151807Y9699502D01*
X36321692Y9714365D01*
X36541496Y9773261D01*
X36747734Y9869432D01*
X36934139Y9999953D01*
X37095047Y10160861D01*
X37225568Y10347266D01*
X37252618Y10405276D01*
X37298790Y10457715D01*
X37365983Y10476867D01*
X37432865Y10456652D01*
X37477381Y10405276D01*
X37479738Y10400223D01*
X37504429Y10347272D01*
X37504432Y10347266D01*
X37634954Y10160859D01*
X37795858Y9999955D01*
X37795861Y9999953D01*
X37982266Y9869432D01*
X38188504Y9773261D01*
X38188509Y9773260D01*
X38188511Y9773259D01*
X38220551Y9764674D01*
X38408308Y9714365D01*
X38556396Y9701409D01*
X38634998Y9694532D01*
X38635000Y9694532D01*
X38635002Y9694532D01*
X38691807Y9699502D01*
X38861692Y9714365D01*
X39081496Y9773261D01*
X39287734Y9869432D01*
X39474139Y9999953D01*
X39635047Y10160861D01*
X39652272Y10185461D01*
X39706848Y10229087D01*
X39776346Y10236282D01*
X39838701Y10204761D01*
X39874116Y10144532D01*
X39877138Y10127594D01*
X39880908Y10092517D01*
X39931202Y9957672D01*
X39931206Y9957665D01*
X40017452Y9842456D01*
X40017455Y9842453D01*
X40132664Y9756207D01*
X40132671Y9756203D01*
X40267517Y9705909D01*
X40267516Y9705909D01*
X40274444Y9705165D01*
X40327127Y9699500D01*
X41638770Y9699501D01*
X41705809Y9679816D01*
X41751564Y9627013D01*
X41761508Y9557854D01*
X41732483Y9494298D01*
X41726451Y9487820D01*
X41425451Y9186819D01*
X41364128Y9153334D01*
X41337770Y9150500D01*
X34163705Y9150500D01*
X34145735Y9151809D01*
X34121972Y9155290D01*
X34076533Y9151314D01*
X34069931Y9150736D01*
X34064530Y9150500D01*
X34056289Y9150500D01*
X34034579Y9147963D01*
X34023724Y9146694D01*
X34008419Y9145355D01*
X33947199Y9139999D01*
X33940132Y9138540D01*
X33940120Y9138596D01*
X33932763Y9136965D01*
X33932777Y9136908D01*
X33925743Y9135241D01*
X33853575Y9108975D01*
X33780675Y9084819D01*
X33774126Y9081764D01*
X33774101Y9081817D01*
X33767308Y9078529D01*
X33767334Y9078477D01*
X33760880Y9075236D01*
X33696708Y9033029D01*
X33631347Y8992715D01*
X33625683Y8988235D01*
X33625647Y8988281D01*
X33619798Y8983516D01*
X33619835Y8983472D01*
X33614310Y8978836D01*
X33561597Y8922965D01*
X30529358Y5890728D01*
X30515729Y5878949D01*
X30496468Y5864610D01*
X30462898Y5824603D01*
X30459253Y5820624D01*
X30453409Y5814778D01*
X30433059Y5789041D01*
X30383695Y5730211D01*
X30379729Y5724181D01*
X30379682Y5724212D01*
X30375630Y5717853D01*
X30375679Y5717823D01*
X30371889Y5711679D01*
X30339424Y5642059D01*
X30304960Y5573434D01*
X30302488Y5566643D01*
X30302432Y5566664D01*
X30299960Y5559550D01*
X30300015Y5559531D01*
X30297742Y5552673D01*
X30294796Y5538403D01*
X30282207Y5477435D01*
X30269001Y5421716D01*
X30264498Y5402714D01*
X30263661Y5395546D01*
X30263601Y5395553D01*
X30262835Y5388055D01*
X30262895Y5388049D01*
X30262265Y5380860D01*
X30264500Y5304084D01*
X30264500Y4506664D01*
X30244815Y4439625D01*
X30211625Y4405090D01*
X30175863Y4380049D01*
X30014951Y4219138D01*
X29884432Y4032735D01*
X29884431Y4032733D01*
X29857382Y3974725D01*
X29811209Y3922286D01*
X29744016Y3903134D01*
X29677135Y3923350D01*
X29632618Y3974725D01*
X29605686Y4032480D01*
X29605568Y4032734D01*
X29475047Y4219139D01*
X29475045Y4219142D01*
X29314141Y4380046D01*
X29127734Y4510568D01*
X29127732Y4510569D01*
X28921497Y4606739D01*
X28921488Y4606742D01*
X28701697Y4665634D01*
X28701693Y4665635D01*
X28701692Y4665635D01*
X28701691Y4665636D01*
X28701686Y4665636D01*
X28475002Y4685468D01*
X28474998Y4685468D01*
X28248313Y4665636D01*
X28248302Y4665634D01*
X28028511Y4606742D01*
X28028502Y4606739D01*
X27822267Y4510569D01*
X27822265Y4510568D01*
X27635858Y4380046D01*
X27474954Y4219142D01*
X27344432Y4032735D01*
X27344431Y4032733D01*
X27317382Y3974725D01*
X27271209Y3922286D01*
X27204016Y3903134D01*
X27137135Y3923350D01*
X27092618Y3974725D01*
X27065686Y4032480D01*
X27065568Y4032734D01*
X26935047Y4219139D01*
X26935045Y4219142D01*
X26774141Y4380046D01*
X26587734Y4510568D01*
X26587732Y4510569D01*
X26381497Y4606739D01*
X26381488Y4606742D01*
X26161697Y4665634D01*
X26161693Y4665635D01*
X26161692Y4665635D01*
X26161691Y4665636D01*
X26161686Y4665636D01*
X25935002Y4685468D01*
X25934998Y4685468D01*
X25708313Y4665636D01*
X25708302Y4665634D01*
X25488511Y4606742D01*
X25488502Y4606739D01*
X25282267Y4510569D01*
X25282265Y4510568D01*
X25095858Y4380046D01*
X24934954Y4219142D01*
X24804432Y4032735D01*
X24804431Y4032733D01*
X24777382Y3974725D01*
X24731209Y3922286D01*
X24664016Y3903134D01*
X24597135Y3923350D01*
X24552618Y3974725D01*
X24525686Y4032480D01*
X24525568Y4032734D01*
X24395047Y4219139D01*
X24395045Y4219142D01*
X24234141Y4380046D01*
X24047734Y4510568D01*
X24047732Y4510569D01*
X23841497Y4606739D01*
X23841488Y4606742D01*
X23621697Y4665634D01*
X23621693Y4665635D01*
X23621692Y4665635D01*
X23621691Y4665636D01*
X23621686Y4665636D01*
X23395002Y4685468D01*
X23394998Y4685468D01*
X23168313Y4665636D01*
X23168302Y4665634D01*
X22948511Y4606742D01*
X22948502Y4606739D01*
X22742267Y4510569D01*
X22742265Y4510568D01*
X22555858Y4380046D01*
X22394954Y4219142D01*
X22264432Y4032735D01*
X22264431Y4032733D01*
X22168261Y3826498D01*
X22168258Y3826489D01*
X22109366Y3606698D01*
X22109364Y3606687D01*
X22089532Y3380002D01*
X22089532Y3379999D01*
X22109364Y3153314D01*
X22109366Y3153303D01*
X22168258Y2933512D01*
X22168261Y2933503D01*
X22264431Y2727268D01*
X22264432Y2727266D01*
X22394954Y2540859D01*
X22555858Y2379955D01*
X22555861Y2379953D01*
X22742266Y2249432D01*
X22948504Y2153261D01*
X23168308Y2094365D01*
X23330230Y2080199D01*
X23394998Y2074532D01*
X23395000Y2074532D01*
X23395002Y2074532D01*
X23451673Y2079491D01*
X23621692Y2094365D01*
X23841496Y2153261D01*
X24047734Y2249432D01*
X24234139Y2379953D01*
X24395047Y2540861D01*
X24525568Y2727266D01*
X24552618Y2785276D01*
X24598790Y2837715D01*
X24665983Y2856867D01*
X24732865Y2836652D01*
X24777381Y2785276D01*
X24791517Y2754962D01*
X24804429Y2727272D01*
X24804432Y2727266D01*
X24934954Y2540859D01*
X25095859Y2379954D01*
X25131621Y2354914D01*
X25175247Y2300338D01*
X25184500Y2253338D01*
X25184500Y1797230D01*
X25164815Y1730191D01*
X25148181Y1709549D01*
X24825451Y1386819D01*
X24764128Y1353334D01*
X24737770Y1350500D01*
X14461167Y1350500D01*
X14394128Y1370185D01*
X14348373Y1422989D01*
X14338429Y1492147D01*
X14367454Y1555703D01*
X14371541Y1560192D01*
X14378178Y1567134D01*
X14521632Y1717175D01*
X14645635Y1905032D01*
X14663648Y1947174D01*
X14734100Y2112005D01*
X14734099Y2112005D01*
X14734103Y2112012D01*
X14784191Y2331463D01*
X14794290Y2556330D01*
X14764075Y2779387D01*
X14694517Y2993464D01*
X14682391Y3015997D01*
X14587853Y3191679D01*
X14587851Y3191682D01*
X14447510Y3367664D01*
X14447508Y3367666D01*
X14277996Y3515765D01*
X14084764Y3631215D01*
X13966775Y3675497D01*
X13874023Y3710308D01*
X13652550Y3750500D01*
X13652547Y3750500D01*
X13483845Y3750500D01*
X13445399Y3747040D01*
X13315813Y3735378D01*
X13315807Y3735377D01*
X13098839Y3675497D01*
X13098826Y3675492D01*
X12896033Y3577833D01*
X12896025Y3577829D01*
X12713927Y3445527D01*
X12713925Y3445526D01*
X12558366Y3282824D01*
X12434363Y3094967D01*
X12345899Y2887996D01*
X12345895Y2887983D01*
X12295810Y2668543D01*
X12295808Y2668532D01*
X12288584Y2507672D01*
X12285710Y2443670D01*
X12315925Y2220613D01*
X12315926Y2220610D01*
X12385483Y2006535D01*
X12492146Y1808322D01*
X12492148Y1808319D01*
X12632489Y1632337D01*
X12632491Y1632336D01*
X12632492Y1632334D01*
X12706266Y1567879D01*
X12743799Y1508949D01*
X12743514Y1439080D01*
X12705500Y1380456D01*
X12641826Y1351691D01*
X12624680Y1350500D01*
X7862230Y1350500D01*
X7795191Y1370185D01*
X7774549Y1386819D01*
X6380782Y2780586D01*
X6347297Y2841909D01*
X6352281Y2911601D01*
X6394153Y2967534D01*
X6459617Y2991951D01*
X6489420Y2990483D01*
X6579707Y2975001D01*
X6579715Y2975000D01*
X7050000Y2975000D01*
X7050000Y3795690D01*
X7058817Y3790842D01*
X7217886Y3750000D01*
X7340894Y3750000D01*
X7462933Y3765417D01*
X7550000Y3799890D01*
X7550000Y2975000D01*
X7959539Y2975000D01*
X8140692Y2990418D01*
X8375440Y3051542D01*
X8596472Y3151454D01*
X8596480Y3151459D01*
X8797450Y3287292D01*
X8797453Y3287294D01*
X8972575Y3455136D01*
X8972576Y3455137D01*
X9116813Y3650157D01*
X9226021Y3866758D01*
X9297053Y4098701D01*
X9303622Y4150000D01*
X7900728Y4150000D01*
X7923100Y4197543D01*
X7953873Y4358862D01*
X7943561Y4522766D01*
X7902220Y4650000D01*
X9302839Y4650000D01*
X9302839Y4650001D01*
X17796377Y4650001D01*
X17796378Y4650000D01*
X19199272Y4650000D01*
X19176900Y4602457D01*
X19146127Y4441138D01*
X19156439Y4277234D01*
X19197780Y4150000D01*
X17797161Y4150000D01*
X17833536Y3981218D01*
X17833537Y3981215D01*
X17923978Y3756144D01*
X18051161Y3549585D01*
X18211422Y3367493D01*
X18211426Y3367489D01*
X18400144Y3215110D01*
X18400150Y3215106D01*
X18611917Y3096806D01*
X18840629Y3015997D01*
X18840637Y3015995D01*
X19079706Y2975001D01*
X19079715Y2975000D01*
X19550000Y2975000D01*
X19550000Y3795690D01*
X19558817Y3790842D01*
X19717886Y3750000D01*
X19840894Y3750000D01*
X19962933Y3765417D01*
X20050000Y3799890D01*
X20050000Y2975000D01*
X20459539Y2975000D01*
X20640692Y2990418D01*
X20875440Y3051542D01*
X21096472Y3151454D01*
X21096480Y3151459D01*
X21297450Y3287292D01*
X21297453Y3287294D01*
X21472575Y3455136D01*
X21472576Y3455137D01*
X21616813Y3650157D01*
X21726021Y3866758D01*
X21797053Y4098701D01*
X21803622Y4150000D01*
X20400728Y4150000D01*
X20423100Y4197543D01*
X20453873Y4358862D01*
X20443561Y4522766D01*
X20402220Y4650000D01*
X21802839Y4650000D01*
X21766463Y4818783D01*
X21766462Y4818786D01*
X21676021Y5043857D01*
X21548838Y5250416D01*
X21388577Y5432508D01*
X21388573Y5432512D01*
X21199855Y5584891D01*
X21199849Y5584895D01*
X20988082Y5703195D01*
X20759370Y5784004D01*
X20759362Y5784006D01*
X20520293Y5825000D01*
X20050000Y5825000D01*
X20050000Y5004311D01*
X20041183Y5009158D01*
X19882114Y5050000D01*
X19759106Y5050000D01*
X19637067Y5034583D01*
X19550000Y5000111D01*
X19550000Y5825000D01*
X19140461Y5825000D01*
X18959307Y5809583D01*
X18724559Y5748459D01*
X18503527Y5648547D01*
X18503519Y5648542D01*
X18302549Y5512709D01*
X18302546Y5512707D01*
X18127424Y5344865D01*
X18127423Y5344864D01*
X17983186Y5149844D01*
X17873978Y4933243D01*
X17802946Y4701300D01*
X17796377Y4650001D01*
X9302839Y4650001D01*
X9266463Y4818783D01*
X9266462Y4818786D01*
X9176021Y5043857D01*
X9048838Y5250416D01*
X8888577Y5432508D01*
X8888573Y5432512D01*
X8699855Y5584891D01*
X8699849Y5584895D01*
X8488082Y5703195D01*
X8331318Y5758583D01*
X8274666Y5799477D01*
X8249116Y5864508D01*
X8262780Y5933028D01*
X8311320Y5983284D01*
X8372628Y5999500D01*
X12474376Y5999500D01*
X12541415Y5979815D01*
X12575949Y5946626D01*
X12578402Y5943123D01*
X12733123Y5788402D01*
X12912361Y5662898D01*
X13110670Y5570425D01*
X13110676Y5570424D01*
X13110677Y5570423D01*
X13139541Y5562689D01*
X13322023Y5513793D01*
X13504926Y5497792D01*
X13539998Y5494723D01*
X13540000Y5494723D01*
X13540002Y5494723D01*
X13568254Y5497195D01*
X13757977Y5513793D01*
X13969330Y5570425D01*
X14167639Y5662898D01*
X14346877Y5788402D01*
X14501598Y5943123D01*
X14627102Y6122361D01*
X14719575Y6320670D01*
X14776207Y6532023D01*
X14793511Y6729816D01*
X14795277Y6749998D01*
X14795277Y6750003D01*
X14781483Y6907665D01*
X14776207Y6967977D01*
X14729130Y7143670D01*
X28245710Y7143670D01*
X28275925Y6920613D01*
X28275926Y6920610D01*
X28345483Y6706535D01*
X28452146Y6508322D01*
X28452148Y6508319D01*
X28592489Y6332337D01*
X28592491Y6332336D01*
X28592492Y6332334D01*
X28762004Y6184235D01*
X28955236Y6068785D01*
X29165976Y5989693D01*
X29387450Y5949500D01*
X29387453Y5949500D01*
X29556148Y5949500D01*
X29556155Y5949500D01*
X29724188Y5964623D01*
X29724192Y5964624D01*
X29941160Y6024504D01*
X29941162Y6024505D01*
X29941170Y6024507D01*
X30143973Y6122171D01*
X30326078Y6254478D01*
X30481632Y6417175D01*
X30605635Y6605032D01*
X30608516Y6611771D01*
X30694100Y6812005D01*
X30694099Y6812005D01*
X30694103Y6812012D01*
X30744191Y7031463D01*
X30754290Y7256330D01*
X30724075Y7479387D01*
X30654517Y7693464D01*
X30547852Y7891681D01*
X30472470Y7986207D01*
X30407510Y8067664D01*
X30374679Y8096348D01*
X30237996Y8215765D01*
X30044764Y8331215D01*
X29926775Y8375497D01*
X29834023Y8410308D01*
X29612550Y8450500D01*
X29612547Y8450500D01*
X29443845Y8450500D01*
X29405399Y8447040D01*
X29275813Y8435378D01*
X29275807Y8435377D01*
X29058839Y8375497D01*
X29058826Y8375492D01*
X28856033Y8277833D01*
X28856025Y8277829D01*
X28673927Y8145527D01*
X28673925Y8145526D01*
X28518366Y7982824D01*
X28394363Y7794967D01*
X28305899Y7587996D01*
X28305895Y7587983D01*
X28255810Y7368543D01*
X28255808Y7368532D01*
X28247311Y7179323D01*
X28245710Y7143670D01*
X14729130Y7143670D01*
X14719575Y7179330D01*
X14627102Y7377638D01*
X14627100Y7377641D01*
X14627099Y7377643D01*
X14501599Y7556876D01*
X14428660Y7629815D01*
X14346877Y7711598D01*
X14167639Y7837102D01*
X14167640Y7837102D01*
X14167638Y7837103D01*
X14050592Y7891682D01*
X13969330Y7929575D01*
X13969326Y7929576D01*
X13969322Y7929578D01*
X13757977Y7986207D01*
X13540002Y8005277D01*
X13539998Y8005277D01*
X13394682Y7992564D01*
X13322023Y7986207D01*
X13322020Y7986207D01*
X13110677Y7929578D01*
X13110668Y7929574D01*
X12912361Y7837102D01*
X12912357Y7837100D01*
X12733121Y7711598D01*
X12578404Y7556881D01*
X12575952Y7553378D01*
X12521375Y7509752D01*
X12474376Y7500500D01*
X4812229Y7500500D01*
X4745190Y7520185D01*
X4724548Y7536819D01*
X4036819Y8224549D01*
X4003334Y8285872D01*
X4000500Y8312230D01*
X4000500Y9756572D01*
X4001031Y9764674D01*
X4001646Y9769341D01*
X4005682Y9800000D01*
X4004065Y9812279D01*
X3985044Y9956761D01*
X3985044Y9956762D01*
X3924536Y10102841D01*
X3828282Y10228282D01*
X3702841Y10324536D01*
X3688056Y10330660D01*
X3556762Y10385044D01*
X3556760Y10385045D01*
X3439361Y10400500D01*
X3400000Y10405682D01*
X3364670Y10401031D01*
X3356572Y10400500D01*
X3035335Y10400500D01*
X2968296Y10420185D01*
X2922541Y10472989D01*
X2912597Y10542147D01*
X2941622Y10605703D01*
X2982928Y10636882D01*
X3052734Y10669432D01*
X3239139Y10799953D01*
X3400047Y10960861D01*
X3530568Y11147266D01*
X3626739Y11353504D01*
X3685635Y11573308D01*
X3705468Y11800000D01*
X3685635Y12026692D01*
X3626739Y12246496D01*
X3530568Y12452734D01*
X3400047Y12639139D01*
X3400045Y12639142D01*
X3351367Y12687820D01*
X3317882Y12749143D01*
X3322866Y12818835D01*
X3364738Y12874768D01*
X3430202Y12899185D01*
X3439048Y12899501D01*
X3697871Y12899501D01*
X3697872Y12899501D01*
X3757483Y12905909D01*
X3892331Y12956204D01*
X4007546Y13042454D01*
X4093796Y13157669D01*
X4144091Y13292517D01*
X4150500Y13352127D01*
X4150499Y15947872D01*
X4144091Y16007483D01*
X4125483Y16057373D01*
X4093797Y16142329D01*
X4093793Y16142336D01*
X4007547Y16257545D01*
X4007544Y16257548D01*
X3892335Y16343794D01*
X3892328Y16343798D01*
X3757482Y16394092D01*
X3757483Y16394092D01*
X3697883Y16400499D01*
X3697881Y16400500D01*
X3697873Y16400500D01*
X3697864Y16400500D01*
X1102129Y16400500D01*
X1102123Y16400499D01*
X1042516Y16394092D01*
X907671Y16343798D01*
X907664Y16343794D01*
X792455Y16257548D01*
X792452Y16257545D01*
X706206Y16142336D01*
X706202Y16142329D01*
X655908Y16007483D01*
X649501Y15947884D01*
X649501Y15947877D01*
X649500Y15947865D01*
X649500Y13352130D01*
X649501Y13352124D01*
X655908Y13292517D01*
X706202Y13157672D01*
X706206Y13157665D01*
X792452Y13042456D01*
X792455Y13042453D01*
X907664Y12956207D01*
X907671Y12956203D01*
X952618Y12939439D01*
X1042517Y12905909D01*
X1102127Y12899500D01*
X1360952Y12899501D01*
X1427990Y12879817D01*
X1473745Y12827013D01*
X1483689Y12757854D01*
X1454664Y12694299D01*
X1448633Y12687821D01*
X1399954Y12639142D01*
X1269432Y12452735D01*
X1269431Y12452733D01*
X1173261Y12246498D01*
X1173258Y12246489D01*
X1114366Y12026698D01*
X1114364Y12026687D01*
X1094532Y11800002D01*
X1094532Y11799999D01*
X1114364Y11573314D01*
X1114366Y11573303D01*
X1173258Y11353512D01*
X1173261Y11353503D01*
X1269431Y11147268D01*
X1269432Y11147266D01*
X1399954Y10960859D01*
X1560858Y10799955D01*
X1560861Y10799953D01*
X1747266Y10669432D01*
X1817070Y10636882D01*
X1869509Y10590710D01*
X1888661Y10523516D01*
X1868445Y10456635D01*
X1815280Y10411300D01*
X1764665Y10400500D01*
X1543428Y10400500D01*
X1535329Y10401031D01*
X1500000Y10405682D01*
X1460639Y10400500D01*
X1343239Y10385045D01*
X1343237Y10385044D01*
X1197160Y10324537D01*
X1071718Y10228282D01*
X975463Y10102840D01*
X914956Y9956763D01*
X914955Y9956761D01*
X894318Y9800002D01*
X894318Y9800000D01*
X898354Y9769341D01*
X898969Y9764674D01*
X899500Y9756572D01*
X899500Y7843429D01*
X898969Y7835327D01*
X894318Y7800001D01*
X894318Y7800000D01*
X899500Y7760640D01*
X914955Y7643240D01*
X914956Y7643238D01*
X975464Y7497159D01*
X1071718Y7371718D01*
X1197159Y7275464D01*
X1343238Y7214956D01*
X1421619Y7204637D01*
X1499999Y7194318D01*
X1500000Y7194318D01*
X1535329Y7198970D01*
X1543428Y7199500D01*
X1764665Y7199500D01*
X1831704Y7179815D01*
X1877459Y7127011D01*
X1887403Y7057853D01*
X1858378Y6994297D01*
X1817071Y6963119D01*
X1789101Y6950077D01*
X1747267Y6930569D01*
X1747265Y6930568D01*
X1560858Y6800046D01*
X1399954Y6639142D01*
X1269432Y6452735D01*
X1269431Y6452733D01*
X1173261Y6246498D01*
X1173258Y6246489D01*
X1114366Y6026698D01*
X1114364Y6026687D01*
X1094532Y5800002D01*
X1094532Y5799999D01*
X1114364Y5573314D01*
X1114366Y5573303D01*
X1173258Y5353512D01*
X1173261Y5353503D01*
X1269431Y5147268D01*
X1269432Y5147266D01*
X1399954Y4960859D01*
X1448632Y4912181D01*
X1482117Y4850858D01*
X1477133Y4781166D01*
X1435261Y4725233D01*
X1369797Y4700816D01*
X1360951Y4700500D01*
X1102130Y4700500D01*
X1102123Y4700499D01*
X1042516Y4694092D01*
X907671Y4643798D01*
X907664Y4643794D01*
X792455Y4557548D01*
X792452Y4557545D01*
X706206Y4442336D01*
X706202Y4442329D01*
X655908Y4307483D01*
X649501Y4247884D01*
X649500Y4247865D01*
X649500Y1652130D01*
X649501Y1652124D01*
X655908Y1592517D01*
X706202Y1457672D01*
X706206Y1457665D01*
X792452Y1342456D01*
X792455Y1342453D01*
X907664Y1256207D01*
X907671Y1256203D01*
X1042517Y1205909D01*
X1042516Y1205909D01*
X1049444Y1205165D01*
X1102127Y1199500D01*
X3697872Y1199501D01*
X3757483Y1205909D01*
X3892331Y1256204D01*
X4007546Y1342454D01*
X4093796Y1457669D01*
X4144091Y1592517D01*
X4150500Y1652127D01*
X4150499Y2588772D01*
X4170183Y2655810D01*
X4222987Y2701565D01*
X4292146Y2711509D01*
X4355702Y2682484D01*
X4362180Y2676452D01*
X6826451Y212181D01*
X6859936Y150858D01*
X6854952Y81166D01*
X6813080Y25233D01*
X6747616Y816D01*
X6738770Y500D01*
X124500Y500D01*
X57461Y20185D01*
X11706Y72989D01*
X500Y124500D01*
X500Y34543670D01*
X1745710Y34543670D01*
X1775925Y34320613D01*
X1775926Y34320610D01*
X1845483Y34106535D01*
X1952146Y33908322D01*
X1952148Y33908319D01*
X2092489Y33732337D01*
X2092491Y33732336D01*
X2092492Y33732334D01*
X2262004Y33584235D01*
X2455236Y33468785D01*
X2665976Y33389693D01*
X2887450Y33349500D01*
X2887453Y33349500D01*
X3056148Y33349500D01*
X3056155Y33349500D01*
X3224188Y33364623D01*
X3238812Y33368659D01*
X3441160Y33424504D01*
X3441162Y33424505D01*
X3441170Y33424507D01*
X3643973Y33522171D01*
X3826078Y33654478D01*
X3981632Y33817175D01*
X4105635Y34005032D01*
X4194103Y34212012D01*
X4244191Y34431463D01*
X4254290Y34656330D01*
X4224075Y34879387D01*
X4154517Y35093464D01*
X4109558Y35177011D01*
X4070721Y35249184D01*
X4047852Y35291681D01*
X3968843Y35390755D01*
X3907510Y35467664D01*
X3907508Y35467666D01*
X3737996Y35615765D01*
X3544764Y35731215D01*
X3426775Y35775497D01*
X3334023Y35810308D01*
X3112550Y35850500D01*
X3112547Y35850500D01*
X2943845Y35850500D01*
X2905399Y35847040D01*
X2775813Y35835378D01*
X2775807Y35835377D01*
X2558839Y35775497D01*
X2558826Y35775492D01*
X2356033Y35677833D01*
X2356025Y35677829D01*
X2173927Y35545527D01*
X2173925Y35545526D01*
X2018366Y35382824D01*
X1894363Y35194967D01*
X1805899Y34987996D01*
X1805895Y34987983D01*
X1755810Y34768543D01*
X1755808Y34768532D01*
X1747047Y34573450D01*
X1745710Y34543670D01*
X500Y34543670D01*
X500Y37375500D01*
X20185Y37442539D01*
X72989Y37488294D01*
X124500Y37499500D01*
X12738770Y37499500D01*
X12805809Y37479815D01*
G37*
G04 #@! TD.AperFunction*
G04 #@! TA.AperFunction,Conductor*
G36*
X27272865Y2836652D02*
G01*
X27317381Y2785276D01*
X27331517Y2754962D01*
X27344429Y2727272D01*
X27344432Y2727266D01*
X27474954Y2540859D01*
X27635858Y2379955D01*
X27635861Y2379953D01*
X27822266Y2249432D01*
X28028504Y2153261D01*
X28248308Y2094365D01*
X28410230Y2080199D01*
X28474998Y2074532D01*
X28475000Y2074532D01*
X28475001Y2074532D01*
X28495062Y2076288D01*
X28641861Y2089131D01*
X28710359Y2075365D01*
X28740348Y2053284D01*
X29231451Y1562181D01*
X29264936Y1500858D01*
X29259952Y1431166D01*
X29218080Y1375233D01*
X29152616Y1350816D01*
X29143770Y1350500D01*
X26809500Y1350500D01*
X26742461Y1370185D01*
X26696706Y1422989D01*
X26685500Y1474500D01*
X26685500Y2253338D01*
X26705185Y2320377D01*
X26738379Y2354914D01*
X26774140Y2379954D01*
X26935045Y2540859D01*
X26935047Y2540861D01*
X27065568Y2727266D01*
X27092618Y2785276D01*
X27138790Y2837715D01*
X27205983Y2856867D01*
X27272865Y2836652D01*
G37*
G04 #@! TD.AperFunction*
G04 #@! TA.AperFunction,Conductor*
G36*
X33805000Y2101128D02*
G01*
X34001317Y2153731D01*
X34001326Y2153735D01*
X34207482Y2249866D01*
X34393820Y2380343D01*
X34554657Y2541180D01*
X34685132Y2727516D01*
X34712341Y2785866D01*
X34758513Y2838305D01*
X34825707Y2857458D01*
X34892588Y2837243D01*
X34937105Y2785868D01*
X34959088Y2738725D01*
X34964431Y2727268D01*
X34964432Y2727266D01*
X35094954Y2540859D01*
X35255858Y2379955D01*
X35255861Y2379953D01*
X35442266Y2249432D01*
X35648504Y2153261D01*
X35868308Y2094365D01*
X36030230Y2080199D01*
X36094998Y2074532D01*
X36095000Y2074532D01*
X36095001Y2074532D01*
X36115062Y2076288D01*
X36261861Y2089131D01*
X36330359Y2075365D01*
X36360348Y2053284D01*
X36769270Y1644362D01*
X36781051Y1630730D01*
X36795388Y1611472D01*
X36835409Y1577889D01*
X36839397Y1574234D01*
X36845220Y1568411D01*
X36846655Y1567134D01*
X36846917Y1566714D01*
X36847774Y1565857D01*
X36847575Y1565659D01*
X36883651Y1507863D01*
X36882730Y1438000D01*
X36844184Y1379725D01*
X36780251Y1351540D01*
X36764224Y1350500D01*
X32611230Y1350500D01*
X32544191Y1370185D01*
X32498436Y1422989D01*
X32488492Y1492147D01*
X32517517Y1555703D01*
X32523548Y1562181D01*
X32561590Y1600223D01*
X32790647Y1829282D01*
X32804260Y1841046D01*
X32823530Y1855390D01*
X32857128Y1895431D01*
X32860750Y1899384D01*
X32866590Y1905223D01*
X32886923Y1930940D01*
X32936302Y1989786D01*
X32936309Y1989802D01*
X32940272Y1995824D01*
X32940324Y1995790D01*
X32944371Y2002142D01*
X32944317Y2002175D01*
X32948114Y2008330D01*
X32980557Y2077905D01*
X32983974Y2084711D01*
X33031643Y2135793D01*
X33099363Y2152994D01*
X33126886Y2148853D01*
X33304999Y2101128D01*
X33305000Y2101129D01*
X33305000Y3064314D01*
X33316955Y3052359D01*
X33429852Y2994835D01*
X33523519Y2980000D01*
X33586481Y2980000D01*
X33680148Y2994835D01*
X33793045Y3052359D01*
X33805000Y3064314D01*
X33805000Y2101128D01*
G37*
G04 #@! TD.AperFunction*
G04 #@! TA.AperFunction,Conductor*
G36*
X36236598Y35229815D02*
G01*
X36282353Y35177011D01*
X36292297Y35107853D01*
X36275098Y35060406D01*
X36270917Y35053627D01*
X36265187Y35044337D01*
X36265185Y35044332D01*
X36250779Y35000858D01*
X36210001Y34877797D01*
X36210001Y34877796D01*
X36210000Y34877796D01*
X36199500Y34775017D01*
X36199500Y33424999D01*
X36199501Y33424982D01*
X36210000Y33322204D01*
X36210001Y33322201D01*
X36265185Y33155669D01*
X36265187Y33155664D01*
X36284547Y33124277D01*
X36357288Y33006344D01*
X36481344Y32882288D01*
X36630666Y32790186D01*
X36797203Y32735001D01*
X36899991Y32724500D01*
X37625008Y32724501D01*
X37625016Y32724502D01*
X37625019Y32724502D01*
X37681302Y32730252D01*
X37727797Y32735001D01*
X37894334Y32790186D01*
X38043656Y32882288D01*
X38167712Y33006344D01*
X38259814Y33155666D01*
X38295879Y33264506D01*
X38335652Y33321949D01*
X38400167Y33348772D01*
X38413585Y33349500D01*
X39037770Y33349500D01*
X39104809Y33329815D01*
X39125451Y33313181D01*
X40336708Y32101924D01*
X41096952Y31341681D01*
X41130437Y31280358D01*
X41125453Y31210666D01*
X41083581Y31154733D01*
X41061495Y31146496D01*
X41045000Y31130000D01*
X41045000Y30204000D01*
X41025315Y30136961D01*
X40972511Y30091206D01*
X40921000Y30080000D01*
X39322705Y30080000D01*
X39322704Y30079999D01*
X39322899Y30077512D01*
X39322900Y30077506D01*
X39342776Y30009095D01*
X39342577Y29939226D01*
X39304635Y29880556D01*
X39240996Y29851712D01*
X39223700Y29850500D01*
X30262229Y29850500D01*
X30195190Y29870185D01*
X30174548Y29886819D01*
X29481365Y30580002D01*
X39322704Y30580002D01*
X39322705Y30580000D01*
X40545000Y30580000D01*
X40545000Y31130000D01*
X39904356Y31130000D01*
X39867510Y31127101D01*
X39867504Y31127100D01*
X39709806Y31081284D01*
X39709803Y31081283D01*
X39568447Y30997686D01*
X39568438Y30997679D01*
X39452321Y30881562D01*
X39452314Y30881553D01*
X39368718Y30740199D01*
X39322899Y30582487D01*
X39322704Y30580002D01*
X29481365Y30580002D01*
X27706819Y32354549D01*
X27673334Y32415872D01*
X27670500Y32442230D01*
X27670500Y33059727D01*
X27690185Y33126766D01*
X27723380Y33161304D01*
X27734620Y33169174D01*
X27890826Y33325380D01*
X28017534Y33506338D01*
X28077618Y33635189D01*
X28123790Y33687629D01*
X28190983Y33706781D01*
X28257865Y33686565D01*
X28302382Y33635189D01*
X28362464Y33506342D01*
X28362468Y33506334D01*
X28489170Y33325385D01*
X28489175Y33325379D01*
X28645378Y33169176D01*
X28645384Y33169171D01*
X28826333Y33042469D01*
X28826335Y33042468D01*
X28826338Y33042466D01*
X29026550Y32949106D01*
X29239932Y32891930D01*
X29389395Y32878854D01*
X29459998Y32872677D01*
X29460000Y32872677D01*
X29460002Y32872677D01*
X29515017Y32877491D01*
X29680068Y32891930D01*
X29893450Y32949106D01*
X30093662Y33042466D01*
X30274620Y33169174D01*
X30430826Y33325380D01*
X30557534Y33506338D01*
X30617618Y33635189D01*
X30663790Y33687629D01*
X30730983Y33706781D01*
X30797865Y33686565D01*
X30842382Y33635189D01*
X30902464Y33506342D01*
X30902468Y33506334D01*
X31029170Y33325385D01*
X31029175Y33325379D01*
X31185378Y33169176D01*
X31185384Y33169171D01*
X31366333Y33042469D01*
X31366335Y33042468D01*
X31366338Y33042466D01*
X31566550Y32949106D01*
X31779932Y32891930D01*
X31929395Y32878854D01*
X31999998Y32872677D01*
X32000000Y32872677D01*
X32000002Y32872677D01*
X32055017Y32877491D01*
X32220068Y32891930D01*
X32433450Y32949106D01*
X32633662Y33042466D01*
X32814620Y33169174D01*
X32958627Y33313181D01*
X33019950Y33346666D01*
X33046308Y33349500D01*
X33186415Y33349500D01*
X33253454Y33329815D01*
X33299209Y33277011D01*
X33304118Y33264511D01*
X33314673Y33232660D01*
X33340185Y33155669D01*
X33340187Y33155664D01*
X33359547Y33124277D01*
X33432288Y33006344D01*
X33556344Y32882288D01*
X33705666Y32790186D01*
X33872203Y32735001D01*
X33974991Y32724500D01*
X34700008Y32724501D01*
X34700016Y32724502D01*
X34700019Y32724502D01*
X34756302Y32730252D01*
X34802797Y32735001D01*
X34969334Y32790186D01*
X35118656Y32882288D01*
X35242712Y33006344D01*
X35334814Y33155666D01*
X35389999Y33322203D01*
X35400500Y33424991D01*
X35400499Y34775008D01*
X35389999Y34877797D01*
X35334814Y35044334D01*
X35324901Y35060405D01*
X35306462Y35127795D01*
X35327384Y35194459D01*
X35381026Y35239229D01*
X35430441Y35249500D01*
X36169559Y35249500D01*
X36236598Y35229815D01*
G37*
G04 #@! TD.AperFunction*
G04 #@! TA.AperFunction,Conductor*
G36*
X30175809Y36129815D02*
G01*
X30221564Y36077011D01*
X30231508Y36007853D01*
X30202483Y35944297D01*
X30196451Y35937819D01*
X29690272Y35431642D01*
X29628949Y35398157D01*
X29591785Y35395795D01*
X29460003Y35407323D01*
X29459998Y35407323D01*
X29239937Y35388071D01*
X29239929Y35388070D01*
X29026554Y35330896D01*
X29026548Y35330893D01*
X28826340Y35237535D01*
X28826338Y35237534D01*
X28645377Y35110825D01*
X28489175Y34954623D01*
X28362466Y34773662D01*
X28362465Y34773660D01*
X28302382Y34644811D01*
X28256209Y34592372D01*
X28189016Y34573220D01*
X28122135Y34593436D01*
X28077618Y34644811D01*
X28059059Y34684610D01*
X28017534Y34773661D01*
X27943502Y34879391D01*
X27890827Y34954619D01*
X27844588Y35000858D01*
X27734620Y35110826D01*
X27734616Y35110829D01*
X27734615Y35110830D01*
X27553666Y35237532D01*
X27553662Y35237534D01*
X27437547Y35291679D01*
X27353450Y35330894D01*
X27353447Y35330895D01*
X27353445Y35330896D01*
X27140070Y35388070D01*
X27140062Y35388071D01*
X26920002Y35407323D01*
X26919998Y35407323D01*
X26699937Y35388071D01*
X26699929Y35388070D01*
X26486554Y35330896D01*
X26486548Y35330893D01*
X26286340Y35237535D01*
X26237186Y35203117D01*
X26170980Y35180790D01*
X26103213Y35197802D01*
X26078383Y35217012D01*
X25457756Y35837639D01*
X25445976Y35851270D01*
X25438509Y35861299D01*
X25431639Y35870528D01*
X25426350Y35874966D01*
X25391614Y35904114D01*
X25387639Y35907756D01*
X25381804Y35913591D01*
X25363286Y35928233D01*
X25322909Y35985254D01*
X25319769Y36055053D01*
X25354864Y36115469D01*
X25417051Y36147321D01*
X25440196Y36149500D01*
X30108770Y36149500D01*
X30175809Y36129815D01*
G37*
G04 #@! TD.AperFunction*
G04 #@! TD*
M02*
