<?xml version="1.0" standalone="no"?>
 <!DOCTYPE svg PUBLIC "-//W3C//DTD SVG 1.1//EN" 
 "http://www.w3.org/Graphics/SVG/1.1/DTD/svg11.dtd"> 
<svg
  xmlns:svg="http://www.w3.org/2000/svg"
  xmlns="http://www.w3.org/2000/svg"
  xmlns:xlink="http://www.w3.org/1999/xlink"
  version="1.1"
  width="297.0022mm" height="210.0072mm" viewBox="0.0000 0.0000 297.0022 210.0072">
<title>SVG Image created as reactionGameBoard-B_Cu.svg date 2024/07/29 15:56:47 </title>
  <desc>Image generated by PCBNEW </desc>
<g style="fill:#000000; fill-opacity:1.0000;stroke:#000000; stroke-opacity:1.0000;
stroke-linecap:round; stroke-linejoin:round;"
 transform="translate(0 0) scale(1 1)">
</g>
<g style="fill:#000000; fill-opacity:1.0000; stroke:none;">
<circle cx="19.3420" cy="-30.4820" r="1.5000" /> 
</g>
<g style="fill:#000000; fill-opacity:1.0000; stroke:none;">
<circle cx="55.0000" cy="-3.8000" r="1.5000" /> 
</g>
<g style="fill:#000000; fill-opacity:1.0000; stroke:none;">
<circle cx="3.0000" cy="-3.8000" r="1.5000" /> 
</g>
<g style="fill:#000000; fill-opacity:1.0000; stroke:none;">
<circle cx="55.0000" cy="-45.3000" r="1.5000" /> 
</g>
<g style="fill:#000000; fill-opacity:1.0000; stroke:none;">
<circle cx="3.0000" cy="-45.3000" r="1.5000" /> 
<path style="fill:#000000; fill-opacity:1.0000; stroke:none;fill-rule:evenodd;"
d="M 17.2500,-19.6500
17.2500,-21.7500
19.3500,-21.7500
19.3500,-19.6500
Z" /> 
</g>
<g style="fill:#000000; fill-opacity:1.0000; stroke:none;">
<circle cx="21.7700" cy="-43.4000" r="1.0500" /> 
</g>
<g style="fill:#000000; fill-opacity:1.0000; stroke:none;">
<circle cx="24.3100" cy="-43.4000" r="1.0500" /> 
</g>
<g style="fill:#000000; fill-opacity:1.0000; stroke:none;">
<circle cx="26.8500" cy="-43.4000" r="1.0500" /> 
</g>
<g style="fill:#000000; fill-opacity:1.0000; stroke:none;">
<circle cx="29.3900" cy="-43.4000" r="1.0500" /> 
</g>
<g style="fill:#000000; fill-opacity:1.0000; stroke:none;">
<circle cx="31.9300" cy="-43.4000" r="1.0500" /> 
</g>
<g style="fill:#000000; fill-opacity:1.0000; stroke:none;">
<circle cx="34.4700" cy="-43.4000" r="1.0500" /> 
</g>
<g style="fill:#000000; fill-opacity:1.0000; stroke:none;">
<circle cx="34.4700" cy="-28.1600" r="1.0500" /> 
</g>
<g style="fill:#000000; fill-opacity:1.0000; stroke:none;">
<circle cx="31.9300" cy="-28.1600" r="1.0500" /> 
</g>
<g style="fill:#000000; fill-opacity:1.0000; stroke:none;">
<circle cx="29.3900" cy="-28.1600" r="1.0500" /> 
</g>
<g style="fill:#000000; fill-opacity:1.0000; stroke:none;">
<circle cx="26.8500" cy="-28.1600" r="1.0500" /> 
</g>
<g style="fill:#000000; fill-opacity:1.0000; stroke:none;">
<circle cx="24.3100" cy="-28.1600" r="1.0500" /> 
</g>
<g style="fill:#000000; fill-opacity:1.0000; stroke:none;">
<circle cx="21.7700" cy="-28.1600" r="1.0500" /> 
<path style="fill:#000000; fill-opacity:1.0000; stroke:none;fill-rule:evenodd;"
d="M 52.3500,-21.9500
52.3500,-24.0500
54.4500,-24.0500
54.4500,-21.9500
Z" /> 
</g>
<g style="fill:none; 
stroke:#000000; stroke-width:1.8500; stroke-opacity:1; 
stroke-linecap:round; stroke-linejoin:round;">
<path d="M38.5610 -15.7600
L39.7590 -15.7600
" />
<path d="M51.0610 -15.7600
L52.2590 -15.7600
" />
<path d="M38.5610 -10.7600
L39.7590 -10.7600
" />
<path d="M51.0610 -10.7600
L52.2590 -10.7600
" />
<path style="fill:#000000; fill-opacity:1.0000; stroke:none;fill-rule:evenodd;"
d="M 4.1500,-21.0000
6.6500,-21.0000
6.6500,-18.5000
4.1500,-18.5000
Z" /> 
<path style="fill:#000000; fill-opacity:1.0000; stroke:none;fill-rule:evenodd;"
d="M 4.1500,-9.3000
6.6500,-9.3000
6.6500,-6.8000
4.1500,-6.8000
Z" /> 
</g>
<g style="fill:#000000; fill-opacity:1.0000; stroke:none;">
<circle cx="5.4000" cy="-10.9000" r="1.0500" /> 
</g>
<g style="fill:#000000; fill-opacity:1.0000; stroke:none;">
<circle cx="5.4000" cy="-13.9000" r="1.0500" /> 
</g>
<g style="fill:#000000; fill-opacity:1.0000; stroke:none;">
<circle cx="5.4000" cy="-16.9000" r="1.0500" /> 
</g>
<g style="fill:#000000; fill-opacity:1.0000; stroke:none;">
<circle cx="13.6600" cy="-9.4600" r="1.0500" /> 
</g>
<g style="fill:#000000; fill-opacity:1.0000; stroke:none;">
<circle cx="16.2000" cy="-9.4600" r="1.0500" /> 
</g>
<g style="fill:#000000; fill-opacity:1.0000; stroke:none;">
<circle cx="18.7400" cy="-9.4600" r="1.0500" /> 
</g>
<g style="fill:#000000; fill-opacity:1.0000; stroke:none;">
<circle cx="21.2800" cy="-9.4600" r="1.0500" /> 
</g>
<g style="fill:#000000; fill-opacity:1.0000; stroke:none;">
<circle cx="23.8200" cy="-9.4600" r="1.0500" /> 
</g>
<g style="fill:#000000; fill-opacity:1.0000; stroke:none;">
<circle cx="26.3600" cy="-9.4600" r="1.0500" /> 
</g>
<g style="fill:#000000; fill-opacity:1.0000; stroke:none;">
<circle cx="28.9000" cy="-9.4600" r="1.0500" /> 
</g>
<g style="fill:#000000; fill-opacity:1.0000; stroke:none;">
<circle cx="31.4400" cy="-9.4600" r="1.0500" /> 
</g>
<g style="fill:#000000; fill-opacity:1.0000; stroke:none;">
<circle cx="31.4400" cy="-17.0800" r="1.0500" /> 
</g>
<g style="fill:#000000; fill-opacity:1.0000; stroke:none;">
<circle cx="28.9000" cy="-17.0800" r="1.0500" /> 
</g>
<g style="fill:#000000; fill-opacity:1.0000; stroke:none;">
<circle cx="26.3600" cy="-17.0800" r="1.0500" /> 
</g>
<g style="fill:#000000; fill-opacity:1.0000; stroke:none;">
<circle cx="23.8200" cy="-17.0800" r="1.0500" /> 
</g>
<g style="fill:#000000; fill-opacity:1.0000; stroke:none;">
<circle cx="21.2800" cy="-17.0800" r="1.0500" /> 
</g>
<g style="fill:#000000; fill-opacity:1.0000; stroke:none;">
<circle cx="18.7400" cy="-17.0800" r="1.0500" /> 
</g>
<g style="fill:#000000; fill-opacity:1.0000; stroke:none;">
<circle cx="16.2000" cy="-17.0800" r="1.0500" /> 
</g>
<g style="fill:#000000; fill-opacity:1.0000; stroke:none;">
<circle cx="13.6600" cy="-17.0800" r="1.0500" /> 
<path style="fill:#000000; fill-opacity:1.0000; stroke:none;fill-rule:evenodd;"
d="M 6.3500,-22.3500
6.3500,-24.4500
8.4500,-24.4500
8.4500,-22.3500
Z" /> 
<path style="fill:#000000; fill-opacity:1.0000; stroke:none;fill-rule:evenodd;"
d="M 9.1500,-9.8500
9.1500,-11.9500
11.2500,-11.9500
11.2500,-9.8500
Z" /> 
<path style="fill:#000000; fill-opacity:1.0000; stroke:none;fill-rule:evenodd;"
d="M 2.3500,-22.3500
2.3500,-24.4500
4.4500,-24.4500
4.4500,-22.3500
Z" /> 
<path style="fill:#000000; fill-opacity:1.0000; stroke:none;fill-rule:evenodd;"
d="M 11.3500,-19.3500
11.3500,-21.4500
13.4500,-21.4500
13.4500,-19.3500
Z" /> 
<path style="fill:#000000; fill-opacity:1.0000; stroke:none;fill-rule:evenodd;"
d="M 38.3500,-22.9500
38.3500,-25.0500
40.4500,-25.0500
40.4500,-22.9500
Z" /> 
<path style="fill:#000000; fill-opacity:1.0000; stroke:none;fill-rule:evenodd;"
d="M 26.2250,-37.7750
26.1293,-37.7940
26.0482,-37.8482
25.9940,-37.9293
25.9750,-38.0250
25.9750,-38.6500
25.9940,-38.7457
26.0482,-38.8268
26.1293,-38.8810
26.2250,-38.9000
27.4750,-38.9000
27.5707,-38.8810
27.6518,-38.8268
27.7060,-38.7457
27.7250,-38.6500
27.7250,-38.0250
27.7060,-37.9293
27.6518,-37.8482
27.5707,-37.7940
27.4750,-37.7750
Z" /> 
<path style="fill:#000000; fill-opacity:1.0000; stroke:none;fill-rule:evenodd;"
d="M 26.2250,-40.7000
26.1293,-40.7190
26.0482,-40.7732
25.9940,-40.8543
25.9750,-40.9500
25.9750,-41.5750
25.9940,-41.6707
26.0482,-41.7518
26.1293,-41.8060
26.2250,-41.8250
27.4750,-41.8250
27.5707,-41.8060
27.6518,-41.7518
27.7060,-41.6707
27.7250,-41.5750
27.7250,-40.9500
27.7060,-40.8543
27.6518,-40.7732
27.5707,-40.7190
27.4750,-40.7000
Z" /> 
<path style="fill:#000000; fill-opacity:1.0000; stroke:none;fill-rule:evenodd;"
d="M 32.8775,-24.2750
32.8585,-24.1793
32.8043,-24.0982
32.7232,-24.0440
32.6275,-24.0250
32.0025,-24.0250
31.9068,-24.0440
31.8257,-24.0982
31.7715,-24.1793
31.7525,-24.2750
31.7525,-25.5250
31.7715,-25.6207
31.8257,-25.7018
31.9068,-25.7560
32.0025,-25.7750
32.6275,-25.7750
32.7232,-25.7560
32.8043,-25.7018
32.8585,-25.6207
32.8775,-25.5250
Z" /> 
<path style="fill:#000000; fill-opacity:1.0000; stroke:none;fill-rule:evenodd;"
d="M 29.9525,-24.2750
29.9335,-24.1793
29.8793,-24.0982
29.7982,-24.0440
29.7025,-24.0250
29.0775,-24.0250
28.9818,-24.0440
28.9007,-24.0982
28.8465,-24.1793
28.8275,-24.2750
28.8275,-25.5250
28.8465,-25.6207
28.9007,-25.7018
28.9818,-25.7560
29.0775,-25.7750
29.7025,-25.7750
29.7982,-25.7560
29.8793,-25.7018
29.9335,-25.6207
29.9525,-25.5250
Z" /> 
</g>
<g style="fill:#000000; fill-opacity:1.0000; stroke:none;">
<circle cx="45.4000" cy="-35.9000" r="1.0500" /> 
</g>
<g style="fill:#000000; fill-opacity:1.0000; stroke:none;">
<circle cx="45.4000" cy="-15.4500" r="1.0500" /> 
<path style="fill:#000000; fill-opacity:1.0000; stroke:none;fill-rule:evenodd;"
d="M 13.6750,-42.5250
13.6940,-42.6207
13.7482,-42.7018
13.8293,-42.7560
13.9250,-42.7750
14.5500,-42.7750
14.6457,-42.7560
14.7268,-42.7018
14.7810,-42.6207
14.8000,-42.5250
14.8000,-41.2750
14.7810,-41.1793
14.7268,-41.0982
14.6457,-41.0440
14.5500,-41.0250
13.9250,-41.0250
13.8293,-41.0440
13.7482,-41.0982
13.6940,-41.1793
13.6750,-41.2750
Z" /> 
<path style="fill:#000000; fill-opacity:1.0000; stroke:none;fill-rule:evenodd;"
d="M 16.6000,-42.5250
16.6190,-42.6207
16.6732,-42.7018
16.7543,-42.7560
16.8500,-42.7750
17.4750,-42.7750
17.5707,-42.7560
17.6518,-42.7018
17.7060,-42.6207
17.7250,-42.5250
17.7250,-41.2750
17.7060,-41.1793
17.6518,-41.0982
17.5707,-41.0440
17.4750,-41.0250
16.8500,-41.0250
16.7543,-41.0440
16.6732,-41.0982
16.6190,-41.1793
16.6000,-41.2750
Z" /> 
<path style="fill:#000000; fill-opacity:1.0000; stroke:none;fill-rule:evenodd;"
d="M 13.8750,-39.5200
13.8636,-39.4626
13.8311,-39.4139
13.7824,-39.3814
13.7250,-39.3700
12.0750,-39.3700
12.0176,-39.3814
11.9689,-39.4139
11.9364,-39.4626
11.9250,-39.5200
11.9250,-39.8200
11.9364,-39.8774
11.9689,-39.9261
12.0176,-39.9586
12.0750,-39.9700
13.7250,-39.9700
13.7824,-39.9586
13.8311,-39.9261
13.8636,-39.8774
13.8750,-39.8200
Z" /> 
<path style="fill:#000000; fill-opacity:1.0000; stroke:none;fill-rule:evenodd;"
d="M 13.8750,-38.2500
13.8636,-38.1926
13.8311,-38.1439
13.7824,-38.1114
13.7250,-38.1000
12.0750,-38.1000
12.0176,-38.1114
11.9689,-38.1439
11.9364,-38.1926
11.9250,-38.2500
11.9250,-38.5500
11.9364,-38.6074
11.9689,-38.6561
12.0176,-38.6886
12.0750,-38.7000
13.7250,-38.7000
13.7824,-38.6886
13.8311,-38.6561
13.8636,-38.6074
13.8750,-38.5500
Z" /> 
<path style="fill:#000000; fill-opacity:1.0000; stroke:none;fill-rule:evenodd;"
d="M 13.8750,-36.9800
13.8636,-36.9226
13.8311,-36.8739
13.7824,-36.8414
13.7250,-36.8300
12.0750,-36.8300
12.0176,-36.8414
11.9689,-36.8739
11.9364,-36.9226
11.9250,-36.9800
11.9250,-37.2800
11.9364,-37.3374
11.9689,-37.3861
12.0176,-37.4186
12.0750,-37.4300
13.7250,-37.4300
13.7824,-37.4186
13.8311,-37.3861
13.8636,-37.3374
13.8750,-37.2800
Z" /> 
<path style="fill:#000000; fill-opacity:1.0000; stroke:none;fill-rule:evenodd;"
d="M 13.8750,-35.7100
13.8636,-35.6526
13.8311,-35.6039
13.7824,-35.5714
13.7250,-35.5600
12.0750,-35.5600
12.0176,-35.5714
11.9689,-35.6039
11.9364,-35.6526
11.9250,-35.7100
11.9250,-36.0100
11.9364,-36.0674
11.9689,-36.1161
12.0176,-36.1486
12.0750,-36.1600
13.7250,-36.1600
13.7824,-36.1486
13.8311,-36.1161
13.8636,-36.0674
13.8750,-36.0100
Z" /> 
<path style="fill:#000000; fill-opacity:1.0000; stroke:none;fill-rule:evenodd;"
d="M 13.8750,-34.4400
13.8636,-34.3826
13.8311,-34.3339
13.7824,-34.3014
13.7250,-34.2900
12.0750,-34.2900
12.0176,-34.3014
11.9689,-34.3339
11.9364,-34.3826
11.9250,-34.4400
11.9250,-34.7400
11.9364,-34.7974
11.9689,-34.8461
12.0176,-34.8786
12.0750,-34.8900
13.7250,-34.8900
13.7824,-34.8786
13.8311,-34.8461
13.8636,-34.7974
13.8750,-34.7400
Z" /> 
<path style="fill:#000000; fill-opacity:1.0000; stroke:none;fill-rule:evenodd;"
d="M 13.8750,-33.1700
13.8636,-33.1126
13.8311,-33.0639
13.7824,-33.0314
13.7250,-33.0200
12.0750,-33.0200
12.0176,-33.0314
11.9689,-33.0639
11.9364,-33.1126
11.9250,-33.1700
11.9250,-33.4700
11.9364,-33.5274
11.9689,-33.5761
12.0176,-33.6086
12.0750,-33.6200
13.7250,-33.6200
13.7824,-33.6086
13.8311,-33.5761
13.8636,-33.5274
13.8750,-33.4700
Z" /> 
<path style="fill:#000000; fill-opacity:1.0000; stroke:none;fill-rule:evenodd;"
d="M 13.8750,-31.9000
13.8636,-31.8426
13.8311,-31.7939
13.7824,-31.7614
13.7250,-31.7500
12.0750,-31.7500
12.0176,-31.7614
11.9689,-31.7939
11.9364,-31.8426
11.9250,-31.9000
11.9250,-32.2000
11.9364,-32.2574
11.9689,-32.3061
12.0176,-32.3386
12.0750,-32.3500
13.7250,-32.3500
13.7824,-32.3386
13.8311,-32.3061
13.8636,-32.2574
13.8750,-32.2000
Z" /> 
<path style="fill:#000000; fill-opacity:1.0000; stroke:none;fill-rule:evenodd;"
d="M 8.9250,-31.9000
8.9136,-31.8426
8.8811,-31.7939
8.8324,-31.7614
8.7750,-31.7500
7.1250,-31.7500
7.0676,-31.7614
7.0189,-31.7939
6.9864,-31.8426
6.9750,-31.9000
6.9750,-32.2000
6.9864,-32.2574
7.0189,-32.3061
7.0676,-32.3386
7.1250,-32.3500
8.7750,-32.3500
8.8324,-32.3386
8.8811,-32.3061
8.9136,-32.2574
8.9250,-32.2000
Z" /> 
<path style="fill:#000000; fill-opacity:1.0000; stroke:none;fill-rule:evenodd;"
d="M 8.9250,-33.1700
8.9136,-33.1126
8.8811,-33.0639
8.8324,-33.0314
8.7750,-33.0200
7.1250,-33.0200
7.0676,-33.0314
7.0189,-33.0639
6.9864,-33.1126
6.9750,-33.1700
6.9750,-33.4700
6.9864,-33.5274
7.0189,-33.5761
7.0676,-33.6086
7.1250,-33.6200
8.7750,-33.6200
8.8324,-33.6086
8.8811,-33.5761
8.9136,-33.5274
8.9250,-33.4700
Z" /> 
<path style="fill:#000000; fill-opacity:1.0000; stroke:none;fill-rule:evenodd;"
d="M 8.9250,-34.4400
8.9136,-34.3826
8.8811,-34.3339
8.8324,-34.3014
8.7750,-34.2900
7.1250,-34.2900
7.0676,-34.3014
7.0189,-34.3339
6.9864,-34.3826
6.9750,-34.4400
6.9750,-34.7400
6.9864,-34.7974
7.0189,-34.8461
7.0676,-34.8786
7.1250,-34.8900
8.7750,-34.8900
8.8324,-34.8786
8.8811,-34.8461
8.9136,-34.7974
8.9250,-34.7400
Z" /> 
<path style="fill:#000000; fill-opacity:1.0000; stroke:none;fill-rule:evenodd;"
d="M 8.9250,-35.7100
8.9136,-35.6526
8.8811,-35.6039
8.8324,-35.5714
8.7750,-35.5600
7.1250,-35.5600
7.0676,-35.5714
7.0189,-35.6039
6.9864,-35.6526
6.9750,-35.7100
6.9750,-36.0100
6.9864,-36.0674
7.0189,-36.1161
7.0676,-36.1486
7.1250,-36.1600
8.7750,-36.1600
8.8324,-36.1486
8.8811,-36.1161
8.9136,-36.0674
8.9250,-36.0100
Z" /> 
<path style="fill:#000000; fill-opacity:1.0000; stroke:none;fill-rule:evenodd;"
d="M 8.9250,-36.9800
8.9136,-36.9226
8.8811,-36.8739
8.8324,-36.8414
8.7750,-36.8300
7.1250,-36.8300
7.0676,-36.8414
7.0189,-36.8739
6.9864,-36.9226
6.9750,-36.9800
6.9750,-37.2800
6.9864,-37.3374
7.0189,-37.3861
7.0676,-37.4186
7.1250,-37.4300
8.7750,-37.4300
8.8324,-37.4186
8.8811,-37.3861
8.9136,-37.3374
8.9250,-37.2800
Z" /> 
<path style="fill:#000000; fill-opacity:1.0000; stroke:none;fill-rule:evenodd;"
d="M 8.9250,-38.2500
8.9136,-38.1926
8.8811,-38.1439
8.8324,-38.1114
8.7750,-38.1000
7.1250,-38.1000
7.0676,-38.1114
7.0189,-38.1439
6.9864,-38.1926
6.9750,-38.2500
6.9750,-38.5500
6.9864,-38.6074
7.0189,-38.6561
7.0676,-38.6886
7.1250,-38.7000
8.7750,-38.7000
8.8324,-38.6886
8.8811,-38.6561
8.9136,-38.6074
8.9250,-38.5500
Z" /> 
<path style="fill:#000000; fill-opacity:1.0000; stroke:none;fill-rule:evenodd;"
d="M 8.9250,-39.5200
8.9136,-39.4626
8.8811,-39.4139
8.8324,-39.3814
8.7750,-39.3700
7.1250,-39.3700
7.0676,-39.3814
7.0189,-39.4139
6.9864,-39.4626
6.9750,-39.5200
6.9750,-39.8200
6.9864,-39.8774
7.0189,-39.9261
7.0676,-39.9586
7.1250,-39.9700
8.7750,-39.9700
8.8324,-39.9586
8.8811,-39.9261
8.9136,-39.8774
8.9250,-39.8200
Z" /> 
<path style="fill:#000000; fill-opacity:1.0000; stroke:none;fill-rule:evenodd;"
d="M 33.8450,-37.7750
33.7493,-37.7940
33.6682,-37.8482
33.6140,-37.9293
33.5950,-38.0250
33.5950,-38.6500
33.6140,-38.7457
33.6682,-38.8268
33.7493,-38.8810
33.8450,-38.9000
35.0950,-38.9000
35.1907,-38.8810
35.2718,-38.8268
35.3260,-38.7457
35.3450,-38.6500
35.3450,-38.0250
35.3260,-37.9293
35.2718,-37.8482
35.1907,-37.7940
35.0950,-37.7750
Z" /> 
<path style="fill:#000000; fill-opacity:1.0000; stroke:none;fill-rule:evenodd;"
d="M 33.8450,-40.7000
33.7493,-40.7190
33.6682,-40.7732
33.6140,-40.8543
33.5950,-40.9500
33.5950,-41.5750
33.6140,-41.6707
33.6682,-41.7518
33.7493,-41.8060
33.8450,-41.8250
35.0950,-41.8250
35.1907,-41.8060
35.2718,-41.7518
35.3260,-41.6707
35.3450,-41.5750
35.3450,-40.9500
35.3260,-40.8543
35.2718,-40.7732
35.1907,-40.7190
35.0950,-40.7000
Z" /> 
<path style="fill:#000000; fill-opacity:1.0000; stroke:none;fill-rule:evenodd;"
d="M 32.5550,-34.8250
32.6507,-34.8060
32.7318,-34.7518
32.7860,-34.6707
32.8050,-34.5750
32.8050,-33.9500
32.7860,-33.8543
32.7318,-33.7732
32.6507,-33.7190
32.5550,-33.7000
31.3050,-33.7000
31.2093,-33.7190
31.1282,-33.7732
31.0740,-33.8543
31.0550,-33.9500
31.0550,-34.5750
31.0740,-34.6707
31.1282,-34.7518
31.2093,-34.8060
31.3050,-34.8250
Z" /> 
<path style="fill:#000000; fill-opacity:1.0000; stroke:none;fill-rule:evenodd;"
d="M 32.5550,-31.9000
32.6507,-31.8810
32.7318,-31.8268
32.7860,-31.7457
32.8050,-31.6500
32.8050,-31.0250
32.7860,-30.9293
32.7318,-30.8482
32.6507,-30.7940
32.5550,-30.7750
31.3050,-30.7750
31.2093,-30.7940
31.1282,-30.8482
31.0740,-30.9293
31.0550,-31.0250
31.0550,-31.6500
31.0740,-31.7457
31.1282,-31.8268
31.2093,-31.8810
31.3050,-31.9000
Z" /> 
<path style="fill:#000000; fill-opacity:1.0000; stroke:none;fill-rule:evenodd;"
d="M 21.1450,-22.4125
21.0493,-22.4315
20.9682,-22.4857
20.9140,-22.5668
20.8950,-22.6625
20.8950,-23.2875
20.9140,-23.3832
20.9682,-23.4643
21.0493,-23.5185
21.1450,-23.5375
22.3950,-23.5375
22.4907,-23.5185
22.5718,-23.4643
22.6260,-23.3832
22.6450,-23.2875
22.6450,-22.6625
22.6260,-22.5668
22.5718,-22.4857
22.4907,-22.4315
22.3950,-22.4125
Z" /> 
<path style="fill:#000000; fill-opacity:1.0000; stroke:none;fill-rule:evenodd;"
d="M 21.1450,-25.3375
21.0493,-25.3565
20.9682,-25.4107
20.9140,-25.4918
20.8950,-25.5875
20.8950,-26.2125
20.9140,-26.3082
20.9682,-26.3893
21.0493,-26.4435
21.1450,-26.4625
22.3950,-26.4625
22.4907,-26.4435
22.5718,-26.3893
22.6260,-26.3082
22.6450,-26.2125
22.6450,-25.5875
22.6260,-25.4918
22.5718,-25.4107
22.4907,-25.3565
22.3950,-25.3375
Z" /> 
<path style="fill:#000000; fill-opacity:1.0000; stroke:none;fill-rule:evenodd;"
d="M 26.2250,-22.4750
26.1293,-22.4940
26.0482,-22.5482
25.9940,-22.6293
25.9750,-22.7250
25.9750,-23.3500
25.9940,-23.4457
26.0482,-23.5268
26.1293,-23.5810
26.2250,-23.6000
27.4750,-23.6000
27.5707,-23.5810
27.6518,-23.5268
27.7060,-23.4457
27.7250,-23.3500
27.7250,-22.7250
27.7060,-22.6293
27.6518,-22.5482
27.5707,-22.4940
27.4750,-22.4750
Z" /> 
<path style="fill:#000000; fill-opacity:1.0000; stroke:none;fill-rule:evenodd;"
d="M 26.2250,-25.4000
26.1293,-25.4190
26.0482,-25.4732
25.9940,-25.5543
25.9750,-25.6500
25.9750,-26.2750
25.9940,-26.3707
26.0482,-26.4518
26.1293,-26.5060
26.2250,-26.5250
27.4750,-26.5250
27.5707,-26.5060
27.6518,-26.4518
27.7060,-26.3707
27.7250,-26.2750
27.7250,-25.6500
27.7060,-25.5543
27.6518,-25.4732
27.5707,-25.4190
27.4750,-25.4000
Z" /> 
<path style="fill:#000000; fill-opacity:1.0000; stroke:none;fill-rule:evenodd;"
d="M 23.6850,-22.4125
23.5893,-22.4315
23.5082,-22.4857
23.4540,-22.5668
23.4350,-22.6625
23.4350,-23.2875
23.4540,-23.3832
23.5082,-23.4643
23.5893,-23.5185
23.6850,-23.5375
24.9350,-23.5375
25.0307,-23.5185
25.1118,-23.4643
25.1660,-23.3832
25.1850,-23.2875
25.1850,-22.6625
25.1660,-22.5668
25.1118,-22.4857
25.0307,-22.4315
24.9350,-22.4125
Z" /> 
<path style="fill:#000000; fill-opacity:1.0000; stroke:none;fill-rule:evenodd;"
d="M 23.6850,-25.3375
23.5893,-25.3565
23.5082,-25.4107
23.4540,-25.4918
23.4350,-25.5875
23.4350,-26.2125
23.4540,-26.3082
23.5082,-26.3893
23.5893,-26.4435
23.6850,-26.4625
24.9350,-26.4625
25.0307,-26.4435
25.1118,-26.3893
25.1660,-26.3082
25.1850,-26.2125
25.1850,-25.5875
25.1660,-25.4918
25.1118,-25.4107
25.0307,-25.3565
24.9350,-25.3375
Z" /> 
</g>
<g style="fill:#000000; fill-opacity:1.0000; stroke:none;">
<circle cx="18.9000" cy="-40.2000" r="0.7500" /> 
</g>
<g style="fill:#000000; fill-opacity:1.0000; stroke:none;">
<circle cx="14.9000" cy="-19.5600" r="0.7500" /> 
</g>
<g style="fill:none; 
stroke:#000000; stroke-width:0.5000; stroke-opacity:1; 
stroke-linecap:round; stroke-linejoin:round;">
<path d="M14.9000 -19.5600
L13.6600 -18.3200
" />
<path d="M13.6600 -18.3200
L13.6600 -17.0800
" />
<path d="M7.9500 -35.8600
L5.9400 -35.8600
" />
<path d="M29.7160 -46.4840
L31.9300 -44.2700
" />
<path d="M5.9400 -35.8600
L4.1000 -37.7000
" />
<path d="M4.1000 -37.7000
L4.1000 -41.7000
" />
<path d="M4.1000 -41.7000
L8.8840 -46.4840
" />
<path d="M8.8840 -46.4840
L29.7160 -46.4840
" />
<path d="M31.9300 -44.2700
L31.9300 -43.4000
" />
<path d="M5.4000 -13.9000
L4.7920 -13.9000
" />
<path d="M4.1020 -5.8440
L12.9920 -5.8440
" />
<path d="M4.7920 -13.9000
L3.0000 -12.1080
" />
<path d="M3.0000 -12.1080
L3.0000 -6.9460
" />
<path d="M12.9920 -5.8440
L16.8020 -2.0340
" />
<path d="M3.0000 -6.9460
L4.1020 -5.8440
" />
<path d="M16.8020 -2.0340
L42.0340 -2.0340
" />
<path d="M45.4000 -5.4000
L45.4000 -15.4500
" />
<path d="M42.0340 -2.0340
L45.4000 -5.4000
" />
<path d="M23.8200 -9.4600
L23.8200 -7.7800
" />
<path d="M36.8000 -8.7000
L36.8000 -30.2675
" />
<path d="M23.8200 -7.7800
L26.0100 -5.5900
" />
<path d="M26.0100 -5.5900
L33.6900 -5.5900
" />
<path d="M33.6900 -5.5900
L36.8000 -8.7000
" />
<path d="M36.8000 -30.2675
L32.8050 -34.2625
" />
<path d="M32.8050 -34.2625
L31.9300 -34.2625
" />
<path d="M26.8500 -38.3375
L28.1875 -37.0000
" />
<path d="M28.1875 -37.0000
L35.2000 -37.0000
" />
<path d="M35.2000 -37.0000
L41.9000 -30.3000
" />
<path d="M41.9000 -30.3000
L41.9000 -8.5000
" />
<path d="M41.9000 -8.5000
L37.7200 -4.3200
" />
<path d="M37.7200 -4.3200
L23.7800 -4.3200
" />
<path d="M23.7800 -4.3200
L21.2800 -6.8200
" />
<path d="M21.2800 -6.8200
L21.2800 -9.4600
" />
<path d="M34.4700 -38.3375
L36.4625 -38.3375
" />
<path d="M36.4625 -38.3375
L43.4000 -31.4000
" />
<path d="M43.4000 -31.4000
L43.4000 -7.6000
" />
<path d="M21.7960 -3.3040
L18.7400 -6.3600
" />
<path d="M43.4000 -7.6000
L39.1040 -3.3040
" />
<path d="M39.1040 -3.3040
L21.7960 -3.3040
" />
<path d="M18.7400 -6.3600
L18.7400 -9.4600
" />
<path d="M21.7700 -22.9750
L25.5450 -19.2000
" />
<path d="M33.0580 -16.3580
L28.9000 -12.2000
" />
<path d="M25.5450 -19.2000
L32.3000 -19.2000
" />
<path d="M32.3000 -19.2000
L33.0580 -18.4420
" />
<path d="M33.0580 -18.4420
L33.0580 -16.3580
" />
<path d="M28.9000 -12.2000
L16.4000 -12.2000
" />
<path d="M16.4000 -12.2000
L13.6600 -9.4600
" />
<path d="M18.9000 -40.2000
L18.4000 -39.7000
" />
<path d="M18.4000 -39.7000
L12.9300 -39.7000
" />
<path d="M12.9300 -39.7000
L12.9000 -39.6700
" />
<path d="M51.6600 -15.7600
L47.1000 -20.3200
" />
<path d="M23.7000 -39.5000
L21.3300 -37.1300
" />
<path d="M47.1000 -20.3200
L47.1000 -29.3000
" />
<path d="M47.1000 -29.3000
L36.9000 -39.5000
" />
<path d="M36.9000 -39.5000
L23.7000 -39.5000
" />
<path d="M21.3300 -37.1300
L12.9000 -37.1300
" />
<path d="M17.1625 -41.9000
L17.3625 -41.7000
" />
<path d="M17.3625 -41.7000
L23.3000 -41.7000
" />
<path d="M23.3000 -41.7000
L24.3100 -42.7100
" />
<path d="M24.3100 -42.7100
L24.3100 -43.4000
" />
<path d="M16.2000 -17.0800
L16.2000 -20.6100
" />
<path d="M16.2000 -20.6100
L11.3000 -25.5100
" />
<path d="M11.3000 -25.5100
L11.3000 -40.7000
" />
<path d="M11.3000 -40.7000
L12.5000 -41.9000
" />
<path d="M12.5000 -41.9000
L14.2375 -41.9000
" />
<path d="M21.7700 -43.4000
L21.0700 -44.1000
" />
<path d="M6.8000 -38.4000
L7.9500 -38.4000
" />
<path d="M21.0700 -44.1000
L9.6000 -44.1000
" />
<path d="M9.6000 -44.1000
L5.9000 -40.4000
" />
<path d="M5.9000 -40.4000
L5.9000 -39.3000
" />
<path d="M5.9000 -39.3000
L6.8000 -38.4000
" />
<path d="M34.4700 -28.1600
L34.4700 -31.1019
" />
<path d="M16.4100 -34.5900
L12.9000 -34.5900
" />
<path d="M32.7719 -32.8000
L18.2000 -32.8000
" />
<path d="M18.2000 -32.8000
L16.4100 -34.5900
" />
<path d="M34.4700 -31.1019
L32.7719 -32.8000
" />
<path d="M4.8000 -38.4000
L4.8000 -40.8000
" />
<path d="M6.0700 -37.1300
L4.8000 -38.4000
" />
<path d="M4.8000 -40.8000
L9.5000 -45.5000
" />
<path d="M29.3900 -44.5100
L29.3900 -43.4000
" />
<path d="M9.5000 -45.5000
L28.4000 -45.5000
" />
<path d="M7.9500 -37.1300
L6.0700 -37.1300
" />
<path d="M28.4000 -45.5000
L29.3900 -44.5100
" />
<path d="M12.9000 -26.1000
L18.7400 -20.2600
" />
<path d="M12.9000 -32.0500
L12.9000 -26.1000
" />
<path d="M18.7400 -20.2600
L18.7400 -17.0800
" />
<path d="M45.4000 -35.9000
L55.4000 -25.9000
" />
<path d="M10.4750 -37.7027
L8.5077 -39.6700
" />
<path d="M10.4750 -16.8250
L10.4750 -19.4000
" />
<path d="M12.1000 -15.2000
L10.4750 -16.8250
" />
<path d="M55.4000 -13.9000
L52.2600 -10.7600
" />
<path d="M12.4000 -20.4000
L11.4000 -19.4000
" />
<path d="M21.2800 -17.0800
L21.2800 -16.5800
" />
<path d="M10.4750 -19.4000
L10.4750 -37.7027
" />
<path d="M21.2800 -16.5800
L19.9000 -15.2000
" />
<path d="M11.4000 -19.4000
L10.4750 -19.4000
" />
<path d="M55.4000 -25.9000
L55.4000 -13.9000
" />
<path d="M19.9000 -15.2000
L12.1000 -15.2000
" />
<path d="M52.2600 -10.7600
L51.6600 -10.7600
" />
<path d="M8.5077 -39.6700
L7.9500 -39.6700
" />
<path d="M10.2000 -10.9000
L10.4000 -10.9000
" />
<path d="M10.4000 -10.9000
L12.4000 -12.9000
" />
<path d="M24.7200 -12.9000
L28.9000 -17.0800
" />
<path d="M10.2000 -10.9000
L5.4000 -10.9000
" />
<path d="M12.4000 -12.9000
L24.7200 -12.9000
" />
<path d="M7.4000 -23.4000
L7.4000 -31.5000
" />
<path d="M7.4000 -31.5000
L7.9500 -32.0500
" />
<path d="M3.4000 -29.7450
L6.9750 -33.3200
" />
<path d="M3.4000 -16.4000
L3.4000 -23.4000
" />
<path d="M4.4000 -15.4000
L3.4000 -16.4000
" />
<path d="M22.9800 -13.7000
L11.1100 -13.7000
" />
<path d="M26.3600 -17.0800
L22.9800 -13.7000
" />
<path d="M6.9750 -33.3200
L7.9500 -33.3200
" />
<path d="M9.4101 -15.4000
L4.4000 -15.4000
" />
<path d="M3.4000 -23.4000
L3.4000 -29.7450
" />
<path d="M11.1100 -13.7000
L9.4101 -15.4000
" />
<path d="M39.4000 -24.0000
L39.4000 -30.2000
" />
<path d="M39.4000 -30.2000
L33.7400 -35.8600
" />
<path d="M33.7400 -35.8600
L12.9000 -35.8600
" />
<path d="M33.9000 -19.1000
L33.9000 -12.9000
" />
<path d="M18.1400 -11.4000
L16.2000 -9.4600
" />
<path d="M32.3000 -20.7000
L33.9000 -19.1000
" />
<path d="M24.4000 -21.9000
L25.6000 -20.7000
" />
<path d="M32.4000 -11.4000
L18.1400 -11.4000
" />
<path d="M25.6000 -20.7000
L32.3000 -20.7000
" />
<path d="M24.4000 -22.9750
L24.4000 -21.9000
" />
<path d="M33.9000 -12.9000
L32.4000 -11.4000
" />
<path d="M35.9000 -21.7000
L32.7000 -24.9000
" />
<path d="M29.2200 -6.6000
L33.0000 -6.6000
" />
<path d="M32.7000 -24.9000
L32.3150 -24.9000
" />
<path d="M26.3600 -9.4600
L29.2200 -6.6000
" />
<path d="M33.0000 -6.6000
L35.9000 -9.5000
" />
<path d="M35.9000 -9.5000
L35.9000 -21.7000
" />
<path d="M26.8500 -23.0375
L27.0875 -22.8000
" />
<path d="M34.8000 -9.8000
L32.6000 -7.6000
" />
<path d="M34.8000 -19.8625
L34.8000 -9.8000
" />
<path d="M30.0000 -7.6000
L28.9000 -8.7000
" />
<path d="M32.6000 -7.6000
L30.0000 -7.6000
" />
<path d="M27.0875 -22.8000
L31.8625 -22.8000
" />
<path d="M28.9000 -8.7000
L28.9000 -9.4600
" />
<path d="M31.8625 -22.8000
L34.8000 -19.8625
" />
<path d="M12.9000 -38.4000
L19.4100 -38.4000
" />
<path d="M53.4000 -24.8000
L53.4000 -23.0000
" />
<path d="M19.4100 -38.4000
L21.2100 -40.2000
" />
<path d="M38.0000 -40.2000
L53.4000 -24.8000
" />
<path d="M21.2100 -40.2000
L38.0000 -40.2000
" />
<path d="M9.6750 -16.1250
L11.4000 -14.4000
" />
<path d="M8.7100 -34.5900
L9.6750 -33.6250
" />
<path d="M7.9500 -34.5900
L8.7100 -34.5900
" />
<path d="M21.1400 -14.4000
L23.8200 -17.0800
" />
<path d="M9.6750 -33.6250
L9.6750 -16.1250
" />
<path d="M11.4000 -14.4000
L21.1400 -14.4000
" />
<path d="M26.8500 -41.2625
L26.8500 -43.4000
" />
<path d="M21.7700 -25.9000
L21.7700 -28.1600
" />
<path d="M29.3900 -24.9000
L29.3900 -28.1600
" />
<path d="M31.9300 -31.3375
L31.9300 -28.1600
" />
<path d="M26.8500 -25.9625
L26.8500 -28.1600
" />
<path d="M24.4000 -28.0700
L24.3100 -28.1600
" />
<path d="M24.4000 -25.9000
L24.4000 -28.0700
" />
<path d="M34.4700 -41.2625
L34.4700 -43.4000
" />
<path style="fill:#000000; fill-opacity:1.0000; stroke:none;fill-rule:evenodd;"
d="M 39.4100,-9.3350
39.8711,-9.3350
40.0927,-9.3701
40.3060,-9.4394
40.3060,-9.4394
40.5059,-9.5412
40.6873,-9.6731
40.6873,-9.6731
40.8459,-9.8317
40.9252,-9.9408
40.9805,-9.9834
41.0501,-9.9894
41.1119,-9.9568
41.1463,-9.8960
41.1495,-9.8679
41.1495,-8.8622
41.1298,-8.7952
41.1132,-8.7745
37.4455,-5.1068
37.3841,-5.0733
37.3578,-5.0705
34.5312,-5.0705
34.4642,-5.0902
34.4184,-5.1430
34.4085,-5.2121
34.4375,-5.2757
34.4435,-5.2822
37.3829,-8.2216
37.3829,-8.2216
37.3830,-8.2216
37.4651,-8.3445
37.4716,-8.3602
37.5217,-8.4811
37.5217,-8.4811
37.5505,-8.6261
37.5505,-8.7739
37.5505,-9.4894
37.5702,-9.5564
37.6230,-9.6022
37.6921,-9.6121
37.7474,-9.5897
37.8141,-9.5412
38.0140,-9.4394
38.0140,-9.4394
38.2273,-9.3701
38.4489,-9.3350
38.9100,-9.3350
38.9100,-10.1600
38.9704,-10.1350
39.0960,-10.1100
39.2240,-10.1100
39.3496,-10.1350
39.4100,-10.1600
Z" /> 
<path style="fill:#000000; fill-opacity:1.0000; stroke:none;fill-rule:evenodd;"
d="M 33.9688,-11.8050
34.0248,-11.7631
34.0492,-11.6976
34.0495,-11.6888
34.0495,-10.1622
34.0298,-10.0952
34.0132,-10.0746
33.1980,-9.2593
33.1366,-9.2258
33.0669,-9.2308
33.0110,-9.2727
32.9866,-9.3382
32.9867,-9.3567
32.9948,-9.4600
32.9757,-9.7032
32.9187,-9.9405
32.8253,-10.1659
32.7015,-10.3679
31.8400,-9.5064
31.8400,-9.5127
31.8127,-9.6144
31.7601,-9.7056
31.6856,-9.7801
31.5944,-9.8327
31.4927,-9.8600
31.4864,-9.8600
32.2396,-10.6132
32.3010,-10.6467
32.3273,-10.6495
32.4739,-10.6495
32.5715,-10.6689
32.6189,-10.6783
32.7555,-10.7349
32.8047,-10.7678
32.8784,-10.8170
33.8378,-11.7765
33.8991,-11.8099
Z" /> 
<path style="fill:#000000; fill-opacity:1.0000; stroke:none;fill-rule:evenodd;"
d="M 41.1119,-14.9559
41.1463,-14.8951
41.1495,-14.8670
41.1495,-11.6521
41.1298,-11.5851
41.0770,-11.5393
41.0079,-11.5294
40.9443,-11.5584
40.9252,-11.5792
40.8459,-11.6883
40.6873,-11.8469
40.5059,-11.9788
40.3060,-12.0806
40.3060,-12.0806
40.0927,-12.1499
39.8711,-12.1850
39.4100,-12.1850
39.4100,-11.3600
39.3496,-11.3850
39.2240,-11.4100
39.0960,-11.4100
38.9704,-11.3850
38.9100,-11.3600
38.9100,-12.1850
38.4489,-12.1850
38.2273,-12.1499
38.0140,-12.0806
38.0140,-12.0806
37.8141,-11.9788
37.7474,-11.9303
37.6816,-11.9068
37.6135,-11.9226
37.5648,-11.9727
37.5505,-12.0306
37.5505,-14.4888
37.5702,-14.5558
37.6230,-14.6016
37.6921,-14.6115
37.7474,-14.5891
37.8046,-14.5475
37.8139,-14.5408
37.9413,-14.4759
38.0138,-14.4389
38.0138,-14.4389
38.0138,-14.4389
38.1282,-14.4018
38.2272,-14.3696
38.4488,-14.3345
38.4488,-14.3345
39.8712,-14.3345
40.0928,-14.3696
40.1267,-14.3806
40.3062,-14.4389
40.5061,-14.5408
40.6877,-14.6727
40.8463,-14.8313
40.8553,-14.8438
40.9252,-14.9399
40.9805,-14.9826
41.0501,-14.9886
Z" /> 
<path style="fill:#000000; fill-opacity:1.0000; stroke:none;fill-rule:evenodd;"
d="M 10.6307,-25.1529
10.6526,-25.1281
10.6884,-25.0745
10.7171,-25.0316
10.7171,-25.0316
13.5870,-22.1617
13.6205,-22.1004
13.6155,-22.0307
13.5736,-21.9747
13.5082,-21.9503
13.4993,-21.9500
12.6500,-21.9500
12.6500,-20.8330
12.5930,-20.8659
12.4658,-20.9000
12.3342,-20.9000
12.2070,-20.8659
12.1500,-20.8330
12.1500,-21.9500
11.3022,-21.9500
11.2426,-21.9436
11.2426,-21.9436
11.1079,-21.8934
11.1079,-21.8934
10.9928,-21.8072
10.9928,-21.8072
10.9066,-21.6921
10.9066,-21.6921
10.8564,-21.5574
10.8564,-21.5574
10.8500,-21.4978
10.8500,-20.6500
11.9670,-20.6500
11.9341,-20.5930
11.9000,-20.4658
11.9000,-20.3342
11.9341,-20.2070
11.9670,-20.1500
10.8500,-20.1500
10.8500,-19.3022
10.8564,-19.2426
10.8564,-19.2426
10.9066,-19.1079
10.9066,-19.1079
10.9928,-18.9928
10.9928,-18.9928
11.1079,-18.9066
11.1079,-18.9066
11.2426,-18.8564
11.2426,-18.8564
11.3022,-18.8500
11.3022,-18.8500
12.1500,-18.8500
12.1500,-19.9670
12.2070,-19.9341
12.3342,-19.9000
12.4658,-19.9000
12.5930,-19.9341
12.6500,-19.9670
12.6500,-18.8500
12.8816,-18.8500
12.9487,-18.8303
12.9944,-18.7775
13.0044,-18.7084
12.9962,-18.6785
12.9383,-18.5389
12.9383,-18.5389
12.9302,-18.4980
12.8978,-18.4360
12.8734,-18.4164
12.7458,-18.3383
12.7458,-18.3383
12.5602,-18.1798
12.4017,-17.9942
12.4017,-17.9942
12.2742,-17.7861
12.1808,-17.5606
12.1808,-17.5606
12.1808,-17.5606
12.1549,-17.4527
12.1239,-17.3233
12.1047,-17.0800
12.1239,-16.8367
12.1239,-16.8367
12.1239,-16.8367
12.1687,-16.6500
12.1808,-16.5994
12.2742,-16.3739
12.4017,-16.1658
12.4017,-16.1658
12.4101,-16.1561
12.5602,-15.9802
12.6289,-15.9216
12.7458,-15.8217
12.7458,-15.8217
12.9539,-15.6942
13.1794,-15.6008
13.1794,-15.6008
13.1794,-15.6008
13.1794,-15.6008
13.4167,-15.5439
13.6600,-15.5247
13.9033,-15.5439
14.1406,-15.6008
14.3661,-15.6942
14.5742,-15.8217
14.7598,-15.9802
14.8357,-16.0692
14.8942,-16.1074
14.9641,-16.1079
15.0231,-16.0705
15.0243,-16.0692
15.1002,-15.9802
15.1689,-15.9216
15.2858,-15.8217
15.2858,-15.8217
15.4939,-15.6942
15.7194,-15.6008
15.7194,-15.6008
15.7194,-15.6008
15.7194,-15.6008
15.9567,-15.5439
16.2000,-15.5247
16.4433,-15.5439
16.6806,-15.6008
16.9061,-15.6942
17.1142,-15.8217
17.2998,-15.9802
17.3757,-16.0692
17.4342,-16.1074
17.5041,-16.1079
17.5631,-16.0705
17.5643,-16.0692
17.6402,-15.9802
17.7089,-15.9216
17.8258,-15.8217
17.8258,-15.8217
18.0339,-15.6942
18.2594,-15.6008
18.2594,-15.6008
18.2594,-15.6008
18.2594,-15.6008
18.4967,-15.5439
18.7400,-15.5247
18.9833,-15.5439
19.2206,-15.6008
19.4461,-15.6942
19.6542,-15.8217
19.8398,-15.9802
19.9619,-16.1233
19.9844,-16.1379
20.8800,-17.0336
20.8800,-17.0273
20.9073,-16.9256
20.9599,-16.8344
21.0344,-16.7599
21.1256,-16.7073
21.2273,-16.6800
21.2336,-16.6800
20.3721,-15.8185
20.5741,-15.6947
20.7995,-15.6013
20.9716,-15.5600
21.0322,-15.5252
21.0644,-15.4632
21.0579,-15.3936
21.0304,-15.3517
20.9479,-15.2693
20.8654,-15.1868
20.8041,-15.1533
20.7778,-15.1505
11.7622,-15.1505
11.6952,-15.1702
11.6745,-15.1868
10.4618,-16.3995
10.4283,-16.4609
10.4255,-16.4872
10.4255,-25.0592
10.4452,-25.1262
10.4980,-25.1720
10.5671,-25.1819
Z" /> 
<path style="fill:#000000; fill-opacity:1.0000; stroke:none;fill-rule:evenodd;"
d="M 16.1148,-33.8198
16.1355,-33.8032
17.7216,-32.2171
17.7216,-32.2170
17.8445,-32.1349
17.8445,-32.1349
17.9002,-32.1118
17.9546,-32.0680
17.9767,-32.0017
17.9594,-31.9340
17.9405,-31.9096
17.8263,-31.7954
17.8263,-31.7954
17.7481,-31.6910
17.7472,-31.6898
17.6751,-31.5958
17.6751,-31.5958
17.6728,-31.5918
17.6647,-31.5795
17.6548,-31.5663
17.5983,-31.4629
17.5969,-31.4603
17.5440,-31.3687
17.5374,-31.3528
17.5316,-31.3408
17.5176,-31.3152
17.5176,-31.3152
17.4809,-31.2166
17.4793,-31.2125
17.4436,-31.1264
17.4436,-31.1264
17.4359,-31.0975
17.4323,-31.0863
17.4176,-31.0471
17.4176,-31.0470
17.3980,-30.9566
17.3966,-30.9509
17.3757,-30.8731
17.3702,-30.8309
17.3684,-30.8207
17.3568,-30.7674
17.3568,-30.7674
17.3511,-30.6878
17.3504,-30.6804
17.3415,-30.6131
17.3415,-30.5579
17.3412,-30.5490
17.3367,-30.4864
17.3364,-30.4820
17.3399,-30.4323
17.3412,-30.4150
17.3415,-30.4061
17.3415,-30.3509
17.3504,-30.2836
17.3511,-30.2762
17.3568,-30.1966
17.3568,-30.1966
17.3684,-30.1433
17.3702,-30.1331
17.3757,-30.0909
17.3966,-30.0131
17.3980,-30.0074
17.4176,-29.9170
17.4323,-29.8777
17.4359,-29.8665
17.4436,-29.8376
17.4793,-29.7515
17.4809,-29.7474
17.5118,-29.6645
17.5176,-29.6488
17.5176,-29.6488
17.5316,-29.6232
17.5374,-29.6112
17.5440,-29.5953
17.5440,-29.5953
17.5969,-29.5037
17.5983,-29.5011
17.6548,-29.3977
17.6647,-29.3845
17.6728,-29.3722
17.6751,-29.3682
17.7473,-29.2741
17.7480,-29.2732
17.8246,-29.1708
17.8263,-29.1686
17.8263,-29.1686
18.0286,-28.9663
18.0286,-28.9663
18.0286,-28.9663
18.0286,-28.9663
18.0286,-28.9663
18.1330,-28.8881
18.1342,-28.8872
18.2282,-28.8151
18.2322,-28.8128
18.2445,-28.8047
18.2577,-28.7948
18.3293,-28.7557
18.3611,-28.7383
18.3637,-28.7369
18.4553,-28.6840
18.4553,-28.6840
18.4712,-28.6774
18.4832,-28.6716
18.5088,-28.6576
18.6074,-28.6209
18.6115,-28.6193
18.6976,-28.5836
18.6976,-28.5836
18.7162,-28.5786
18.7265,-28.5759
18.7377,-28.5723
18.7770,-28.5576
18.7770,-28.5576
18.7770,-28.5576
18.8556,-28.5405
18.8673,-28.5380
18.8674,-28.5380
18.8731,-28.5366
18.9509,-28.5157
18.9931,-28.5102
19.0032,-28.5084
19.0566,-28.4968
19.1362,-28.4911
19.1435,-28.4904
19.2109,-28.4815
19.2661,-28.4815
19.2750,-28.4812
19.3420,-28.4764
19.3420,-28.4764
19.3420,-28.4764
19.4090,-28.4812
19.4179,-28.4815
19.4731,-28.4815
19.4731,-28.4815
19.5404,-28.4904
19.5478,-28.4911
19.6274,-28.4968
19.6808,-28.5084
19.6909,-28.5102
19.7331,-28.5157
19.8109,-28.5366
19.8166,-28.5380
19.9070,-28.5576
19.9463,-28.5723
19.9575,-28.5759
19.9864,-28.5836
20.0131,-28.5947
20.0725,-28.6193
20.0766,-28.6209
20.0884,-28.6253
20.1581,-28.6303
20.2194,-28.5968
20.2529,-28.5354
20.2523,-28.4801
20.2339,-28.4033
20.2147,-28.1600
20.2339,-27.9167
20.2908,-27.6794
20.3842,-27.4539
20.5117,-27.2458
20.5117,-27.2458
20.6702,-27.0602
20.6702,-27.0602
20.7168,-27.0205
20.7550,-26.9620
20.7555,-26.8921
20.7181,-26.8331
20.7014,-26.8206
20.6763,-26.8052
20.6763,-26.8052
20.5523,-26.6812
20.4602,-26.5318
20.4602,-26.5318
20.4050,-26.3653
20.4050,-26.3653
20.4050,-26.3653
20.3945,-26.2625
20.3945,-25.5375
20.3945,-25.5375
20.4050,-25.4347
20.4050,-25.4347
20.4602,-25.2682
20.4602,-25.2682
20.4709,-25.2507
20.5523,-25.1188
20.6763,-24.9948
20.8257,-24.9027
20.9922,-24.8475
21.0950,-24.8370
22.4450,-24.8370
22.5478,-24.8475
22.7143,-24.9027
22.8637,-24.9948
22.9523,-25.0835
23.0136,-25.1169
23.0833,-25.1120
23.1277,-25.0835
23.2163,-24.9948
23.3657,-24.9027
23.5322,-24.8475
23.6350,-24.8370
24.9850,-24.8370
25.0878,-24.8475
25.2543,-24.9027
25.4037,-24.9948
25.5236,-25.1147
25.5849,-25.1482
25.6546,-25.1432
25.6989,-25.1147
25.7563,-25.0573
25.9057,-24.9652
26.0722,-24.9100
26.1750,-24.8995
27.5250,-24.8995
27.6278,-24.9100
27.7943,-24.9652
27.9437,-25.0573
28.0677,-25.1813
28.0975,-25.2296
28.1494,-25.2763
28.2184,-25.2875
28.2825,-25.2597
28.3213,-25.2016
28.3270,-25.1645
28.3270,-24.2250
28.3270,-24.2250
28.3375,-24.1222
28.3375,-24.1222
28.3927,-23.9557
28.3927,-23.9557
28.4848,-23.8063
28.5290,-23.7622
28.5624,-23.7009
28.5575,-23.6312
28.5156,-23.5752
28.4501,-23.5508
28.4413,-23.5505
28.2887,-23.5505
28.2217,-23.5702
28.1759,-23.6230
28.1710,-23.6355
28.1665,-23.6492
28.1598,-23.6693
28.0677,-23.8187
27.9437,-23.9427
27.7943,-24.0348
27.6278,-24.0900
27.6278,-24.0900
27.5250,-24.1005
26.1750,-24.1005
26.1750,-24.1005
26.0722,-24.0900
26.0722,-24.0900
25.9057,-24.0348
25.9057,-24.0348
25.7563,-23.9427
25.6364,-23.8228
25.5751,-23.7893
25.5054,-23.7943
25.4611,-23.8228
25.4037,-23.8802
25.4037,-23.8802
25.2543,-23.9723
25.0878,-24.0275
25.0878,-24.0275
24.9850,-24.0380
23.6350,-24.0380
23.6350,-24.0380
23.5322,-24.0275
23.5322,-24.0275
23.3657,-23.9723
23.3657,-23.9723
23.2163,-23.8802
23.1277,-23.7915
23.0664,-23.7581
22.9967,-23.7630
22.9523,-23.7915
22.8637,-23.8802
22.8637,-23.8802
22.7143,-23.9723
22.5478,-24.0275
22.5478,-24.0275
22.4450,-24.0380
21.0950,-24.0380
21.0950,-24.0380
20.9922,-24.0275
20.9922,-24.0275
20.8257,-23.9723
20.8257,-23.9723
20.6763,-23.8802
20.5523,-23.7562
20.4602,-23.6068
20.4602,-23.6068
20.4416,-23.5508
20.4050,-23.4403
20.4050,-23.4403
20.4050,-23.4403
20.3945,-23.3375
20.3945,-22.6125
20.3945,-22.6125
20.4050,-22.5097
20.4050,-22.5097
20.4249,-22.4495
20.4602,-22.3432
20.5523,-22.1938
20.6763,-22.0698
20.8257,-21.9777
20.9922,-21.9225
21.0950,-21.9120
21.7203,-21.9120
21.7873,-21.8923
21.8079,-21.8757
24.9620,-18.7216
25.0483,-18.6353
25.0666,-18.6170
25.1895,-18.5349
25.1895,-18.5349
25.3302,-18.4766
25.3846,-18.4328
25.4067,-18.3665
25.3894,-18.2988
25.3633,-18.2678
25.2602,-18.1798
25.1843,-18.0908
25.1258,-18.0526
25.0559,-18.0521
24.9969,-18.0895
24.9957,-18.0908
24.9516,-18.1425
24.9198,-18.1798
24.7971,-18.2846
24.7342,-18.3383
24.7342,-18.3383
24.5261,-18.4658
24.3006,-18.5592
24.3006,-18.5592
24.1950,-18.5845
24.0633,-18.6161
24.0633,-18.6161
24.0633,-18.6161
23.8200,-18.6353
23.5767,-18.6161
23.3394,-18.5592
23.1139,-18.4658
22.9058,-18.3383
22.9058,-18.3383
22.7202,-18.1798
22.5981,-18.0367
22.5756,-18.0221
21.6800,-17.1264
21.6800,-17.1327
21.6527,-17.2344
21.6001,-17.3256
21.5256,-17.4001
21.4344,-17.4527
21.3327,-17.4800
21.3264,-17.4800
22.1879,-18.3415
21.9859,-18.4653
21.7605,-18.5587
21.5232,-18.6157
21.5232,-18.6157
21.2800,-18.6348
21.0368,-18.6157
20.7995,-18.5587
20.5741,-18.4653
20.3721,-18.3415
21.2336,-17.4800
21.2273,-17.4800
21.1256,-17.4527
21.0344,-17.4001
20.9599,-17.3256
20.9073,-17.2344
20.8800,-17.1327
20.8800,-17.1264
19.9964,-18.0100
19.9619,-18.0367
19.9488,-18.0521
19.8398,-18.1798
19.7171,-18.2846
19.6542,-18.3383
19.6542,-18.3383
19.5497,-18.4023
19.5028,-18.4541
19.4905,-18.5080
19.4905,-19.0821
19.5102,-19.1492
19.5630,-19.1949
19.5712,-19.1983
19.5923,-19.2062
19.5923,-19.2062
19.5923,-19.2062
19.7075,-19.2925
19.7938,-19.4077
19.8441,-19.5425
19.8505,-19.6021
19.8505,-21.7979
19.8441,-21.8575
19.8373,-21.8757
19.7938,-21.9923
19.7938,-21.9923
19.7075,-22.1075
19.7075,-22.1075
19.5923,-22.1938
19.5923,-22.1938
19.4575,-22.2441
19.4575,-22.2441
19.3979,-22.2505
19.3979,-22.2505
19.3979,-22.2505
19.3979,-22.2505
17.8622,-22.2505
17.7952,-22.2702
17.7745,-22.2868
13.6868,-26.3745
13.6533,-26.4359
13.6505,-26.4622
13.6505,-31.1255
13.6702,-31.1925
13.7230,-31.2383
13.7745,-31.2495
13.7907,-31.2495
13.7907,-31.2495
13.8276,-31.2524
13.8276,-31.2524
13.8276,-31.2524
13.8692,-31.2645
13.9854,-31.2983
14.1269,-31.3819
14.2431,-31.4981
14.3267,-31.6396
14.3720,-31.7954
14.3726,-31.7974
14.3726,-31.7974
14.3755,-31.8343
14.3755,-31.8343
14.3755,-32.2657
14.3726,-32.3026
14.3267,-32.4604
14.2431,-32.6019
14.2431,-32.6019
14.2383,-32.6080
14.2408,-32.6099
14.2142,-32.6586
14.2191,-32.7283
14.2399,-32.7607
14.2383,-32.7620
14.2431,-32.7681
14.2431,-32.7681
14.3267,-32.9096
14.3726,-33.0674
14.3755,-33.1043
14.3755,-33.5357
14.3726,-33.5726
14.3726,-33.5726
14.3411,-33.6809
14.3413,-33.7508
14.3793,-33.8094
14.4429,-33.8383
14.4602,-33.8395
16.0478,-33.8395
Z" /> 
<path style="fill:#000000; fill-opacity:1.0000; stroke:none;fill-rule:evenodd;"
d="M 13.4619,-43.3298
13.5077,-43.2770
13.5176,-43.2079
13.4886,-43.1443
13.4600,-43.1200
13.4575,-43.1185
13.4563,-43.1177
13.3323,-42.9937
13.2402,-42.8443
13.2402,-42.8443
13.2041,-42.7355
13.1643,-42.6781
13.0998,-42.6512
13.0864,-42.6505
12.4261,-42.6505
12.2811,-42.6217
12.2811,-42.6217
12.1445,-42.5651
12.1445,-42.5651
12.0216,-42.4830
12.0216,-42.4829
10.7170,-41.1784
10.7062,-41.1622
10.6760,-41.1170
10.6349,-41.0555
10.6349,-41.0555
10.5783,-40.9189
10.5783,-40.9189
10.5495,-40.7739
10.5495,-34.0759
10.5298,-34.0088
10.4770,-33.9631
10.4079,-33.9531
10.3443,-33.9821
10.3224,-34.0070
10.2580,-34.1034
10.2125,-34.1489
10.1534,-34.2080
9.4055,-34.9559
9.3794,-34.9943
9.3767,-35.0004
9.2931,-35.1419
9.2883,-35.1480
9.2907,-35.1499
9.2642,-35.1986
9.2691,-35.2683
9.2899,-35.3007
9.2883,-35.3020
9.2931,-35.3081
9.2931,-35.3081
9.3767,-35.4496
9.4226,-35.6074
9.4255,-35.6443
9.4255,-36.0757
9.4226,-36.1126
9.4063,-36.1688
9.3767,-36.2704
9.3767,-36.2704
9.3767,-36.2704
9.2931,-36.4119
9.2931,-36.4119
9.2883,-36.4180
9.2907,-36.4199
9.2642,-36.4686
9.2691,-36.5383
9.2899,-36.5707
9.2883,-36.5720
9.2931,-36.5781
9.2931,-36.5781
9.3767,-36.7196
9.4226,-36.8774
9.4255,-36.9143
9.4255,-37.3457
9.4226,-37.3826
9.3767,-37.5404
9.2931,-37.6819
9.2931,-37.6819
9.2883,-37.6880
9.2907,-37.6899
9.2642,-37.7386
9.2691,-37.8083
9.2899,-37.8407
9.2883,-37.8420
9.2931,-37.8481
9.2931,-37.8481
9.3767,-37.9896
9.4226,-38.1474
9.4255,-38.1843
9.4255,-38.6157
9.4226,-38.6526
9.4088,-38.7000
9.3767,-38.8104
9.3767,-38.8104
9.3767,-38.8104
9.2931,-38.9519
9.2931,-38.9519
9.2883,-38.9580
9.2906,-38.9598
9.2638,-39.0089
9.2688,-39.0786
9.2896,-39.1110
9.2879,-39.1123
9.2927,-39.1184
9.3763,-39.2598
9.4221,-39.4175
9.4223,-39.4200
9.4223,-39.4200
7.8240,-39.4200
7.7570,-39.4397
7.7112,-39.4925
7.7000,-39.5440
7.7000,-39.9200
8.2000,-39.9200
9.4223,-39.9200
9.4223,-39.9200
9.4221,-39.9225
9.3763,-40.0802
9.2927,-40.2216
9.2927,-40.2216
9.1766,-40.3377
9.1766,-40.3377
9.0352,-40.4213
9.0352,-40.4213
8.8775,-40.4671
8.8775,-40.4671
8.8406,-40.4700
8.2000,-40.4700
8.2000,-39.9200
7.7000,-39.9200
7.7000,-40.4700
7.3307,-40.4700
7.2637,-40.4897
7.2179,-40.5425
7.2080,-40.6116
7.2370,-40.6752
7.2430,-40.6817
9.8745,-43.3132
9.9359,-43.3467
9.9622,-43.3495
13.3949,-43.3495
Z" /> 
<path style="fill:#000000; fill-opacity:1.0000; stroke:none;fill-rule:evenodd;"
d="M 57.9430,-47.9803
57.9888,-47.9275
58.0000,-47.8760
58.0000,-0.1240
57.9803,-0.0570
57.9275,-0.0112
57.8760,0.0000
0.1240,0.0000
0.0570,-0.0197
0.0112,-0.0725
0.0000,-0.1240
0.0000,-3.8000
0.9944,-3.8000
0.9944,-3.8000
0.9992,-3.7330
0.9995,-3.7241
0.9995,-3.6689
1.0084,-3.6016
1.0091,-3.5942
1.0148,-3.5146
1.0148,-3.5146
1.0264,-3.4613
1.0282,-3.4511
1.0337,-3.4089
1.0546,-3.3311
1.0560,-3.3254
1.0756,-3.2350
1.0903,-3.1957
1.0939,-3.1845
1.1016,-3.1556
1.1373,-3.0695
1.1389,-3.0654
1.1756,-2.9668
1.1756,-2.9668
1.1896,-2.9412
1.1954,-2.9292
1.2020,-2.9133
1.2020,-2.9133
1.2549,-2.8217
1.2563,-2.8191
1.3128,-2.7157
1.3227,-2.7025
1.3308,-2.6902
1.3331,-2.6862
1.4053,-2.5921
1.4060,-2.5912
1.4843,-2.4866
1.4843,-2.4866
1.4843,-2.4866
1.6866,-2.2843
1.6866,-2.2843
1.6866,-2.2843
1.6866,-2.2843
1.6866,-2.2843
1.7910,-2.2061
1.7922,-2.2052
1.8862,-2.1331
1.8902,-2.1308
1.9025,-2.1227
1.9157,-2.1128
1.9873,-2.0737
2.0191,-2.0563
2.0217,-2.0549
2.1133,-2.0020
2.1133,-2.0020
2.1292,-1.9954
2.1412,-1.9896
2.1668,-1.9756
2.2654,-1.9389
2.2695,-1.9373
2.3556,-1.9016
2.3556,-1.9016
2.3742,-1.8966
2.3845,-1.8939
2.3957,-1.8903
2.4350,-1.8756
2.4350,-1.8756
2.4350,-1.8756
2.5136,-1.8585
2.5253,-1.8560
2.5254,-1.8560
2.5311,-1.8546
2.6089,-1.8337
2.6511,-1.8282
2.6612,-1.8264
2.7146,-1.8148
2.7942,-1.8091
2.8015,-1.8084
2.8689,-1.7995
2.9241,-1.7995
2.9330,-1.7992
3.0000,-1.7944
3.0000,-1.7944
3.0000,-1.7944
3.0670,-1.7992
3.0759,-1.7995
3.1311,-1.7995
3.1311,-1.7995
3.1984,-1.8084
3.2058,-1.8091
3.2854,-1.8148
3.3388,-1.8264
3.3489,-1.8282
3.3911,-1.8337
3.4689,-1.8546
3.4746,-1.8560
3.5650,-1.8756
3.6043,-1.8903
3.6155,-1.8939
3.6444,-1.9016
3.6711,-1.9127
3.7305,-1.9373
3.7346,-1.9389
3.8332,-1.9756
3.8588,-1.9896
3.8708,-1.9954
3.8867,-2.0020
3.9784,-2.0549
3.9809,-2.0563
4.0843,-2.1128
4.0975,-2.1227
4.1098,-2.1308
4.1138,-2.1331
4.2078,-2.2052
4.2089,-2.2060
4.3134,-2.2843
4.5157,-2.4866
4.5940,-2.5911
4.5948,-2.5922
4.6669,-2.6862
4.6692,-2.6902
4.6773,-2.7025
4.6872,-2.7157
4.7437,-2.8191
4.7451,-2.8216
4.7980,-2.9133
4.8046,-2.9292
4.8104,-2.9412
4.8244,-2.9668
4.8611,-3.0654
4.8627,-3.0695
4.8984,-3.1556
4.8984,-3.1556
4.8984,-3.1556
4.9061,-3.1845
4.9097,-3.1957
4.9244,-3.2350
4.9440,-3.3254
4.9454,-3.3311
4.9454,-3.3311
4.9663,-3.4089
4.9718,-3.4511
4.9736,-3.4612
4.9852,-3.5146
4.9909,-3.5942
4.9916,-3.6016
4.9916,-3.6016
5.0005,-3.6689
5.0005,-3.7241
5.0008,-3.7330
5.0056,-3.8000
5.0056,-3.8000
5.0008,-3.8670
5.0005,-3.8759
5.0005,-3.9311
5.0005,-3.9311
4.9916,-3.9985
4.9909,-4.0058
4.9852,-4.0854
4.9736,-4.1388
4.9718,-4.1489
4.9663,-4.1911
4.9454,-4.2689
4.9440,-4.2746
4.9244,-4.3650
4.9244,-4.3650
4.9097,-4.4043
4.9061,-4.4155
4.8984,-4.4444
4.8984,-4.4444
4.8627,-4.5305
4.8611,-4.5346
4.8244,-4.6332
4.8104,-4.6588
4.8046,-4.6708
4.7980,-4.6867
4.7980,-4.6867
4.7451,-4.7783
4.7437,-4.7809
4.6872,-4.8843
4.6872,-4.8843
4.6872,-4.8843
4.6872,-4.8843
4.6791,-4.8952
4.6547,-4.9607
4.6695,-5.0289
4.7189,-5.0783
4.7784,-5.0935
12.6298,-5.0935
12.6968,-5.0738
12.7175,-5.0572
16.2190,-1.5556
16.3236,-1.4510
16.3236,-1.4510
16.3236,-1.4510
16.4465,-1.3689
16.4465,-1.3689
16.5031,-1.3455
16.5031,-1.3455
16.5831,-1.3123
16.6992,-1.2892
16.7185,-1.2854
16.7281,-1.2835
16.7281,-1.2835
42.1079,-1.2835
42.2055,-1.3029
42.2529,-1.3123
42.3895,-1.3689
42.4387,-1.4018
42.5124,-1.4510
44.8614,-3.8000
52.9944,-3.8000
52.9944,-3.8000
52.9992,-3.7330
52.9995,-3.7241
52.9995,-3.6689
53.0084,-3.6016
53.0091,-3.5942
53.0148,-3.5146
53.0148,-3.5146
53.0264,-3.4613
53.0282,-3.4511
53.0337,-3.4089
53.0546,-3.3311
53.0560,-3.3254
53.0756,-3.2350
53.0903,-3.1957
53.0939,-3.1845
53.1016,-3.1556
53.1373,-3.0695
53.1389,-3.0654
53.1756,-2.9668
53.1756,-2.9668
53.1896,-2.9412
53.1954,-2.9292
53.2020,-2.9133
53.2020,-2.9133
53.2549,-2.8217
53.2563,-2.8191
53.3128,-2.7157
53.3227,-2.7025
53.3308,-2.6902
53.3331,-2.6862
53.4053,-2.5921
53.4060,-2.5912
53.4843,-2.4866
53.4843,-2.4866
53.4843,-2.4866
53.6866,-2.2843
53.6866,-2.2843
53.6866,-2.2843
53.6866,-2.2843
53.6866,-2.2843
53.7910,-2.2061
53.7922,-2.2052
53.8862,-2.1331
53.8902,-2.1308
53.9025,-2.1227
53.9157,-2.1128
53.9873,-2.0737
54.0191,-2.0563
54.0217,-2.0549
54.1133,-2.0020
54.1133,-2.0020
54.1292,-1.9954
54.1412,-1.9896
54.1668,-1.9756
54.2654,-1.9389
54.2695,-1.9373
54.3556,-1.9016
54.3556,-1.9016
54.3742,-1.8966
54.3845,-1.8939
54.3957,-1.8903
54.4350,-1.8756
54.4350,-1.8756
54.4350,-1.8756
54.5136,-1.8585
54.5253,-1.8560
54.5254,-1.8560
54.5311,-1.8546
54.6089,-1.8337
54.6511,-1.8282
54.6612,-1.8264
54.7146,-1.8148
54.7942,-1.8091
54.8015,-1.8084
54.8689,-1.7995
54.9241,-1.7995
54.9330,-1.7992
55.0000,-1.7944
55.0000,-1.7944
55.0000,-1.7944
55.0670,-1.7992
55.0759,-1.7995
55.1311,-1.7995
55.1311,-1.7995
55.1984,-1.8084
55.2058,-1.8091
55.2854,-1.8148
55.3388,-1.8264
55.3489,-1.8282
55.3911,-1.8337
55.4689,-1.8546
55.4746,-1.8560
55.5650,-1.8756
55.6043,-1.8903
55.6155,-1.8939
55.6444,-1.9016
55.6711,-1.9127
55.7305,-1.9373
55.7346,-1.9389
55.8332,-1.9756
55.8588,-1.9896
55.8708,-1.9954
55.8867,-2.0020
55.9784,-2.0549
55.9809,-2.0563
56.0843,-2.1128
56.0975,-2.1227
56.1098,-2.1308
56.1138,-2.1331
56.2078,-2.2052
56.2089,-2.2060
56.3134,-2.2843
56.5157,-2.4866
56.5940,-2.5911
56.5948,-2.5922
56.6669,-2.6862
56.6692,-2.6902
56.6773,-2.7025
56.6872,-2.7157
56.7437,-2.8191
56.7451,-2.8216
56.7980,-2.9133
56.8046,-2.9292
56.8104,-2.9412
56.8244,-2.9668
56.8611,-3.0654
56.8627,-3.0695
56.8984,-3.1556
56.8984,-3.1556
56.8984,-3.1556
56.9061,-3.1845
56.9097,-3.1957
56.9244,-3.2350
56.9440,-3.3254
56.9454,-3.3311
56.9454,-3.3311
56.9663,-3.4089
56.9718,-3.4511
56.9736,-3.4612
56.9852,-3.5146
56.9909,-3.5942
56.9916,-3.6016
56.9916,-3.6016
57.0005,-3.6689
57.0005,-3.7241
57.0008,-3.7330
57.0056,-3.8000
57.0056,-3.8000
57.0008,-3.8670
57.0005,-3.8759
57.0005,-3.9311
57.0005,-3.9311
56.9916,-3.9985
56.9909,-4.0058
56.9852,-4.0854
56.9736,-4.1388
56.9718,-4.1489
56.9663,-4.1911
56.9454,-4.2689
56.9440,-4.2746
56.9244,-4.3650
56.9244,-4.3650
56.9097,-4.4043
56.9061,-4.4155
56.8984,-4.4444
56.8984,-4.4444
56.8627,-4.5305
56.8611,-4.5346
56.8244,-4.6332
56.8104,-4.6588
56.8046,-4.6708
56.7980,-4.6867
56.7980,-4.6867
56.7451,-4.7783
56.7437,-4.7809
56.6872,-4.8843
56.6872,-4.8843
56.6773,-4.8975
56.6692,-4.9098
56.6677,-4.9124
56.6669,-4.9138
56.6669,-4.9138
56.6669,-4.9138
56.5948,-5.0078
56.5939,-5.0090
56.5157,-5.1134
56.5157,-5.1134
56.5157,-5.1134
56.5157,-5.1134
56.5157,-5.1134
56.3134,-5.3157
56.3134,-5.3157
56.3134,-5.3157
56.2088,-5.3940
56.2079,-5.3947
56.1138,-5.4669
56.1098,-5.4692
56.0975,-5.4773
56.0843,-5.4872
55.9809,-5.5437
55.9783,-5.5451
55.8867,-5.5980
55.8867,-5.5980
55.8708,-5.6046
55.8588,-5.6104
55.8332,-5.6244
55.8332,-5.6244
55.8332,-5.6244
55.7346,-5.6611
55.7305,-5.6627
55.6444,-5.6984
55.6155,-5.7061
55.6043,-5.7097
55.5650,-5.7244
55.4746,-5.7440
55.4689,-5.7454
55.3911,-5.7663
55.3911,-5.7663
55.3911,-5.7663
55.3695,-5.7691
55.3489,-5.7718
55.3387,-5.7736
55.2854,-5.7852
55.2854,-5.7852
55.2058,-5.7909
55.1984,-5.7916
55.1311,-5.8005
55.1311,-5.8005
55.0759,-5.8005
55.0670,-5.8008
55.0000,-5.8056
55.0000,-5.8056
54.9330,-5.8008
54.9241,-5.8005
54.8689,-5.8005
54.8016,-5.7916
54.7942,-5.7909
54.7146,-5.7852
54.7146,-5.7852
54.6613,-5.7736
54.6511,-5.7718
54.6089,-5.7663
54.5311,-5.7454
54.5254,-5.7440
54.4350,-5.7244
54.4349,-5.7244
54.3957,-5.7097
54.3845,-5.7061
54.3556,-5.6984
54.3556,-5.6984
54.2695,-5.6627
54.2654,-5.6611
54.1668,-5.6244
54.1668,-5.6244
54.1412,-5.6104
54.1292,-5.6046
54.1133,-5.5980
54.0217,-5.5451
54.0191,-5.5437
53.9157,-5.4872
53.9025,-5.4773
53.8902,-5.4692
53.8862,-5.4669
53.8862,-5.4669
53.7922,-5.3948
53.7910,-5.3939
53.6866,-5.3157
53.6866,-5.3157
53.4843,-5.1134
53.4843,-5.1134
53.4061,-5.0090
53.4052,-5.0078
53.3331,-4.9138
53.3331,-4.9138
53.3308,-4.9098
53.3227,-4.8975
53.3128,-4.8843
53.2563,-4.7809
53.2549,-4.7783
53.2020,-4.6867
53.1954,-4.6708
53.1896,-4.6588
53.1756,-4.6332
53.1756,-4.6332
53.1389,-4.5346
53.1372,-4.5305
53.1016,-4.4444
53.1016,-4.4444
53.0939,-4.4155
53.0903,-4.4043
53.0756,-4.3651
53.0756,-4.3650
53.0560,-4.2746
53.0546,-4.2689
53.0337,-4.1911
53.0282,-4.1489
53.0264,-4.1387
53.0148,-4.0854
53.0148,-4.0854
53.0091,-4.0058
53.0084,-3.9984
52.9995,-3.9311
52.9995,-3.8759
52.9992,-3.8670
52.9944,-3.8000
44.8614,-3.8000
45.9830,-4.9216
46.0401,-5.0070
46.0406,-5.0078
46.0442,-5.0133
46.0651,-5.0445
46.1217,-5.1811
46.1405,-5.2757
46.1505,-5.3261
46.1505,-11.0100
49.6578,-11.0100
51.0600,-11.0100
51.0350,-10.9496
51.0100,-10.8240
51.0100,-10.6960
51.0350,-10.5704
51.0600,-10.5100
49.6578,-10.5100
49.6711,-10.4263
49.7404,-10.2130
49.7404,-10.2130
49.8422,-10.0131
49.9741,-9.8317
49.9741,-9.8317
50.1327,-9.6731
50.3141,-9.5412
50.5140,-9.4394
50.5140,-9.4394
50.7273,-9.3701
50.9489,-9.3350
51.4100,-9.3350
51.4100,-10.1600
51.4704,-10.1350
51.5960,-10.1100
51.7240,-10.1100
51.8496,-10.1350
51.9100,-10.1600
51.9100,-9.3350
52.3711,-9.3350
52.5927,-9.3701
52.8060,-9.4394
52.8060,-9.4394
53.0059,-9.5412
53.1873,-9.6731
53.1873,-9.6731
53.3459,-9.8317
53.3459,-9.8317
53.4778,-10.0131
53.5796,-10.2130
53.5796,-10.2130
53.6489,-10.4263
53.6622,-10.5100
52.2600,-10.5100
52.2850,-10.5704
52.3100,-10.6960
52.3100,-10.8240
52.2850,-10.9496
52.2600,-11.0100
53.6622,-11.0100
53.6489,-11.0937
53.5796,-11.3070
53.5796,-11.3070
53.4778,-11.5069
53.3459,-11.6883
53.3459,-11.6883
53.1873,-11.8469
53.0059,-11.9788
52.8060,-12.0806
52.8060,-12.0806
52.5927,-12.1499
52.3711,-12.1850
51.9100,-12.1850
51.9100,-11.3600
51.8496,-11.3850
51.7240,-11.4100
51.5960,-11.4100
51.4704,-11.3850
51.4100,-11.3600
51.4100,-12.1850
50.9489,-12.1850
50.7273,-12.1499
50.5140,-12.0806
50.5140,-12.0806
50.3141,-11.9788
50.1327,-11.8469
50.1327,-11.8469
49.9741,-11.6883
49.9741,-11.6883
49.8422,-11.5069
49.7404,-11.3070
49.7404,-11.3070
49.6711,-11.0937
49.6578,-11.0100
46.1505,-11.0100
46.1505,-14.0220
46.1702,-14.0890
46.2097,-14.1277
46.2576,-14.1571
46.3142,-14.1917
46.4998,-14.3502
46.6583,-14.5358
46.7858,-14.7439
46.8792,-14.9694
46.9361,-15.2067
46.9553,-15.4500
46.9361,-15.6933
46.8792,-15.9306
46.8524,-15.9953
46.7858,-16.1561
46.6583,-16.3642
46.6583,-16.3642
46.6225,-16.4061
46.4998,-16.5498
46.3371,-16.6886
46.3142,-16.7083
46.3142,-16.7083
46.1061,-16.8358
45.8806,-16.9292
45.8806,-16.9292
45.6966,-16.9733
45.6433,-16.9861
45.6433,-16.9861
45.6433,-16.9861
45.4000,-17.0053
45.1567,-16.9861
44.9194,-16.9292
44.6939,-16.8358
44.4858,-16.7083
44.4858,-16.7083
44.3550,-16.5966
44.2913,-16.5680
44.2222,-16.5784
44.1697,-16.6246
44.1505,-16.6908
44.1505,-30.8888
44.1702,-30.9558
44.2230,-31.0016
44.2921,-31.0115
44.3557,-30.9825
44.3622,-30.9765
46.3132,-29.0255
46.3467,-28.9641
46.3495,-28.9378
46.3495,-20.2461
46.3495,-20.2461
46.3495,-20.2461
46.3783,-20.1011
46.3783,-20.1011
46.4349,-19.9645
46.4349,-19.9645
46.4443,-19.9505
46.5170,-19.8416
46.5171,-19.8416
49.7814,-16.5773
49.8149,-16.5159
49.8099,-16.4462
49.8042,-16.4333
49.7399,-16.3072
49.6706,-16.0938
49.6355,-15.8722
49.6355,-15.6478
49.6706,-15.4262
49.7399,-15.2128
49.8418,-15.0129
49.9737,-14.8314
49.9737,-14.8314
50.1323,-14.6727
50.1324,-14.6727
50.2240,-14.6061
50.3139,-14.5408
50.4413,-14.4759
50.5138,-14.4389
50.5138,-14.4389
50.5138,-14.4389
50.6282,-14.4018
50.7272,-14.3696
50.9488,-14.3345
50.9488,-14.3345
52.3712,-14.3345
52.5928,-14.3696
52.6267,-14.3806
52.8062,-14.4389
53.0061,-14.5408
53.1877,-14.6727
53.3463,-14.8313
53.4782,-15.0129
53.5801,-15.2128
53.6494,-15.4262
53.6613,-15.5015
53.6845,-15.6478
53.6845,-15.8722
53.6494,-16.0938
53.6125,-16.2075
53.5801,-16.3072
53.5801,-16.3072
53.5801,-16.3072
53.5145,-16.4359
53.4782,-16.5071
53.4403,-16.5593
53.3463,-16.6886
53.3463,-16.6886
53.1876,-16.8473
53.1876,-16.8473
53.0061,-16.9792
53.0061,-16.9792
53.0061,-16.9792
52.9437,-17.0110
52.8062,-17.0811
52.5928,-17.1504
52.3712,-17.1855
52.3712,-17.1855
51.3472,-17.1855
51.2802,-17.2052
51.2595,-17.2218
47.8868,-20.5945
47.8533,-20.6559
47.8505,-20.6822
47.8505,-28.9888
47.8702,-29.0558
47.9230,-29.1016
47.9921,-29.1115
48.0557,-29.0825
48.0622,-29.0765
52.3771,-24.7615
52.4106,-24.7002
52.4056,-24.6305
52.3637,-24.5746
52.3027,-24.5506
52.2425,-24.5441
52.1077,-24.4938
52.1077,-24.4938
51.9925,-24.4075
51.9925,-24.4075
51.9062,-24.2923
51.9062,-24.2923
51.8559,-24.1575
51.8498,-24.1005
51.8495,-24.0979
51.8495,-24.0979
51.8495,-21.9021
51.8495,-21.9021
51.8559,-21.8425
51.9062,-21.7077
51.9062,-21.7077
51.9925,-21.5925
51.9925,-21.5925
52.1077,-21.5062
52.1077,-21.5062
52.2425,-21.4559
52.2425,-21.4559
52.2494,-21.4552
52.3021,-21.4495
54.4979,-21.4495
54.5575,-21.4559
54.6923,-21.5062
54.8075,-21.5925
54.8938,-21.7077
54.9441,-21.8425
54.9505,-21.9021
54.9505,-24.0979
54.9441,-24.1575
54.8938,-24.2923
54.8938,-24.2923
54.8938,-24.2923
54.8075,-24.4075
54.8075,-24.4075
54.6923,-24.4938
54.6923,-24.4938
54.5575,-24.5441
54.5575,-24.5441
54.4979,-24.5505
54.4979,-24.5505
54.4979,-24.5505
54.4979,-24.5505
54.2745,-24.5505
54.2075,-24.5702
54.1617,-24.6230
54.1505,-24.6745
54.1505,-24.8739
54.1217,-25.0189
54.1217,-25.0189
54.1217,-25.0189
54.1164,-25.0316
54.0651,-25.1555
54.0651,-25.1555
54.0120,-25.2349
53.9898,-25.2682
53.9830,-25.2784
45.1125,-34.1489
45.0790,-34.2102
45.0840,-34.2799
45.1259,-34.3358
45.1913,-34.3602
45.2099,-34.3602
45.4000,-34.3452
45.6432,-34.3643
45.8805,-34.4213
46.1059,-34.5147
46.3079,-34.6385
46.3079,-34.6385
45.4464,-35.5000
45.4527,-35.5000
45.5544,-35.5273
45.6456,-35.5799
45.7201,-35.6544
45.7727,-35.7456
45.8000,-35.8473
45.8000,-35.8536
46.6615,-34.9921
46.6615,-34.9921
46.7853,-35.1941
46.8787,-35.4195
46.9357,-35.6568
46.9548,-35.9000
46.9357,-36.1432
46.8787,-36.3805
46.7853,-36.6059
46.6615,-36.8079
45.8000,-35.9464
45.8000,-35.9527
45.7727,-36.0544
45.7201,-36.1456
45.6456,-36.2201
45.5544,-36.2727
45.4527,-36.3000
45.4464,-36.3000
46.3079,-37.1615
46.1059,-37.2853
45.8805,-37.3787
45.6432,-37.4357
45.6432,-37.4357
45.4000,-37.4548
45.1568,-37.4357
44.9195,-37.3787
44.6941,-37.2853
44.4921,-37.1615
45.3536,-36.3000
45.3473,-36.3000
45.2456,-36.2727
45.1544,-36.2201
45.0799,-36.1456
45.0273,-36.0544
45.0000,-35.9527
45.0000,-35.9464
44.1385,-36.8079
44.0147,-36.6059
43.9213,-36.3805
43.8643,-36.1432
43.8452,-35.9000
43.8602,-35.7099
43.8458,-35.6415
43.7968,-35.5918
43.7286,-35.5764
43.6629,-35.6004
43.6489,-35.6125
38.4784,-40.7829
38.4784,-40.7830
38.4047,-40.8322
38.4047,-40.8322
38.3555,-40.8651
38.2189,-40.9217
38.2189,-40.9217
38.0739,-40.9505
38.0739,-40.9505
35.9695,-40.9505
35.9025,-40.9702
35.8567,-41.0230
35.8455,-41.0745
35.8455,-41.6250
35.8455,-41.6250
35.8350,-41.7278
35.8350,-41.7278
35.7963,-41.8447
35.7798,-41.8943
35.6877,-42.0437
35.5869,-42.1444
35.5535,-42.2057
35.5584,-42.2754
35.5803,-42.3126
35.7283,-42.4858
35.8558,-42.6939
35.9492,-42.9194
36.0061,-43.1567
36.0253,-43.4000
36.0061,-43.6433
35.9492,-43.8806
35.9053,-43.9866
35.8558,-44.1061
35.7283,-44.3142
35.7283,-44.3142
35.6788,-44.3721
35.5698,-44.4998
35.3873,-44.6556
35.3842,-44.6583
35.3842,-44.6583
35.1761,-44.7858
34.9506,-44.8792
34.9506,-44.8792
34.8269,-44.9089
34.7133,-44.9361
34.7133,-44.9361
34.7133,-44.9361
34.4700,-44.9553
34.2267,-44.9361
34.2267,-44.9361
33.9956,-44.8807
33.9894,-44.8792
33.7639,-44.7858
33.5558,-44.6583
33.5558,-44.6583
33.3702,-44.4998
33.2943,-44.4108
33.2358,-44.3726
33.1659,-44.3721
33.1069,-44.4095
33.1057,-44.4108
33.0848,-44.4354
33.0298,-44.4998
32.8473,-44.6556
32.8442,-44.6583
32.8442,-44.6583
32.6361,-44.7858
32.6361,-44.7858
32.4106,-44.8792
32.4106,-44.8792
32.4072,-44.8800
32.4060,-44.8807
32.4060,-44.8807
32.4060,-44.8807
32.3485,-44.9129
31.9614,-45.3000
52.9944,-45.3000
52.9944,-45.3000
52.9992,-45.2330
52.9995,-45.2241
52.9995,-45.1689
53.0084,-45.1016
53.0091,-45.0942
53.0148,-45.0146
53.0148,-45.0146
53.0264,-44.9613
53.0282,-44.9511
53.0337,-44.9089
53.0546,-44.8311
53.0560,-44.8254
53.0756,-44.7350
53.0903,-44.6957
53.0939,-44.6845
53.1016,-44.6556
53.1373,-44.5695
53.1389,-44.5654
53.1634,-44.4998
53.1756,-44.4668
53.1756,-44.4668
53.1896,-44.4412
53.1954,-44.4292
53.2020,-44.4133
53.2020,-44.4133
53.2549,-44.3217
53.2563,-44.3191
53.3128,-44.2157
53.3227,-44.2025
53.3308,-44.1902
53.3331,-44.1862
53.4053,-44.0921
53.4060,-44.0912
53.4843,-43.9866
53.4843,-43.9866
53.4843,-43.9866
53.6866,-43.7843
53.6866,-43.7843
53.6866,-43.7843
53.6866,-43.7843
53.6866,-43.7843
53.7910,-43.7061
53.7922,-43.7052
53.8862,-43.6331
53.8902,-43.6308
53.9025,-43.6227
53.9157,-43.6128
53.9873,-43.5737
54.0191,-43.5563
54.0217,-43.5549
54.1133,-43.5020
54.1133,-43.5020
54.1292,-43.4954
54.1412,-43.4896
54.1668,-43.4756
54.2654,-43.4389
54.2695,-43.4373
54.3556,-43.4016
54.3556,-43.4016
54.3742,-43.3966
54.3845,-43.3939
54.3957,-43.3903
54.4350,-43.3756
54.4350,-43.3756
54.4350,-43.3756
54.5136,-43.3585
54.5253,-43.3560
54.5254,-43.3560
54.5311,-43.3546
54.6089,-43.3337
54.6511,-43.3282
54.6612,-43.3264
54.7146,-43.3148
54.7942,-43.3091
54.8015,-43.3084
54.8689,-43.2995
54.9241,-43.2995
54.9330,-43.2992
55.0000,-43.2944
55.0000,-43.2944
55.0000,-43.2944
55.0670,-43.2992
55.0759,-43.2995
55.1311,-43.2995
55.1311,-43.2995
55.1984,-43.3084
55.2058,-43.3091
55.2854,-43.3148
55.3388,-43.3264
55.3489,-43.3282
55.3911,-43.3337
55.4689,-43.3546
55.4746,-43.3560
55.5650,-43.3756
55.6043,-43.3903
55.6155,-43.3939
55.6444,-43.4016
55.6711,-43.4127
55.7305,-43.4373
55.7346,-43.4389
55.8332,-43.4756
55.8588,-43.4896
55.8708,-43.4954
55.8867,-43.5020
55.9784,-43.5549
55.9809,-43.5563
56.0843,-43.6128
56.0975,-43.6227
56.1098,-43.6308
56.1138,-43.6331
56.2078,-43.7052
56.2089,-43.7060
56.3134,-43.7843
56.5157,-43.9866
56.5940,-44.0911
56.5948,-44.0922
56.6055,-44.1061
56.6669,-44.1862
56.6692,-44.1901
56.6773,-44.2025
56.6872,-44.2157
56.7437,-44.3191
56.7451,-44.3216
56.7980,-44.4133
56.8046,-44.4292
56.8104,-44.4412
56.8244,-44.4668
56.8611,-44.5654
56.8627,-44.5695
56.8984,-44.6556
56.8984,-44.6556
56.8984,-44.6556
56.9061,-44.6845
56.9097,-44.6957
56.9244,-44.7350
56.9440,-44.8254
56.9454,-44.8311
56.9454,-44.8311
56.9663,-44.9089
56.9718,-44.9511
56.9736,-44.9612
56.9852,-45.0146
56.9909,-45.0942
56.9916,-45.1016
56.9916,-45.1016
57.0005,-45.1689
57.0005,-45.2241
57.0008,-45.2330
57.0056,-45.3000
57.0056,-45.3000
57.0008,-45.3670
57.0005,-45.3759
57.0005,-45.4311
57.0005,-45.4311
56.9916,-45.4985
56.9909,-45.5058
56.9852,-45.5854
56.9736,-45.6388
56.9718,-45.6489
56.9663,-45.6911
56.9454,-45.7689
56.9440,-45.7746
56.9244,-45.8650
56.9244,-45.8650
56.9097,-45.9043
56.9061,-45.9155
56.8984,-45.9444
56.8984,-45.9444
56.8627,-46.0305
56.8611,-46.0346
56.8244,-46.1332
56.8104,-46.1588
56.8046,-46.1708
56.7980,-46.1867
56.7980,-46.1867
56.7451,-46.2783
56.7437,-46.2809
56.6872,-46.3843
56.6872,-46.3843
56.6773,-46.3975
56.6692,-46.4098
56.6677,-46.4124
56.6669,-46.4138
56.6669,-46.4138
56.6669,-46.4138
56.5948,-46.5078
56.5939,-46.5090
56.5157,-46.6134
56.5157,-46.6134
56.5157,-46.6134
56.5157,-46.6134
56.5157,-46.6134
56.3134,-46.8157
56.3134,-46.8157
56.3134,-46.8157
56.2088,-46.8940
56.2079,-46.8947
56.1138,-46.9669
56.1098,-46.9692
56.0975,-46.9773
56.0843,-46.9872
55.9809,-47.0437
55.9783,-47.0451
55.8867,-47.0980
55.8867,-47.0980
55.8708,-47.1046
55.8588,-47.1104
55.8332,-47.1244
55.8332,-47.1244
55.8332,-47.1244
55.7346,-47.1611
55.7305,-47.1627
55.6444,-47.1984
55.6155,-47.2061
55.6043,-47.2097
55.5650,-47.2244
55.4746,-47.2440
55.4689,-47.2454
55.3911,-47.2663
55.3911,-47.2663
55.3911,-47.2663
55.3695,-47.2691
55.3489,-47.2718
55.3387,-47.2736
55.2854,-47.2852
55.2854,-47.2852
55.2058,-47.2909
55.1984,-47.2916
55.1311,-47.3005
55.1311,-47.3005
55.0759,-47.3005
55.0670,-47.3008
55.0000,-47.3056
55.0000,-47.3056
54.9330,-47.3008
54.9241,-47.3005
54.8689,-47.3005
54.8016,-47.2916
54.7942,-47.2909
54.7146,-47.2852
54.7146,-47.2852
54.6613,-47.2736
54.6511,-47.2718
54.6089,-47.2663
54.5311,-47.2454
54.5254,-47.2440
54.4350,-47.2244
54.4349,-47.2244
54.3957,-47.2097
54.3845,-47.2061
54.3556,-47.1984
54.3556,-47.1984
54.2695,-47.1627
54.2654,-47.1611
54.1668,-47.1244
54.1668,-47.1244
54.1412,-47.1104
54.1292,-47.1046
54.1133,-47.0980
54.1133,-47.0980
54.0217,-47.0451
54.0191,-47.0437
53.9157,-46.9872
53.9025,-46.9773
53.8902,-46.9692
53.8862,-46.9669
53.8862,-46.9669
53.7922,-46.8948
53.7910,-46.8939
53.6866,-46.8157
53.6866,-46.8157
53.4843,-46.6134
53.4843,-46.6134
53.4061,-46.5090
53.4052,-46.5078
53.3331,-46.4138
53.3331,-46.4138
53.3308,-46.4098
53.3227,-46.3975
53.3128,-46.3843
53.2563,-46.2809
53.2549,-46.2783
53.2020,-46.1867
53.1954,-46.1708
53.1896,-46.1588
53.1756,-46.1332
53.1756,-46.1332
53.1389,-46.0346
53.1372,-46.0305
53.1016,-45.9444
53.1016,-45.9444
53.0939,-45.9155
53.0903,-45.9043
53.0756,-45.8651
53.0756,-45.8650
53.0560,-45.7746
53.0546,-45.7689
53.0337,-45.6911
53.0282,-45.6489
53.0264,-45.6387
53.0148,-45.5854
53.0148,-45.5854
53.0091,-45.5058
53.0084,-45.4984
52.9995,-45.4311
52.9995,-45.3759
52.9992,-45.3670
52.9944,-45.3000
31.9614,-45.3000
30.1944,-47.0669
30.1944,-47.0670
30.1207,-47.1162
30.1207,-47.1162
30.0715,-47.1491
29.9349,-47.2057
29.9349,-47.2057
29.7899,-47.2345
29.7899,-47.2345
8.8101,-47.2345
8.8101,-47.2345
8.7812,-47.2288
8.7812,-47.2288
8.6651,-47.2057
8.6651,-47.2057
8.5851,-47.1725
8.5851,-47.1725
8.5576,-47.1611
8.5285,-47.1491
8.4620,-47.1046
8.4521,-47.0980
8.4056,-47.0670
8.4056,-47.0669
3.5171,-42.1784
3.5170,-42.1784
3.4773,-42.1189
3.4773,-42.1189
3.4349,-42.0555
3.3783,-41.9189
3.3783,-41.9189
3.3495,-41.7739
3.3495,-41.7739
3.3495,-37.6261
3.3495,-37.6261
3.3495,-37.6261
3.3783,-37.4811
3.3783,-37.4811
3.4349,-37.3445
3.4349,-37.3445
3.4349,-37.3445
3.4378,-37.3402
3.4378,-37.3402
3.4378,-37.3402
3.5170,-37.2216
3.5171,-37.2216
5.4616,-35.2770
5.4616,-35.2770
5.4911,-35.2574
5.5353,-35.2278
5.5845,-35.1949
5.5845,-35.1949
5.5845,-35.1949
5.5845,-35.1949
5.7126,-35.1419
5.7211,-35.1383
5.7211,-35.1383
5.7211,-35.1383
5.8661,-35.1095
5.8661,-35.1095
5.8661,-35.1095
6.0139,-35.1095
6.3898,-35.1095
6.4568,-35.0898
6.5026,-35.0370
6.5125,-34.9679
6.5089,-34.9509
6.4774,-34.8426
6.4774,-34.8426
6.4745,-34.8057
6.4745,-34.3743
6.4774,-34.3374
6.4774,-34.3374
6.5233,-34.1796
6.5233,-34.1796
6.5233,-34.1796
6.5683,-34.1034
6.5732,-34.0951
6.5904,-34.0274
6.5683,-33.9611
6.5354,-33.9289
6.4966,-33.9030
2.8171,-30.2234
2.8170,-30.2234
2.7678,-30.1497
2.7678,-30.1497
2.7349,-30.1005
2.7349,-30.1005
2.6783,-29.9639
2.6783,-29.9639
2.6495,-29.8189
2.6495,-25.0745
2.6298,-25.0075
2.5770,-24.9617
2.5255,-24.9505
2.3021,-24.9505
2.3021,-24.9505
2.2425,-24.9441
2.1077,-24.8938
2.1077,-24.8938
1.9925,-24.8075
1.9925,-24.8075
1.9062,-24.6923
1.9062,-24.6923
1.8559,-24.5575
1.8495,-24.4979
1.8495,-24.4979
1.8495,-24.4979
1.8495,-22.3021
1.8495,-22.3021
1.8559,-22.2425
1.9062,-22.1077
1.9062,-22.1077
1.9925,-21.9925
1.9925,-21.9925
2.1077,-21.9062
2.1077,-21.9062
2.1421,-21.8934
2.2425,-21.8559
2.3021,-21.8495
2.5255,-21.8495
2.5925,-21.8298
2.6383,-21.7770
2.6495,-21.7255
2.6495,-16.3261
2.6495,-16.3261
2.6495,-16.3261
2.6783,-16.1811
2.6783,-16.1811
2.7349,-16.0445
2.7678,-15.9953
2.7678,-15.9953
2.8170,-15.9216
2.8171,-15.9216
3.8170,-14.9216
3.8716,-14.8670
3.9216,-14.8170
3.9799,-14.7781
4.0247,-14.7245
4.0334,-14.6551
4.0167,-14.6102
4.0142,-14.6061
4.0142,-14.6061
3.9208,-14.3806
3.8639,-14.1433
3.8580,-14.0694
3.8332,-14.0041
3.8221,-13.9915
2.4170,-12.5864
2.4170,-12.5864
2.3890,-12.5445
2.3890,-12.5445
2.3349,-12.4635
2.2783,-12.3269
2.2783,-12.3269
2.2495,-12.1819
2.2495,-12.1819
2.2495,-6.8721
2.2495,-6.8721
2.2495,-6.8721
2.2783,-6.7271
2.2783,-6.7271
2.3305,-6.6011
2.3349,-6.5905
2.3496,-6.5685
2.3569,-6.5577
2.4170,-6.4676
2.4171,-6.4676
2.8813,-6.0033
2.9148,-5.9420
2.9098,-5.8723
2.8679,-5.8164
2.8098,-5.7927
2.8016,-5.7916
2.7942,-5.7909
2.7146,-5.7852
2.7146,-5.7852
2.6613,-5.7736
2.6511,-5.7718
2.6089,-5.7663
2.5311,-5.7454
2.5254,-5.7440
2.4350,-5.7244
2.4349,-5.7244
2.3957,-5.7097
2.3845,-5.7061
2.3556,-5.6984
2.3556,-5.6984
2.2695,-5.6627
2.2654,-5.6611
2.1668,-5.6244
2.1668,-5.6244
2.1412,-5.6104
2.1292,-5.6046
2.1133,-5.5980
2.0217,-5.5451
2.0191,-5.5437
1.9157,-5.4872
1.9025,-5.4773
1.8902,-5.4692
1.8862,-5.4669
1.8862,-5.4669
1.7922,-5.3948
1.7910,-5.3939
1.6866,-5.3157
1.6866,-5.3157
1.4843,-5.1134
1.4843,-5.1134
1.4061,-5.0090
1.4052,-5.0078
1.3331,-4.9138
1.3331,-4.9138
1.3308,-4.9098
1.3227,-4.8975
1.3128,-4.8843
1.2563,-4.7809
1.2549,-4.7783
1.2020,-4.6867
1.1954,-4.6708
1.1896,-4.6588
1.1756,-4.6332
1.1756,-4.6332
1.1389,-4.5346
1.1372,-4.5305
1.1016,-4.4444
1.1016,-4.4444
1.0939,-4.4155
1.0903,-4.4043
1.0756,-4.3651
1.0756,-4.3650
1.0560,-4.2746
1.0546,-4.2689
1.0337,-4.1911
1.0282,-4.1489
1.0264,-4.1387
1.0148,-4.0854
1.0148,-4.0854
1.0091,-4.0058
1.0084,-3.9984
0.9995,-3.9311
0.9995,-3.8759
0.9992,-3.8670
0.9944,-3.8000
0.0000,-3.8000
0.0000,-45.3000
0.9944,-45.3000
0.9944,-45.3000
0.9992,-45.2330
0.9995,-45.2241
0.9995,-45.1689
1.0084,-45.1016
1.0091,-45.0942
1.0148,-45.0146
1.0148,-45.0146
1.0264,-44.9613
1.0282,-44.9511
1.0337,-44.9089
1.0546,-44.8311
1.0560,-44.8254
1.0756,-44.7350
1.0903,-44.6957
1.0939,-44.6845
1.1016,-44.6556
1.1373,-44.5695
1.1389,-44.5654
1.1634,-44.4998
1.1756,-44.4668
1.1756,-44.4668
1.1896,-44.4412
1.1954,-44.4292
1.2020,-44.4133
1.2020,-44.4133
1.2549,-44.3217
1.2563,-44.3191
1.3128,-44.2157
1.3227,-44.2025
1.3308,-44.1902
1.3331,-44.1862
1.4053,-44.0921
1.4060,-44.0912
1.4843,-43.9866
1.4843,-43.9866
1.4843,-43.9866
1.6866,-43.7843
1.6866,-43.7843
1.6866,-43.7843
1.6866,-43.7843
1.6866,-43.7843
1.7910,-43.7061
1.7922,-43.7052
1.8862,-43.6331
1.8902,-43.6308
1.9025,-43.6227
1.9157,-43.6128
1.9873,-43.5737
2.0191,-43.5563
2.0217,-43.5549
2.1133,-43.5020
2.1133,-43.5020
2.1292,-43.4954
2.1412,-43.4896
2.1668,-43.4756
2.2654,-43.4389
2.2695,-43.4373
2.3556,-43.4016
2.3556,-43.4016
2.3742,-43.3966
2.3845,-43.3939
2.3957,-43.3903
2.4350,-43.3756
2.4350,-43.3756
2.4350,-43.3756
2.5136,-43.3585
2.5253,-43.3560
2.5254,-43.3560
2.5311,-43.3546
2.6089,-43.3337
2.6511,-43.3282
2.6612,-43.3264
2.7146,-43.3148
2.7942,-43.3091
2.8015,-43.3084
2.8689,-43.2995
2.9241,-43.2995
2.9330,-43.2992
3.0000,-43.2944
3.0000,-43.2944
3.0000,-43.2944
3.0670,-43.2992
3.0759,-43.2995
3.1311,-43.2995
3.1311,-43.2995
3.1984,-43.3084
3.2058,-43.3091
3.2854,-43.3148
3.3388,-43.3264
3.3489,-43.3282
3.3911,-43.3337
3.4689,-43.3546
3.4746,-43.3560
3.5650,-43.3756
3.6043,-43.3903
3.6155,-43.3939
3.6444,-43.4016
3.6711,-43.4127
3.7305,-43.4373
3.7346,-43.4389
3.8332,-43.4756
3.8588,-43.4896
3.8708,-43.4954
3.8867,-43.5020
3.9784,-43.5549
3.9809,-43.5563
4.0843,-43.6128
4.0975,-43.6227
4.1098,-43.6308
4.1138,-43.6331
4.2078,-43.7052
4.2089,-43.7060
4.3134,-43.7843
4.5157,-43.9866
4.5940,-44.0911
4.5948,-44.0922
4.6055,-44.1061
4.6669,-44.1862
4.6692,-44.1901
4.6773,-44.2025
4.6872,-44.2157
4.7437,-44.3191
4.7451,-44.3216
4.7980,-44.4133
4.8046,-44.4292
4.8104,-44.4412
4.8244,-44.4668
4.8611,-44.5654
4.8627,-44.5695
4.8984,-44.6556
4.8984,-44.6556
4.8984,-44.6556
4.9061,-44.6845
4.9097,-44.6957
4.9244,-44.7350
4.9440,-44.8254
4.9454,-44.8311
4.9454,-44.8311
4.9663,-44.9089
4.9718,-44.9511
4.9736,-44.9612
4.9852,-45.0146
4.9909,-45.0942
4.9916,-45.1016
4.9916,-45.1016
5.0005,-45.1689
5.0005,-45.2241
5.0008,-45.2330
5.0056,-45.3000
5.0056,-45.3000
5.0008,-45.3670
5.0005,-45.3759
5.0005,-45.4311
5.0005,-45.4311
4.9916,-45.4985
4.9909,-45.5058
4.9852,-45.5854
4.9736,-45.6388
4.9718,-45.6489
4.9663,-45.6911
4.9454,-45.7689
4.9440,-45.7746
4.9244,-45.8650
4.9244,-45.8650
4.9097,-45.9043
4.9061,-45.9155
4.8984,-45.9444
4.8984,-45.9444
4.8627,-46.0305
4.8611,-46.0346
4.8244,-46.1332
4.8104,-46.1588
4.8046,-46.1708
4.7980,-46.1867
4.7980,-46.1867
4.7451,-46.2783
4.7437,-46.2809
4.6872,-46.3843
4.6872,-46.3843
4.6773,-46.3975
4.6692,-46.4098
4.6677,-46.4124
4.6669,-46.4138
4.6669,-46.4138
4.6669,-46.4138
4.5948,-46.5078
4.5939,-46.5090
4.5157,-46.6134
4.5157,-46.6134
4.5157,-46.6134
4.5157,-46.6134
4.5157,-46.6134
4.3134,-46.8157
4.3134,-46.8157
4.3134,-46.8157
4.2088,-46.8940
4.2079,-46.8947
4.1138,-46.9669
4.1098,-46.9692
4.0975,-46.9773
4.0843,-46.9872
3.9809,-47.0437
3.9783,-47.0451
3.8867,-47.0980
3.8867,-47.0980
3.8708,-47.1046
3.8588,-47.1104
3.8332,-47.1244
3.8332,-47.1244
3.8332,-47.1244
3.7346,-47.1611
3.7305,-47.1627
3.6444,-47.1984
3.6155,-47.2061
3.6043,-47.2097
3.5650,-47.2244
3.4746,-47.2440
3.4689,-47.2454
3.3911,-47.2663
3.3911,-47.2663
3.3911,-47.2663
3.3695,-47.2691
3.3489,-47.2718
3.3387,-47.2736
3.2854,-47.2852
3.2854,-47.2852
3.2058,-47.2909
3.1984,-47.2916
3.1311,-47.3005
3.1311,-47.3005
3.0759,-47.3005
3.0670,-47.3008
3.0000,-47.3056
3.0000,-47.3056
2.9330,-47.3008
2.9241,-47.3005
2.8689,-47.3005
2.8016,-47.2916
2.7942,-47.2909
2.7146,-47.2852
2.7146,-47.2852
2.6613,-47.2736
2.6511,-47.2718
2.6089,-47.2663
2.5311,-47.2454
2.5254,-47.2440
2.4350,-47.2244
2.4349,-47.2244
2.3957,-47.2097
2.3845,-47.2061
2.3556,-47.1984
2.3556,-47.1984
2.2695,-47.1627
2.2654,-47.1611
2.1668,-47.1244
2.1668,-47.1244
2.1412,-47.1104
2.1292,-47.1046
2.1133,-47.0980
2.1133,-47.0980
2.0217,-47.0451
2.0191,-47.0437
1.9157,-46.9872
1.9025,-46.9773
1.8902,-46.9692
1.8862,-46.9669
1.8862,-46.9669
1.7922,-46.8948
1.7910,-46.8939
1.6866,-46.8157
1.6866,-46.8157
1.4843,-46.6134
1.4843,-46.6134
1.4061,-46.5090
1.4052,-46.5078
1.3331,-46.4138
1.3331,-46.4138
1.3308,-46.4098
1.3227,-46.3975
1.3128,-46.3843
1.2563,-46.2809
1.2549,-46.2783
1.2020,-46.1867
1.1954,-46.1708
1.1896,-46.1588
1.1756,-46.1332
1.1756,-46.1332
1.1389,-46.0346
1.1372,-46.0305
1.1016,-45.9444
1.1016,-45.9444
1.0939,-45.9155
1.0903,-45.9043
1.0756,-45.8651
1.0756,-45.8650
1.0560,-45.7746
1.0546,-45.7689
1.0337,-45.6911
1.0282,-45.6489
1.0264,-45.6387
1.0148,-45.5854
1.0148,-45.5854
1.0091,-45.5058
1.0084,-45.4984
0.9995,-45.4311
0.9995,-45.3759
0.9992,-45.3670
0.9944,-45.3000
0.0000,-45.3000
0.0000,-47.8760
0.0197,-47.9430
0.0725,-47.9888
0.1240,-48.0000
57.8760,-48.0000
Z" /> 
</g> 
</svg>
